<?xml version="1.0" encoding="UTF-8" standalone="no"?>
<svg
   xml:space="preserve"
   viewBox="0 0 297 110"
   version="1.1"
   id="svg1462"
   sodipodi:docname="adhd-dopamine-myth.svg"
   inkscape:version="1.2.1 (9c6d41e4, 2022-07-14)"
   xmlns:inkscape="http://www.inkscape.org/namespaces/inkscape"
   xmlns:sodipodi="http://sodipodi.sourceforge.net/DTD/sodipodi-0.dtd"
   xmlns="http://www.w3.org/2000/svg"
   xmlns:svg="http://www.w3.org/2000/svg"><defs
   id="defs1466" /><sodipodi:namedview
   id="namedview1464"
   pagecolor="#ffffff"
   bordercolor="#000000"
   borderopacity="0.25"
   inkscape:showpageshadow="2"
   inkscape:pageopacity="0.0"
   inkscape:pagecheckerboard="0"
   inkscape:deskcolor="#d1d1d1"
   showgrid="false"
   inkscape:zoom="2.4364078"
   inkscape:cx="51.51026"
   inkscape:cy="45.353655"
   inkscape:window-width="1499"
   inkscape:window-height="945"
   inkscape:window-x="69"
   inkscape:window-y="70"
   inkscape:window-maximized="0"
   inkscape:current-layer="svg1462" />
  <rect
   width="296.752"
   height="109.811"
   x=".319"
   y=".094"
   fill="#99f5fa"
   paint-order="stroke fill markers"
   rx="0"
   ry="0"
   id="rect1398" />
  
  
  
  
  
  
  
  
  
  
  
  
  
  
  
  
<path
   style="fill:#ffffff;stroke:#000000;stroke-width:6;stroke-linecap:square;stroke-linejoin:bevel;stroke-dasharray:none;paint-order:stroke fill markers"
   d="m 220.15431,17.365214 c -6.33249,-5.756044 -11.28642,-1.172903 -16.52114,1.3043 -5.96059,0.177219 -12.41421,-2.603793 -16.73853,7.391038 -6.80859,-0.41148 -10.86821,4.331371 -13.04301,12.60824 -7.20223,4.555166 -7.22077,10.457274 -5.2172,16.738527 -1.00841,21.853063 17.92631,17.97526 23.47742,16.738526 4.81128,16.718547 19.23307,12.293959 32.39013,10.651789 8.73638,12.729557 26.90445,16.433877 35.21612,-1.086917 4.50485,-3.942413 11.82934,-4.414494 9.34749,-16.95591 5.48491,-8.86257 -2.30832,-16.618627 -10.43441,-24.346947 0.53982,-6.348907 -5.68455,-10.238111 -11.30394,-14.347308 -1.18542,-5.166254 -6.65057,-4.340875 -10.4344,-5.869353 -4.75099,-3.261856 -9.19201,-7.391632 -16.73853,-2.825985 z"
   id="path1801"
   sodipodi:nodetypes="ccccccccccccc" /><path
   style="fill:none;stroke:#000000;stroke-width:2;stroke-linecap:square;stroke-linejoin:bevel;stroke-dasharray:none;paint-order:stroke fill markers"
   d="m 221.45861,15.305477 c -3.07762,1.461087 -4.43145,4.183743 -5.86935,7.059556"
   id="path2527"
   sodipodi:nodetypes="cc" /><path
   style="fill:none;stroke:#000000;stroke-width:2;stroke-linecap:square;stroke-linejoin:bevel;stroke-dasharray:none;paint-order:stroke fill markers"
   d="m 191.89446,73.450145 0.65215,-6.086736 8.69534,-11.30394 1.73907,-5.217203"
   id="path2529" /><path
   style="fill:none;stroke:#000000;stroke-width:2;stroke-linecap:square;stroke-linejoin:bevel;stroke-dasharray:none;paint-order:stroke fill markers"
   d="m 245.58818,44.538146 c -1.30054,4.247375 -3.788,7.477393 -9.13011,8.260571"
   id="path2531"
   sodipodi:nodetypes="cc" /><path
   style="fill:none;stroke:#000000;stroke-width:2;stroke-linecap:square;stroke-linejoin:bevel;stroke-dasharray:none;paint-order:stroke fill markers"
   d="m 229.71918,31.495138 c 0.90878,4.743193 2.02294,9.281001 8.04319,8.912722"
   id="path2533"
   sodipodi:nodetypes="cc" /><path
   style="fill:none;stroke:#000000;stroke-width:2;stroke-linecap:square;stroke-linejoin:bevel;stroke-dasharray:none;paint-order:stroke fill markers"
   d="m 212.54589,30.842988 c 3.38838,0.06917 6.58797,0.893528 11.08656,-3.478135"
   id="path2535"
   sodipodi:nodetypes="cc" /><path
   style="fill:none;stroke:#000000;stroke-width:2;stroke-linecap:square;stroke-linejoin:bevel;stroke-dasharray:none;paint-order:stroke fill markers"
   d="m 196.6769,44.755529 c 4.29309,6.605245 9.33186,6.12649 14.78207,1.739068"
   id="path2537"
   sodipodi:nodetypes="cc" /><path
   style="fill:none;stroke:#000000;stroke-width:2;stroke-linecap:square;stroke-linejoin:bevel;stroke-dasharray:none;paint-order:stroke fill markers"
   d="m 183.19912,59.754988 c 0.8324,6.646684 5.11998,5.691954 8.69534,6.30412"
   id="path2539"
   sodipodi:nodetypes="cc" /><path
   style="fill:none;stroke:#000000;stroke-width:2;stroke-linecap:square;stroke-linejoin:bevel;stroke-dasharray:none;paint-order:stroke fill markers"
   d="m 203.41578,64.972191 c 0.29973,2.922101 1.45241,6.299567 7.94014,7.53403"
   id="path2541"
   sodipodi:nodetypes="cc" /><path
   style="fill:none;stroke:#000000;stroke-width:2;stroke-linecap:square;stroke-linejoin:bevel;stroke-dasharray:none;paint-order:stroke fill markers"
   d="m 209.93729,75.62398 c 2.68568,-4.229901 5.29479,-8.67035 10.23598,-6.697614 2.70664,-0.610776 5.24284,-1.90333 7.37208,-4.823709 4.25652,0.794791 8.40587,1.160886 11.52132,-2.608602"
   id="path2543"
   sodipodi:nodetypes="cccc" /><path
   style="fill:none;stroke:#000000;stroke-width:2;stroke-linecap:square;stroke-linejoin:bevel;stroke-dasharray:none;paint-order:stroke fill markers"
   d="m 183.85127,63.885273 c -2.53409,-0.0061 -5.13572,0.190326 -6.73888,-2.608601"
   id="path2545"
   sodipodi:nodetypes="cc" /><path
   style="fill:none;stroke:#000000;stroke-width:2;stroke-linecap:square;stroke-linejoin:bevel;stroke-dasharray:none;paint-order:stroke fill markers"
   d="m 217.88322,31.031715 c -0.36069,2.41092 0.16096,4.11597 1.40156,5.245859"
   id="path2547"
   sodipodi:nodetypes="cc" /><path
   style="fill:none;stroke:#000000;stroke-width:2;stroke-linecap:square;stroke-linejoin:bevel;stroke-dasharray:none;paint-order:stroke fill markers"
   d="m 231.89302,38.451409 c -1.6177,0.990902 -3.03135,2.185851 -3.69552,4.130286"
   id="path2549"
   sodipodi:nodetypes="cc" /><path
   style="fill:none;stroke:#000000;stroke-width:2;stroke-linecap:square;stroke-linejoin:bevel;stroke-dasharray:none;paint-order:stroke fill markers"
   d="m 234.38149,64.857855 c 1.02656,3.673738 3.84741,5.535225 6.42425,6.418456"
   id="path2551"
   sodipodi:nodetypes="cc" /><path
   style="fill:none;stroke:#000000;stroke-width:2;stroke-linecap:square;stroke-linejoin:bevel;stroke-dasharray:none;paint-order:stroke fill markers"
   d="m 204.28532,69.754627 c -2.77066,0.161157 -4.14138,1.955582 -4.99982,4.347669"
   id="path2553"
   sodipodi:nodetypes="cc" /><path
   style="fill:none;stroke:#000000;stroke-width:2;stroke-linecap:square;stroke-linejoin:bevel;stroke-dasharray:none;paint-order:stroke fill markers"
   d="m 224.08623,83.789471 c 1.96254,-1.672697 3.33133,-3.545106 4.76342,-4.687356"
   id="path2555"
   sodipodi:nodetypes="cc" /><path
   style="fill:none;stroke:#000000;stroke-width:2;stroke-linecap:square;stroke-linejoin:bevel;stroke-dasharray:none;paint-order:stroke fill markers"
   d="m 231.37934,91.463699 4.11721,10.152101"
   id="path2627"
   sodipodi:nodetypes="cc" /><path
   style="fill:none;stroke:#000000;stroke-width:2;stroke-linecap:square;stroke-linejoin:bevel;stroke-dasharray:none;paint-order:stroke fill markers"
   d="m 216.32778,85.673393 2.63754,3.403624 4.4915,4.36674 4.92818,8.671093"
   id="path2629"
   sodipodi:nodetypes="cccc" /><path
   id="text2722"
   style="font-weight:bold;font-size:81.5242px;line-height:1.03;font-family:'Comic Sans MS';-inkscape-font-specification:'Comic Sans MS Bold';fill:#000000;stroke:#ffffff;stroke-width:2.54763;stroke-linecap:square;stroke-linejoin:bevel;stroke-dasharray:none;paint-order:stroke fill markers"
   d="M 263.51993 14.538821 C 260.91922 14.538821 257.65381 15.481893 253.72621 17.366077 C 249.0821 19.568714 246.7604 21.995882 246.7604 24.649662 C 246.7604 26.056165 247.29148 27.343017 248.35299 28.51068 C 249.44104 29.651805 250.76772 30.222908 252.33345 30.222908 C 253.36843 30.222908 255.1334 29.413222 257.62795 27.794416 C 260.12251 26.149073 262.08688 25.326237 263.51993 25.326237 C 266.22678 25.326237 268.82684 26.413955 271.32139 28.590055 C 273.84248 30.739616 275.10202 33.048437 275.10202 35.516453 C 275.10202 37.612939 273.39036 39.963098 269.96698 42.563803 C 266.80898 44.819516 263.65221 47.060699 260.49421 49.289874 C 257.07083 51.917116 255.35917 54.291685 255.35917 56.414709 C 255.35917 57.84775 255.92972 59.123342 257.07085 60.237929 C 258.21198 61.325979 259.53866 61.868893 261.05131 61.868893 C 262.5905 61.868893 263.99614 61.166294 265.26996 59.759791 C 266.67646 58.194061 268.71979 56.482642 271.40011 54.624996 C 275.59308 51.6793 277.78251 50.138826 277.96828 50.006137 C 283.40853 45.786627 286.12903 40.956701 286.12903 35.516453 C 286.12903 30.023128 283.79351 25.153754 279.12285 20.907706 C 274.47874 16.661658 269.27863 14.538821 263.51993 14.538821 z M 259.41835 65.412412 C 257.26879 65.412412 255.55713 66.353594 254.28332 68.237777 C 253.2218 69.77697 252.69073 71.44894 252.69073 73.25351 C 252.69073 74.81924 253.3679 76.132391 254.72133 77.193903 C 255.9686 78.149264 257.3486 78.62832 258.86125 78.62832 C 260.85159 78.62832 262.40534 77.724697 263.51993 75.920126 C 264.39567 74.513623 264.83194 73.001338 264.83194 71.382532 C 264.83194 69.869878 264.43515 68.556727 263.63902 67.442139 C 262.63058 66.088712 261.22292 65.412412 259.41835 65.412412 z "
   transform="scale(0.96761688,1.0334669)" /><g
   id="g3665"
   style="opacity:1;stroke:#000000"
   transform="matrix(0.87104826,0,0,0.87104826,-47.551313,-15.218781)"><path
     style="fill:none;stroke:#000000;stroke-width:2;stroke-linecap:square;stroke-linejoin:bevel;stroke-dasharray:none;paint-order:stroke fill markers"
     d="m 128.74706,30.694662 -16.02944,9.378925 v 19.098901 l 16.37049,9.037873 16.02943,-9.208399 -0.17052,-19.269427 z"
     id="path3581" /><path
     style="fill:none;stroke:#000000;stroke-width:2;stroke-linecap:square;stroke-linejoin:bevel;stroke-dasharray:none;paint-order:stroke fill markers"
     d="m 112.5471,39.903061 -9.2084,-5.456829"
     id="path3646" /><path
     style="fill:none;stroke:#000000;stroke-width:2;stroke-linecap:square;stroke-linejoin:bevel;stroke-dasharray:none;paint-order:stroke fill markers"
     d="m 112.5471,58.831436 -9.03788,5.456829"
     id="path3648" /><path
     style="fill:none;stroke:#000000;stroke-width:2;stroke-linecap:square;stroke-linejoin:bevel;stroke-dasharray:none;paint-order:stroke fill markers"
     d="m 145.11754,40.073587 16.54102,-9.54945 15.8589,9.890502 9.2084,-5.968407"
     id="path3650" /><path
     style="fill:none;stroke:#000000;stroke-width:2;stroke-linecap:square;stroke-linejoin:bevel;stroke-dasharray:none;paint-order:stroke fill markers"
     d="m 115.61656,42.119898 0.17053,13.983124 v 0"
     id="path3652" /><path
     style="fill:none;stroke:#000000;stroke-width:2;stroke-linecap:square;stroke-linejoin:bevel;stroke-dasharray:none;paint-order:stroke fill markers"
     d="m 129.59969,34.616758 12.10734,6.991562"
     id="path3654" /><path
     style="fill:none;stroke:#000000;stroke-width:2;stroke-linecap:square;stroke-linejoin:bevel;stroke-dasharray:none;paint-order:stroke fill markers"
     d="m 141.5365,57.467229 -11.59576,7.162088"
     id="path3656" /></g><g
   aria-label="Myth!"
   id="text4546"
   style="font-weight:bold;font-size:32.9508px;line-height:1.03;font-family:'Comic Sans MS';-inkscape-font-specification:'Comic Sans MS Bold';opacity:1;fill:#ff0000;stroke:#ffffff;stroke-width:3.08914;stroke-linecap:square;stroke-linejoin:bevel;paint-order:stroke fill markers"
   transform="matrix(1.402268,0,0,1.402268,6.8010532,-46.037544)"><path
     d="m 15.968256,85.096103 q -0.724016,2.60646 -2.027246,7.867648 -0.305696,1.818086 -0.595303,3.620083 -0.65966,2.284675 -2.429478,2.284675 -1.1101588,0 -1.7537292,-0.756195 -0.5470348,-0.643571 -0.5470348,-1.52848 0,-2.60646 1.1101589,-6.355257 1.6571941,-5.615151 1.7859081,-6.226543 0.466588,-2.477746 0.949266,-4.955492 0.724017,-3.410923 1.560658,-4.537171 0.852731,-1.142337 2.139871,-1.142337 1.464123,0 2.155961,1.480212 0.64357,1.399765 1.383676,5.727776 0.707928,4.199296 2.107693,9.042163 1.834176,-4.77851 3.410923,-10.490197 l 0.900999,-3.700529 q 0.868819,-2.300764 2.686906,-2.300764 1.753729,0 2.60646,2.670817 0.353963,1.07798 0.756195,4.022314 0.933177,6.854025 2.349032,11.745159 1.431944,4.971581 1.431944,5.405991 0,0.949267 -0.756196,1.592837 -0.707927,0.579213 -1.592836,0.579213 -1.753729,0 -2.60646,-2.509924 l -0.900999,-3.893601 q -0.772284,-2.896066 -1.673282,-8.318147 -0.724017,2.155961 -2.3973,6.773578 l -0.965356,2.960424 q -0.595302,1.753729 -1.238872,2.879977 -0.852731,1.496301 -2.381211,1.496301 -1.51239,0 -2.316853,-1.785907 L 18.220752,93.752125 Q 16.96579,89.633274 15.968256,85.096103 Z"
     id="path5444" /><path
     d="m 54.180246,84.211194 q -1.753729,3.652262 -5.550794,11.471642 -2.059425,4.199296 -3.137405,6.966644 -0.337875,0.99754 -1.061892,2.96043 -0.579213,1.51239 -2.059425,1.51239 -0.917087,0 -1.608926,-0.5953 -0.691838,-0.59531 -0.691838,-1.49631 0,-1.4963 3.410923,-8.865177 -1.769818,-3.491369 -5.615151,-10.281036 -0.386142,-0.611392 -0.788374,-1.238873 -0.43441,-0.740106 -0.43441,-1.351498 0,-0.86882 0.691838,-1.528479 0.691838,-0.65966 1.592837,-0.65966 1.061891,0 1.657194,0.788374 2.284674,3.04087 5.325544,9.154788 1.721551,-3.813154 2.091604,-4.601528 1.142337,-2.397299 2.236407,-4.215386 0.691838,-1.158426 1.898532,-1.158426 0.900999,0 1.608926,0.611392 0.707928,0.611391 0.707928,1.496301 0,0.466588 -0.273518,1.029712 z"
     id="path5446" /><path
     d="m 67.759581,84.854764 q -0.337874,0 -0.804463,-0.01609 -0.450499,-0.03218 -0.788374,-0.03218 -0.659659,0 -1.528479,0.128714 0.289606,6.50006 0.289606,8.495128 0,0.209161 0.01609,0.788374 0.01609,0.563124 0.01609,0.917088 0,3.700529 -2.332943,3.700529 -0.884909,0 -1.528479,-0.547035 -0.707927,-0.579213 -0.707927,-1.448033 0,-0.579213 0.04827,-1.73764 0.04827,-1.158426 0.04827,-1.73764 0,-1.9468 -0.289607,-8.334236 -0.997534,-0.04827 -3.02478,-0.257428 -2.011158,-0.225249 -2.011158,-2.091603 0,-0.900999 0.611392,-1.52848 0.611392,-0.627481 1.576748,-0.627481 0.595302,0 2.735174,0.193071 -0.01609,-0.514856 -0.08045,-1.705461 -0.06436,-1.029713 -0.06436,-1.592837 0,-0.900999 0.65966,-1.496301 0.659659,-0.595303 1.592836,-0.595303 2.381211,0 2.381211,4.006226 l -0.03218,1.319319 q 0.997534,-0.144803 1.625015,-0.144803 1.850265,0 2.526014,0.241338 1.287141,0.4505 1.287141,1.96289 0,0.917088 -0.627481,1.52848 -0.627481,0.611391 -1.592837,0.611391 z"
     id="path5448" /><path
     d="m 76.705209,83.084946 q 1.174516,-1.158427 2.509924,-1.721551 1.351498,-0.579213 2.879977,-0.579213 2.751264,0 3.957958,1.544569 0.900998,1.158426 1.09407,3.555726 0.08045,1.978979 0.176981,3.974047 0.257429,2.590371 0.321786,3.153495 0.225249,1.785907 0.547034,3.121316 0.08045,0.337874 0.08045,0.595302 0,0.900999 -0.691838,1.480212 -0.675749,0.595303 -1.592837,0.595303 -1.625015,0 -2.107693,-1.608926 -0.386142,-1.30323 -0.707927,-3.668351 -0.289607,-2.268586 -0.289607,-3.732708 0,-0.402232 0.03218,-1.206695 0.04827,-0.820552 0.04827,-1.222783 0,-1.190605 -0.03218,-1.383676 -0.144804,-0.88491 -0.836642,-0.88491 -1.785907,0 -3.233941,1.641105 -0.740106,0.820552 -2.027246,3.121316 0,5.824312 -0.563124,7.014917 -0.627481,1.319319 -1.995068,1.319319 -0.900999,0 -1.608926,-0.595303 -0.691838,-0.611391 -0.691838,-1.496301 0,-0.305696 0.176981,-0.85273 0.112625,-0.353964 0.193072,-4.3441 -0.08045,-3.233941 0.03218,-10.763714 l 0.03218,-0.530946 q 0.09653,-1.898532 0.09653,-2.542103 0,-0.498767 -0.160892,-1.464122 -0.144804,-0.981445 -0.144804,-1.480212 0,-0.917088 0.65966,-1.496301 0.659659,-0.595303 1.592836,-0.595303 1.592837,0 2.139872,1.705462 0.305696,0.965355 0.305696,2.960423 0,1.608926 -0.09654,3.26612 -0.09654,1.576747 -0.09654,3.121316 z"
     id="path5450" /><path
     d="m 93.212791,93.028108 q -0.900998,0 -1.496301,-0.563124 -0.579213,-0.563124 -0.579213,-1.415855 0,-0.627481 -0.04827,-1.866354 -0.03218,-1.254962 -0.03218,-1.882443 0,-2.220318 0.03218,-6.660953 0.04827,-4.440636 0.04827,-6.660953 0,-0.852731 0.595302,-1.415855 0.595303,-0.579214 1.480212,-0.579214 0.884909,0 1.480212,0.579214 0.595302,0.563124 0.595302,1.415855 v 17.070703 q 0,0.852731 -0.595302,1.415855 -0.579213,0.563124 -1.480212,0.563124 z m -0.04827,5.840401 q -0.965355,0 -1.801997,-1.029713 -0.756195,-0.949266 -0.756195,-1.769818 0,-0.836642 0.65966,-1.399766 0.659659,-0.563124 1.496301,-0.563124 0.965355,0 1.785908,1.029713 0.756195,0.949266 0.756195,1.753729 0,0.820552 -0.65966,1.399765 -0.64357,0.579214 -1.480212,0.579214 z"
     id="path5452" /></g><path
   style="fill:none;stroke:#000000;stroke-width:2;stroke-linecap:square;stroke-linejoin:bevel;stroke-dasharray:none;paint-order:stroke fill markers"
   d="m 190.9975,33.128319 c -4.2284,2.333319 -8.1979,4.798297 -5.98292,10.408369"
   id="path5559"
   sodipodi:nodetypes="cc" /><path
   id="text10061"
   style="font-weight:bold;font-size:15.5137px;line-height:1.03;font-family:'Comic Sans MS';-inkscape-font-specification:'Comic Sans MS Bold';opacity:1;fill:#000000;stroke:none;stroke-width:1.45441;stroke-linecap:square;stroke-linejoin:bevel;stroke-dasharray:none;paint-order:stroke fill markers"
   d="M 17.59375 7.0371094 C 17.300848 7.0371094 17.056326 7.1323177 16.859375 7.3242188 C 16.662424 7.5161198 16.564453 7.7515454 16.564453 8.0292969 C 16.564453 8.6757004 16.549831 9.6502179 16.519531 10.953125 C 16.489231 12.250982 16.472656 13.222737 16.472656 13.869141 C 16.472656 14.379193 16.428791 15.141195 16.337891 16.15625 C 16.25204 17.171305 16.208984 17.93526 16.208984 18.445312 C 16.208984 18.723064 16.306955 18.956536 16.503906 19.148438 C 16.700857 19.340339 16.94538 19.4375 17.238281 19.4375 C 17.531183 19.4375 17.775705 19.340339 17.972656 19.148438 C 18.169607 18.956536 18.269531 18.723064 18.269531 18.445312 C 18.269531 17.99586 18.29325 17.417941 18.34375 16.710938 C 18.40435 15.907983 18.441072 15.333636 18.451172 14.990234 C 19.420777 14.808433 20.38977 14.629876 21.359375 14.453125 C 22.525931 14.241024 23.505974 14.117381 24.298828 14.082031 C 24.288728 14.304232 24.283203 14.559805 24.283203 14.847656 C 24.283203 15.216308 24.297825 15.768555 24.328125 16.505859 C 24.363475 17.243163 24.380859 17.795411 24.380859 18.164062 C 24.380859 18.436764 24.48988 18.666665 24.707031 18.853516 C 24.924182 19.045417 25.182517 19.142578 25.480469 19.142578 C 25.77337 19.142578 26.017893 19.045417 26.214844 18.853516 C 26.411795 18.661615 26.509766 18.428142 26.509766 18.150391 C 26.509766 17.781739 26.483285 17.230301 26.427734 16.498047 C 26.372184 15.765793 26.34375 15.216308 26.34375 14.847656 C 26.34375 14.367904 26.369422 13.655293 26.419922 12.710938 C 26.470422 11.766582 26.496094 11.053971 26.496094 10.574219 C 26.496094 10.432818 26.507953 10.21673 26.533203 9.9238281 C 26.563503 9.6258765 26.578125 9.4050726 26.578125 9.2636719 C 26.578125 8.9909704 26.629468 8.6713864 26.730469 8.3027344 C 26.750669 8.226984 26.759766 8.1499692 26.759766 8.0742188 C 26.759766 7.7863672 26.649936 7.5473698 26.427734 7.3554688 C 26.220683 7.1787178 25.982495 7.0898438 25.714844 7.0898438 C 25.356292 7.0898438 25.036708 7.400331 24.753906 8.0214844 C 24.526655 8.5264871 24.406584 8.9744291 24.396484 9.3632812 C 24.351034 10.842939 24.319028 11.751492 24.298828 12.089844 C 23.475674 12.120144 22.495631 12.235499 21.359375 12.4375 L 18.451172 12.982422 C 18.446122 12.805671 18.457981 12.552052 18.488281 12.21875 C 18.523631 11.860198 18.541016 11.616485 18.541016 11.490234 C 18.541016 11.106432 18.554828 10.531276 18.580078 9.7636719 C 18.610378 8.9910177 18.625 8.413099 18.625 8.0292969 C 18.625 7.7515454 18.527029 7.5161198 18.330078 7.3242188 C 18.133127 7.1323177 17.886652 7.0371094 17.59375 7.0371094 z M 33.904297 7.3320312 C 32.071137 7.3320312 30.550707 8.1279914 29.34375 9.71875 C 28.268094 11.132758 27.730469 12.697053 27.730469 14.414062 C 27.730469 15.87352 28.291003 17.063317 29.412109 17.982422 C 30.462515 18.840927 31.733708 19.271484 33.228516 19.271484 C 35.066726 19.271484 36.557913 18.464474 37.699219 16.853516 C 38.689024 15.459708 39.183594 13.904509 39.183594 12.1875 C 39.183594 10.566441 38.743939 9.3529263 37.865234 8.5449219 C 36.98653 7.7369175 35.666756 7.3320312 33.904297 7.3320312 z M 33.904297 9.3847656 C 35.060753 9.3847656 35.86581 9.5826604 36.320312 9.9765625 C 36.795015 10.390665 37.03125 11.126994 37.03125 12.1875 C 37.03125 13.455057 36.691519 14.587176 36.009766 15.582031 C 35.267412 16.672837 34.339522 17.216797 33.228516 17.216797 C 32.27406 17.216797 31.485578 16.96594 30.859375 16.460938 C 30.207921 15.935735 29.880859 15.252367 29.880859 14.414062 C 29.880859 13.171756 30.257312 12.04159 31.009766 11.021484 C 31.81272 9.9306785 32.778141 9.3847656 33.904297 9.3847656 z M 18.210938 36.382812 C 17.918036 36.382812 17.67156 36.479974 17.474609 36.671875 C 17.277658 36.863776 17.179688 37.097248 17.179688 37.375 C 17.179688 38.021404 17.165066 38.995921 17.134766 40.298828 C 17.104465 41.596685 17.089844 42.570393 17.089844 43.216797 C 17.089844 43.72685 17.044025 44.488851 16.953125 45.503906 C 16.867275 46.518962 16.824219 47.280963 16.824219 47.791016 C 16.824219 48.068767 16.92219 48.304193 17.119141 48.496094 C 17.316092 48.687995 17.560614 48.783203 17.853516 48.783203 C 18.146417 48.783203 18.392893 48.687995 18.589844 48.496094 C 18.786795 48.304193 18.884766 48.068767 18.884766 47.791016 C 18.884766 47.341563 18.910437 46.763644 18.960938 46.056641 C 19.021538 45.253686 19.056306 44.681292 19.066406 44.337891 C 20.036012 44.15609 21.005004 43.975579 21.974609 43.798828 C 23.141166 43.586727 24.121208 43.463085 24.914062 43.427734 C 24.903962 43.649936 24.898438 43.905508 24.898438 44.193359 C 24.898438 44.562011 24.915012 45.114259 24.945312 45.851562 C 24.980663 46.588866 24.998047 47.143067 24.998047 47.511719 C 24.998047 47.78442 25.105114 48.014321 25.322266 48.201172 C 25.539417 48.393073 25.797752 48.488281 26.095703 48.488281 C 26.388605 48.488281 26.633127 48.393073 26.830078 48.201172 C 27.027029 48.009271 27.126953 47.773845 27.126953 47.496094 C 27.126953 47.127442 27.098519 46.576004 27.042969 45.84375 C 26.987418 45.111496 26.958984 44.562011 26.958984 44.193359 C 26.958984 43.713607 26.984656 43.000996 27.035156 42.056641 C 27.085657 41.112286 27.111328 40.399674 27.111328 39.919922 C 27.111328 39.778521 27.123187 39.562433 27.148438 39.269531 C 27.178738 38.97158 27.193359 38.752729 27.193359 38.611328 C 27.193359 38.338627 27.244703 38.017089 27.345703 37.648438 C 27.365903 37.572687 27.376953 37.497625 27.376953 37.421875 C 27.376953 37.134023 27.26517 36.893073 27.042969 36.701172 C 26.835918 36.524421 26.59773 36.435547 26.330078 36.435547 C 25.971526 36.435547 25.651942 36.746034 25.369141 37.367188 C 25.141889 37.87219 25.021819 38.320132 25.011719 38.708984 C 24.966269 40.188642 24.934263 41.097195 24.914062 41.435547 C 24.090908 41.465847 23.110866 41.583155 21.974609 41.785156 L 19.066406 42.330078 C 19.061356 42.153327 19.073215 41.897755 19.103516 41.564453 C 19.138866 41.205901 19.15625 40.964141 19.15625 40.837891 C 19.15625 40.454089 19.170062 39.876979 19.195312 39.109375 C 19.225613 38.336721 19.240234 37.758802 19.240234 37.375 C 19.240234 37.097248 19.142264 36.863776 18.945312 36.671875 C 18.748361 36.479974 18.503839 36.382812 18.210938 36.382812 z M 34.519531 36.679688 C 32.686371 36.679688 31.165941 37.473695 29.958984 39.064453 C 28.883329 40.478461 28.345703 42.044709 28.345703 43.761719 C 28.345703 45.221177 28.906238 46.410973 30.027344 47.330078 C 31.077749 48.188583 32.350895 48.617188 33.845703 48.617188 C 35.683913 48.617188 37.173147 47.812131 38.314453 46.201172 C 39.304258 44.807364 39.798828 43.252166 39.798828 41.535156 C 39.798828 39.914097 39.359174 38.698629 38.480469 37.890625 C 37.601764 37.082621 36.281991 36.679688 34.519531 36.679688 z M 34.519531 38.732422 C 35.675988 38.732422 36.481044 38.928363 36.935547 39.322266 C 37.410249 39.736368 37.648438 40.474651 37.648438 41.535156 C 37.648438 42.802713 37.306754 43.932879 36.625 44.927734 C 35.882646 46.01854 34.956709 46.564453 33.845703 46.564453 C 32.891248 46.564453 32.100813 46.311643 31.474609 45.806641 C 30.823156 45.281438 30.496094 44.600023 30.496094 43.761719 C 30.496094 42.519412 30.872546 41.387293 31.625 40.367188 C 32.427954 39.276382 33.393375 38.732422 34.519531 38.732422 z " /><path
   id="text10069"
   style="font-weight:bold;font-size:15.5137px;line-height:1.03;font-family:'Comic Sans MS';-inkscape-font-specification:'Comic Sans MS Bold';opacity:1;fill:#000000;stroke:none;stroke-width:1.45441;stroke-linecap:square;stroke-linejoin:bevel;stroke-dasharray:none;paint-order:stroke fill markers"
   d="M 131.17578 8.8847656 C 130.88288 8.8847656 130.63836 8.979974 130.44141 9.171875 C 130.24446 9.363776 130.14453 9.5992016 130.14453 9.8769531 C 130.14453 10.523357 130.12991 11.497874 130.09961 12.800781 C 130.06931 14.098638 130.05469 15.070393 130.05469 15.716797 C 130.05469 16.22685 130.00887 16.988851 129.91797 18.003906 C 129.83212 19.018962 129.78906 19.780963 129.78906 20.291016 C 129.78906 20.568767 129.88703 20.804193 130.08398 20.996094 C 130.28094 21.187995 130.52546 21.283203 130.81836 21.283203 C 131.11126 21.283203 131.35774 21.187995 131.55469 20.996094 C 131.75164 20.804193 131.84961 20.568767 131.84961 20.291016 C 131.84961 19.841563 131.87528 19.263644 131.92578 18.556641 C 131.98638 17.753686 132.02115 17.181292 132.03125 16.837891 C 133.00086 16.65609 133.96985 16.475579 134.93945 16.298828 C 136.10601 16.086727 137.08605 15.963085 137.87891 15.927734 C 137.86881 16.149936 137.86328 16.405508 137.86328 16.693359 C 137.86328 17.062011 137.87986 17.616212 137.91016 18.353516 C 137.94551 19.09082 137.96289 19.643067 137.96289 20.011719 C 137.96289 20.28442 138.07191 20.514321 138.28906 20.701172 C 138.50621 20.893073 138.7626 20.988281 139.06055 20.988281 C 139.35345 20.988281 139.59797 20.893073 139.79492 20.701172 C 139.99187 20.509271 140.0918 20.273845 140.0918 19.996094 C 140.0918 19.627442 140.06336 19.077957 140.00781 18.345703 C 139.95226 17.613449 139.92383 17.062011 139.92383 16.693359 C 139.92383 16.213607 139.9495 15.500996 140 14.556641 C 140.0505 13.612286 140.07617 12.901628 140.07617 12.421875 C 140.07617 12.280474 140.08803 12.062433 140.11328 11.769531 C 140.14358 11.47158 140.16016 11.252729 140.16016 11.111328 C 140.16016 10.838627 140.20955 10.517089 140.31055 10.148438 C 140.33075 10.072687 140.3418 9.9976254 140.3418 9.921875 C 140.3418 9.6340234 140.23001 9.3930729 140.00781 9.2011719 C 139.80076 9.0244209 139.56257 8.9375 139.29492 8.9375 C 138.93637 8.9375 138.61679 9.2479873 138.33398 9.8691406 C 138.10673 10.374143 137.98862 10.820132 137.97852 11.208984 C 137.93307 12.688642 137.89911 13.597195 137.87891 13.935547 C 137.05575 13.965847 136.07571 14.083155 134.93945 14.285156 L 132.03125 14.830078 C 132.0262 14.653327 132.03806 14.397755 132.06836 14.064453 C 132.10371 13.705901 132.12305 13.464141 132.12305 13.337891 C 132.12305 12.954089 132.13491 12.378932 132.16016 11.611328 C 132.19046 10.838674 132.20508 10.260755 132.20508 9.8769531 C 132.20508 9.5992016 132.10711 9.363776 131.91016 9.171875 C 131.71321 8.979974 131.46868 8.8847656 131.17578 8.8847656 z M 118.23633 8.90625 C 117.90303 8.90625 117.60635 9.0243675 117.34375 9.2617188 C 117.0862 9.49907 116.95703 9.769264 116.95703 10.072266 C 116.95703 10.375267 116.98627 10.828734 117.04688 11.429688 C 117.10748 12.030641 117.13867 12.482155 117.13867 12.785156 C 117.13867 13.103308 117.14696 13.583256 117.16211 14.224609 C 117.17726 14.865963 117.18359 15.345911 117.18359 15.664062 C 117.18359 15.962014 117.1745 16.408003 117.1543 17.003906 C 117.1341 17.599809 117.12305 18.047752 117.12305 18.345703 C 117.12305 18.547704 117.10566 18.852667 117.07031 19.261719 C 117.04001 19.670771 117.02539 19.975733 117.02539 20.177734 C 117.02539 20.465586 117.12336 20.710108 117.32031 20.912109 C 117.54251 21.139361 117.83838 21.253906 118.20703 21.253906 C 118.93424 21.253906 119.29688 20.509289 119.29688 19.019531 C 119.29688 18.620579 119.28778 18.019751 119.26758 17.216797 C 119.25243 16.413843 119.24414 15.813015 119.24414 15.414062 C 119.24414 15.116111 119.25876 14.309101 119.28906 12.996094 C 121.73328 16.157411 123.92879 18.614828 125.87305 20.367188 C 126.31745 20.76614 126.71681 20.966797 127.07031 20.966797 C 127.70662 20.966797 128.07478 20.639735 128.17578 19.988281 C 128.26163 19.442878 128.30469 19.043517 128.30469 18.791016 C 128.30469 18.164812 128.31931 16.56932 128.34961 14.003906 C 128.35971 13.261552 128.36523 12.864144 128.36523 12.808594 C 128.36523 10.26843 127.95401 8.9980469 127.13086 8.9980469 C 126.39356 8.9980469 126.02344 9.346065 126.02344 10.042969 C 126.02344 10.24497 126.04911 10.523451 126.09961 10.876953 C 126.15516 11.275905 126.18912 11.546909 126.19922 11.693359 C 126.24972 12.561964 126.27344 14.242758 126.27344 16.732422 C 126.27344 17.338425 126.27263 17.721212 126.26758 17.882812 C 124.03547 15.817351 121.77123 13.149371 119.47852 9.8769531 C 119.02401 9.2305496 118.61003 8.90625 118.23633 8.90625 z M 143.71289 18.871094 C 143.21642 18.871094 142.73581 18.986432 142.27148 19.21875 C 141.95003 19.379082 141.5728 19.634261 141.14062 19.984375 C 140.96204 20.128347 140.87305 20.300403 140.87305 20.5 C 140.87305 20.686509 140.96204 20.832793 141.14062 20.9375 C 141.28349 21.022574 141.44937 21.064453 141.63867 21.064453 C 141.79583 21.064453 142.08635 20.911092 142.50781 20.603516 C 142.93285 20.292667 143.33429 20.136719 143.71289 20.136719 C 143.92719 20.136719 144.14608 20.199879 144.37109 20.324219 C 144.59611 20.445286 144.70898 20.567067 144.70898 20.691406 C 144.70898 21.169131 144.42761 21.596366 143.86328 21.972656 C 143.38467 22.2606 142.90406 22.550581 142.42188 22.841797 C 141.91112 23.15919 141.54109 23.475576 141.3125 23.792969 C 141.01605 24.205252 140.86719 24.718197 140.86719 25.330078 C 140.86719 25.644199 140.90318 25.876828 140.97461 26.027344 C 141.0889 26.266206 141.30745 26.384766 141.62891 26.384766 C 141.6682 26.384766 141.72578 26.391209 141.80078 26.404297 C 141.87579 26.417385 141.93141 26.423828 141.9707 26.423828 C 142.11 26.423828 142.31873 26.410308 142.59375 26.380859 C 142.86877 26.348138 143.07326 26.332031 143.20898 26.332031 L 144.78516 26.335938 C 144.86731 26.335938 144.99982 26.351411 145.18555 26.380859 C 145.37485 26.407036 145.51422 26.419922 145.60352 26.419922 C 145.81067 26.419922 145.98375 26.350318 146.12305 26.212891 C 146.2552 26.085279 146.32227 25.937727 146.32227 25.767578 C 146.32227 25.531988 146.13513 25.338016 145.76367 25.1875 C 145.46365 25.066433 145.16068 25.005859 144.85352 25.005859 C 144.52492 25.005859 143.98148 25.024554 143.2207 25.060547 C 142.83853 25.089996 142.54801 25.115767 142.35156 25.138672 C 142.40157 24.61841 142.76669 24.155739 143.44531 23.75 C 143.89178 23.494777 144.33869 23.237011 144.78516 22.978516 C 145.25662 22.684028 145.60049 22.381161 145.81836 22.070312 C 146.09695 21.680934 146.23633 21.208599 146.23633 20.652344 C 146.23633 20.102633 145.95267 19.656704 145.38477 19.316406 C 144.8883 19.018646 144.3308 18.871094 143.71289 18.871094 z " /></svg>
