<svg xmlns="http://www.w3.org/2000/svg" xml:space="preserve" viewBox="0 0 297 110">
  <defs>
    <filter id="a" width="1.061" height="1.132" x="-.031" y="-.066" color-interpolation-filters="sRGB">
      <feGaussianBlur stdDeviation="3.025"/>
    </filter>
  </defs>
    <rect width="296.752" height="109.811" x=".319" y=".094" fill="#99f5fa" paint-order="stroke fill markers" rx="0" ry="0"/>
    <path d="M92.027.094a118.704 117.378 0 0 0-62.85 103.357 118.704 117.378 0 0 0 .468 6.453h236.474a118.704 117.378 0 0 0 .467-6.453A118.704 117.378 0 0 0 203.734.094H92.027z" filter="url(#a)" opacity=".124" paint-order="stroke fill markers"/>
    <path fill="#e4e0de" stroke="#000" stroke-linejoin="round" stroke-width="3.493" d="M208.918 110.533c.98-5.163-.139-10.407-2.574-17.842l-5.615-14.9-4.536-12.31-8.853-12.094-41.031-9.285-29.153 7.127-15.765 7.558-10.797 28.72-4.535 11.231c-.235 3.967-.24 7.83.068 11.63" paint-order="stroke fill markers"/>
    <path fill="#e4e0de" stroke="#000" stroke-linecap="round" stroke-linejoin="round" stroke-width="3.493" d="M146.56 19.705c-13.356 0-16.489 6.528-16.489 19.328 0 12.799 3.133 27.022 16.489 27.022 13.356 0 19.786-14.315 19.786-27.114 0-12.8-6.43-19.236-19.786-19.236z" paint-order="stroke fill markers"/>
    <path fill="#e4e0de" stroke="#000" stroke-linecap="round" stroke-linejoin="round" stroke-width="2.62" d="m138.343 25.894-5.954-1.985-5.66 5.22-2.793 4.703.662-7.276-4.63-2.353 6.394-3.307.294-7.791 3.234 2.205 6.321-8.894-.44 3.16 11.098-5.953-1.543 3.822 9.849-6.027-1.103 6.321 4.999-2.646-.588 4.042 4.19 1.765 8.231-.515-5.365 3.16 3.307 2.794 5.954 3.601-5.733-.367 3.307 4.263 2.573 1.985-4.63-.074 2.572 3.014-6.395-1.03-7.423-1.616c-7.206 4.569-14.476 2.006-20.728-.221z" paint-order="stroke fill markers"/>
    <path fill="#e4e0de" stroke="#000" stroke-linecap="round" stroke-linejoin="round" stroke-width="3.493" d="m124.714 61.162-7.343-5.183-6.91-.864-3.023 7.343 9.933 3.887 4.32-.648z" paint-order="stroke fill markers"/>
    <path fill="#fff" stroke="#000" stroke-linecap="round" stroke-linejoin="round" stroke-width="1.746" d="m207.64 95.93-12.958-14.469" paint-order="stroke fill markers"/>
    <path fill="#e4e0de" stroke="#000" stroke-linecap="round" stroke-linejoin="round" stroke-width="2.62" d="m113.032 54.33 7.054-13.649 1.74-3.664 4.397-7.145 4.816-4.49c1.933-1.888 1.845-2.184 2.696.368 2.392-.714 1.94.109 2.015 2.29l-.641 2.748c.542.707 2.131.716 1.374 2.29l-4.763 6.779-5.313 6.778-2.657 7.054-3.48 3.48z" paint-order="stroke fill markers"/>
    <path fill="none" stroke="#000" stroke-linecap="round" stroke-linejoin="round" stroke-width=".873" d="m133.918 24.742-5.771 8.52-6.504 7.419m14.107-10.443-4.122 4.214-8.153 7.97" opacity=".556" paint-order="stroke fill markers"/>
    <path d="m166.874 49.064 21.68 3.708 8.733 13.318 9.808 24.05 2.567 17.686-.57 3.709h-16.83l4.564-10.555-3.423-18.827-3.709-17.115-6.56-1.141H157.46l4.564-5.135 2.852-7.416z" opacity=".111" paint-order="stroke fill markers"/>
    <path fill="#e4e0de" stroke="#000" stroke-linecap="round" stroke-linejoin="round" stroke-width="2.62" d="m174.956 57.628-3.023-4.03-3.664-7.238-1.374-2.84-7.42-8.518-.55-3.298 1.741-.367-1.74-5.038.824-1.832 1.649.183 1.1-.458.64-.64 8.886 10.259 3.39 6.229 4.854 8.885 1.832 5.222z" paint-order="stroke fill markers"/>
    <path fill="none" stroke="#000" stroke-linecap="round" stroke-linejoin="round" stroke-width=".873" d="m159.475 30.971 11.726 11.084m-9.894-17.679 1.924 3.847 10.81 12.641" opacity=".556" paint-order="stroke fill markers"/>
    <g paint-order="stroke fill markers" transform="translate(-40.981 -13.363) scale(1.30627)">
    <path d="M138.453 39.215c-3.213 0-6.55 2.542-6.55 5.68 0 3.136 3.337 5.68 6.55 5.679 3.212 0 6.09-3.643 6.09-6.779s-2.878-4.58-6.09-4.58z"/>
        <ellipse cx="139.872" cy="44.437" fill="#fff" rx="1.924" ry="1.191"/>
  </g>
    <g paint-order="stroke fill markers" transform="translate(-67.611 -19.774) scale(1.4338)">
    <path d="M155.536 40.681c-3.086 0-4.946 2.652-4.946 5.359 0 2.706 1.86 4.443 4.946 4.443 3.086 0 5.588-2.195 5.587-4.901 0-2.707-2.501-4.9-5.587-4.9z"/>
        <ellipse cx="157.185" cy="44.62" fill="#fff" rx="2.015" ry="1.466"/>
  </g>
    <path fill="none" stroke="#000" stroke-linecap="round" stroke-linejoin="round" stroke-width=".535" d="m140.543 29.43-.442 2.018c-1.877 4.515 2.782 6.399 1.347-.06l-.31-2.033c-.211-.888-.386-.881-.595.076zm6.771 3.066-.688 1.586c-1.706 5.585 3.39 7.405 1.077.329l-.21-1.616zm6.539-1.5.375 1.5c2.316 4.99-2.717 6.492-1.257.508l.16-1.854c.083-.781.494-1.063.722-.154zm-14.826 24.27c-1.594 3.871 2.4 5.81.918.267-.068-.496-.335-1.337-.386-1.465-.236.426-.363.757-.532 1.198zm12.683.877c-.395 3.1 2.302 4.079 1.738.003-.064-.984-.44-1.99-.943-2.525-.61.75-.6 1.58-.795 2.522z" paint-order="stroke fill markers"/>
    <path fill="#e4e0de" stroke="#000" stroke-linecap="round" stroke-linejoin="round" stroke-width="3.493" d="m172.007 59.866 6.263-4.103 7.558-1.512 2.16 6.695-4.751 4.319-5.83.432z" paint-order="stroke fill markers"/>
    <path fill="#e4e0de" stroke="#000" stroke-width="2.62" d="M189.78 110.533V71.527a7.127 7.127 0 0 0-7.143-7.142H111.06a7.127 7.127 0 0 0-7.143 7.142v39.006" paint-order="stroke fill markers"/>
    <path d="M165.733 63.897h-53.057l-5.99 1.426-2.853 4.564v11.125l-1.141 28.24" opacity=".111" paint-order="stroke fill markers"/>
    <path d="m112.676 52.487-11.981 4.85-15.404 40.22v13.978c12.34-1.116 18.349 4.656 7.132-6.561l1.711-12.266 1.997-16.545 7.702-11.41 8.557-5.99zm60.759 6.275h7.987l2.852 2.282 2.283 1.997 2.282-1.711-2.282-8.273-9.7 1.712-4.563 3.993m-45.356-11.98 3.138-.285 2.567 10.84 4.564 6.845-13.121-1.14 1.14-2.283-4.849-3.993 4.565-2.568z" opacity=".111" paint-order="stroke fill markers"/>
    <path d="m113.717 55.365 4.594-6.662 2.527-4.135 5.514-2.412 7.581-7.582 2.182-3.675.115-5.858-1.952-.115-1.494-1.953-7.006 5.743-5.17 8.5-8.155 17zm69.378-1.378-2.871-6.662-7.696-14.703-8.96-9.764-1.953 1.149h-2.412l-.574 1.608 1.838 5.169-1.723.919.804 2.527 8.04 6.432 1.953 2.872 3.676 2.068 1.034 3.216.689 3.446.69 3.79 3.56-1.263z" opacity=".116" paint-order="stroke fill markers"/>
    <path d="m119.805 23.892 8.385-1.838-.575-6.777 3.906.23 4.594-6.662 10.913-5.17-.804 3.217 9.533-5.628-1.033 6.432 4.939-2.872v3.79l-4.02 4.021 8.5-.804-1.15 3.446 4.136 3.446 3.56 1.838 5.17 5.628-4.25-.115 2.412 3.332h-4.94l-5.857-7.007-1.149 1.148h-2.757l-.919 2.183c-3.673 3.536-17.863-.6-23.203-1.034l-.918.23-1.379-1.608-7.236 7.121-2.183 2.987.115-6.548z" opacity=".116" paint-order="stroke fill markers"/>
    <path d="m136.69 26.534 10.108 2.986h6.892l4.824-2.067 1.149 3.675-1.379.575 1.838 5.628-2.412-.574-6.892-3.101-5.858-1.034-5.628.344-2.068.92v-2.413l-1.263-.919zm-5.973 26.878 5.398 9.534 2.872 1.149 17.574-.345 3.676-2.986 3.906-5.054 1.148-4.825-7.007 6.433-6.317 3.79h-5.858l-6.203-.574-5.858-5.054-3.82-6.928z" opacity=".116" paint-order="stroke fill markers"/>
</svg>