<svg xmlns="http://www.w3.org/2000/svg" xml:space="preserve" viewBox="0 0 297 110">
  <rect width="296.752" height="109.811" x=".319" y=".094" fill="#99f5fa" paint-order="stroke fill markers" rx="0" ry="0"/>
  <path fill="#fff" d="M105.695 14.477a11.893 11.893 0 0 0-11.92 11.918c0 1.266.198 2.485.56 3.628L68.04 39.885l29.229-5.047a11.882 11.882 0 0 0 8.427 3.474h27.684a11.891 11.891 0 0 0 11.918-11.917 11.891 11.891 0 0 0-11.918-11.918h-27.684z" paint-order="stroke fill markers"/>
  <path fill="#e4e0de" stroke="#000" stroke-linecap="round" stroke-linejoin="round" stroke-width="2" d="m38.9 41.295-2.056 13.48c12.469 13.644 21.034 9.085 16.222-8.682z" paint-order="stroke fill markers"/>
  <path fill="#e4e0de" stroke="#000" stroke-linejoin="bevel" stroke-width="3" d="m70.586 109.904-.262-8.61-.66-8.808-1.512-18.912c-3.765-14.744-.534-15.422-14.004-21.963 3.483 10.107-6.762 16.412-17.187-.494l-9.342 8.809c-8.084 11.533-6.443 8.116-6.94 24.554l6.673 20.286.513 5.138" paint-order="stroke fill markers"/>
  <path fill="none" stroke="#000" stroke-linecap="round" stroke-linejoin="round" d="m61.293 62.89 2.72 22.813.604 12.69.32 11.435" paint-order="stroke fill markers"/>
  <path fill="#e4e0de" stroke="#000" stroke-width="3" d="m33.491 65.797 19.217 12.01h5.338l4.804.268 33.897-14.68 14.65-1.832c3.276-.922 3.768 2.265.388 2.582l-6.23.584 1.068 4.004c-.773 4.23-1.085 5.656-4.805 7.206l-11.743-.534-15.748 11.477-14.146 8.007-9.875.534-25.623-12.811" paint-order="stroke fill markers"/>
  <path fill="#e4e0de" stroke="#000" stroke-linecap="round" stroke-linejoin="round" stroke-width="3" d="M49.105 11.352c-7.935-.001-18.452 8.16-18.451 19.197 0 11.036 10.516 20.768 18.451 20.767 7.47 1.28 14.086-7.916 15.231-22.102 0-11.035-7.295-17.862-15.23-17.862Z" paint-order="stroke fill markers"/>
  <path fill="#e4e0de" stroke="#000" stroke-linecap="round" stroke-linejoin="round" stroke-width="3" d="M65.122 13.629c-13.573-7.024-18.982-9.226-32.348-2.12-1.73 1.669-1.854 3.46-.864 5.339-1.815.417-3.897-1.171-5.34 2.041-3.329 9.443 1.587 15.017 8.01 22.063l1.334.55c-1.799-3.612-4.794-7.24-.55-10.364 3.85-1.188 4.709 2.254 6.753 4.553.538-5.397-.78-10.583-1.727-15.86 6.463 2.943 10.367 2.73 16.802.943l9.029-1.335-5.339-3.062z" paint-order="stroke fill markers"/>
  <path d="M50.479 28.546c-2.32 0-4.987 1.613-4.986 4.28 0 2.667 2.98 4.75 5.3 4.75s4.2-2.161 4.201-4.828c0-2.668-2.194-4.202-4.515-4.202z" paint-order="stroke fill markers"/>
  <path fill="#fff" d="M52.01 31.217c-.91 0-1.649.51-1.649 1.138.002.628-.517 1.294.393 1.294.909 0 2.903-.666 2.904-1.294 0-.628-.738-1.138-1.648-1.138z" paint-order="stroke fill markers"/>
  <path d="M59.012 27.996c-1.688 0-3.627 1.445-3.627 3.834 0 2.389 2.168 4.255 3.855 4.254 1.688 0 3.056-1.935 3.056-4.324 0-2.39-1.596-3.764-3.284-3.764z" paint-order="stroke fill markers"/>
  <path fill="#fff" d="M60.125 30.389c-.662 0-1.199.456-1.198 1.02 0 .562-.377 1.158.285 1.158.661 0 2.111-.596 2.112-1.159 0-.563-.536-1.02-1.199-1.02z" paint-order="stroke fill markers"/>
  <path d="M59.718 42.473c-2.457.144-5.237.77-6.874.721-.487-3.827 5.567-4.113 6.874-.721z" paint-order="stroke fill markers"/>
  <path d="M47.098 7.15c-4.152-.078-8.477 1.25-14.325 4.36-1.73 1.668-1.852 3.46-.863 5.338-1.815.416-3.898-1.172-5.34 2.04-2.962 8.4.61 13.747 5.955 19.784 1.354 2.919 3.341 5.527 5.616 7.607l-.825 5.393c-.118-.187-.236-.362-.355-.555l-9.342 8.809c-8.084 11.533-6.443 8.116-6.94 24.554l6.673 20.286.513 5.138h6.526l.37-3.027-2.445-6.961-6.398-13.549c3.5-9.622 1.508-9.67 6.773-19.945l4.329-7.527 2.447-6.397 1.129-3.2-3.389-7.527-4.703-7.525.187-5.644L37.21 17.31h6.02l6.775-2.633 12.092-2.574c-5.96-2.998-10.424-4.867-14.998-4.954z" opacity=".098" paint-order="stroke fill markers"/>
  <path fill="#e4e0de" stroke="#000" stroke-linecap="round" stroke-linejoin="round" stroke-width="2" d="m259.876 41.295 2.056 13.48c-12.468 13.644-21.034 9.085-16.221-8.682z" paint-order="stroke fill markers"/>
  <path fill="#e4e0de" stroke="#000" stroke-linejoin="round" stroke-width="3" d="m270.91 109.904.514-5.138c8.515-22.342 8.496-32.362-.266-44.84l-9.342-8.809c-10.424 16.906-20.67 10.6-17.187.494-13.47 6.541-10.24 7.219-14.006 21.963l-1.51 18.912-.66 8.809-.262 8.61" paint-order="stroke fill markers"/>
  <path fill="none" stroke="#000" stroke-linecap="round" stroke-linejoin="round" d="m237.483 62.89-2.72 22.813-.603 12.69-.424 11.026" paint-order="stroke fill markers"/>
  <path fill="#e4e0de" stroke="#000" stroke-width="3" d="m264.148 65.914-17.93 13.86-5.311.53-4.754.743-35.187-11.24-14.76-.367c-3.35-.593-3.524 2.628-.13 2.608l6.258-.038-.665 4.09c1.19 4.131 1.641 5.52 5.497 6.693l11.632-1.698 16.81 9.856 14.871 6.563c14.04.722 22.35-8.323 34.103-15.743" paint-order="stroke fill markers"/>
  <path fill="#e4e0de" stroke="#000" stroke-linecap="round" stroke-linejoin="round" stroke-width="3" d="M249.671 11.352c7.936-.001 18.452 8.16 18.452 19.197 0 11.036-10.516 20.768-18.452 20.767-7.47 1.28-14.085-7.916-15.23-22.102 0-11.035 7.295-17.862 15.23-17.862z" paint-order="stroke fill markers"/>
  <path fill="#e4e0de" stroke="#000" stroke-linecap="round" stroke-linejoin="round" stroke-width="3" d="M233.655 13.629c13.573-7.024 18.982-9.226 32.348-2.12 1.73 1.669 1.853 3.46.864 5.339 1.815.417 3.897-1.171 5.339 2.041 3.33 9.443-1.586 15.017-8.009 22.063l-1.335.55c1.8-3.612 4.795-7.24.55-10.364-3.85-1.188-4.708 2.254-6.752 4.553-.538-5.397.779-10.583 1.727-15.86-6.463 2.943-10.367 2.73-16.802.943l-9.03-1.335 5.34-3.062z" paint-order="stroke fill markers"/>
  <path d="M248.298 28.546c2.32 0 4.987 1.613 4.986 4.28 0 2.667-2.98 4.75-5.3 4.75s-4.201-2.161-4.201-4.828c-.001-2.668 2.194-4.202 4.515-4.202z" paint-order="stroke fill markers"/>
  <path fill="#fff" d="M246.767 31.217c.91 0 1.649.51 1.648 1.138 0 .628.518 1.294-.392 1.294s-2.903-.666-2.905-1.294c0-.628.738-1.138 1.649-1.138z" paint-order="stroke fill markers"/>
  <path d="M239.765 27.996c1.687 0 3.627 1.445 3.626 3.834 0 2.389-2.167 4.255-3.855 4.254-1.687 0-3.055-1.935-3.055-4.324 0-2.39 1.596-3.764 3.284-3.764z" paint-order="stroke fill markers"/>
  <path fill="#fff" d="M238.651 30.389c.662 0 1.2.456 1.2 1.02-.002.562.375 1.158-.286 1.158-.662 0-2.112-.596-2.113-1.159 0-.563.537-1.02 1.2-1.02z" paint-order="stroke fill markers"/>
  <path d="M239.059 42.473c2.456.144 5.236.77 6.874.721.486-3.827-5.568-4.113-6.874-.721z" paint-order="stroke fill markers"/>
  <path d="M251.68 7.15c-4.574.087-9.04 1.956-14.998 4.954l12.091 2.574 6.776 2.633h6.02l4.517 11.29.187 5.645-4.703 7.525-3.388 7.528 1.129 3.199 2.447 6.397 4.328 7.527c5.266 10.275 3.272 10.323 6.773 19.945l-6.398 13.549-2.445 6.96.37 3.028h6.526l.514-5.138 6.672-20.286c-.497-16.438 1.145-13.021-6.94-24.554l-9.342-8.809c-.119.193-.236.368-.355.555l-.824-5.393c2.274-2.08 4.26-4.688 5.615-7.607 5.345-6.037 8.917-11.383 5.955-19.783-1.442-3.213-3.525-1.625-5.34-2.041.99-1.878.867-3.67-.863-5.338-5.848-3.11-10.173-4.438-14.324-4.36z" opacity=".098" paint-order="stroke fill markers"/>
  <path d="M106.345 30.964q-1.712.64-4.327.64-.441 0-.794-.368-.345-.367-.345-.786v-7.787q-.022-.5-.037-1-.022-.565.037-.954.103-.691 1.285-.838.559-.162 1.852-.162 1.388 0 2.66.897 1.49 1.043 1.49 2.608 0 .845-.308 1.425-.242.47-.845 1.007.713.345 1.264 1.043.624.778.624 1.55 0 .977-1.065 1.851-.713.58-1.491.874zm-2.33-9.264q-.947 0-1.138.015l.007 1.558-.007 1.542q.669.081 1.007.052 2.248-.177 2.248-1.653 0-.522-.662-1.007-.683-.507-1.454-.507zm.86 5.194q-.668 0-1.998-.051v2.748q1.264-.067 2.74-.485 1.293-.368 1.279-.794-.022-.565-.83-1.006-.632-.353-1.19-.412zm7.472 3.277q0 1.396-1.014 1.396-.44 0-.727-.28-.287-.278-.287-.72v-10.16q0-.426.309-.698.294-.25.727-.25t.713.265q.279.257.279.683zm8.199 1.565q-.338 0-1.073-.735-.676.323-1.19.485-.514.169-.874.169-1.77 0-2.66-.948-.881-.947-.881-2.835 0-1.771 1.307-3.027 1.308-1.264 3.13-1.264.698 0 1.616.397 1.11.477 1.11 1.11 0 .264-.17.462-.073.294-.117.742-.037.44-.037 1.036 0 1.403.199 2.02.022.066.338.764.286.632.286.72 0 .39-.301.647-.294.257-.683.257zm-1.822-5.04q0-.235.03-.536.036-.309.102-.683-.147-.074-.265-.103-.11-.037-.19-.037-1 0-1.75.786-.748.779-.748 1.807 0 .985.352 1.484.353.493 1.058.493.456 0 .86-.147.411-.155.771-.449-.22-1.748-.22-2.615zm5.745-1.946q1.109-1.286 2.1-1.286 1.132 0 1.661.86.448-.398.992-.596.544-.198 1.175-.198 1.44 0 1.955 1.432.102.294.315 1.991.206 1.19.53 3.967.029.42-.287.69-.316.273-.742.273-.845 0-.992-.838-.132-.756-.272-2.138-.147-1.513-.242-2.145-.198-1.315-.507-1.315-.169 0-.771.338-.603.338-.882.58 0 .838.198 2.41.206 1.609.206 2.41 0 .419-.286.698-.287.279-.728.279-.44 0-.727-.28-.287-.278-.287-.697 0-.838-.183-2.461-.177-1.631-.177-2.469 0-.47-.08-.75-.853.493-1.712 1.64-.037.05-.125.153-.03 1.484-.03 2.33 0 .205-.014.558-.015.345-.015.514 0 .397-.323.624-.294.213-.727.213-.625 0-.845-.543-.155-.368-.155-1.168v-2.733q0-.368-.029-1.073-.03-.712-.03-1.08 0-.654.236-1.183.286-.66.808-.66.411 0 .735.322.323.316.323.698 0-.154-.066.632zm13.488 6.839q-1.756 0-2.872-.838-1.235-.925-1.235-2.608 0-1.858.977-3.144 1.088-1.425 2.932-1.425 1.278 0 2.123.411 1.11.544 1.11 1.69 0 .808-.904 1.432-.412.287-1.653.838l-2.476 1.095q.352.382.852.573.5.19 1.146.19.984 0 1.668-.403.61-.36.977-.36.764 0 .764.742 0 .837-1.227 1.366-1.029.44-2.182.44zm-.198-6.237q-.684 0-1.168.455-.485.456-.78 1.367.831-.36 1.654-.713.992-.448 1.58-.83-.493-.28-1.286-.28z" aria-label="Blame" font-family="Comic Sans MS" font-size="15.046" font-weight="700" paint-order="stroke fill markers" style="line-height:1.03;-inkscape-font-specification:'Comic Sans MS Bold'"/>
  <path fill="#fff" d="m233.678 43.17-73.662 9.484c-.651-.109-1.32-.17-2.002-.17H130.33a11.891 11.891 0 0 0-11.918 11.918A11.891 11.891 0 0 0 130.33 76.32h27.684c9.797-.26 11.292-6.263 11.92-11.918 0-3.105-1.185-5.916-3.118-8.033l66.862-13.2z" paint-order="stroke fill markers"/>
  <path d="M129.964 69.676q-1.712.64-4.327.64-.441 0-.794-.368-.345-.367-.345-.786v-7.788q-.022-.5-.037-.999-.022-.565.037-.955.103-.69 1.286-.837.558-.162 1.851-.162 1.389 0 2.66.896 1.49 1.044 1.49 2.608 0 .845-.308 1.426-.242.47-.845 1.006.713.345 1.264 1.043.625.779.625 1.55 0 .978-1.066 1.852-.712.58-1.491.874zm-2.329-9.264q-.948 0-1.139.015l.007 1.557-.007 1.543q.669.08 1.007.051 2.248-.176 2.248-1.653 0-.521-.661-1.006-.684-.507-1.455-.507zm.86 5.194q-.669 0-1.999-.051v2.747q1.264-.066 2.74-.485 1.294-.367 1.279-.793-.022-.566-.83-1.007-.632-.352-1.19-.411zm7.471 3.277q0 1.395-1.014 1.395-.44 0-.727-.279t-.287-.72V59.12q0-.426.309-.698.294-.25.727-.25.434 0 .713.265.28.257.28.683zm8.199 1.564q-.338 0-1.073-.734-.676.323-1.19.485-.514.169-.874.169-1.77 0-2.66-.948-.881-.948-.881-2.836 0-1.77 1.308-3.027 1.307-1.263 3.13-1.263.697 0 1.615.396 1.11.478 1.11 1.11 0 .264-.17.463-.073.293-.117.742-.036.44-.036 1.035 0 1.404.198 2.02.022.067.338.765.286.632.286.72 0 .39-.3.646-.295.257-.684.257zm-1.822-5.04q0-.234.03-.536.036-.308.102-.683-.147-.073-.264-.103-.11-.036-.191-.036-1 0-1.749.786-.75.778-.75 1.807 0 .984.353 1.484.353.492 1.058.492.456 0 .86-.147.411-.154.771-.448-.22-1.748-.22-2.615zm5.745-1.947q1.11-1.285 2.101-1.285 1.131 0 1.66.86.449-.397.992-.595.544-.199 1.176-.199 1.44 0 1.954 1.433.103.294.316 1.99.205 1.19.529 3.968.03.419-.287.69-.316.272-.742.272-.845 0-.992-.837-.132-.757-.271-2.138-.147-1.513-.243-2.145-.198-1.315-.507-1.315-.169 0-.771.338-.603.338-.882.58 0 .838.199 2.41.205 1.609.205 2.41 0 .418-.286.697-.287.28-.728.28-.44 0-.727-.28-.286-.279-.286-.698 0-.837-.184-2.46-.176-1.632-.176-2.47 0-.47-.081-.748-.852.492-1.712 1.638-.037.051-.125.154-.03 1.484-.03 2.329 0 .206-.014.558-.015.346-.015.515 0 .396-.323.624-.294.213-.727.213-.625 0-.845-.544-.154-.367-.154-1.168v-2.733q0-.367-.03-1.072-.03-.713-.03-1.08 0-.654.236-1.183.287-.661.808-.661.412 0 .735.323.323.316.323.698 0-.154-.066.632zm13.488 6.84q-1.756 0-2.872-.837-1.234-.926-1.234-2.608 0-1.859.977-3.144 1.087-1.426 2.93-1.426 1.28 0 2.124.412 1.11.543 1.11 1.69 0 .808-.904 1.432-.412.287-1.653.838l-2.476 1.094q.353.382.852.573.5.191 1.146.191.985 0 1.668-.404.61-.36.977-.36.764 0 .764.742 0 .838-1.227 1.367-1.028.44-2.182.44zm-.198-6.237q-.683 0-1.168.456-.485.455-.779 1.366.83-.36 1.653-.712.992-.449 1.58-.83-.493-.28-1.286-.28z" aria-label="Blame" font-family="Comic Sans MS" font-size="15.046" font-weight="700" paint-order="stroke fill markers" style="line-height:1.03;-inkscape-font-specification:'Comic Sans MS Bold'"/>
</svg>