<?xml version="1.0" encoding="UTF-8" standalone="no"?>
<svg
   xml:space="preserve"
   viewBox="0 0 297 110"
   version="1.1"
   id="svg2559"
   sodipodi:docname="cogjs.svg"
   inkscape:version="1.2.1 (9c6d41e4, 2022-07-14)"
   xmlns:inkscape="http://www.inkscape.org/namespaces/inkscape"
   xmlns:sodipodi="http://sodipodi.sourceforge.net/DTD/sodipodi-0.dtd"
   xmlns="http://www.w3.org/2000/svg"
   xmlns:svg="http://www.w3.org/2000/svg"><defs
   id="defs2563">
    
      
      
      
  </defs><sodipodi:namedview
   id="namedview2561"
   pagecolor="#ffffff"
   bordercolor="#000000"
   borderopacity="0.25"
   inkscape:showpageshadow="2"
   inkscape:pageopacity="0.0"
   inkscape:pagecheckerboard="0"
   inkscape:deskcolor="#d1d1d1"
   showgrid="false"
   inkscape:zoom="2.6435803"
   inkscape:cx="115.37383"
   inkscape:cy="56.552093"
   inkscape:window-width="1388"
   inkscape:window-height="865"
   inkscape:window-x="84"
   inkscape:window-y="167"
   inkscape:window-maximized="0"
   inkscape:current-layer="svg2559" />
  <rect
   width="296.752"
   height="109.811"
   x=".319"
   y=".094"
   fill="#99f5fa"
   paint-order="stroke fill markers"
   rx="0"
   ry="0"
   id="rect2501" />
  
  
  
  
  
  
  
  
  
  
  
  
  
  
  
  
  
  
  
  
  
  
  
  
  
  
  
  
<g
   id="g12129"><path
     d="m 24.439157,12.500989 q -0.137849,0.332461 -0.324351,0.818988 -0.13785,0.47031 -0.445984,1.394712 -0.462201,1.191992 -1.467691,3.470562 -1.029816,2.319113 -1.475799,3.462453 -0.332461,0.851422 -0.624377,1.362276 -0.381113,0.67303 -1.159557,0.67303 -0.462201,0 -0.835205,-0.251373 -0.437875,-0.291916 -0.47031,-0.770335 -0.373004,-0.932511 -0.47031,-1.524452 -0.356786,-1.735281 -0.989272,-5.213952 -0.527071,1.629867 -1.13523,2.927273 -0.908185,1.94611 -1.191992,3.057014 0.07298,0.178393 0.07298,0.381113 0,0.502745 -0.445984,0.818988 -0.389222,0.26759 -0.859531,0.26759 -0.591942,0 -0.981164,-0.300026 -0.421657,-0.33246 -0.437874,-0.908184 L 10.946132,21.217938 Q 10.678542,19.952967 10.070383,17.439242 9.5352029,15.517459 8.2783405,11.965809 8.2053614,11.76309 8.2053614,11.56037 q 0,-0.486527 0.3730043,-0.770335 0.3324604,-0.259481 0.8027702,-0.259481 0.6162679,0 0.9811631,0.518962 0.20272,0.283808 0.462201,1.029816 0.794662,2.286679 1.792043,6.665425 0.648703,-1.581214 1.321732,-3.730043 0.543289,-1.751498 0.883858,-2.489398 0.810879,-1.767716 1.654193,-1.767716 0.794662,0 1.159557,0.86764 0.178394,0.413548 0.348678,1.500126 0.04865,0.332461 0.210829,1.629867 0.170284,1.394711 1.021707,5.076102 0.859532,-2.01098 2.311005,-5.797784 0.0892,-0.227047 0.421657,-1.492018 0.235155,-0.908184 0.591942,-1.435255 0.389221,-0.567616 1.037925,-0.567616 0.494636,0 0.818987,0.308134 0.324352,0.300026 0.324352,0.778444 0,0.170285 -0.283808,0.875749 z"
     style="font-weight:bold;font-size:16.6068px;line-height:1.03;font-family:'Comic Sans MS';-inkscape-font-specification:'Comic Sans MS Bold';fill:#000000;stroke-width:5.29585;paint-order:stroke fill markers"
     id="path11998" /><path
     d="m 28.298942,15.485024 q 0.591941,-0.583833 1.264971,-0.867641 0.681138,-0.291916 1.451473,-0.291916 1.386603,0 1.994762,0.778444 0.454092,0.583833 0.551398,1.792042 0.04054,0.997381 0.0892,2.002871 0.129741,1.305515 0.162176,1.589323 0.113523,0.900075 0.275699,1.573105 0.04054,0.170284 0.04054,0.300025 0,0.454092 -0.348678,0.746009 -0.340569,0.300025 -0.80277,0.300025 -0.818988,0 -1.062251,-0.810879 -0.194611,-0.656812 -0.356787,-1.848804 -0.145958,-1.143339 -0.145958,-1.881239 0,-0.20272 0.01622,-0.608159 0.02433,-0.413549 0.02433,-0.616268 0,-0.600051 -0.01622,-0.697356 -0.07298,-0.445984 -0.421657,-0.445984 -0.900076,0 -1.629867,0.827097 -0.373004,0.413548 -1.021707,1.573105 0,2.935382 -0.283808,3.535432 -0.316242,0.664921 -1.00549,0.664921 -0.454092,0 -0.810878,-0.300025 -0.348678,-0.308134 -0.348678,-0.754118 0,-0.154067 0.0892,-0.429766 0.05676,-0.178393 0.09731,-2.189373 -0.04054,-1.629866 0.01622,-5.42478 l 0.01622,-0.26759 q 0.04865,-0.956837 0.04865,-1.281188 0,-0.251373 -0.08109,-0.7379 -0.07298,-0.494636 -0.07298,-0.746009 0,-0.462201 0.33246,-0.754117 0.33246,-0.3000253 0.80277,-0.3000253 0.80277,0 1.078469,0.8595313 0.154067,0.486528 0.154067,1.492018 0,0.810878 -0.04865,1.646084 -0.04865,0.794661 -0.04865,1.573105 z"
     style="font-weight:bold;font-size:16.6068px;line-height:1.03;font-family:'Comic Sans MS';-inkscape-font-specification:'Comic Sans MS Bold';fill:#000000;stroke-width:5.29585;paint-order:stroke fill markers"
     id="path12000" /><path
     d="m 42.481213,23.439746 q -0.373004,0 -1.183883,-0.810879 -0.746008,0.356787 -1.313624,0.53518 -0.567615,0.186502 -0.964946,0.186502 -1.954218,0 -2.935381,-1.046034 -0.973055,-1.046033 -0.973055,-3.129992 0,-1.954218 1.443365,-3.340821 1.443364,-1.394712 3.454344,-1.394712 0.770335,0 1.783933,0.437875 1.224427,0.527071 1.224427,1.224427 0,0.291916 -0.186502,0.510853 -0.08109,0.324352 -0.12974,0.818988 -0.04054,0.486528 -0.04054,1.143339 0,1.548779 0.218937,2.229917 0.02433,0.07298 0.373004,0.843315 0.316243,0.697355 0.316243,0.794661 0,0.429766 -0.33246,0.713573 -0.324352,0.283808 -0.754118,0.283808 z m -2.010979,-5.562629 q 0,-0.259482 0.03243,-0.591942 0.04054,-0.340569 0.113523,-0.754117 -0.162176,-0.08109 -0.291917,-0.113523 -0.121631,-0.04054 -0.210828,-0.04054 -1.102795,0 -1.929892,0.86764 -0.827096,0.859532 -0.827096,1.994762 0,1.086578 0.389222,1.637976 0.389221,0.543288 1.167665,0.543288 0.502745,0 0.948728,-0.162175 0.454093,-0.170285 0.851423,-0.494637 -0.243263,-1.929891 -0.243263,-2.886728 z"
     style="font-weight:bold;font-size:16.6068px;line-height:1.03;font-family:'Comic Sans MS';-inkscape-font-specification:'Comic Sans MS Bold';fill:#000000;stroke-width:5.29585;paint-order:stroke fill markers"
     id="path12002" /><path
     d="m 50.435938,16.376991 q -0.170285,0 -0.40544,-0.0081 -0.227046,-0.01622 -0.39733,-0.01622 -0.332461,0 -0.770335,0.06487 0.145958,3.27595 0.145958,4.28144 0,0.105414 0.0081,0.397331 0.0081,0.283807 0.0081,0.462201 0,1.865021 -1.175774,1.865021 -0.445983,0 -0.770335,-0.275699 -0.356787,-0.291916 -0.356787,-0.729791 0,-0.291916 0.02433,-0.875749 0.02433,-0.583833 0.02433,-0.875749 0,-0.981163 -0.145958,-4.200353 -0.502745,-0.02433 -1.524453,-0.12974 -1.013598,-0.113523 -1.013598,-1.054143 0,-0.454092 0.308134,-0.770335 0.308134,-0.316243 0.794661,-0.316243 0.300025,0 1.378494,0.09731 -0.0081,-0.259481 -0.04054,-0.859532 -0.03243,-0.518962 -0.03243,-0.80277 0,-0.454092 0.332461,-0.754117 0.33246,-0.300026 0.80277,-0.300026 1.2001,0 1.2001,2.019089 l -0.01622,0.664921 q 0.502745,-0.07298 0.818988,-0.07298 0.93251,0 1.273079,0.121631 0.648704,0.227046 0.648704,0.989273 0,0.462201 -0.316243,0.770335 Q 50.922461,16.377 50.435934,16.377 Z"
     style="font-weight:bold;font-size:16.6068px;line-height:1.03;font-family:'Comic Sans MS';-inkscape-font-specification:'Comic Sans MS Bold';fill:#000000;stroke-width:5.29585;paint-order:stroke fill markers"
     id="path12004" /><path
     d="m 65.461523,16.376991 q -0.170285,0 -0.40544,-0.0081 -0.227046,-0.01622 -0.39733,-0.01622 -0.332461,0 -0.770335,0.06487 0.145958,3.27595 0.145958,4.28144 0,0.105414 0.0081,0.397331 0.0081,0.283807 0.0081,0.462201 0,1.865021 -1.175775,1.865021 -0.445983,0 -0.770335,-0.275699 -0.356787,-0.291916 -0.356787,-0.729791 0,-0.291916 0.02433,-0.875749 0.02433,-0.583833 0.02433,-0.875749 0,-0.981163 -0.145958,-4.200353 -0.502745,-0.02433 -1.524452,-0.12974 -1.013599,-0.113523 -1.013599,-1.054143 0,-0.454092 0.308134,-0.770335 0.308134,-0.316243 0.794661,-0.316243 0.300025,0 1.378494,0.09731 -0.0081,-0.259481 -0.04054,-0.859532 -0.03243,-0.518962 -0.03243,-0.80277 0,-0.454092 0.332461,-0.754117 0.33246,-0.300026 0.80277,-0.300026 1.200101,0 1.200101,2.019089 l -0.01622,0.664921 q 0.502745,-0.07298 0.818988,-0.07298 0.93251,0 1.27308,0.121631 0.648703,0.227046 0.648703,0.989273 0,0.462201 -0.316243,0.770335 Q 65.948046,16.377 65.461519,16.377 Z"
     style="font-weight:bold;font-size:16.6068px;line-height:1.03;font-family:'Comic Sans MS';-inkscape-font-specification:'Comic Sans MS Bold';fill:#000000;stroke-width:5.29585;paint-order:stroke fill markers"
     id="path12006" /><path
     d="m 69.97001,15.485024 q 0.591941,-0.583833 1.264971,-0.867641 0.681138,-0.291916 1.451473,-0.291916 1.386603,0 1.994762,0.778444 0.454092,0.583833 0.551398,1.792042 0.04054,0.997381 0.0892,2.002871 0.12974,1.305515 0.162175,1.589323 0.113523,0.900075 0.275699,1.573105 0.04054,0.170284 0.04054,0.300025 0,0.454092 -0.348678,0.746009 -0.340569,0.300025 -0.80277,0.300025 -0.818988,0 -1.062251,-0.810879 -0.194611,-0.656812 -0.356787,-1.848804 -0.145958,-1.143339 -0.145958,-1.881239 0,-0.20272 0.01622,-0.608159 0.02433,-0.413549 0.02433,-0.616268 0,-0.600051 -0.01622,-0.697356 -0.07298,-0.445984 -0.421657,-0.445984 -0.900075,0 -1.629866,0.827097 -0.373005,0.413548 -1.021708,1.573105 0,2.935382 -0.283808,3.535432 -0.316242,0.664921 -1.005489,0.664921 -0.454093,0 -0.810879,-0.300025 -0.348678,-0.308134 -0.348678,-0.754118 0,-0.154067 0.0892,-0.429766 0.05676,-0.178393 0.09731,-2.189373 -0.04054,-1.629866 0.01622,-5.42478 l 0.01622,-0.26759 q 0.04865,-0.956837 0.04865,-1.281188 0,-0.251373 -0.08109,-0.7379 -0.07298,-0.494636 -0.07298,-0.746009 0,-0.462201 0.33246,-0.754117 0.332461,-0.3000253 0.80277,-0.3000253 0.80277,0 1.078469,0.8595313 0.154067,0.486528 0.154067,1.492018 0,0.810878 -0.04865,1.646084 -0.04865,0.794661 -0.04865,1.573105 z"
     style="font-weight:bold;font-size:16.6068px;line-height:1.03;font-family:'Comic Sans MS';-inkscape-font-specification:'Comic Sans MS Bold';fill:#000000;stroke-width:5.29585;paint-order:stroke fill markers"
     id="path12008" /><path
     d="m 81.241222,23.27757 q -1.938,0 -3.170536,-0.924402 -1.362277,-1.021707 -1.362277,-2.87862 0,-2.051524 1.078469,-3.470562 1.200101,-1.573105 3.235407,-1.573105 1.410929,0 2.34344,0.454092 1.224427,0.600051 1.224427,1.865022 0,0.891967 -0.997381,1.581214 -0.454092,0.316243 -1.824477,0.924402 l -2.732662,1.208209 q 0.389222,0.421657 0.940619,0.632486 0.551398,0.210828 1.264971,0.210828 1.086578,0 1.840696,-0.445983 0.673029,-0.397331 1.078469,-0.397331 0.843314,0 0.843314,0.818988 0,0.924402 -1.354168,1.508235 -1.135231,0.486527 -2.408311,0.486527 z m -0.218937,-6.884362 q -0.754117,0 -1.289297,0.502745 -0.53518,0.502745 -0.859532,1.508235 0.916293,-0.397331 1.824478,-0.786553 1.094686,-0.494636 1.743389,-0.916293 -0.543289,-0.308134 -1.419038,-0.308134 z"
     style="font-weight:bold;font-size:16.6068px;line-height:1.03;font-family:'Comic Sans MS';-inkscape-font-specification:'Comic Sans MS Bold';fill:#000000;stroke-width:5.29585;paint-order:stroke fill markers"
     id="path12010" /><path
     d="m 138.69199,13.157801 q -0.51896,0 -0.90007,-0.348678 -0.38112,-0.348678 -0.38112,-0.851422 0,-0.502745 0.38112,-0.851423 0.38111,-0.348678 0.90007,-0.348678 0.51897,0 0.89197,0.348678 0.38111,0.348678 0.38111,0.851423 0,0.502744 -0.38111,0.851422 -0.373,0.348678 -0.89197,0.348678 z m 0.68925,5.943743 q 0,0.462201 0.0243,1.483908 0.0324,1.021708 0.0324,1.483909 0,0.470309 -0.31624,0.778443 -0.31624,0.300025 -0.80277,0.300025 -0.48653,0 -0.80277,-0.300025 -0.31624,-0.308134 -0.31624,-0.778443 0,-0.462201 -0.0324,-1.483909 -0.0243,-1.021707 -0.0243,-1.483908 0,-0.721683 0.0811,-1.80826 0.0811,-1.086578 0.0811,-1.80826 0,-0.47031 0.31624,-0.770335 0.31625,-0.308134 0.80277,-0.308134 0.48653,0 0.80277,0.308134 0.31625,0.300025 0.31625,0.770335 0,0.721682 -0.0811,1.80826 -0.0811,1.086577 -0.0811,1.80826 z"
     style="font-weight:bold;font-size:16.6068px;line-height:1.03;font-family:'Comic Sans MS';-inkscape-font-specification:'Comic Sans MS Bold';fill:#000000;stroke-width:5.29585;paint-order:stroke fill markers"
     id="path12012" /><path
     d="m 147.20623,16.968932 q -0.80277,0 -0.96495,-0.673029 -0.32435,-0.05676 -0.66492,-0.05676 -1.95422,0 -1.95422,0.53518 0,0.316243 1.17578,0.851423 1.60554,0.7379 2.17315,1.151448 1.17578,0.851423 1.17578,1.921783 0,1.394712 -1.29741,2.116394 -1.04603,0.575724 -2.57049,0.575724 -1.07847,0 -1.97043,-0.33246 -1.21632,-0.454092 -1.21632,-1.33795 0,-0.810879 0.96495,-0.810879 0.373,0 1.07846,0.235155 0.70547,0.235154 1.08658,0.235154 1.64609,0 1.6542,-0.66492 0,-0.413548 -1.14334,-0.916293 -1.67041,-0.7379 -2.14072,-1.062252 -1.14334,-0.80277 -1.14334,-1.954218 0,-1.629867 1.72717,-2.197482 1.0136,-0.33246 3.08134,-0.33246 0.81088,0 1.2001,0.210828 0.53518,0.283808 0.53518,1.046034 0,1.459582 -0.78655,1.459582 z"
     style="font-weight:bold;font-size:16.6068px;line-height:1.03;font-family:'Comic Sans MS';-inkscape-font-specification:'Comic Sans MS Bold';fill:#000000;stroke-width:5.29585;paint-order:stroke fill markers"
     id="path12014" /><path
     d="m 162.50751,16.376991 q -0.17029,0 -0.40544,-0.0081 -0.22705,-0.01622 -0.39733,-0.01622 -0.33246,0 -0.77034,0.06487 0.14596,3.27595 0.14596,4.28144 0,0.105414 0.008,0.397331 0.008,0.283807 0.008,0.462201 0,1.865021 -1.17577,1.865021 -0.44599,0 -0.77034,-0.275699 -0.35679,-0.291916 -0.35679,-0.729791 0,-0.291916 0.0243,-0.875749 0.0243,-0.583833 0.0243,-0.875749 0,-0.981163 -0.14596,-4.200353 -0.50275,-0.02433 -1.52445,-0.12974 -1.0136,-0.113523 -1.0136,-1.054143 0,-0.454092 0.30813,-0.770335 0.30814,-0.316243 0.79466,-0.316243 0.30003,0 1.3785,0.09731 -0.008,-0.259481 -0.0405,-0.859532 -0.0324,-0.518962 -0.0324,-0.80277 0,-0.454092 0.33246,-0.754117 0.33246,-0.300026 0.80277,-0.300026 1.2001,0 1.2001,2.019089 l -0.0162,0.664921 q 0.50275,-0.07298 0.81899,-0.07298 0.93251,0 1.27308,0.121631 0.6487,0.227046 0.6487,0.989273 0,0.462201 -0.31624,0.770335 -0.31624,0.308134 -0.80277,0.308134 z"
     style="font-weight:bold;font-size:16.6068px;line-height:1.03;font-family:'Comic Sans MS';-inkscape-font-specification:'Comic Sans MS Bold';fill:#000000;stroke-width:5.29585;paint-order:stroke fill markers"
     id="path12016" /><path
     d="m 167.016,15.485024 q 0.59194,-0.583833 1.26497,-0.867641 0.68114,-0.291916 1.45147,-0.291916 1.3866,0 1.99476,0.778444 0.45409,0.583833 0.5514,1.792042 0.0405,0.997381 0.0892,2.002871 0.12974,1.305515 0.16217,1.589323 0.11353,0.900075 0.2757,1.573105 0.0405,0.170284 0.0405,0.300025 0,0.454092 -0.34868,0.746009 -0.34057,0.300025 -0.80277,0.300025 -0.81899,0 -1.06225,-0.810879 -0.19462,-0.656812 -0.35679,-1.848804 -0.14596,-1.143339 -0.14596,-1.881239 0,-0.20272 0.0162,-0.608159 0.0243,-0.413549 0.0243,-0.616268 0,-0.600051 -0.0162,-0.697356 -0.073,-0.445984 -0.42166,-0.445984 -0.90008,0 -1.62987,0.827097 -0.373,0.413548 -1.0217,1.573105 0,2.935382 -0.28381,3.535432 -0.31624,0.664921 -1.00549,0.664921 -0.45409,0 -0.81088,-0.300025 -0.34868,-0.308134 -0.34868,-0.754118 0,-0.154067 0.0892,-0.429766 0.0568,-0.178393 0.0973,-2.189373 -0.0405,-1.629866 0.0162,-5.42478 l 0.0162,-0.26759 q 0.0486,-0.956837 0.0486,-1.281188 0,-0.251373 -0.0811,-0.7379 -0.073,-0.494636 -0.073,-0.746009 0,-0.462201 0.33246,-0.754117 0.33246,-0.3000253 0.80277,-0.3000253 0.80277,0 1.07846,0.8595313 0.15407,0.486528 0.15407,1.492018 0,0.810878 -0.0487,1.646084 -0.0487,0.794661 -0.0487,1.573105 z"
     style="font-weight:bold;font-size:16.6068px;line-height:1.03;font-family:'Comic Sans MS';-inkscape-font-specification:'Comic Sans MS Bold';fill:#000000;stroke-width:5.29585;paint-order:stroke fill markers"
     id="path12018" /><path
     d="m 176.04919,13.157801 q -0.51897,0 -0.90008,-0.348678 -0.38111,-0.348678 -0.38111,-0.851422 0,-0.502745 0.38111,-0.851423 0.38111,-0.348678 0.90008,-0.348678 0.51896,0 0.89196,0.348678 0.38112,0.348678 0.38112,0.851423 0,0.502744 -0.38112,0.851422 -0.373,0.348678 -0.89196,0.348678 z m 0.68924,5.943743 q 0,0.462201 0.0243,1.483908 0.0324,1.021708 0.0324,1.483909 0,0.470309 -0.31625,0.778443 -0.31624,0.300025 -0.80277,0.300025 -0.48652,0 -0.80277,-0.300025 -0.31624,-0.308134 -0.31624,-0.778443 0,-0.462201 -0.0324,-1.483909 -0.0243,-1.021707 -0.0243,-1.483908 0,-0.721683 0.0811,-1.80826 0.0811,-1.086578 0.0811,-1.80826 0,-0.47031 0.31625,-0.770335 0.31624,-0.308134 0.80277,-0.308134 0.48652,0 0.80277,0.308134 0.31624,0.300025 0.31624,0.770335 0,0.721682 -0.0811,1.80826 -0.0811,1.086577 -0.0811,1.80826 z"
     style="font-weight:bold;font-size:16.6068px;line-height:1.03;font-family:'Comic Sans MS';-inkscape-font-specification:'Comic Sans MS Bold';fill:#000000;stroke-width:5.29585;paint-order:stroke fill markers"
     id="path12020" /><path
     d="m 184.56342,16.968932 q -0.80277,0 -0.96495,-0.673029 -0.32435,-0.05676 -0.66492,-0.05676 -1.95422,0 -1.95422,0.53518 0,0.316243 1.17578,0.851423 1.60554,0.7379 2.17315,1.151448 1.17578,0.851423 1.17578,1.921783 0,1.394712 -1.29741,2.116394 -1.04603,0.575724 -2.57048,0.575724 -1.07847,0 -1.97044,-0.33246 -1.21632,-0.454092 -1.21632,-1.33795 0,-0.810879 0.96495,-0.810879 0.373,0 1.07847,0.235155 0.70546,0.235154 1.08658,0.235154 1.64608,0 1.65419,-0.66492 0,-0.413548 -1.14334,-0.916293 -1.67041,-0.7379 -2.14072,-1.062252 -1.14334,-0.80277 -1.14334,-1.954218 0,-1.629867 1.72717,-2.197482 1.0136,-0.33246 3.08134,-0.33246 0.81088,0 1.2001,0.210828 0.53518,0.283808 0.53518,1.046034 0,1.459582 -0.78655,1.459582 z"
     style="font-weight:bold;font-size:16.6068px;line-height:1.03;font-family:'Comic Sans MS';-inkscape-font-specification:'Comic Sans MS Bold';fill:#000000;stroke-width:5.29585;paint-order:stroke fill markers"
     id="path12022" /><path
     d="m 193.15062,17.658179 q -0.0568,0.04054 -1.33795,0.94062 -0.81899,0.567615 -1.24875,1.046034 -0.38922,0.429765 -0.85953,0.429765 -0.4622,0 -0.81088,-0.33246 -0.34868,-0.340569 -0.34868,-0.778444 0,-0.648703 1.04603,-1.451473 0.96495,-0.681138 1.9299,-1.370385 1.04603,-0.794662 1.04603,-1.435256 0,-0.754117 -0.77034,-1.410929 -0.76222,-0.664921 -1.58932,-0.664921 -0.43787,0 -1.2001,0.502745 -0.76223,0.494636 -1.07847,0.494636 -0.47842,0 -0.81088,-0.348678 -0.32435,-0.356787 -0.32435,-0.786552 0,-0.810879 1.41904,-1.483909 1.2001,-0.575724 1.99476,-0.575724 1.75961,0 3.17865,1.297406 1.42714,1.297407 1.42714,2.975926 0,1.662302 -1.6623,2.951599 z m -3.89222,5.83022 q -0.4622,0 -0.84331,-0.291917 -0.41355,-0.324351 -0.41355,-0.80277 0,-0.551398 0.32435,-1.021707 0.38922,-0.575724 1.04604,-0.575724 0.55139,0 0.85953,0.413548 0.24326,0.340569 0.24326,0.80277 0,0.494636 -0.26759,0.924402 -0.34057,0.551398 -0.94873,0.551398 z"
     style="font-weight:bold;font-size:16.6068px;line-height:1.03;font-family:'Comic Sans MS';-inkscape-font-specification:'Comic Sans MS Bold';fill:#000000;stroke-width:5.29585;paint-order:stroke fill markers"
     id="path12024" /><rect
     style="fill:#ff0000;stroke:#ffffff;stroke-width:3.00181;stroke-dasharray:none;paint-order:stroke fill markers"
     id="rect8191"
     width="42.910645"
     height="18.301956"
     x="89.295975"
     y="13.321005"
     transform="matrix(0.99879659,-0.04904462,0,1,0,0)" /><path
     d="m 103.65313,12.781432 q -0.1397,0.516786 -0.1397,0.89399 0,0.195588 -0.0419,0.609778 -0.0349,0.40686 -0.0349,0.602448 0,0.663601 -0.0699,1.973277 -0.0699,1.309676 -0.0699,1.973277 0,0.509925 0.0768,1.519016 0.0768,1.009092 0.0768,1.519017 0,0.38419 -0.27242,0.663008 -0.27242,0.278817 -0.67757,0.298711 -0.41213,0.02024 -0.7125,-0.230454 -0.30036,-0.243706 -0.30036,-0.620911 0,-0.509924 -0.0489,-1.527374 -0.0419,-1.017791 -0.0419,-1.527716 0,-0.39816 0.014,-0.706198 -1.09669,0.102749 -2.710284,0.475363 -1.341175,0.310341 -2.682345,0.627667 -0.01398,0.475685 -0.09779,1.59046 -0.06985,0.981368 -0.06985,1.603057 0,0.38419 -0.272426,0.663007 -0.272425,0.278818 -0.677571,0.298712 -0.405146,0.0199 -0.677572,-0.232169 -0.272426,-0.252063 -0.272426,-0.636253 0,-0.705513 0.11875,-2.115383 0.125735,-1.410215 0.125735,-2.115727 0,-0.894115 0.04191,-2.691389 0.04192,-1.804259 0.04192,-2.698374 0,-0.384189 0.272425,-0.663007 0.272426,-0.278817 0.677572,-0.298711 0.405146,-0.01989 0.677572,0.232168 0.272424,0.252064 0.272424,0.636254 0,0.530881 -0.04193,1.601687 -0.03491,1.063476 -0.03491,1.594356 0,0.174632 -0.04889,0.672987 -0.04193,0.463088 -0.03491,0.707228 l 2.682345,-0.634654 q 1.571681,-0.356586 2.710281,-0.454407 0.028,-0.469386 0.0908,-2.519158 0.014,-0.538552 0.32831,-1.252514 0.39117,-0.878397 0.88713,-0.90275 0.37022,-0.01818 0.65662,0.212242 0.30735,0.250348 0.30735,0.648509 0,0.104779 -0.028,0.210931 z"
     id="path8245"
     style="font-weight:bold;font-size:22.6184px;line-height:1.03;font-family:'Comic Sans MS';-inkscape-font-specification:'Comic Sans MS Bold';fill:#ffffff;stroke-width:3;stroke-dasharray:none;paint-order:stroke fill markers" /><path
     d="m 111.90274,13.1098 q -0.1397,0.0069 -0.29338,-0.02751 -1.13161,-0.251786 -2.20036,-0.199306 -0.5239,0.02572 -1.12463,0.139047 -0.60073,0.113322 -1.2783,0.314239 0,0.929042 -0.0629,2.76227 0.39117,-0.04715 2.73124,-0.392569 1.33419,-0.198234 1.69043,-0.215727 0.41214,-0.02024 0.70552,0.230797 0.29338,0.244049 0.29338,0.677136 0,0.831247 -0.88713,0.986573 -0.55882,0.06935 -1.66948,0.221683 -0.99191,0.160471 -2.98969,0.419231 -0.0489,0.88953 -0.0489,1.434382 0,1.369113 0.16066,1.549827 0.0768,0.08704 0.88015,0.04759 0.43308,-0.02127 1.30624,-0.0851 0.87317,-0.06383 1.30625,-0.08509 0.13971,-0.0069 0.41213,-0.06215 0.27243,-0.05529 0.40515,-0.06181 0.40514,-0.01989 0.69154,0.196557 0.32831,0.242334 0.32831,0.710347 0,0.782351 -0.81728,0.976158 -0.69852,0.167021 -2.89889,0.275067 -2.2772,0.111819 -2.96874,-0.468928 -0.76139,-0.640184 -0.76139,-2.896428 0,-0.936026 0.13272,-2.814596 0.1397,-1.885899 0.1397,-2.81494 0,-0.244485 -0.0699,-0.716054 -0.0699,-0.478553 -0.0699,-0.723038 0,-1.061762 0.97794,-1.109782 0.30735,-0.01509 0.5658,0.146849 0.81029,-0.242361 1.53676,-0.375827 0.73346,-0.140795 1.38308,-0.172694 1.7603,-0.08644 2.81507,0.266916 0.64264,0.212928 0.64264,0.855573 0,0.363234 -0.25147,0.654994 -0.2794,0.335042 -0.71249,0.356308 z"
     id="path8247"
     style="font-weight:bold;font-size:22.6184px;line-height:1.03;font-family:'Comic Sans MS';-inkscape-font-specification:'Comic Sans MS Bold';fill:#ffffff;stroke-width:3;stroke-dasharray:none;paint-order:stroke fill markers" /><path
     d="m 120.36889,21.383761 q -0.82426,0.403708 -2.54962,0.774826 -1.57868,0.342959 -2.59154,0.392694 -1.71139,0.08404 -1.71139,-1.417798 0,0.11875 0.13971,-2.221192 0.18161,-3.040526 0.18161,-6.756692 0,-0.39816 0.27243,-0.690948 0.27941,-0.293131 0.69852,-0.313711 0.41912,-0.02058 0.69853,0.24511 0.27941,0.265691 0.27941,0.663852 0,3.72315 -0.1886,6.868799 -0.0629,0.561909 -0.13272,1.717909 1.65551,-0.109235 4.24705,-1.018838 0.16066,-0.05679 0.30735,-0.06399 0.44007,-0.02161 0.7125,0.286336 0.24448,0.274391 0.24448,0.63064 0,0.600734 -0.60772,0.903002 z"
     id="path8249"
     style="font-weight:bold;font-size:22.6184px;line-height:1.03;font-family:'Comic Sans MS';-inkscape-font-specification:'Comic Sans MS Bold';fill:#ffffff;stroke-width:3;stroke-dasharray:none;paint-order:stroke fill markers" /><path
     d="m 128.24828,20.996853 q -0.82426,0.403709 -2.54962,0.774827 -1.57867,0.342958 -2.59154,0.392694 -1.71139,0.08404 -1.71139,-1.417798 0,0.118749 0.1397,-2.221192 0.18162,-3.040526 0.18162,-6.756692 0,-0.39816 0.27243,-0.690949 0.27941,-0.29313 0.69853,-0.313711 0.41911,-0.02058 0.69852,0.245111 0.27942,0.265691 0.27942,0.663851 0,3.723151 -0.18861,6.8688 -0.0629,0.561909 -0.13272,1.717909 1.65551,-0.109235 4.24704,-1.018838 0.16067,-0.05679 0.30736,-0.06399 0.44007,-0.02161 0.7125,0.286337 0.24448,0.274391 0.24448,0.63064 0,0.600733 -0.60772,0.903001 z"
     id="path8251"
     style="font-weight:bold;font-size:22.6184px;line-height:1.03;font-family:'Comic Sans MS';-inkscape-font-specification:'Comic Sans MS Bold';fill:#ffffff;stroke-width:3;stroke-dasharray:none;paint-order:stroke fill markers" /></g><path
   id="path8481"
   style="opacity:1;fill:#ffffff;stroke:#000000;stroke-width:5;stroke-dasharray:none;paint-order:stroke fill markers"
   d="M 206.0332 43.332031 L 200.93945 53.220703 L 193.54883 62.378906 L 182.51172 67.505859 L 173.00977 70.4375 L 159.38867 61.646484 L 140.36133 75.564453 L 142.9375 82.523438 L 144.33789 91.681641 L 135.41016 103.03711 L 130.14062 109.9043 L 158.30664 109.9043 L 161.70703 105.23438 L 181.86914 90.216797 L 202.35938 87.285156 L 218.3125 95.710938 L 223.49805 108.53125 L 223.50977 109.9043 L 253.72266 109.9043 L 252.76562 109.62891 L 252.46094 100.47266 L 251.02344 92.414062 L 265.70508 73.367188 L 258.82227 60.181641 L 237.63672 73.001953 L 233.38867 68.605469 L 223.54883 63.478516 L 223.14844 53.587891 L 226.54492 43.332031 L 206.0332 43.332031 z " /><g
   id="g12205"
   transform="matrix(2.1100203,-0.23255663,0.25203305,1.9611351,-124.21148,-8.7734912)"><path
     style="fill:#000000;stroke:none;stroke-width:2.45786;paint-order:stroke fill markers"
     d="m 95.41653,47.474376 c -0.340763,-0.628257 -0.221578,-0.856455 -0.063,-1.058435 0.131651,-0.167682 0.669514,-0.337682 1.033988,0.03369 2.713302,2.997695 2.628285,6.324532 0.713224,8.97343 -0.810973,0.84419 -1.574738,-0.107611 -1.076309,-0.997048 1.609556,-2.987629 1.303744,-4.117285 -0.60792,-6.951638 z"
     id="path4071"
     sodipodi:nodetypes="csccccc" /><path
     style="fill:#000000;stroke:none;stroke-width:2.45786;paint-order:stroke fill markers"
     d="m 97.390661,44.870974 c -0.347255,-0.490456 -0.243096,-0.84639 -0.08526,-1.034933 0.143683,-0.171645 0.63493,-0.343378 1.056258,0.01019 4.034511,4.021984 4.703521,9.518611 1.186865,14.235625 -0.463718,0.698761 -1.829123,0.23302 -1.0763,-0.997049 2.713116,-3.854752 2.470226,-8.193955 -1.08156,-12.213834 z"
     id="path4073"
     sodipodi:nodetypes="cscccc" /></g><path
   id="ellipse11818"
   style="fill:#ffffff;stroke:#000000;stroke-width:5;stroke-dasharray:none;paint-order:stroke fill markers"
   d="m 34.876997,48.871896 a 22.892801,27.837646 0 0 0 -22.892579,27.83789 22.892801,27.837646 0 0 0 22.892579,27.837894 22.892801,27.837646 0 0 0 13,-4.986331 22.892801,27.837646 0 0 0 13,4.986331 22.892801,27.837646 0 0 0 22.892578,-27.837894 22.892801,27.837646 0 0 0 -22.892578,-27.83789 22.892801,27.837646 0 0 0 -12.96875,4.958984 22.892801,27.837646 0 0 0 -13.03125,-4.958984 z" /><path
   id="path11809"
   style="fill:#000000;stroke:none;stroke-width:5.7645;stroke-dasharray:none;paint-order:stroke fill markers"
   d="m 45.097656,58.570253 a 8.973979,13.552539 0 0 0 -2.166015,0.414063 6.0437002,5.6774149 0 0 1 5.279297,5.628906 6.0437002,5.6774149 0 0 1 -6.044922,5.677734 6.0437002,5.6774149 0 0 1 -5.404297,-3.15625 8.973979,13.552539 0 0 0 -0.638672,4.988281 8.973979,13.552539 0 0 0 8.974609,13.550782 8.973979,13.552539 0 0 0 8.972656,-13.550782 8.973979,13.552539 0 0 0 -8.972656,-13.552734 z" /><path
   id="path13423"
   style="fill:#000000;stroke:none;stroke-width:5.7645;stroke-dasharray:none;paint-order:stroke fill markers"
   d="m 69.097656,58.570253 a 8.973979,13.552539 0 0 0 -2.166015,0.414063 6.0437002,5.6774149 0 0 1 5.279297,5.628906 6.0437002,5.6774149 0 0 1 -6.044922,5.677734 6.0437002,5.6774149 0 0 1 -5.404297,-3.15625 8.973979,13.552539 0 0 0 -0.638672,4.988281 8.973979,13.552539 0 0 0 8.974609,13.550782 8.973979,13.552539 0 0 0 8.972656,-13.550782 8.973979,13.552539 0 0 0 -8.972656,-13.552734 z" /></svg>
