<?xml version="1.0" encoding="UTF-8" standalone="no"?>
<svg
   xml:space="preserve"
   viewBox="0 0 297 110"
   version="1.1"
   id="svg4256"
   sodipodi:docname="cognitive-load.svg"
   inkscape:version="1.2.1 (9c6d41e4, 2022-07-14)"
   xmlns:inkscape="http://www.inkscape.org/namespaces/inkscape"
   xmlns:sodipodi="http://sodipodi.sourceforge.net/DTD/sodipodi-0.dtd"
   xmlns="http://www.w3.org/2000/svg"
   xmlns:svg="http://www.w3.org/2000/svg"><defs
   id="defs4260" /><sodipodi:namedview
   id="namedview4258"
   pagecolor="#ffffff"
   bordercolor="#000000"
   borderopacity="0.25"
   inkscape:showpageshadow="2"
   inkscape:pageopacity="0.0"
   inkscape:pagecheckerboard="0"
   inkscape:deskcolor="#d1d1d1"
   showgrid="false"
   inkscape:zoom="3.31119"
   inkscape:cx="179.99571"
   inkscape:cy="67.045383"
   inkscape:window-width="1728"
   inkscape:window-height="1016"
   inkscape:window-x="0"
   inkscape:window-y="38"
   inkscape:window-maximized="1"
   inkscape:current-layer="svg4256" />
  <rect
   width="296.752"
   height="109.811"
   x=".319"
   y=".094"
   fill="#99f5fa"
   paint-order="stroke fill markers"
   rx="0"
   ry="0"
   id="rect4192" />
  
  
  
  
  
  
  
  
  
  
  
  
  
  
  
  
<ellipse
   style="opacity:0.128889;fill:#000000;fill-opacity:1;stroke:none;stroke-width:0.54258;stroke-linecap:round;stroke-linejoin:round;stroke-dasharray:none;stroke-opacity:1"
   id="ellipse6498"
   cx="207.63695"
   cy="97.057541"
   rx="20.853603"
   ry="5.1364651"
   transform="matrix(0.99998302,0.00582717,0,1,0,0)" /><ellipse
   style="opacity:0.128889;fill:#000000;fill-opacity:1;stroke:none;stroke-width:0.541382;stroke-linecap:round;stroke-linejoin:round;stroke-dasharray:none;stroke-opacity:1"
   id="path6478"
   cx="121.90874"
   cy="105.02751"
   rx="20.761684"
   ry="5.1364651"
   transform="matrix(0.99867083,-0.0515419,0,1,0,0)" /><path
   style="fill:#ffffff;stroke:#000000;stroke-width:0.779171;stroke-linecap:round;stroke-linejoin:round;stroke-dasharray:none;stroke-opacity:1"
   d="m 79.323883,11.907368 9.2068,84.774263 c 0.85417,2.65092 2.5638,2.90522 3.93096,3.457199 4.50121,1.84595 10.465247,2.31513 16.608227,2.6159 6.53341,0.17293 12.44826,-0.58195 17.38039,-2.810959 2.52333,-1.26419 3.19182,-1.460618 3.53882,-4.493566 l 9.51622,-83.178841 z"
   id="path3229"
   sodipodi:nodetypes="cccccccc" /><path
   style="fill:#b0d3dc;fill-opacity:1;stroke:#000000;stroke-width:0.779171;stroke-linecap:round;stroke-linejoin:round;stroke-dasharray:none;stroke-opacity:1"
   d="m 82.433903,23.890306 7.76742,67.909372 0.44384,3.106965 5.32623,2.10829 7.434517,1.220601 10.87438,-0.110961 9.20993,-1.331563 4.32756,-2.330222 7.98935,-70.461518 -3.32891,1.886368 -11.0963,1.997334 -14.75808,0.221927 -15.423857,-0.887707 -7.54548,-2.21926 z"
   id="path3401" /><ellipse
   style="fill:#aa0000;stroke-width:0.202585;stroke-linecap:round;stroke-linejoin:round;stroke-opacity:0.241007"
   id="path3169"
   cx="104.09817"
   cy="11.376629"
   rx="1.211742"
   ry="0.12117419" /><ellipse
   style="fill:#ffffff;stroke:#000000;stroke-width:0.779171;stroke-linecap:round;stroke-linejoin:round;stroke-dasharray:none;stroke-opacity:1"
   id="path3171"
   cx="109.66482"
   cy="11.448221"
   rx="30.109386"
   ry="4.9372811" /><path
   style="fill:#000000;stroke:#000000;stroke-width:0.233752;stroke-linecap:round;stroke-linejoin:round;stroke-dasharray:none;stroke-opacity:1"
   d="m 91.552033,98.509167 3.06555,1.273994 5.454317,0.955489"
   id="path3393" /><path
   style="fill:#000000;stroke:#000000;stroke-width:0.233752;stroke-linecap:round;stroke-linejoin:round;stroke-dasharray:none;stroke-opacity:1"
   d="m 115.95712,101.29604 5.49412,-1.15456 2.94614,-0.517559 2.62763,-1.03514"
   id="path3397" /><path
   id="path3399"
   style="fill:#b0d3dc;fill-opacity:1;stroke:#000000;stroke-width:0.420754;stroke-linecap:round;stroke-linejoin:round;stroke-dasharray:none;stroke-opacity:1"
   d="m 109.32493,20.240976 c -14.593847,1.5e-5 -26.480927,1.257807 -26.480937,3.520307 4e-5,2.262484 11.83064,4.495581 26.424477,4.49559 14.59382,-9e-6 26.36797,-2.277437 26.36801,-4.539922 0,-2.262492 -11.71769,-3.47596 -26.31155,-3.475975 z"
   sodipodi:nodetypes="scscs" /><path
   style="fill:#ffffff;stroke:none;stroke-width:0.779171;stroke-linecap:round;stroke-linejoin:round;stroke-dasharray:none;stroke-opacity:1"
   d="m 89.123333,24.34976 5.05402,-1.364584 -4.85186,0.404323 -0.65702,0.101076 2.62808,-0.96026 3.03242,-0.252703 1.11188,-0.151621 -0.45486,0.808647 7.277787,-0.808647 2.83024,0.151621 11.52318,-0.252704 4.59916,0.252704 4.90239,0.859184 0.90972,0.65702 h -0.55594 l -5.81213,-0.707565 -6.4186,-0.151613 -10.96723,0.101075 -6.014267,0.303241 -4.34646,0.758103 -3.13349,0.707564 z"
   id="path3459" /><path
   style="fill:#ffffff;stroke:none;stroke-width:0.779171;stroke-linecap:round;stroke-linejoin:round;stroke-dasharray:none;stroke-opacity:1"
   d="m 99.332443,25.107862 5.407807,-1.212963 3.33565,0.202158 1.31404,0.657027 -2.77971,-0.202166 -3.58834,0.404324 -3.133497,0.657019 z"
   id="path3461" /><path
   id="path3482"
   style="opacity:0.128889;fill:#000000;stroke:none;stroke-width:0.779171;stroke-linecap:round;stroke-linejoin:round;stroke-dasharray:none;stroke-opacity:1"
   d="m 131.30289,21.05278 0.31809,3.816701 -0.63619,3.498616 -2.38568,19.242563 -3.18052,31.647368 -1.59208,13.003933 -7.94989,-1.156005 -0.39741,2.703379 -0.63618,1.272376 -3.65767,1.112914 -3.10119,0.07968 -5.08908,-0.874556 -5.088667,-0.159042 -2.38568,0.874546 h -2.22625 l 4.05507,0.556462 5.804577,0.715914 8.66741,0.556453 7.63342,-0.556453 7.39503,-2.226648 0.0157,-0.03866 0.46144,0.03866 0.47713,-1.908152 7.31533,-62.340444 0.47712,-7.633406 -1.59046,-0.954277 z m -22.42349,72.200095 -2.46501,0.397417 -2.78311,0.159043 4.45289,0.07932 2.0676,0.238778 0.95427,-0.397824 z" /><path
   style="fill:#000000;stroke:none;stroke-width:0.779171;stroke-linecap:round;stroke-linejoin:round;stroke-dasharray:none;stroke-opacity:1"
   d="m 82.510973,26.429719 -0.36369,-2.275362 -0.0442,-4.07606 -0.46616,-5.244295 h 0.23308 l 0.69924,5.36083 0.23308,3.787554 v 2.272526 z"
   id="path3584"
   sodipodi:nodetypes="ccccccccc" /><path
   style="fill:#000000;stroke:none;stroke-width:0.779171;stroke-linecap:round;stroke-linejoin:round;stroke-dasharray:none;stroke-opacity:1"
   d="m 82.685793,15.591509 h 0.64097 l 0.46616,3.904089 -0.46616,0.116535 z"
   id="path3586" /><path
   id="ellipse3173"
   style="fill:#ffffff;stroke:#000000;stroke-width:0.456636;stroke-linecap:round;stroke-linejoin:round;stroke-dasharray:none;stroke-opacity:1"
   d="m 109.49358,7.8074097 c -15.496117,-7.6e-6 -27.975787,1.9885515 -27.975747,3.7299783 -5e-5,1.741435 13.22128,3.48277 28.717407,3.48277 15.49596,-2.3e-5 27.39855,-1.74135 27.39849,-3.48277 5e-5,-1.7414118 -12.6442,-3.729963 -28.14015,-3.7299783 z"
   sodipodi:nodetypes="ccccc" /><path
   style="opacity:0.826667;fill:#ffffff;stroke:none;stroke-width:0.78754;stroke-linecap:round;stroke-linejoin:round;stroke-dasharray:none;stroke-opacity:1"
   d="m 88.647833,19.484669 -2.66311,0.793508 -1.22059,0.226721 4.2166,38.655371 2.55214,22.898493 1.77542,9.862219 0.69592,4.249258 2.65609,0.582049 -0.1341,-1.20382 -3.21791,-24.825602 -1.66446,-15.530157 -1.7754,-18.817573 z"
   id="path3403"
   sodipodi:nodetypes="ccccccccccccc" /><path
   style="fill:#000000;fill-opacity:1;stroke:none;stroke-width:0.779171;stroke-linecap:round;stroke-linejoin:round;stroke-dasharray:none;stroke-opacity:1"
   d="m 135.28333,30.278025 2.08932,-13.802204 -1.155,3.775954 -0.64111,2.821049 0.0867,0.430728 z"
   id="path5919"
   sodipodi:nodetypes="cccccc" /><g
   id="g6364"
   transform="matrix(0.77917231,0,0,0.77917231,-102.07396,-23.158017)"><path
     style="opacity:1;fill:#ffffff;stroke:#000000;stroke-width:0.886429;stroke-linecap:round;stroke-linejoin:round;stroke-dasharray:none;stroke-opacity:1"
     d="m 357.45806,81.99324 7.72002,72.46742 c 0.97176,3.01583 2.91674,3.30514 4.47208,3.9331 5.12084,2.10006 11.90584,2.63384 18.89442,2.976 7.43278,0.19674 14.16185,-0.66206 19.77289,-3.19791 2.87067,-1.43822 3.63119,-1.66169 4.02596,-5.11213 l 8.03263,-70.211166 z"
     id="path6017"
     sodipodi:nodetypes="cccccccc" /><path
     style="opacity:1;fill:#b0d3dc;fill-opacity:1;stroke:#000000;stroke-width:0.886429;stroke-linecap:round;stroke-linejoin:round;stroke-dasharray:none;stroke-opacity:1"
     d="m 361.14234,97.006016 5.93636,51.900674 0.50494,3.53465 6.05941,2.39851 8.45792,1.38861 12.37129,-0.12623 10.47772,-1.51486 4.92326,-2.65099 6.02065,-54.463456 c -4.01345,1.933651 -11.18335,5.050456 -29.27679,4.620256 -12.40649,-0.29499 -23.53787,-2.328798 -25.47476,-5.087164 z"
     id="path6013"
     sodipodi:nodetypes="cccccccccsc" /><ellipse
     style="opacity:0.773333;fill:#aa0000;stroke-width:0.221462;stroke-linecap:round;stroke-linejoin:round;stroke-opacity:0.241007"
     id="ellipse6015"
     cx="383.26614"
     cy="81.751854"
     rx="1.2707531"
     ry="0.13808385" /><ellipse
     style="opacity:1;fill:#ffffff;stroke:#000000;stroke-width:0.851775;stroke-linecap:round;stroke-linejoin:round;stroke-dasharray:none;stroke-opacity:1"
     id="ellipse6019"
     cx="389.10388"
     cy="81.833435"
     rx="31.575693"
     ry="5.6262698" /><path
     id="path6021"
     style="opacity:0.773333;fill:none;stroke:#000000;stroke-width:0.626706;stroke-linecap:round;stroke-linejoin:round;stroke-dasharray:none;stroke-opacity:1"
     d="m 388.6801,148.07419 c -11.70448,1e-5 -21.23811,1.28507 -21.23812,3.59662 3e-5,2.31154 9.48837,4.59306 21.19282,4.59307 11.70449,-1e-5 21.14753,-2.32683 21.14756,-4.63837 0,-2.31154 -9.39777,-3.55131 -21.10226,-3.55132 z"
     sodipodi:nodetypes="scscs" /><path
     style="opacity:0.773333;fill:#000000;stroke:#000000;stroke-width:0.265929;stroke-linecap:round;stroke-linejoin:round;stroke-dasharray:none;stroke-opacity:1"
     d="m 367.84535,155.04509 3.98578,1.85701 1.04174,0.18117"
     id="path6023" /><path
     style="opacity:0.773333;fill:#000000;stroke:#000000;stroke-width:0.265929;stroke-linecap:round;stroke-linejoin:round;stroke-dasharray:none;stroke-opacity:1"
     d="m 368.61533,156.53976 3.48756,1.44938 6.20513,1.08702"
     id="path6025" /><path
     style="opacity:0.773333;fill:#000000;stroke:#000000;stroke-width:0.265929;stroke-linecap:round;stroke-linejoin:round;stroke-dasharray:none;stroke-opacity:1"
     d="m 404.21558,156.9927 3.26109,-1.3588 2.35524,-0.99645"
     id="path6027" /><path
     style="opacity:0.773333;fill:#000000;stroke:#000000;stroke-width:0.265929;stroke-linecap:round;stroke-linejoin:round;stroke-dasharray:none;stroke-opacity:1"
     d="m 396.3799,159.71028 6.25042,-1.31351 3.35169,-0.58881 2.98933,-1.17762"
     id="path6029" /><path
     id="path6031"
     style="opacity:1;fill:#b0d3dc;fill-opacity:1;stroke:#000000;stroke-width:0.456309;stroke-linecap:round;stroke-linejoin:round;stroke-dasharray:none;stroke-opacity:1"
     d="m 388.82576,92.886404 c -15.05076,1.9e-5 -27.31001,1.434463 -27.31002,4.014719 5e-5,2.580232 12.20105,5.126947 27.25177,5.126967 15.05074,-2e-5 27.29151,-2.499286 27.29156,-5.079532 0,-2.580242 -12.18255,-4.062135 -27.23331,-4.062154 z"
     sodipodi:nodetypes="scscs" /><g
     id="g6092"
     transform="translate(0,25.4)"><path
       style="opacity:0.773333;fill:#ffffff;stroke:none;stroke-width:0.886429;stroke-linecap:round;stroke-linejoin:round;stroke-dasharray:none;stroke-opacity:1"
       d="m 365.85231,72.171966 5.74974,-1.552427 -5.51975,0.45998 -0.74745,0.114993 2.98985,-1.092448 3.44984,-0.287487 1.26494,-0.172491 -0.51748,0.919956 8.27962,-0.919956 3.21984,0.172491 13.10938,-0.287486 5.23226,0.287486 5.57723,0.977454 1.03495,0.747465 h -0.63247 l -6.61219,-0.804964 -7.30215,-0.17249 -12.47691,0.114994 -6.84219,0.344983 -4.94475,0.862462 -3.56483,0.804962 z"
       id="path6033" /><path
       style="opacity:0.773333;fill:#ffffff;stroke:none;stroke-width:0.886429;stroke-linecap:round;stroke-linejoin:round;stroke-dasharray:none;stroke-opacity:1"
       d="m 377.46676,73.034426 6.15221,-1.379934 3.79482,0.229989 1.49494,0.747462 -3.16235,-0.229988 -4.08232,0.459978 -3.56482,0.747461 z"
       id="path6035" /></g><path
     id="path6037"
     style="opacity:0.124;fill:#000000;stroke:none;stroke-width:0.886429;stroke-linecap:round;stroke-linejoin:round;stroke-dasharray:none;stroke-opacity:1"
     d="m 411.67133,94.534199 -0.20463,4.100648 -4.32291,36.003763 -1.81123,14.79399 -9.04424,-1.31514 -0.45211,3.07552 -0.72376,1.44752 -4.16116,1.26612 -3.52809,0.0908 -5.7896,-0.99494 -5.78915,-0.18094 -2.7141,0.99494 h -2.53269 l 4.61327,0.63306 6.60361,0.81447 9.86052,0.63305 8.68418,-0.63305 8.413,-2.53317 0.018,-0.044 0.52495,0.044 0.54282,-2.17081 6.19447,-53.492336 c 1.15506,-0.06603 -2.32202,-2.693646 -4.38115,-2.533495 z m -23.34343,56.025721 -2.80433,0.45212 -3.16622,0.18094 5.06585,0.0903 2.35222,0.27164 1.08564,-0.45257 z"
     sodipodi:nodetypes="cccccccccccccccccccccccccccccc" /><path
     style="opacity:1;fill:#000000;stroke:none;stroke-width:0.851775;stroke-linecap:round;stroke-linejoin:round;stroke-dasharray:none;stroke-opacity:1"
     d="m 359.6902,88.310325 0.98834,-0.03952 0.85818,9.264547 -0.44933,2.780548 z"
     id="path6041"
     sodipodi:nodetypes="ccccc" /><path
     id="path6043"
     style="opacity:1;fill:#ffffff;stroke:#000000;stroke-width:0.499186;stroke-linecap:round;stroke-linejoin:round;stroke-dasharray:none;stroke-opacity:1"
     d="m 388.92443,77.684564 c -16.25076,-5e-6 -29.3382,2.266049 -29.33815,4.250494 -5e-5,1.984446 13.86516,3.968785 30.11592,3.96878 16.25061,-2.5e-5 28.73284,-1.984355 28.73279,-3.96878 5e-5,-1.984424 -13.25996,-4.250469 -29.51056,-4.250494 z"
     sodipodi:nodetypes="ccccc" /><path
     style="opacity:0.817778;fill:#ffffff;stroke:none;stroke-width:0.895949;stroke-linecap:round;stroke-linejoin:round;stroke-dasharray:none;stroke-opacity:1"
     d="m 363.10816,88.104695 2.58192,23.669605 2.90348,26.05058 2.01979,11.21981 0.79172,4.83418 3.02172,0.66218 -0.15255,-1.36954 -3.66089,-28.24297 -1.89356,-17.66796 -1.73712,-18.411791 z"
     id="path6045"
     sodipodi:nodetypes="ccccccccccc" /><path
     style="opacity:1;fill:#000000;stroke:none;stroke-width:0.851775;stroke-linecap:round;stroke-linejoin:round;stroke-dasharray:none;stroke-opacity:1"
     d="m 417.24702,89.983183 -0.98834,-0.03952 -0.85818,9.264547 0.44933,2.78055 z"
     id="path6262"
     sodipodi:nodetypes="ccccc" /></g><g
   id="g6422"
   transform="matrix(0.77917231,0,0,0.77917231,-102.07396,-22.745708)"><path
     style="opacity:1;fill:#ffffff;stroke:#000000;stroke-width:0.886429;stroke-linecap:round;stroke-linejoin:round;stroke-dasharray:none;stroke-opacity:1"
     d="m 357.45806,81.99324 7.72002,72.46742 c 0.97176,3.01583 2.91674,3.30514 4.47208,3.9331 5.12084,2.10006 11.90584,2.63384 18.89442,2.976 7.43278,0.19674 14.16185,-0.66206 19.77289,-3.19791 2.87067,-1.43822 3.63119,-1.66169 4.02596,-5.11213 l 8.03263,-70.211166 z"
     id="path6386"
     sodipodi:nodetypes="cccccccc" /><path
     style="opacity:1;fill:#b0d3dc;fill-opacity:1;stroke:#000000;stroke-width:0.886429;stroke-linecap:round;stroke-linejoin:round;stroke-dasharray:none;stroke-opacity:1"
     d="m 361.14234,97.006016 5.93636,51.900674 0.50494,3.53465 6.05941,2.39851 8.45792,1.38861 12.37129,-0.12623 10.47772,-1.51486 4.92326,-2.65099 6.02065,-54.463456 c -4.01345,1.933651 -11.18335,5.050456 -29.27679,4.620256 -12.40649,-0.29499 -23.53787,-2.328798 -25.47476,-5.087164 z"
     id="path6388"
     sodipodi:nodetypes="cccccccccsc" /><ellipse
     style="opacity:0.773333;fill:#aa0000;stroke-width:0.221462;stroke-linecap:round;stroke-linejoin:round;stroke-opacity:0.241007"
     id="ellipse6390"
     cx="383.26614"
     cy="81.751854"
     rx="1.2707531"
     ry="0.13808385" /><ellipse
     style="opacity:1;fill:#ffffff;stroke:#000000;stroke-width:0.851775;stroke-linecap:round;stroke-linejoin:round;stroke-dasharray:none;stroke-opacity:1"
     id="ellipse6392"
     cx="389.10388"
     cy="81.833435"
     rx="31.575693"
     ry="5.6262698" /><path
     id="path6394"
     style="opacity:0.773333;fill:none;stroke:#000000;stroke-width:0.626706;stroke-linecap:round;stroke-linejoin:round;stroke-dasharray:none;stroke-opacity:1"
     d="m 388.6801,148.07419 c -11.70448,1e-5 -21.23811,1.28507 -21.23812,3.59662 3e-5,2.31154 9.48837,4.59306 21.19282,4.59307 11.70449,-1e-5 21.14753,-2.32683 21.14756,-4.63837 0,-2.31154 -9.39777,-3.55131 -21.10226,-3.55132 z"
     sodipodi:nodetypes="scscs" /><path
     style="opacity:0.773333;fill:#000000;stroke:#000000;stroke-width:0.265929;stroke-linecap:round;stroke-linejoin:round;stroke-dasharray:none;stroke-opacity:1"
     d="m 367.84535,155.04509 3.98578,1.85701 1.04174,0.18117"
     id="path6396" /><path
     style="opacity:0.773333;fill:#000000;stroke:#000000;stroke-width:0.265929;stroke-linecap:round;stroke-linejoin:round;stroke-dasharray:none;stroke-opacity:1"
     d="m 368.61533,156.53976 3.48756,1.44938 6.20513,1.08702"
     id="path6398" /><path
     style="opacity:0.773333;fill:#000000;stroke:#000000;stroke-width:0.265929;stroke-linecap:round;stroke-linejoin:round;stroke-dasharray:none;stroke-opacity:1"
     d="m 404.21558,156.9927 3.26109,-1.3588 2.35524,-0.99645"
     id="path6400" /><path
     style="opacity:0.773333;fill:#000000;stroke:#000000;stroke-width:0.265929;stroke-linecap:round;stroke-linejoin:round;stroke-dasharray:none;stroke-opacity:1"
     d="m 396.3799,159.71028 6.25042,-1.31351 3.35169,-0.58881 2.98933,-1.17762"
     id="path6402" /><path
     id="path6404"
     style="opacity:1;fill:#b0d3dc;fill-opacity:1;stroke:#000000;stroke-width:0.456309;stroke-linecap:round;stroke-linejoin:round;stroke-dasharray:none;stroke-opacity:1"
     d="m 388.82576,92.886404 c -15.05076,1.9e-5 -27.31001,1.434463 -27.31002,4.014719 5e-5,2.580232 12.20105,5.126947 27.25177,5.126967 15.05074,-2e-5 27.29151,-2.499286 27.29156,-5.079532 0,-2.580242 -12.18255,-4.062135 -27.23331,-4.062154 z"
     sodipodi:nodetypes="scscs" /><g
     id="g6410"
     transform="translate(0,25.4)"><path
       style="opacity:0.773333;fill:#ffffff;stroke:none;stroke-width:0.886429;stroke-linecap:round;stroke-linejoin:round;stroke-dasharray:none;stroke-opacity:1"
       d="m 365.85231,72.171966 5.74974,-1.552427 -5.51975,0.45998 -0.74745,0.114993 2.98985,-1.092448 3.44984,-0.287487 1.26494,-0.172491 -0.51748,0.919956 8.27962,-0.919956 3.21984,0.172491 13.10938,-0.287486 5.23226,0.287486 5.57723,0.977454 1.03495,0.747465 h -0.63247 l -6.61219,-0.804964 -7.30215,-0.17249 -12.47691,0.114994 -6.84219,0.344983 -4.94475,0.862462 -3.56483,0.804962 z"
       id="path6406" /><path
       style="opacity:0.773333;fill:#ffffff;stroke:none;stroke-width:0.886429;stroke-linecap:round;stroke-linejoin:round;stroke-dasharray:none;stroke-opacity:1"
       d="m 377.46676,73.034426 6.15221,-1.379934 3.79482,0.229989 1.49494,0.747462 -3.16235,-0.229988 -4.08232,0.459978 -3.56482,0.747461 z"
       id="path6408" /></g><path
     id="path6412"
     style="opacity:0.124;fill:#000000;stroke:none;stroke-width:0.886429;stroke-linecap:round;stroke-linejoin:round;stroke-dasharray:none;stroke-opacity:1"
     d="m 411.67133,94.534199 -0.20463,4.100648 -4.32291,36.003763 -1.81123,14.79399 -9.04424,-1.31514 -0.45211,3.07552 -0.72376,1.44752 -4.16116,1.26612 -3.52809,0.0908 -5.7896,-0.99494 -5.78915,-0.18094 -2.7141,0.99494 h -2.53269 l 4.61327,0.63306 6.60361,0.81447 9.86052,0.63305 8.68418,-0.63305 8.413,-2.53317 0.018,-0.044 0.52495,0.044 0.54282,-2.17081 6.19447,-53.492336 c 1.15506,-0.06603 -2.32202,-2.693646 -4.38115,-2.533495 z m -23.34343,56.025721 -2.80433,0.45212 -3.16622,0.18094 5.06585,0.0903 2.35222,0.27164 1.08564,-0.45257 z"
     sodipodi:nodetypes="cccccccccccccccccccccccccccccc" /><path
     style="opacity:1;fill:#000000;stroke:none;stroke-width:0.851775;stroke-linecap:round;stroke-linejoin:round;stroke-dasharray:none;stroke-opacity:1"
     d="m 359.6902,88.310325 0.98834,-0.03952 0.85818,9.264547 -0.44933,2.780548 z"
     id="path6414"
     sodipodi:nodetypes="ccccc" /><path
     id="path6416"
     style="opacity:1;fill:#ffffff;stroke:#000000;stroke-width:0.499186;stroke-linecap:round;stroke-linejoin:round;stroke-dasharray:none;stroke-opacity:1"
     d="m 388.92443,77.684564 c -16.25076,-5e-6 -29.3382,2.266049 -29.33815,4.250494 -5e-5,1.984446 13.86516,3.968785 30.11592,3.96878 16.25061,-2.5e-5 28.73284,-1.984355 28.73279,-3.96878 5e-5,-1.984424 -13.25996,-4.250469 -29.51056,-4.250494 z"
     sodipodi:nodetypes="ccccc" /><path
     style="opacity:0.817778;fill:#ffffff;stroke:none;stroke-width:0.895949;stroke-linecap:round;stroke-linejoin:round;stroke-dasharray:none;stroke-opacity:1"
     d="m 363.10816,88.104695 2.58192,23.669605 2.90348,26.05058 2.01979,11.21981 0.79172,4.83418 3.02172,0.66218 -0.15255,-1.36954 -3.66089,-28.24297 -1.89356,-17.66796 -1.73712,-18.411791 z"
     id="path6418"
     sodipodi:nodetypes="ccccccccccc" /><path
     style="opacity:1;fill:#000000;stroke:none;stroke-width:0.851775;stroke-linecap:round;stroke-linejoin:round;stroke-dasharray:none;stroke-opacity:1"
     d="m 417.24702,89.983183 -0.98834,-0.03952 -0.85818,9.264547 0.44933,2.78055 z"
     id="path6420"
     sodipodi:nodetypes="ccccc" /></g><path
   style="fill:#000000;fill-opacity:1;stroke:#000000;stroke-width:0.550876;stroke-linecap:round;stroke-linejoin:round;stroke-dasharray:none;stroke-opacity:1"
   d="m 84.590213,96.829649 -0.97749,-14.906814 -1.46625,-13.684953 c -0.42567,-3.085948 -0.83684,-6.094107 -1.22973,-9.061621 -0.029,-0.219416 -0.058,-0.43861 -0.0868,-0.657597 m -1.00427,-7.920399 c -0.82963,-6.855706 -1.5385,-13.686558 -2.07794,-20.971485 l -0.97749,-8.064345"
   id="path7083"
   sodipodi:nodetypes="cccscccc" /><path
   style="fill:none;fill-opacity:1;stroke:#000000;stroke-width:0.550876;stroke-linecap:round;stroke-linejoin:round;stroke-dasharray:none;stroke-opacity:1"
   d="m 78.939883,23.611971 -2.14646,-1.920513 -1.35564,2.598334"
   id="path7154"
   sodipodi:nodetypes="ccc" /><text
   xml:space="preserve"
   style="font-weight:bold;font-stretch:condensed;font-size:3.61309px;line-height:1.03;font-family:'Arial Narrow';-inkscape-font-specification:'Arial Narrow Bold Condensed';text-align:center;text-anchor:middle;fill:#000000;fill-opacity:1;stroke:none;stroke-width:0.689616;stroke-linecap:round;stroke-linejoin:round;stroke-dasharray:none;stroke-opacity:1"
   x="75.130974"
   y="56.676964"
   id="text7228"><tspan
     sodipodi:role="line"
     id="tspan7226"
     style="fill:#000000;stroke:none;stroke-width:0.689613"
     x="75.130974"
     y="56.676964">CAPACITY</tspan></text><path
   style="fill:#000000;fill-opacity:1;stroke:#000000;stroke-width:0.550876;stroke-linecap:round;stroke-linejoin:round;stroke-dasharray:none;stroke-opacity:1"
   d="m 221.3536,98.897011 1.34156,-15.02816 c 0.46645,-5.440796 0.93664,-7.742335 1.41318,-12.013581 0.0228,-0.20415 0.0453,-0.410116 0.0676,-0.6182 m 0.99555,-7.547761 c 0.40464,-2.943349 -0.13526,0.351137 0.59754,-9.545219 l 1.58426,-10.248664"
   id="path7378"
   sodipodi:nodetypes="ccscccc" /><path
   style="fill:none;fill-opacity:1;stroke:#000000;stroke-width:0.550876;stroke-linecap:round;stroke-linejoin:round;stroke-dasharray:none;stroke-opacity:1"
   d="m 225.42637,46.430363 1.90375,-2.405912 1.2343,2.112934"
   id="path7380"
   sodipodi:nodetypes="ccc" /><text
   xml:space="preserve"
   style="font-weight:bold;font-stretch:condensed;font-size:3.61309px;line-height:1.03;font-family:'Arial Narrow';-inkscape-font-specification:'Arial Narrow Bold Condensed';text-align:center;text-anchor:middle;fill:#000000;fill-opacity:1;stroke:none;stroke-width:0.689616;stroke-linecap:round;stroke-linejoin:round;stroke-dasharray:none;stroke-opacity:1"
   x="231.03223"
   y="69.059196"
   id="text7386"><tspan
     sodipodi:role="line"
     id="tspan7384"
     style="fill:#000000;stroke:none;stroke-width:0.689613"
     x="231.03223"
     y="69.059196">CAPACITY</tspan></text><text
   xml:space="preserve"
   style="font-weight:bold;font-stretch:condensed;font-size:6.05492px;line-height:1.03;font-family:'Arial Narrow';-inkscape-font-specification:'Arial Narrow Bold Condensed';text-align:center;text-anchor:middle;fill:#000000;fill-opacity:1;stroke:none;stroke-width:1.15568;stroke-linecap:round;stroke-linejoin:round;stroke-dasharray:none;stroke-opacity:1"
   x="108.60531"
   y="38.188"
   id="text7468"><tspan
     sodipodi:role="line"
     id="tspan7466"
     style="fill:#000000;stroke:none;stroke-width:1.15567"
     x="108.60531"
     y="38.188">COGNITIVE</tspan><tspan
     sodipodi:role="line"
     style="fill:#000000;stroke:none;stroke-width:1.15567"
     x="108.60531"
     y="44.424568"
     id="tspan7604">LOAD</tspan></text><text
   xml:space="preserve"
   style="font-weight:bold;font-stretch:condensed;font-size:6.05492px;line-height:1.03;font-family:'Arial Narrow';-inkscape-font-specification:'Arial Narrow Bold Condensed';text-align:center;text-anchor:middle;fill:#000000;fill-opacity:1;stroke:none;stroke-width:1.15568;stroke-linecap:round;stroke-linejoin:round;stroke-dasharray:none;stroke-opacity:1"
   x="201.2224"
   y="65.856033"
   id="text7610"><tspan
     sodipodi:role="line"
     id="tspan7606"
     style="fill:#000000;stroke:none;stroke-width:1.15567"
     x="201.2224"
     y="65.856033">COGNITIVE</tspan><tspan
     sodipodi:role="line"
     style="fill:#000000;stroke:none;stroke-width:1.15567"
     x="201.2224"
     y="72.092598"
     id="tspan7608">LOAD</tspan></text><g
   id="g7574"><path
     id="path3388"
     style="fill:none;stroke:#000000;stroke-width:0.550876;stroke-linecap:round;stroke-linejoin:round;stroke-dasharray:none;stroke-opacity:1"
     d="m 109.18899,91.067903 c -10.288267,1.5e-5 -18.668327,1.129591 -18.668337,3.161446 3e-5,2.031849 8.34027,4.037294 18.628517,4.037303 10.28825,-9e-6 18.5887,-2.045276 18.58873,-4.077121 0,-2.031845 -8.26066,-3.121613 -18.54891,-3.121628 z"
     sodipodi:nodetypes="scscs" /><path
     style="fill:#000000;stroke:#000000;stroke-width:0.233752;stroke-linecap:round;stroke-linejoin:round;stroke-dasharray:none;stroke-opacity:1"
     d="m 90.875213,97.195342 3.50351,1.632329 0.91567,0.15924"
     id="path3391" /><path
     style="fill:#000000;stroke:#000000;stroke-width:0.233752;stroke-linecap:round;stroke-linejoin:round;stroke-dasharray:none;stroke-opacity:1"
     d="m 122.84469,98.907291 2.8665,-1.194382 2.07026,-0.875874"
     id="path3395" /><text
     xml:space="preserve"
     style="font-weight:bold;font-stretch:condensed;font-size:12.0261px;line-height:1.03;font-family:'Arial Narrow';-inkscape-font-specification:'Arial Narrow Bold Condensed';text-align:center;text-anchor:middle;fill:#000000;fill-opacity:1;stroke:#ffffff;stroke-width:2.29537;stroke-linecap:round;stroke-linejoin:round;stroke-dasharray:none;stroke-opacity:1"
     x="107.74191"
     y="91.440254"
     id="text6746"><tspan
       sodipodi:role="line"
       id="tspan6744"
       style="font-style:normal;font-variant:normal;font-weight:bold;font-stretch:normal;font-family:'Comic Sans MS';-inkscape-font-specification:'Comic Sans MS Bold';fill:#000000;stroke:#ffffff;stroke-width:2.29534"
       x="107.74191"
       y="91.440254">NEUROTYPICAL</tspan></text><text
     xml:space="preserve"
     style="font-weight:bold;font-stretch:condensed;font-size:12.0261px;line-height:1.03;font-family:'Arial Narrow';-inkscape-font-specification:'Arial Narrow Bold Condensed';text-align:center;text-anchor:middle;fill:#000000;fill-opacity:1;stroke:#ffffff;stroke-width:2.29537;stroke-linecap:round;stroke-linejoin:round;stroke-dasharray:none;stroke-opacity:1"
     x="200.78177"
     y="90.814911"
     id="text6904"><tspan
       sodipodi:role="line"
       id="tspan6902"
       style="font-style:normal;font-variant:normal;font-weight:bold;font-stretch:normal;font-family:'Comic Sans MS';-inkscape-font-specification:'Comic Sans MS Bold';fill:#000000;stroke:#ffffff;stroke-width:2.29534"
       x="200.78177"
       y="90.814911">ADHD</tspan></text><text
     xml:space="preserve"
     style="font-weight:bold;font-stretch:condensed;font-size:12.0261px;line-height:1.03;font-family:'Arial Narrow';-inkscape-font-specification:'Arial Narrow Bold Condensed';text-align:center;text-anchor:middle;fill:#000000;fill-opacity:1;stroke:none;stroke-width:2.29537;stroke-linecap:round;stroke-linejoin:round;stroke-dasharray:none;stroke-opacity:1"
     x="107.74191"
     y="91.440254"
     id="text7557"><tspan
       sodipodi:role="line"
       id="tspan7555"
       style="font-style:normal;font-variant:normal;font-weight:bold;font-stretch:normal;font-family:'Comic Sans MS';-inkscape-font-specification:'Comic Sans MS Bold';fill:#000000;stroke:none;stroke-width:2.29534"
       x="107.74191"
       y="91.440254">NEUROTYPICAL</tspan></text><text
     xml:space="preserve"
     style="font-weight:bold;font-stretch:condensed;font-size:12.0261px;line-height:1.03;font-family:'Arial Narrow';-inkscape-font-specification:'Arial Narrow Bold Condensed';text-align:center;text-anchor:middle;fill:#000000;fill-opacity:1;stroke:none;stroke-width:2.29537;stroke-linecap:round;stroke-linejoin:round;stroke-dasharray:none;stroke-opacity:1"
     x="200.78177"
     y="90.814911"
     id="text7561"><tspan
       sodipodi:role="line"
       id="tspan7559"
       style="font-style:normal;font-variant:normal;font-weight:bold;font-stretch:normal;font-family:'Comic Sans MS';-inkscape-font-specification:'Comic Sans MS Bold';fill:#000000;stroke:none;stroke-width:2.29534"
       x="200.78177"
       y="90.814911">ADHD</tspan></text></g></svg>
