<svg xmlns="http://www.w3.org/2000/svg" xml:space="preserve" viewBox="0 0 297 110">
  <rect width="296.752" height="109.811" x=".319" y=".094" fill="#99f5fa" paint-order="stroke fill markers" rx="0" ry="0"/>
  <path fill="#e2dfdc" d="m229.959 53.095-4.973 4.822-4.37 8.288-2.411 11.302-.905 24.563 32.7 1.356-.3-24.713-3.165-13.563-6.028-7.082-6.932-5.124z" paint-order="stroke fill markers"/>
  <path fill="#bbb0ad" d="m242.875 74.06 2.208 30.475-3.312-.22c-1.029-10.364.118-19.969 1.104-30.255zm-1.921-18.38-5.642 1.008-5.64-.202-4.635 3.224-.201 1.007.403 6.447c-1.362 12.277-1.369 24.177-1.209 36.467l.201.403 5.44.201c-3.237-9.856-2.619-20.553-2.619-30.825v-5.44c-.081-11.397 8.312-4.898 13.7-11.282" paint-order="stroke fill markers"/>
  <path fill="#e2dfdc" stroke="#000" stroke-linecap="round" stroke-linejoin="round" stroke-width="2.825" d="M256.05 35.449c0 8.94-6.111 18.347-17.318 20.277-11.206 1.93-19.712-3.573-21.48-12.337-2.259-11.2 9.204-20.607 20.41-22.537 11.207-1.93 18.389 5.656 18.389 14.597z" paint-order="stroke fill markers"/>
  <path fill="#bbb0ad" d="M218.878 34.652c-2.312 9.972 2.957 15.299 8.49 21.04l-6.644-3.999-3.26-4.798-1.477-6.768.615-3.507z" paint-order="stroke fill markers"/>
  <path fill="#1a1a1a" d="M219.561 34.486c1.059-1.073 2.084-1.99 3.13-2.179 4.986-.115 7.046 4.297 4.952 7.567-1.754 2.066-3.693 2.575-5.51 1.98-4.416-1.031-4.172-5.585-2.572-7.368z" paint-order="stroke fill markers"/>
  <path fill="#fff" d="M224.371 34.603a1.724 1.374 50.876 0 0 .022 2.205 1.724 1.374 50.876 0 0 2.154.47 1.724 1.374 50.876 0 0-.023-2.204 1.724 1.374 50.876 0 0-2.153-.47z" paint-order="stroke fill markers"/>
  <path fill="#1a1a1a" d="M238.107 36.05c.535-1.522 1.966-2.81 4.13-3.159a7.803 7.803 0 0 1 1.729-.075c3.996.423 5.22 4.652 2.81 7.7-3.518 4.401-10.619.858-8.67-4.466z" paint-order="stroke fill markers"/>
  <path fill="#fff" d="M243.804 36.533c-.226-.77-.097-1.239.223-1.48 1.95-.93 3.221 1.393 2.368 2.7-1.25.817-1.914-.183-2.59-1.22z" paint-order="stroke fill markers"/>
  <path fill="#1a1a1a" d="M231.334 39.874c1.503-.115 3.006.189 4.51.646 2.4 1.593 3.052 4.897-.44 5.658l-3.85.161c-5.519-.375-5.842-4.542-.22-6.465z" paint-order="stroke fill markers"/>
  <path fill="none" stroke="#000" stroke-linecap="round" stroke-linejoin="round" stroke-width="1.534" d="M240.107 57.607c7.177 4.94 7.278 12.955 9.155 20.98l.89 25.303m-7.629-33.314 2.161 33.187m-19.199-37.001L224.34 79.35l-.635 13.096.381 11.317" paint-order="stroke fill markers"/>
  <path fill="none" stroke="#000" stroke-linecap="round" stroke-linejoin="round" stroke-width="1.525" d="M255.558 36.002c0 8.94-6.112 18.348-17.318 20.278-11.206 1.93-19.712-3.573-21.48-12.338-2.259-11.2 9.204-20.606 20.41-22.536 11.206-1.93 18.388 5.656 18.388 14.596z" paint-order="stroke fill markers"/>
  <path fill="#e2dfdc" stroke="#000" stroke-linecap="round" stroke-linejoin="round" stroke-width="2.825" d="M232.252 26.696c-7.864.612-9.95 1.375-15.457 10.463l-7.253 1.784c1.997-6.59 5-8.854 10.463-12.366-4.42.01-7.726-.065-11.177-2.616 2.089-2.475 10.904-4.923 21.522-5.47-3.3-2.666-6.501-3.466-5.945-7.728 10.94 1.984 20.709 7.223 27.942 13.793-.7-3.863-1.987-7.509-3.33-11.177 3.839 3.697 7.412 7.497 5.708 12.366l7.61.356-6.302 2.26 7.61 7.61-5.113.475c.487 3.754 1.948 6.534 1.308 11.415l-2.497-1.19c-2.158 4.422-5.765 5.021-10.08 6.802 5.866-3.905 7.612-7.925 7.054-9.531-.23-.795-3.268 4.434-6.495 4.336 3.087-8.314.603-12.828.603-20.512l-2.973 3.33-.713-2.022.594-2.616-15.22 8.086c-.75-3.62.255-4.566 1.666-7.967v.119" paint-order="stroke fill markers"/>
  <path fill="none" stroke="#000" stroke-linecap="round" stroke-linejoin="round" stroke-width="1.534" d="M227.344 55.988c-7.176 4.94-7.278 12.954-9.154 20.98l-.89 25.302" paint-order="stroke fill markers"/>
  <g paint-order="stroke fill markers" transform="translate(-16.36 1.644) scale(.85278)">
    <path stroke="#000" stroke-linecap="round" stroke-linejoin="round" stroke-width="3.3" d="M73.002 30.504 71.774 8.396m55.268 2.211-.491 22.844"/>
    <path fill="#e2dfdc" stroke="#000" stroke-linecap="round" stroke-linejoin="round" stroke-width="3.081" d="M87.765 64.306c-1.731 6.486-1.2 11.84 1.148 16.287 7.834 2.759 10.301-.86 16.285-1.34l1.339-14.182z"/>
    <g fill="#e2dfdc" stroke="#000" stroke-linecap="round" stroke-width="3.3" transform="translate(2.9)">
      <path d="M76.402 67.714c-8.726-1.988-14.326-6.26-16.512-12.866.994-29.537 15.908-30.204 44.117-28.155 12.922.686 18.917 1.613 25.737 13.266 1.573 2.737 2.551 5.486 2.86 8.263-1.516 13.149-4.658 19.02-16.96 20.35l-24.66-.215z"/>
      <path stroke-linejoin="round" d="M60.873 40.642c19.632-8.786 17.464 22.538-.111 13.098 7.662 1.178 2.012-7.99.11-13.098z"/>
      <ellipse cx="62.571" cy="47.235" rx="5.427" ry="6.928"/>
    </g>
    <path d="M98.645 34.779c-9.648-.827-12.687 1.027-16.848 9.118l-.608 7.122c1.01 8.02 7.579 7.583 14.416 8.51 7.937.02 17.165.905 23.907-.622 4.176-.946 7.076-2.281 9.095-6.933l-.087-5.124c-2-8.64-2.74-9.713-11.377-11.116z"/>
    <ellipse cx="96.04" cy="45.938" fill="#fff" rx="4.169" ry="4.473"/>
    <ellipse cx="115.667" cy="46.286" fill="#fff" rx="3.995" ry="4.212"/>
    <path fill="red" stroke="#000" stroke-linecap="round" stroke-linejoin="round" stroke-width="3.153" d="M69.931 3.902c-3.364 0-4.863 3.028-4.863 6.46s2.728 6.213 6.092 6.213c3.363 0 6.09-2.781 6.091-6.213 0-3.432-3.955-6.46-7.32-6.46z"/>
    <ellipse cx="128.331" cy="26.564" fill="green" stroke="#000" stroke-linecap="round" stroke-linejoin="round" stroke-width="3.312" rx="6.556" ry="5.281" transform="skewY(-6.866) scale(.99283 1)"/>
    <path fill="#e2dfdc" stroke="#000" stroke-width="3.3" d="m55.35 118.97.005-24.523c.687-15.764 5.878-19.049 20.65-18.85l7.66.104 18.172 1.53 16.45-.765 13.773.192c14.503 1.767 11.86 8.123 11.86 21.04l1.339 22.19"/>
    <ellipse cx="57.506" cy="84.556" fill="#e2dfdc" stroke="#000" stroke-linecap="round" stroke-linejoin="round" stroke-width="3.496" rx="10.872" ry="10.732"/>
    <path fill="#e2dfdc" stroke="#000" stroke-width="3.3" d="m58.957 119.433 1.963-14.669-.41-14.76-9.431-8.407-5.536 11.071-3.038 26.628"/>
    <ellipse cx="54.173" cy="82.751" fill="#e2dfdc" stroke="#000" stroke-linecap="round" stroke-linejoin="round" stroke-width="3.3" rx="8.348" ry="8.918"/>
  </g>
  <path fill="#fff" stroke="#000" stroke-linecap="round" stroke-linejoin="round" stroke-width="3.3" d="m118.69 34.52 17.842-10.687 12.284 25.297 13.827 24.99-.436-53.962 10.542-3.929 10.782-3.469-2.188 30.237.842 49.603-27.81 6.761c-7.484-11.086-12.12-21.937-18.067-32.255-6.738-11.691-14.485-22.698-17.619-32.587Z" paint-order="stroke fill markers"/>
  <path fill="#fff" stroke="#000" stroke-width="3.3" d="M192.123 67.831c-1.403.055-2.582.25-3.536.585-2.407.845-4.609 2.413-6.606 4.703-1.997 2.28-3.01 4.377-3.04 6.287-.029 1.52.858 2.367 2.66 2.542 1.335.126 2.845-.09 4.53-.643 2.173-.714 3.62-1.055 4.34-1.025 1.014.033 1.52.663 1.52 1.89 0 .897-.813 2.005-2.44 3.327-1.568 1.281-3.19 2.217-4.866 2.806-1.958.688-3.215.532-3.77-.471-.41-.753-1.053-.977-1.93-.67a3.022 3.022 0 0 0-1.534 1.155 2.937 2.937 0 0 0-.555 1.716c0 1.198.599 2.045 1.797 2.54 1.422.601 3.371.466 5.846-.404 2.806-.985 5.3-2.352 7.482-4.103 2.864-2.302 4.296-4.712 4.296-7.225 0-2.066-.691-3.438-2.075-4.121-1.257-.611-2.966-.62-5.13-.027l-3.726 1.105c-.711.153-1.247.175-1.607.067-.351-.12-.526-.366-.526-.736 0-.711.584-1.572 1.753-2.587 1.13-.991 2.324-1.714 3.58-2.166.468-.164 1.155-.306 2.061-.43.916-.126 1.603-.271 2.06-.432.615-.215 1.116-.611 1.506-1.187.35-.512.526-1.022.526-1.528 0-.711-.872-1.035-2.616-.968z" font-family="Comic Sans MS" font-size="20" font-weight="700" paint-order="stroke fill markers" style="line-height:1.03;-inkscape-font-specification:'Comic Sans MS Bold';text-align:center" text-anchor="middle"/>
</svg>