<svg xmlns="http://www.w3.org/2000/svg" xml:space="preserve" viewBox="0 0 297 110">
  <rect width="296.434" height="109.811" x=".637" y=".094" fill="#99f5fa" paint-order="stroke fill markers" rx="0" ry="0"/>
  <path fill="none" stroke="#fff" stroke-linecap="round" stroke-width="1.812" d="M152.9 65.656a16.639 16.639 0 0 0-16.398 13.942h3.898a12.823 12.823 0 0 1 12.5-10.125 12.823 12.823 0 0 1 12.532 10.125h3.882A16.639 16.639 0 0 0 152.9 65.656Zm30.556-14.84a11.243 11.243 0 0 1-11.243 11.243 11.243 11.243 0 0 1-11.242-11.242 11.243 11.243 0 0 1 11.242-11.243 11.243 11.243 0 0 1 11.243 11.243zm-40 0a11.243 11.243 0 0 1-11.243 11.243 11.243 11.243 0 0 1-11.242-11.242 11.243 11.243 0 0 1 11.242-11.243 11.243 11.243 0 0 1 11.243 11.243Zm9.894-44.521a49.018 49.018 0 0 0-49.018 49.02 49.018 49.018 0 0 0 49.018 49.017 49.018 49.018 0 0 0 49.017-49.018 49.018 49.018 0 0 0-49.017-49.02Zm0 11.244a37.775 37.775 0 0 1 37.775 37.775 37.775 37.775 0 0 1-37.775 37.774 37.775 37.775 0 0 1-37.776-37.774A37.775 37.775 0 0 1 153.35 17.54Z" paint-order="stroke fill markers"/>
</svg>