<svg xmlns="http://www.w3.org/2000/svg" xml:space="preserve" viewBox="0 0 297 110">
  <rect width="296.434" height="109.811" x=".637" y=".094" fill="#99f5fa" paint-order="stroke fill markers" rx="0" ry="0"/>
  <rect width="266.257" height="75.888" x="9.949" y="26.902" opacity=".095" paint-order="stroke fill markers" rx="8.792" ry="6.882" transform="skewY(-2.048) scale(.99936 1)"/>
  <rect width="266.257" height="75.888" x="14.899" y="22.582" fill="#00ffc5" stroke="#000" stroke-linecap="round" stroke-width="2.501" paint-order="stroke fill markers" rx="8.792" ry="6.882" transform="skewY(-2.048) scale(.99936 1)"/>
  <g fill="#fff" stroke="#000" stroke-linecap="round" stroke-width="2.925" aria-label="ACCESSIBILITY" font-family="Comic Sans MS" font-size="23.4" font-weight="700" paint-order="stroke fill markers" style="line-height:1.03;-inkscape-font-specification:'Comic Sans MS Bold';text-align:center" text-anchor="middle">
    <path d="M40.617 68.842q-.902-.034-1.816-2.125-.606-1.348-1.04-3.108-.846.126-2.765.252-1.805.125-2.765.297-.526 1.257-1.828 3.782-.503.822-1.394.822-.629 0-1.131-.422-.503-.435-.503-1.097 0-.583 1.668-3.954-.16-.354-.137-.662.046-.549 1.108-.857 1.623-2.81 3.61-5.827 2.857-4.33 3.52-4.33 1.257 0 1.68 1.52.228 1.222.72 3.667.696 3.29 1.702 7.53.08.32.582 1.507.412.983.412 1.474 0 .663-.503 1.109-.491.445-1.12.422zM36.356 57.12q-.892 1.53-2.457 4.17.514-.114 1.6-.183 1.28-.08 1.61-.125-.274-1.486-.753-3.862zm19.709-.789q-1.029 0-1.52-1.085-.228-.514-.457-.617-.171-.08-.903-.08-1.44 0-3.324 2.24-2.64 3.13-2.64 5.86 0 1.246.834 2.137t2 .891q1.13 0 2.296-.594.412-.217 1.737-1.12.891-.594 1.348-.594.686 0 1.166.503.445.469.445 1.074 0 .674-.594 1.177-3.142 2.65-6.398 2.65-2.571 0-4.342-1.873-1.69-1.805-1.69-4.25 0-3.828 3.347-7.815 2.845-3.382 5.815-3.382.503 0 .903.034.411.034.72.103.503-.492 1.211-.492 1.165 0 1.44 1.337.194.96.194 2.24 0 .57-.332 1.04-.434.616-1.256.616zm14.475 0q-1.027 0-1.519-1.085-.228-.514-.457-.617-.171-.08-.902-.08-1.44 0-3.325 2.24-2.64 3.13-2.64 5.86 0 1.246.835 2.137.834.891 1.999.891 1.131 0 2.297-.594.41-.217 1.736-1.12.891-.594 1.348-.594.686 0 1.166.503.445.469.445 1.074 0 .674-.594 1.177-3.142 2.65-6.398 2.65-2.57 0-4.342-1.873-1.69-1.805-1.69-4.25 0-3.828 3.347-7.815 2.845-3.382 5.816-3.382.502 0 .902.034.412.034.72.103.503-.492 1.211-.492 1.166 0 1.44 1.337.194.96.194 2.24 0 .57-.331 1.04-.434.616-1.257.616zm14.534-2.479q-.228 0-.48-.069-1.85-.502-3.599-.502-.857 0-1.84.137-.982.137-2.09.411 0 1.52-.103 4.513.64-.045 4.467-.423 2.183-.217 2.765-.217.675 0 1.154.435.48.422.48 1.13 0 1.36-1.45 1.543-.915.069-2.731.229-1.623.182-4.89.445-.08 1.451-.08 2.342 0 2.24.262 2.548.126.149 1.44.149.708 0 2.136-.034 1.429-.035 2.137-.035.229 0 .674-.068.446-.069.663-.069.662 0 1.13.377.538.423.538 1.189 0 1.28-1.337 1.53-1.142.218-4.741.218-3.725 0-4.856-1.006-1.246-1.108-1.246-4.799 0-1.53.217-4.593.229-3.073.229-4.593 0-.4-.114-1.177-.115-.788-.115-1.188 0-1.736 1.6-1.736.503 0 .925.285 1.326-.331 2.514-.491 1.2-.172 2.262-.172 2.88 0 4.605.663 1.051.4 1.051 1.451 0 .594-.411 1.051-.457.526-1.166.526zm8.466 15.345q-2.902 0-4.57-1.292-1.405-1.074-1.405-2.479 0-.72.434-1.188.434-.48 1.2-.48 1.028 0 1.508 1.051.651 1.405 2.948 1.405 1.965 0 3.805-.856 1.908-.88 1.908-1.931 0-1.44-1.189-1.897-.845-.331-3.393-.389-1.977-.045-3.542-.742-2.114-.949-2.08-2.72.035-2.227 2.377-4.078 2.342-1.863 5.164-1.863 1.12 0 2.765.514 2.046.64 2.046 1.474 0 .594-.412 1.051-.457.515-1.177.515-.537 0-1.61-.229-1.063-.228-1.612-.228-1.473.011-2.799.708-1.37.708-1.37 1.542 0 .435.41.72.423.274 1.257.389l2.914.16q2.536.194 4.01 1.428 1.623 1.37 1.623 3.793 0 2.948-3.36 4.468-2.559 1.154-5.85 1.154zm16.225 0q-2.902 0-4.57-1.292-1.406-1.074-1.406-2.479 0-.72.435-1.188.434-.48 1.2-.48 1.027 0 1.507 1.051.652 1.405 2.948 1.405 1.965 0 3.805-.856 1.908-.88 1.908-1.931 0-1.44-1.188-1.897-.846-.331-3.394-.389-1.976-.045-3.542-.742-2.113-.949-2.08-2.72.035-2.227 2.377-4.078 2.343-1.863 5.165-1.863 1.12 0 2.765.514 2.045.64 2.045 1.474 0 .594-.411 1.051-.457.515-1.177.515-.537 0-1.611-.229-1.063-.228-1.611-.228-1.474.011-2.8.708-1.37.708-1.37 1.542 0 .435.41.72.424.274 1.258.389l2.913.16q2.537.194 4.01 1.428 1.623 1.37 1.623 3.793 0 2.948-3.36 4.468-2.559 1.154-5.85 1.154zM130.4 54.995q-.595 0-3.257-.32-.16 2.102-.16 5.587l-.011 5.13q1.52-.034 3.096-.034.686 0 1.131.457.457.457.457 1.096 0 .64-.457 1.097-.445.446-1.13.446-.64 0-1.92.034-1.28.023-1.92.023-.754 0-2.262.194-1.508.206-2.262.206-.686 0-1.143-.446-.445-.457-.445-1.097 0-.64.445-1.096.457-.457 1.143-.457.777 0 2.045-.172-.023-1.348-.023-5.164 0-3.108.228-5.93l-2.479.068q-.685 0-1.154-.445-.457-.446-.457-1.108 0-.675.457-1.097.423-.389 1.04-.446 1.005-.091 3.496-.091 2.24 0 5.77.48 1.405.194 1.405 1.576 0 .732-.57 1.154-.47.355-1.063.355zm11.95 13.059q-2.661.994-6.729.994-.686 0-1.234-.571-.537-.572-.537-1.223V55.143q-.034-.777-.057-1.554-.034-.88.057-1.485.16-1.074 2-1.303.868-.251 2.879-.251 2.16 0 4.136 1.394 2.32 1.622 2.32 4.056 0 1.314-.48 2.217-.378.73-1.315 1.565 1.109.537 1.966 1.622.97 1.211.97 2.411 0 1.52-1.656 2.88-1.108.902-2.32 1.359zm-3.621-14.408q-1.474 0-1.771.023l.011 2.422-.011 2.4q1.04.125 1.565.08 3.496-.274 3.496-2.571 0-.811-1.028-1.565-1.063-.789-2.262-.789zm1.337 8.078q-1.04 0-3.108-.08v4.273q1.965-.102 4.262-.754 2.01-.571 1.988-1.234-.035-.88-1.291-1.565-.983-.548-1.851-.64zm17.869-6.729q-.594 0-3.256-.32-.16 2.102-.16 5.587l-.011 5.13q1.52-.034 3.096-.034.685 0 1.131.457.457.457.457 1.096 0 .64-.457 1.097-.446.446-1.131.446-.64 0-1.92.034-1.28.023-1.92.023-.753 0-2.261.194-1.509.206-2.263.206-.685 0-1.142-.446-.446-.457-.446-1.097 0-.64.446-1.096.457-.457 1.142-.457.777 0 2.046-.172-.023-1.348-.023-5.164 0-3.108.228-5.93l-2.48.068q-.685 0-1.153-.445-.457-.446-.457-1.108 0-.675.457-1.097.423-.389 1.04-.446 1.005-.091 3.496-.091 2.24 0 5.77.48 1.405.194 1.405 1.576 0 .732-.571 1.154-.469.355-1.063.355zm13.757 13.07q-1.349.595-4.17 1.063-2.583.434-4.24.434-2.799 0-2.799-2.456 0 .194.229-3.622.297-4.959.297-11.037 0-.652.445-1.109.457-.457 1.143-.457.685 0 1.142.457.457.457.457 1.109 0 6.09-.308 11.22-.103.914-.217 2.799 2.708-.046 6.947-1.326.262-.08.502-.08.72 0 1.166.526.4.468.4 1.051 0 .983-.994 1.428zm11.916-13.07q-.594 0-3.256-.32-.16 2.102-.16 5.587l-.011 5.13q1.52-.034 3.096-.034.686 0 1.131.457.457.457.457 1.096 0 .64-.457 1.097-.445.446-1.13.446-.64 0-1.92.034-1.28.023-1.92.023-.754 0-2.262.194-1.508.206-2.262.206-.686 0-1.143-.446-.446-.457-.446-1.097 0-.64.446-1.096.457-.457 1.143-.457.777 0 2.045-.172-.023-1.348-.023-5.164 0-3.108.229-5.93l-2.48.068q-.685 0-1.154-.445-.457-.446-.457-1.108 0-.675.457-1.097.423-.389 1.04-.446 1.005-.091 3.496-.091 2.24 0 5.77.48 1.405.194 1.405 1.576 0 .732-.57 1.154-.47.355-1.063.355zm16.659-.195q-.891 0-2.776-.125-1.817-.126-2.777-.115.046 1.303.309 4.64.24 2.947.24 4.66 0 .39.08 1.155t.08 1.154q0 .857-.366 1.542-.468.88-1.337.88-.628 0-1.108-.4-.537-.446-.537-1.12 0-.16.057-.48.057-.33.057-.502 0-.526-.08-1.588-.068-1.063-.068-1.6 0-1.531-.24-4.147-.275-3.005-.32-4.148h-.594q-2.548 0-4.045-.366-1.268-.308-1.268-1.496 0-.583.411-1.051.48-.56 1.257-.503.4.023 1.816.194 1.132.126 1.829.126.697 0 2.079-.023 1.394-.023 2.09-.023.87 0 2.606.126 1.737.114 2.605.114.686 0 1.143.446.468.445.468 1.096 0 .652-.468 1.109-.457.445-1.143.445z" transform="matrix(1.07397 -.07964 0 1.15528 -1.438 -8.325)"/>
    <path d="M215.532 54.4q-.583 1.2-2.343 5.188-1.462 3.336-2.49 5.233-1.783 3.29-1.909 3.484-.674.994-1.553.994-.629 0-1.109-.411-.525-.457-.525-1.131 0-.56 2.388-4.707-.88-1.269-2.525-3.85-1.234-1.898-3.622-5.725-.229-.389-.229-.811 0-.663.514-1.12.48-.423 1.12-.423.754 0 1.371.766l.857 1.37q.08.138 1.965 3.337 1.189 2.045 2.103 3.234.868-1.749 2.502-5.29.343-.789 1.028-2.388.434-1.029 1.485-1.029.629 0 1.109.412.525.445.525 1.12 0 .388-.662 1.747z" transform="matrix(1.07397 -.07964 0 1.15528 -1.438 -8.325)"/>
  </g>
  <path fill="#0094ff" d="M262.544 51.552q-3.413 3.905-5.275 6.516-1.965 2.87-6.309 8.352 2.715 3.775 5.43 7.576 3.207 4.422 5.766 7.318.957 1.086.957 2.327 0 1.448-1.112 2.508-1.086 1.06-2.585 1.06-2.56 0-6.698-5.895-1.111-1.707-3.439-5.068-1.086-1.5-3.283-4.473-3.18 3.594-8.068 8.843-1.551 1.758-4.784 5.12-1.137 1.086-2.611 1.086-1.5 0-2.612-1.06-1.112-1.035-1.112-2.483 0-1.24.905-2.275 1.578-1.655 4.706-4.99 3.414-3.672 9.128-10.085-2.611-3.31-5.508-6.62-.232-.258-2.947-3.775-1.784-2.301-3.284-3.465-1.474-1.189-1.474-2.792 0-1.37 1.034-2.457 1.06-1.111 2.638-1.111 1.396 0 3.671 1.965 1.655 1.448 2.741 2.922 1.086 1.448 3.233 4.188 2.482 2.819 4.783 5.715 3.258-4.292 6.49-8.585 5.017-6.205 6.853-6.205 1.5 0 2.611 1.06 1.112 1.034 1.112 2.482 0 1.215-.957 2.301z" aria-label="X" font-family="Comic Sans MS" font-size="52.956" font-weight="700" paint-order="stroke fill markers" style="line-height:1.03;-inkscape-font-specification:'Comic Sans MS Bold';text-align:center" text-anchor="middle" transform="matrix(.61936 -.03389 .0098 .64671 103.572 13.96)"/>
  <path d="M14.627 68.368V29.573l.636-5.088 3.816-2.862 4.77-.318 191.748-6.995c-32.126 7.713-60.906 7.723-93.49 7.95l-62.642 2.86c-29.275-.657-41.67.211-41.339 26.075Z" opacity=".181" paint-order="stroke fill markers"/>
  <path fill="#fff" d="m13.992 91.263 2.861 4.77 4.452 2.226 7.95-.954 246.124-8.586 5.405-3.498.636-5.088v-9.221l-2.862 9.54-5.723 3.497-11.13 1.908-199.061 8.586-40.067 1.59z" opacity=".557" paint-order="stroke fill markers"/>
  <path d="M221.673 60.08a6.75 6.75 0 0 0-1.144.19c-.401.094-.825.226-1.272.396a.674.674 0 0 0-.469-.146c-.54.038-.808.42-.808 1.143 0 .167.02.414.058.74.039.321.057.564.057.73 0 .634-.038 1.595-.115 2.882a55.19 55.19 0 0 0-.11 2.879c0 1.538.21 2.523.63 2.955.38.392 1.2.543 2.456.454 1.214-.086 2.015-.187 2.4-.305.452-.137.677-.474.677-1.007 0-.32-.09-.56-.272-.723a.732.732 0 0 0-.572-.196 2.066 2.066 0 0 0-.336.067 1.94 1.94 0 0 1-.342.067c-.239.017-.598.05-1.08.099-.482.048-.843.081-1.082.098-.443.031-.686.019-.729-.04-.088-.122-.132-.65-.132-1.584 0-.372.014-.861.04-1.468a72.248 72.248 0 0 0 2.475-.453c.613-.11 1.073-.192 1.381-.243.49-.11.734-.448.734-1.015 0-.295-.08-.525-.242-.69a.704.704 0 0 0-.584-.23c-.196.014-.662.092-1.398.234-1.291.25-2.046.39-2.262.425.035-1.25.053-2.191.053-2.824a9.051 9.051 0 0 1 1.058-.333c.332-.081.641-.132.93-.152.59-.042 1.198.02 1.822.185a.735.735 0 0 0 .243.025c.239-.017.435-.14.59-.37.138-.2.206-.425.206-.673 0-.438-.176-.727-.53-.868-.583-.235-1.36-.318-2.33-.249zm-53.166 4.284c-.435.031-.757.395-.965 1.09l-.324 1.668a62.599 62.599 0 0 1-1.224 4.743 41.907 41.907 0 0 1-.758-3.96c-.178-1.268-.344-2.104-.498-2.507-.166-.427-.423-.628-.774-.603-.308.021-.565.21-.77.562-.2.348-.386 1.032-.56 2.054-.115.741-.23 1.484-.342 2.225-.03.183-.243 1.119-.64 2.81-.266 1.128-.4 2.078-.4 2.85 0 .262.066.482.197.664a.67.67 0 0 0 .63.29c.424-.03.715-.387.874-1.075.069-.538.14-1.08.212-1.622.313-1.58.555-2.76.729-3.544.239 1.326.508 2.586.809 3.784l.324 1.307c.192.515.47.76.832.734.366-.026.651-.27.855-.727.154-.344.303-.78.446-1.309l.347-1.34c.401-1.394.688-2.418.862-3.068.215 1.59.416 2.806.601 3.65l.324 1.706c.205.728.516 1.078.936 1.049.212-.015.403-.115.572-.299.181-.203.272-.445.272-.726 0-.129-.171-.917-.514-2.364-.34-1.424-.62-3.142-.844-5.155-.096-.865-.188-1.453-.273-1.766-.205-.776-.516-1.15-.936-1.12zm19.053-1.332a.773.773 0 0 0-.576.328 1.124 1.124 0 0 0-.233.702c0 1.057-.026 2.646-.08 4.77a206.797 206.797 0 0 0-.082 4.77c0 .272.069.522.203.75.174.293.413.428.717.406.258-.018.455-.153.59-.405a1.25 1.25 0 0 0 .145-.59l.006-3.007c.975 1.098 1.593 1.77 1.855 2.019.879.828 1.593 1.223 2.145 1.183.254-.018.453-.161.595-.429.104-.198.157-.4.157-.605 0-.461-.207-.758-.62-.891a1.941 1.941 0 0 1-.636-.353 16.64 16.64 0 0 1-1.328-1.293c-.424-.46-.848-.92-1.268-1.38a60.818 60.818 0 0 0 2.146-2.846c.918-1.303 1.375-2.103 1.375-2.399a.955.955 0 0 0-.248-.675.677.677 0 0 0-.572-.245c-.231.017-.436.15-.613.401-1.73 2.457-2.73 3.85-3 4.184.008-.31.032-.889.074-1.74.035-.73.053-1.311.053-1.74a.99.99 0 0 0-.23-.669.653.653 0 0 0-.575-.246zm24.13-1.715a.777.777 0 0 0-.577.328 1.124 1.124 0 0 0-.233.702c0 1.058-.026 2.647-.08 4.77a207.378 207.378 0 0 0-.082 4.771c0 .272.068.52.203.75.174.292.413.427.717.405.258-.018.455-.152.59-.405a1.25 1.25 0 0 0 .144-.59l.006-3.006c.975 1.097 1.594 1.77 1.856 2.018.879.828 1.593 1.223 2.144 1.184.255-.018.454-.162.596-.43.104-.197.156-.4.156-.604 0-.462-.206-.76-.619-.892a1.933 1.933 0 0 1-.635-.353 16.623 16.623 0 0 1-1.33-1.292c-.424-.46-.845-.92-1.265-1.381a60.743 60.743 0 0 0 2.144-2.846c.918-1.303 1.375-2.103 1.375-2.398a.955.955 0 0 0-.248-.676.677.677 0 0 0-.572-.244c-.231.016-.436.15-.613.4-1.73 2.457-2.73 3.85-3 4.184.008-.31.032-.889.074-1.74.035-.73.053-1.31.053-1.74a.99.99 0 0 0-.23-.668.65.65 0 0 0-.573-.247zm-17.59 1.365c-.262-.005-.475.115-.637.36a1.17 1.17 0 0 0-.207.671c0 .495.213.792.64.89.506.117 1.188.144 2.048.083l.3-.021c.016.475.07 1.336.163 2.582.08 1.085.12 1.947.12 2.585 0 .224.013.556.036.998.027.44.04.77.04.989 0 .071-.01.177-.028.316a2.29 2.29 0 0 0-.03.303c0 .281.09.507.272.68a.708.708 0 0 0 .56.21c.293-.02.52-.219.678-.597.123-.294.184-.62.184-.977 0-.162-.014-.403-.041-.72a9.061 9.061 0 0 1-.04-.718c0-.714-.04-1.683-.12-2.906a96.296 96.296 0 0 1-.157-2.889c.324-.028.792-.038 1.405-.03a19.17 19.17 0 0 0 1.404-.019.783.783 0 0 0 .578-.32 1.12 1.12 0 0 0 .236-.71c0-.272-.078-.495-.236-.67a.67.67 0 0 0-.578-.236c-.293.021-.733.028-1.319.022a16.051 16.051 0 0 0-1.316.015c-.235.017-.588.046-1.059.09a55.66 55.66 0 0 1-1.052.088 7.018 7.018 0 0 1-.924-.013 15.592 15.592 0 0 0-.92-.056zm-20.082 1.578c-.84.06-1.43.12-1.77.182a.874.874 0 0 0-.525.317 1.068 1.068 0 0 0-.232.702c0 .276.078.502.232.677a.685.685 0 0 0 .584.236l1.254-.132a57.136 57.136 0 0 0-.115 3.715c0 1.59.004 2.668.011 3.23a6.73 6.73 0 0 1-1.035.178.777.777 0 0 0-.578.329 1.14 1.14 0 0 0-.226.701c0 .267.076.49.226.67a.67.67 0 0 0 .578.238c.255-.018.636-.088 1.145-.21.508-.117.89-.185 1.144-.203.216-.015.54-.044.971-.084.432-.045.755-.075.97-.09a.763.763 0 0 0 .573-.319c.154-.201.232-.435.232-.702a.997.997 0 0 0-.232-.67.648.648 0 0 0-.572-.245c-.532.037-1.054.082-1.567.132l.006-3.207c0-1.452.028-2.62.082-3.5.898.07 1.446.098 1.647.084a.83.83 0 0 0 .537-.26c.193-.19.289-.437.289-.742 0-.576-.237-.888-.711-.936-1.19-.115-2.163-.145-2.918-.091zm32.887-2.224c-.224.016-.818.96-1.782 2.834a83.849 83.849 0 0 0-1.826 3.774c-.358.154-.545.345-.56.575a.986.986 0 0 0 .068.41c-.563 1.444-.844 2.289-.844 2.532 0 .276.087.498.256.667.17.164.36.238.572.223.301-.021.536-.209.706-.564.439-1.083.746-1.894.923-2.43.324-.095.792-.19 1.4-.285a16.31 16.31 0 0 0 1.4-.256c.146.723.32 1.357.525 1.904.308.85.615 1.272.92 1.265.211-.006.4-.109.566-.306a1.05 1.05 0 0 0 .254-.71c0-.204-.07-.507-.21-.907-.169-.483-.265-.79-.292-.922a234.55 234.55 0 0 1-.861-4.646 228.66 228.66 0 0 1-.366-2.267c-.142-.623-.425-.921-.85-.89zm-24.244 1.801c-.952.068-1.824.52-2.614 1.352-.79.827-1.191 1.705-1.203 2.634-.011.74.34 1.282 1.053 1.627.528.253 1.124.365 1.79.337.86-.037 1.432.002 1.718.12.4.162.601.543.601 1.143 0 .438-.321.863-.965 1.276-.62.401-1.263.625-1.925.672-.775.055-1.27-.201-1.49-.771-.162-.427-.417-.629-.764-.604a.773.773 0 0 0-.608.344c-.146.205-.218.457-.218.757 0 .586.236 1.087.71 1.5.563.499 1.334.713 2.313.643 1.11-.079 2.096-.389 2.959-.931 1.133-.714 1.7-1.685 1.7-2.914 0-1.01-.274-1.782-.821-2.314-.497-.48-1.174-.729-2.03-.749l-1.474.005c-.281-.027-.492-.093-.635-.197a.529.529 0 0 1-.209-.436c0-.348.231-.686.694-1.014a2.78 2.78 0 0 1 1.418-.542c.185-.013.456.015.814.084.362.07.633.098.814.085.243-.017.442-.14.596-.365.139-.2.21-.423.21-.67 0-.348-.346-.631-1.036-.849-.555-.175-1.02-.25-1.398-.223zm23.845 1.67c.162.98.289 1.775.381 2.388a12.35 12.35 0 0 1-.814.138 4.88 4.88 0 0 0-.81.17c.527-1.137.943-2.036 1.243-2.695z" font-family="Comic Sans MS" font-size="13.161" font-weight="700" paint-order="stroke fill markers" style="line-height:1.03;-inkscape-font-specification:'Comic Sans MS Bold';text-align:center" text-anchor="middle"/>
</svg>