<?xml version="1.0" encoding="UTF-8" standalone="no"?>
<svg
   xml:space="preserve"
   viewBox="0 0 297 110"
   version="1.1"
   id="svg788"
   sodipodi:docname="mistake.svg"
   inkscape:version="1.2.1 (9c6d41e4, 2022-07-14)"
   width="297"
   height="110"
   xmlns:inkscape="http://www.inkscape.org/namespaces/inkscape"
   xmlns:sodipodi="http://sodipodi.sourceforge.net/DTD/sodipodi-0.dtd"
   xmlns="http://www.w3.org/2000/svg"
   xmlns:svg="http://www.w3.org/2000/svg"><sodipodi:namedview
   id="namedview790"
   pagecolor="#ffffff"
   bordercolor="#000000"
   borderopacity="0.25"
   inkscape:showpageshadow="2"
   inkscape:pageopacity="0.0"
   inkscape:pagecheckerboard="0"
   inkscape:deskcolor="#d1d1d1"
   showgrid="false"
   inkscape:zoom="2.2236824"
   inkscape:cx="149.7516"
   inkscape:cy="62.958632"
   inkscape:window-width="1534"
   inkscape:window-height="672"
   inkscape:window-x="7"
   inkscape:window-y="83"
   inkscape:window-maximized="0"
   inkscape:current-layer="svg788"
   showguides="true" />
  <defs
   id="defs704">
    <path
   id="a"
   fill="#ffcc00"
   stroke="#000000"
   stroke-linecap="round"
   stroke-linejoin="round"
   stroke-width="3"
   d="m 152.698,77.138 c -3.02,-0.689 -5.837,-1.58 -11.284,0.157 l -42.712,18.967 -4.93,2.19 c -4.277,2.041 -5.957,5.858 -5.942,11.125 l 0.144,51.562 c 0.342,4.71 1.814,7.156 5.485,8.62 l 49.523,23.507 c 6.137,1.445 6.397,1.106 12.067,-0.784 l 45.95,-22.975 c 4.913,-2.26 4.827,-5.457 4.853,-10.246 l 0.27,-49.368 c 0.198,-4.615 -2.197,-8.902 -6.368,-10.9 z" />
      <path
   id="b"
   fill="none"
   stroke="#000000"
   stroke-linecap="round"
   stroke-linejoin="round"
   stroke-width="1.5"
   d="m 87.036,110.25 c 2.314,-6.541 5.533,-6.663 9.283,-5.341 l 42.476,19.023 c 7.021,3.612 13.433,3.546 19.246,-0.034 l 41.673,-19.178 c 2.698,-1.225 5.859,-0.969 6.737,1.612" />
      <path
   id="c"
   fill="#ffffff"
   d="m 200.142,107.392 c 4.863,-2.322 5.642,1.532 5.642,5.015 v 49.053 c 0,3.472 -1.864,6.532 -5.015,7.992 l -47.015,21.784 c -3.151,1.46 -4.881,-2.953 -4.858,-6.425 l 0.313,-47.172 c 0.023,-3.473 2.508,-7.123 5.642,-8.62 z"
   opacity="0.587" />
      <path
   id="d"
   fill="#e89f9f"
   stroke="#000000"
   stroke-linecap="round"
   stroke-linejoin="round"
   stroke-width="3"
   d="m 136.97,36.502 c 1.435,4.56 1.584,9.621 6.372,11.666 6.25,1.076 11.377,-1.059 18.215,-2.843 l 3.412,-5.529 -2.235,-6.235 c 0,0 -4.706,-4.941 -6.235,-4.941 -1.53,0 -8.823,0.706 -8.823,0.706 l -4.941,2.588 z" />
      <path
   id="e"
   fill="#c10000"
   stroke="#000000"
   stroke-linecap="round"
   stroke-linejoin="round"
   stroke-width="3"
   d="m 133.395,46.362 6.592,-1.81 c 1.9,-0.453 3.243,0.225 4.473,2.234 5.546,10.408 12.422,23.704 15.344,31.48 0.732,2.064 0.505,3.669 -0.464,4.017 l -9.297,2.205 z" />
      <path
   id="f"
   fill="#ff0000"
   stroke="#000000"
   stroke-linecap="round"
   stroke-linejoin="round"
   stroke-width="3"
   d="m 137.128,50.429 c -2.375,-5.618 -3.994,-4.012 -6.036,-3.018 l -23.087,17.353 c -2.174,2.41 -2.76,4.265 -1.807,5.58 6.643,3.498 28.085,9.95 41.695,13.858 7.3,1.709 2.571,-5.85 1.045,-9.045 z" />
      <path
   id="g"
   fill="#ffd5d5"
   stroke="#000000"
   stroke-linecap="round"
   stroke-linejoin="round"
   stroke-width="3"
   d="m 192.027,13.326 -27.274,0.234 c -10.55,-1.58 -20.245,2.233 -29.068,6.029 -5.516,1.864 -7.92,3.825 -11.5,7.785 -4.818,5.346 -9.098,11.32 -11.25,18.052 -1.259,3.837 -1.773,7.109 1.705,9.828 1.465,1.107 3.143,1.023 5.027,-0.092 7.228,-5.759 11.998,-8.585 15.891,-16.66 21.151,-11.26 34.169,-0.298 18.118,13.898 -14.715,11.043 -0.986,27.48 11.85,15.182 l 9.325,-11.434 c 5.731,-1.27 16.42,-5.387 19.283,-9.426 2.14,-3.195 5.846,-4.111 10.716,-3.985 z" />
      <path
   id="h"
   fill="none"
   stroke="#000000"
   stroke-linecap="round"
   stroke-linejoin="round"
   stroke-width="0.912"
   d="m 146.97,35.56 c 2.819,5.197 7.78,4.642 13.176,3.648" />
      <path
   id="i"
   fill="#ffffff"
   stroke="#000000"
   stroke-linecap="round"
   stroke-linejoin="round"
   stroke-width="2"
   d="m 156.904,59.055 c -0.546,0.005 -1.108,0.193 -1.7,0.74 l -2.117,2.824 c -0.795,2.842 1.52,4.683 3.412,6.352 1.294,0.795 2.588,0.53 3.882,-0.235 l 2.47,-2.117 c 0.223,-0.375 0.346,-0.727 0.401,-1.064 0.466,-3.163 -4.39,-6.419 -6.348,-6.5 z" />
      <path
   id="j"
   fill="none"
   stroke="#000000"
   stroke-linecap="round"
   stroke-linejoin="round"
   stroke-width="0.912"
   d="m 164.063,55.446 2.226,2.264" />
      <path
   id="k"
   stroke="#000000"
   stroke-linecap="round"
   stroke-linejoin="round"
   stroke-width="1.364"
   d="m 148.264,97.594 a 24.759,12.928 0 0 0 -24.498,11.074 27.222,14.214 0 0 0 23.839,7.367 27.222,14.214 0 0 0 24.804,-8.37 24.759,12.928 0 0 0 -24.145,-10.071 z" />
      <path
   id="l"
   fill="#a68500"
   stroke="#000000"
   stroke-linecap="round"
   stroke-linejoin="round"
   stroke-width="2.4"
   d="m 178.137,134.113 c 1.626,-2.415 2.501,-7.625 6.322,-1.859 l 10.572,16.237 c 1.915,2.985 6.474,9.013 -0.615,11.6 l -28.55,12.694 c -4.09,1.434 -5.964,0.494 -4.09,-4.462 z" />
      <path
   id="m"
   stroke="#000000"
   stroke-linecap="round"
   stroke-width="2.4"
   d="m 178.137,134.113 c 1.626,-2.415 2.501,-7.625 6.322,-1.859 l 12.002,19.098 -33.2,14.35 z" />
      <path
   id="n"
   d="m 94.615,106.536 c -4.863,-2.322 -5.642,1.532 -5.642,5.015 v 49.053 c 0,3.472 1.864,6.532 5.015,7.992 l 47.015,21.784 c 3.151,1.46 4.881,-2.953 4.858,-6.426 l -0.313,-47.171 c -0.023,-3.473 -2.508,-7.124 -5.642,-8.62 z"
   opacity="0.093" />
      <path
   id="o"
   fill="#c10000"
   stroke="#000000"
   stroke-linecap="round"
   stroke-linejoin="round"
   stroke-width="2.4"
   d="m 118.902,131.995 a 1.26,1.26 0 0 0 -0.504,0.126 l -3.885,0.921 0.855,2.84 -9.062,14.417 c -1.614,2.516 -4.251,5.186 1.724,7.366 l 20.652,9.183 -0.225,0.068 2,3.014 4.271,-1.06 c 1.49,-0.115 1.904,-1.386 0.815,-4.266 l -13.791,-28.836 c -0.92,-1.367 -1.556,-3.799 -2.85,-3.773 z" />
      <path
   id="p"
   fill="#ff0000"
   stroke="#000000"
   stroke-linecap="round"
   stroke-linejoin="round"
   stroke-width="2.4"
   d="m 117.437,136.847 c -1.37,-2.035 -2.108,-6.427 -5.329,-1.567 l -10.117,16.098 c -1.614,2.516 -4.252,5.186 1.724,7.366 l 24.065,10.7 c 3.447,1.209 5.027,0.417 3.448,-3.76 z" />
      <path
   id="q"
   fill="#ffffff"
   d="m 159.614,12.937 c -8.675,-0.022 -16.74,3.193 -24.185,6.396 -5.516,1.864 -7.92,3.825 -11.5,7.786 -4.818,5.346 -9.098,11.319 -11.25,18.052 -1.258,3.836 -1.773,7.108 1.705,9.827 0.77,0.581 1.597,0.832 2.482,0.78 -2.825,-2.618 -2.3,-5.724 -1.118,-9.328 2.153,-6.733 6.433,-12.706 11.252,-18.052 3.58,-3.96 5.983,-5.922 11.499,-7.786 8.823,-3.796 18.518,-7.61 29.068,-6.03 l 24.771,-0.211 -0.567,-1.3 -27.274,0.233 a 33.493,33.493 0 0 0 -4.883,-0.367 z m -1.832,22.332 c 4.47,2.952 4.008,9.473 -4.361,16.876 -10.172,7.633 -6.752,17.84 0.569,19.357 -4.981,-3.323 -6.104,-11.621 2.5,-18.078 9.964,-8.813 8.724,-16.377 1.292,-18.155 z"
   opacity="0.702" />
      <path
   id="r"
   fill="#aa0000"
   d="m 150.497,32.829 c -4.196,0.074 -9.502,1.483 -15.45,4.65 -3.893,8.075 -8.664,10.9 -15.891,16.66 -1.884,1.115 -3.563,1.2 -5.028,0.092 -0.792,-0.62 -1.375,-1.268 -1.792,-1.945 0.248,1.442 1,2.773 2.56,3.992 1.465,1.107 3.143,1.023 5.027,-0.092 7.228,-5.76 11.998,-8.586 15.891,-16.66 12.143,-6.465 21.602,-5.604 24.422,-1.013 -0.62,-3.564 -4.218,-5.781 -9.74,-5.684 z m 52.942,8.874 c -4.428,0.008 -7.81,1.001 -9.817,3.996 -2.863,4.039 -13.551,8.156 -19.283,9.426 l -9.325,11.434 c -7.134,6.835 -14.542,4.792 -17.19,-0.266 1.538,6.45 9.923,10.01 17.958,2.312 l 9.325,-11.433 c 5.73,-1.27 16.42,-5.388 19.283,-9.427 2.14,-3.194 5.846,-4.111 10.716,-3.984 l -0.893,-2.049 a 32.13,32.13 0 0 0 -0.774,-0.01 z"
   opacity="0.249" />
  
    
        
        
        
        
        
        
        
        
        
        
        
        
        
        
        
        
        
        
        
        
        
        
        
        
        
        
        
        
        
        
        
        
        
        
        
        
        
        
        
  </defs>
    <rect
   width="296.43402"
   height="109.81107"
   x="0.63679743"
   y="0.094097972"
   fill="#99f5fa"
   rx="0"
   ry="0"
   id="rect746"
   style="stroke-width:0.735763;paint-order:stroke fill markers" /><rect
   style="opacity:0.0952381;fill:#000000;fill-opacity:1;stroke:none;stroke-width:2.5008;stroke-linecap:round;stroke-dasharray:none;paint-order:stroke fill markers"
   id="rect10100"
   width="266.25671"
   height="75.887505"
   x="9.9489279"
   y="26.901764"
   ry="6.882266"
   rx="8.7922564"
   transform="matrix(0.99936104,-0.0357422,0,1,0,0)" />
<rect
   style="opacity:1;fill:#00ffc5;fill-opacity:1;stroke:#000000;stroke-width:2.5008;stroke-linecap:round;stroke-dasharray:none;paint-order:stroke fill markers"
   id="rect7690"
   width="266.25671"
   height="75.887505"
   x="14.89884"
   y="22.58164"
   ry="6.882266"
   rx="8.7922564"
   transform="matrix(0.99936104,-0.0357422,0,1,0,0)" /><g
   aria-label="ACCESSIBILITY"
   transform="matrix(1.0739659,-0.07963734,0,1.1552843,-1.4377255,-8.3245237)"
   id="text8897"
   style="font-weight:bold;font-size:23.3996px;line-height:1.03;font-family:'Comic Sans MS';-inkscape-font-specification:'Comic Sans MS Bold';text-align:center;text-anchor:middle;opacity:1;fill:#ffffff;stroke:#000000;stroke-width:2.92495;stroke-linecap:round;paint-order:stroke fill markers"><path
     d="m 40.617273,68.842325 q -0.902621,-0.03428 -1.816668,-2.125159 -0.605556,-1.348219 -1.039729,-3.107759 -0.845493,0.125681 -2.764991,0.251363 -1.805243,0.125681 -2.764992,0.297065 -0.525577,1.256814 -1.828094,3.781869 -0.502725,0.822642 -1.393921,0.822642 -0.628407,0 -1.131133,-0.422747 -0.502726,-0.434172 -0.502726,-1.096856 0,-0.582705 1.668136,-3.953252 -0.159959,-0.354194 -0.137107,-0.662684 0.0457,-0.548429 1.108281,-0.856919 1.622434,-2.810694 3.610485,-5.827049 2.856397,-4.330297 3.519081,-4.330297 1.256814,0 1.679561,1.519603 0.228512,1.222538 0.719812,3.667613 0.69696,3.290569 1.702412,7.529461 0.07998,0.319916 0.582705,1.508177 0.411321,0.9826 0.411321,1.473901 0,0.662684 -0.502726,1.108281 -0.4913,0.445598 -1.119707,0.422747 z M 36.355529,57.119674 q -0.891195,1.531029 -2.4565,4.170339 0.514151,-0.114256 1.599581,-0.182809 1.279666,-0.07998 1.611008,-0.125682 -0.274214,-1.485326 -0.754089,-3.861848 z"
     id="path9214" /><path
     d="m 56.064663,56.331309 q -1.028302,0 -1.519602,-1.085431 -0.228512,-0.514151 -0.457024,-0.616981 -0.171384,-0.07998 -0.902621,-0.07998 -1.439624,0 -3.324845,2.239414 -2.639311,3.130611 -2.639311,5.861326 0,1.245389 0.834068,2.136584 0.834068,0.891196 1.999478,0.891196 1.131132,0 2.296542,-0.594131 0.411321,-0.217086 1.736689,-1.119707 0.891196,-0.59413 1.348219,-0.59413 0.685535,0 1.16541,0.502725 0.445598,0.468449 0.445598,1.074005 0,0.67411 -0.594131,1.176836 -3.142036,2.650736 -6.398327,2.650736 -2.570757,0 -4.341723,-1.873796 -1.690987,-1.805243 -1.690987,-4.250318 0,-3.827571 3.347697,-7.815101 2.844971,-3.381973 5.815623,-3.381973 0.502726,0 0.902621,0.03428 0.411321,0.03428 0.719812,0.10283 0.502726,-0.4913 1.211112,-0.4913 1.16541,0 1.439624,1.336793 0.194235,0.959749 0.194235,2.239415 0,0.571279 -0.331342,1.039728 -0.434172,0.616982 -1.256815,0.616982 z"
     id="path9216" /><path
     d="m 70.540881,56.331309 q -1.028303,0 -1.519603,-1.085431 -0.228512,-0.514151 -0.457024,-0.616981 -0.171383,-0.07998 -0.902621,-0.07998 -1.439624,0 -3.324845,2.239414 -2.63931,3.130611 -2.63931,5.861326 0,1.245389 0.834067,2.136584 0.834068,0.891196 1.999478,0.891196 1.131133,0 2.296542,-0.594131 0.411322,-0.217086 1.736689,-1.119707 0.891196,-0.59413 1.34822,-0.59413 0.685535,0 1.165409,0.502725 0.445598,0.468449 0.445598,1.074005 0,0.67411 -0.59413,1.176836 -3.142036,2.650736 -6.398328,2.650736 -2.570757,0 -4.341723,-1.873796 -1.690986,-1.805243 -1.690986,-4.250318 0,-3.827571 3.347696,-7.815101 2.844971,-3.381973 5.815623,-3.381973 0.502726,0 0.902621,0.03428 0.411322,0.03428 0.719812,0.10283 0.502726,-0.4913 1.211112,-0.4913 1.16541,0 1.439624,1.336793 0.194235,0.959749 0.194235,2.239415 0,0.571279 -0.331342,1.039728 -0.434172,0.616982 -1.256814,0.616982 z"
     id="path9218" /><path
     d="m 85.074228,53.851957 q -0.228512,0 -0.479875,-0.06855 -1.850945,-0.502725 -3.599059,-0.502725 -0.856919,0 -1.839519,0.137107 -0.982601,0.137107 -2.090883,0.411321 0,1.519603 -0.10283,4.513106 0.639833,-0.0457 4.467404,-0.422747 2.182287,-0.217086 2.764992,-0.217086 0.674109,0 1.153984,0.434172 0.479875,0.422747 0.479875,1.131133 0,1.359645 -1.45105,1.542454 -0.914047,0.06855 -2.730715,0.228512 -1.622433,0.18281 -4.89015,0.445598 -0.07998,1.451049 -0.07998,2.342245 0,2.239415 0.262788,2.547906 0.125681,0.148532 1.439624,0.148532 0.708386,0 2.136584,-0.03428 1.428198,-0.03428 2.136585,-0.03428 0.228511,0 0.674109,-0.06855 0.445598,-0.06855 0.662684,-0.06855 0.662684,0 1.131133,0.377044 0.537003,0.422747 0.537003,1.188261 0,1.279665 -1.336794,1.531028 -1.142558,0.217086 -4.741618,0.217086 -3.724741,0 -4.855874,-1.005451 -1.245388,-1.108282 -1.245388,-4.798746 0,-1.531028 0.217086,-4.593085 0.228511,-3.073483 0.228511,-4.593086 0,-0.399895 -0.114255,-1.176835 -0.114256,-0.788365 -0.114256,-1.188261 0,-1.736689 1.599582,-1.736689 0.502725,0 0.925472,0.28564 1.325368,-0.331342 2.513629,-0.4913 1.199686,-0.171384 2.262266,-0.171384 2.879247,0 4.604511,0.662684 1.051154,0.399895 1.051154,1.451049 0,0.594131 -0.411321,1.051154 -0.457024,0.525577 -1.16541,0.525577 z"
     id="path9220" /><path
     d="m 93.540586,69.196518 q -2.902099,0 -4.570234,-1.291091 -1.405347,-1.074005 -1.405347,-2.479352 0,-0.719812 0.434172,-1.188261 0.434172,-0.479874 1.199687,-0.479874 1.028302,0 1.508177,1.051153 0.651258,1.405347 2.947801,1.405347 1.965201,0 3.80472,-0.856919 1.908073,-0.87977 1.908073,-1.930923 0,-1.439624 -1.188261,-1.896648 -0.845494,-0.331342 -3.393399,-0.38847 -1.976626,-0.0457 -3.541932,-0.742663 -2.113733,-0.948323 -2.079456,-2.719289 0.03428,-2.227989 2.376522,-4.078934 2.342245,-1.86237 5.164364,-1.86237 1.119708,0 2.764992,0.514151 2.045175,0.639833 2.045175,1.4739 0,0.594131 -0.41132,1.051154 -0.45702,0.514152 -1.176832,0.514152 -0.537002,0 -1.611007,-0.228512 -1.06258,-0.228512 -1.611008,-0.228512 -1.4739,0.01143 -2.799268,0.708387 -1.37107,0.708386 -1.37107,1.542454 0,0.434172 0.411321,0.719811 0.422746,0.274215 1.256814,0.38847 1.462475,0.07998 2.913524,0.159959 2.53648,0.194235 4.010376,1.428198 1.62244,1.37107 1.62244,3.793294 0,2.947801 -3.359124,4.467404 -2.559331,1.153984 -5.8499,1.153984 z"
     id="path9222" /><path
     d="m 109.76492,69.196518 q -2.9021,0 -4.57024,-1.291091 -1.40534,-1.074005 -1.40534,-2.479352 0,-0.719812 0.43417,-1.188261 0.43417,-0.479874 1.19968,-0.479874 1.02831,0 1.50818,1.051153 0.65126,1.405347 2.9478,1.405347 1.9652,0 3.80472,-0.856919 1.90808,-0.87977 1.90808,-1.930923 0,-1.439624 -1.18827,-1.896648 -0.84549,-0.331342 -3.39339,-0.38847 -1.97663,-0.0457 -3.54194,-0.742663 -2.11373,-0.948323 -2.07945,-2.719289 0.0343,-2.227989 2.37652,-4.078934 2.34224,-1.86237 5.16436,-1.86237 1.11971,0 2.765,0.514151 2.04518,0.639833 2.04518,1.4739 0,0.594131 -0.41133,1.051154 -0.45702,0.514152 -1.17683,0.514152 -0.537,0 -1.61101,-0.228512 -1.06258,-0.228512 -1.61101,-0.228512 -1.4739,0.01143 -2.79926,0.708387 -1.37107,0.708386 -1.37107,1.542454 0,0.434172 0.41132,0.719811 0.42274,0.274215 1.25681,0.38847 1.46248,0.07998 2.91353,0.159959 2.53648,0.194235 4.01038,1.428198 1.62243,1.37107 1.62243,3.793294 0,2.947801 -3.35912,4.467404 -2.55933,1.153984 -5.8499,1.153984 z"
     id="path9224" /><path
     d="m 130.39952,54.994515 q -0.59413,0 -3.25629,-0.319916 -0.15996,2.102308 -0.15996,5.587111 l -0.0114,5.130088 q 1.51961,-0.03428 3.09634,-0.03428 0.68553,0 1.13113,0.457024 0.45702,0.457023 0.45702,1.096856 0,0.639833 -0.45702,1.096856 -0.4456,0.445598 -1.13113,0.445598 -0.63983,0 -1.9195,0.03428 -1.27967,0.02285 -1.9195,0.02285 -0.75409,0 -2.26226,0.194235 -1.50818,0.205661 -2.26227,0.205661 -0.68554,0 -1.14256,-0.445598 -0.4456,-0.457024 -0.4456,-1.096856 0,-0.639833 0.4456,-1.096857 0.45702,-0.457023 1.14256,-0.457023 0.77694,0 2.04518,-0.171384 -0.0229,-1.348219 -0.0229,-5.164365 0,-3.107759 0.22851,-5.929878 l -2.47935,0.06855 q -0.68554,0 -1.15399,-0.445598 -0.45702,-0.445598 -0.45702,-1.108281 0,-0.67411 0.45702,-1.096857 0.42275,-0.38847 1.03973,-0.445598 1.00545,-0.0914 3.49623,-0.0914 2.23942,0 5.76992,0.479874 1.40535,0.194235 1.40535,1.576731 0,0.731238 -0.57128,1.153984 -0.46845,0.354193 -1.06258,0.354193 z"
     id="path9226" /><path
     d="m 142.35068,68.05396 q -2.66216,0.994026 -6.72966,0.994026 -0.68554,0 -1.23397,-0.57128 -0.537,-0.571279 -0.537,-1.222537 V 55.143048 q -0.0343,-0.77694 -0.0571,-1.55388 -0.0343,-0.87977 0.0571,-1.485326 0.15996,-1.074005 1.99948,-1.302516 0.86834,-0.251363 2.87924,-0.251363 2.15944,0 4.13607,1.393921 2.31939,1.622433 2.31939,4.056083 0,1.313942 -0.47987,2.216564 -0.37705,0.731237 -1.31395,1.565305 1.10828,0.537002 1.9652,1.622433 0.97118,1.211112 0.97118,2.410798 0,1.519603 -1.65671,2.879248 -1.10828,0.902621 -2.3194,1.359645 z m -3.62191,-14.407664 q -1.4739,0 -1.77096,0.02285 l 0.0114,2.422224 -0.0114,2.399373 q 1.03973,0.125681 1.5653,0.07998 3.49623,-0.274214 3.49623,-2.570757 0,-0.811217 -1.0283,-1.565305 -1.06258,-0.788366 -2.26227,-0.788366 z m 1.3368,8.077889 q -1.03973,0 -3.10776,-0.07998 v 4.273169 q 1.9652,-0.10283 4.26174,-0.754088 2.0109,-0.57128 1.98805,-1.233964 -0.0343,-0.87977 -1.29109,-1.565305 -0.9826,-0.548428 -1.85094,-0.639832 z"
     id="path9228" /><path
     d="m 157.93518,54.994515 q -0.59413,0 -3.25629,-0.319916 -0.15996,2.102308 -0.15996,5.587111 l -0.0114,5.130088 q 1.51961,-0.03428 3.09634,-0.03428 0.68553,0 1.13113,0.457024 0.45702,0.457023 0.45702,1.096856 0,0.639833 -0.45702,1.096856 -0.4456,0.445598 -1.13113,0.445598 -0.63983,0 -1.9195,0.03428 -1.27967,0.02285 -1.9195,0.02285 -0.75409,0 -2.26226,0.194235 -1.50818,0.205661 -2.26227,0.205661 -0.68554,0 -1.14256,-0.445598 -0.4456,-0.457024 -0.4456,-1.096856 0,-0.639833 0.4456,-1.096857 0.45702,-0.457023 1.14256,-0.457023 0.77694,0 2.04518,-0.171384 -0.0229,-1.348219 -0.0229,-5.164365 0,-3.107759 0.22851,-5.929878 l -2.47935,0.06855 q -0.68554,0 -1.15399,-0.445598 -0.45702,-0.445598 -0.45702,-1.108281 0,-0.67411 0.45702,-1.096857 0.42275,-0.38847 1.03973,-0.445598 1.00545,-0.0914 3.49623,-0.0914 2.23942,0 5.76992,0.479874 1.40535,0.194235 1.40535,1.576731 0,0.731238 -0.57128,1.153984 -0.46845,0.354193 -1.06258,0.354193 z"
     id="path9230" /><path
     d="m 171.69159,68.065385 q -1.34822,0.594131 -4.17034,1.06258 -2.58218,0.434172 -4.23889,0.434172 -2.79927,0 -2.79927,-2.456501 0,0.194235 0.22851,-3.621911 0.29706,-4.958704 0.29706,-11.037115 0,-0.651258 0.4456,-1.108282 0.45703,-0.457023 1.14256,-0.457023 0.68554,0 1.14256,0.457023 0.45702,0.457024 0.45702,1.108282 0,6.089837 -0.30849,11.219925 -0.10283,0.914047 -0.21708,2.799268 2.70786,-0.0457 6.94675,-1.325368 0.26279,-0.07998 0.50273,-0.07998 0.71981,0 1.16541,0.525577 0.39989,0.468449 0.39989,1.051154 0,0.9826 -0.99402,1.428198 z"
     id="path9232" /><path
     d="m 183.60847,54.994515 q -0.59413,0 -3.25629,-0.319916 -0.15996,2.102308 -0.15996,5.587111 l -0.0114,5.130088 q 1.5196,-0.03428 3.09633,-0.03428 0.68554,0 1.13113,0.457024 0.45703,0.457023 0.45703,1.096856 0,0.639833 -0.45703,1.096856 -0.44559,0.445598 -1.13113,0.445598 -0.63983,0 -1.9195,0.03428 -1.27966,0.02285 -1.91949,0.02285 -0.75409,0 -2.26227,0.194235 -1.50818,0.205661 -2.26227,0.205661 -0.68553,0 -1.14256,-0.445598 -0.44559,-0.457024 -0.44559,-1.096856 0,-0.639833 0.44559,-1.096857 0.45703,-0.457023 1.14256,-0.457023 0.77694,0 2.04518,-0.171384 -0.0228,-1.348219 -0.0228,-5.164365 0,-3.107759 0.22851,-5.929878 l -2.47935,0.06855 q -0.68553,0 -1.15398,-0.445598 -0.45703,-0.445598 -0.45703,-1.108281 0,-0.67411 0.45703,-1.096857 0.42274,-0.38847 1.03973,-0.445598 1.00545,-0.0914 3.49622,-0.0914 2.23942,0 5.76993,0.479874 1.40534,0.194235 1.40534,1.576731 0,0.731238 -0.57128,1.153984 -0.46845,0.354193 -1.06258,0.354193 z"
     id="path9234" /><path
     d="m 200.26698,54.80028 q -0.8912,0 -2.77642,-0.125681 -1.81667,-0.125681 -2.77641,-0.114256 0.0457,1.302517 0.30849,4.638788 0.23993,2.947801 0.23993,4.661639 0,0.38847 0.08,1.153984 0.08,0.765514 0.08,1.153984 0,0.856919 -0.36562,1.542454 -0.46845,0.87977 -1.33679,0.87977 -0.62841,0 -1.10828,-0.399895 -0.537,-0.445598 -0.537,-1.119708 0,-0.159958 0.0571,-0.479874 0.0571,-0.331342 0.0571,-0.502726 0,-0.525577 -0.08,-1.588156 -0.0685,-1.06258 -0.0685,-1.599582 0,-1.531029 -0.23994,-4.147488 -0.27421,-3.004929 -0.31992,-4.147487 h -0.59413 q -2.5479,0 -4.04465,-0.365619 -1.26824,-0.308491 -1.26824,-1.496752 0,-0.582705 0.41132,-1.051154 0.47987,-0.559853 1.25681,-0.502726 0.3999,0.02285 1.81667,0.194235 1.13113,0.125682 1.82809,0.125682 0.69696,0 2.07946,-0.02285 1.39392,-0.02285 2.09088,-0.02285 0.86835,0 2.60504,0.125681 1.73669,0.114256 2.60503,0.114256 0.68554,0 1.14256,0.445598 0.46845,0.445597 0.46845,1.096856 0,0.651258 -0.46845,1.108282 -0.45702,0.445597 -1.14256,0.445597 z"
     id="path9236" /><path
     d="m 215.53157,54.400385 q -0.58271,1.199686 -2.34225,5.187216 -1.46247,3.336271 -2.49078,5.232918 -1.78239,3.290569 -1.90807,3.484804 -0.67411,0.994025 -1.55388,0.994025 -0.62841,0 -1.10828,-0.411321 -0.52558,-0.457023 -0.52558,-1.131133 0,-0.559853 2.38795,-4.707341 -0.87977,-1.26824 -2.52505,-3.850422 -1.23397,-1.896647 -3.62191,-5.724218 -0.22852,-0.38847 -0.22852,-0.811217 0,-0.662684 0.51415,-1.119707 0.47988,-0.422747 1.11971,-0.422747 0.75409,0 1.37107,0.765514 l 0.85692,1.37107 q 0.08,0.137107 1.9652,3.336271 1.18826,2.04518 2.10231,3.233441 0.86834,-1.748114 2.5022,-5.290046 0.34277,-0.788365 1.02831,-2.387947 0.43417,-1.028303 1.48532,-1.028303 0.62841,0 1.10828,0.411321 0.52558,0.445598 0.52558,1.119707 0,0.38847 -0.66268,1.748115 z"
     id="path9238" /></g><g
   aria-label="X"
   transform="matrix(0.6193595,-0.03388934,0.00980811,0.64671362,103.57178,13.959494)"
   id="text9162"
   style="font-weight:bold;font-size:52.9558px;line-height:1.03;font-family:'Comic Sans MS';-inkscape-font-specification:'Comic Sans MS Bold';text-align:center;text-anchor:middle;opacity:1;fill:#0094ff;fill-opacity:1;stroke-width:6.61947;stroke-linecap:round;paint-order:stroke fill markers"><path
     d="m 262.54425,51.552302 q -3.41317,3.904456 -5.2749,6.516046 -1.96515,2.870163 -6.30918,8.351915 2.71502,3.77517 5.43003,7.576196 3.20631,4.421603 5.76619,7.317623 0.95672,1.086008 0.95672,2.327159 0,1.44801 -1.11187,2.508161 -1.086,1.06015 -2.58573,1.06015 -2.55987,0 -6.69705,-5.89547 -1.11186,-1.706583 -3.43902,-5.068035 -1.08601,-1.499725 -3.28388,-4.473317 -3.18045,3.594168 -8.06748,8.843204 -1.55144,1.758298 -4.78361,5.11975 -1.13772,1.086008 -2.61159,1.086008 -1.49972,0 -2.61159,-1.06015 -1.11186,-1.034293 -1.11186,-2.482303 0,-1.241152 0.905,-2.275445 1.5773,-1.654869 4.70604,-4.990463 3.41316,-3.67174 9.12763,-10.084357 -2.61159,-3.309737 -5.50761,-6.619475 -0.23272,-0.258573 -2.94773,-3.775169 -1.78416,-2.301302 -3.28388,-3.464881 -1.47387,-1.189437 -1.47387,-2.792591 0,-1.370438 1.03429,-2.456446 1.06015,-1.111865 2.63745,-1.111865 1.39629,0 3.67174,1.965157 1.65487,1.44801 2.74087,2.921877 1.08601,1.44801 3.23217,4.188887 2.4823,2.818448 4.7836,5.714468 3.25803,-4.292315 6.49019,-8.584631 5.01632,-6.205758 6.85219,-6.205758 1.49973,0 2.61159,1.06015 1.11187,1.034293 1.11187,2.482304 0,1.215294 -0.95672,2.301301 z"
     id="path9241"
     style="fill:#0094ff;fill-opacity:1" /></g><path
   style="opacity:0.180952;fill:#000000;fill-opacity:1;stroke:none;stroke-width:2.5;stroke-linecap:round;stroke-dasharray:none;paint-order:stroke fill markers"
   d="M 14.627499,68.367659 V 29.572988 l 0.635978,-5.087826 3.81587,-2.861902 4.769837,-0.317989 191.747436,-6.995761 c -32.12545,7.713779 -60.9053,7.723454 -93.4888,7.949728 L 59.463964,25.12114 C 30.189148,24.46362 17.793171,25.332155 18.125379,51.196247 Z"
   id="path9298"
   sodipodi:nodetypes="cccccccccc" /><path
   style="opacity:0.557143;fill:#ffffff;fill-opacity:1;stroke:none;stroke-width:2.5;stroke-linecap:round;stroke-dasharray:none;paint-order:stroke fill markers"
   d="m 13.991521,91.262876 2.861902,4.769836 4.451848,2.225924 7.949727,-0.953967 246.123572,-8.585706 5.40582,-3.497881 0.63598,-5.087825 v -9.221685 l -2.86191,9.539674 -5.7238,3.49788 -11.12962,1.907935 -199.061185,8.585706 -40.066628,1.589945 z"
   id="path9783" /><path
   id="text10003"
   style="font-weight:bold;font-size:13.1607px;line-height:1.03;font-family:'Comic Sans MS';-inkscape-font-specification:'Comic Sans MS Bold';text-align:center;text-anchor:middle;opacity:1;fill:#000000;fill-opacity:1;stroke:none;stroke-width:1.64509;stroke-linecap:round;stroke-dasharray:none;paint-order:stroke fill markers"
   d="m 221.67321,60.080366 c -0.35841,0.02547 -0.73987,0.08857 -1.14453,0.188755 -0.4008,0.09515 -0.82444,0.22712 -1.27148,0.396995 -0.1426,-0.108923 -0.29918,-0.158428 -0.46875,-0.146378 -0.53955,0.03834 -0.80859,0.419531 -0.80859,1.143398 0,0.166681 0.02,0.414118 0.0586,0.739978 0.0385,0.321096 0.0566,0.56367 0.0566,0.73035 0,0.633384 -0.0381,1.594704 -0.11522,2.881235 -0.0732,1.281495 -0.10938,2.240721 -0.10938,2.878867 0,1.538218 0.20883,2.523218 0.62891,2.955308 0.38153,0.391969 1.20065,0.543585 2.45702,0.454304 1.21398,-0.08627 2.01501,-0.187472 2.4004,-0.305343 0.4509,-0.136811 0.67578,-0.473631 0.67578,-1.007006 0,-0.319074 -0.0904,-0.559562 -0.27149,-0.722895 -0.15801,-0.145928 -0.34874,-0.211546 -0.57226,-0.195662 -0.0732,0.0052 -0.18564,0.02759 -0.33594,0.06684 -0.1503,0.03925 -0.26472,0.06178 -0.3418,0.06726 -0.23894,0.01698 -0.59834,0.04972 -1.08008,0.09824 -0.48173,0.04852 -0.84309,0.0814 -1.08203,0.09838 -0.44319,0.03149 -0.68612,0.01887 -0.72852,-0.04003 -0.0886,-0.122283 -0.1328,-0.650905 -0.1328,-1.584312 0,-0.371458 0.014,-0.861032 0.041,-1.467759 1.10222,-0.187858 1.92736,-0.338109 2.47461,-0.453195 0.61277,-0.110216 1.07255,-0.192175 1.38086,-0.242658 0.48944,-0.110977 0.73437,-0.448365 0.73437,-1.015077 0,-0.295261 -0.0803,-0.525118 -0.24218,-0.689821 -0.16186,-0.169464 -0.35661,-0.246143 -0.58399,-0.229985 -0.19655,0.01397 -0.66234,0.09135 -1.39844,0.234142 -1.29105,0.2489 -2.04589,0.390009 -2.26171,0.424394 0.0347,-1.250182 0.0527,-2.190676 0.0527,-2.824059 0.37383,-0.140861 0.72716,-0.252339 1.0586,-0.333039 0.33143,-0.0807 0.64064,-0.131463 0.92968,-0.152003 0.58965,-0.0419 1.19794,0.01978 1.82227,0.184959 0.0848,0.02255 0.16511,0.03123 0.24219,0.02576 0.23894,-0.01698 0.43568,-0.140021 0.58984,-0.37004 0.13874,-0.200351 0.20703,-0.425277 0.20703,-0.672916 0,-0.43813 -0.17669,-0.727014 -0.53125,-0.868498 -0.58193,-0.234859 -1.3589,-0.317496 -2.33008,-0.248482 z m -53.16602,4.283956 c -0.43549,0.03095 -0.75673,0.394252 -0.96484,1.090047 l -0.32422,1.667572 c -0.37768,1.717449 -0.78526,3.297654 -1.2246,4.743273 -0.33529,-1.409621 -0.58825,-2.728914 -0.75782,-3.95982 -0.17727,-1.268457 -0.34388,-2.104213 -0.49805,-2.507577 -0.16571,-0.426354 -0.42273,-0.628162 -0.77343,-0.60324 -0.30832,0.02191 -0.56527,0.209859 -0.76953,0.562497 -0.20041,0.3476 -0.38712,1.031577 -0.56055,2.053506 -0.11562,0.741606 -0.23004,1.484126 -0.3418,2.22546 -0.0308,0.183158 -0.24367,1.118951 -0.64062,2.809196 -0.26592,1.128508 -0.40039,2.079228 -0.40039,2.850718 0,0.261926 0.0662,0.482537 0.19726,0.663717 0.15415,0.212873 0.36494,0.310003 0.63086,0.291107 0.42393,-0.03013 0.71504,-0.38824 0.87305,-1.075713 0.0694,-0.538305 0.13967,-1.079209 0.21289,-1.62255 0.31216,-1.579449 0.55509,-2.760144 0.72852,-3.543957 0.23893,1.325983 0.50798,2.586554 0.80859,3.784335 l 0.32422,1.307039 c 0.19269,0.514921 0.46976,0.759587 0.83203,0.733843 0.36611,-0.02602 0.65121,-0.2694 0.85547,-0.726807 0.15415,-0.344315 0.30272,-0.779767 0.44531,-1.308989 l 0.34766,-1.339158 c 0.4008,-1.395258 0.6879,-2.41855 0.86132,-3.069021 0.21582,1.589553 0.41658,2.806546 0.60156,3.650612 l 0.32422,1.705475 c 0.20426,0.728402 0.51548,1.078604 0.93555,1.048752 0.21196,-0.01506 0.40269,-0.114985 0.57226,-0.298478 0.18115,-0.203364 0.27149,-0.445349 0.27149,-0.726323 0,-0.128583 -0.17067,-0.916717 -0.51367,-2.363888 -0.33914,-1.423635 -0.62022,-3.142037 -0.84375,-5.154886 -0.0963,-0.864651 -0.18865,-1.452677 -0.27344,-1.765725 -0.20426,-0.776023 -0.51547,-1.150869 -0.93555,-1.121017 z m 19.05274,-1.332446 c -0.23123,0.01643 -0.42201,0.126607 -0.57617,0.328054 -0.15416,0.201445 -0.23242,0.435374 -0.23242,0.702062 0,1.057228 -0.0261,2.646312 -0.0801,4.769363 -0.054,2.12305 -0.082,3.714227 -0.082,4.771454 0,0.271451 0.0683,0.520708 0.20313,0.749238 0.17343,0.292461 0.41234,0.427728 0.7168,0.406093 0.25821,-0.01835 0.45496,-0.152734 0.58984,-0.405196 0.0964,-0.183052 0.14454,-0.380809 0.14454,-0.590349 l 0.006,-3.006276 c 0.97503,1.097471 1.59341,1.770472 1.85548,2.018537 0.87868,0.828106 1.59342,1.222705 2.14453,1.183542 0.25435,-0.01807 0.45311,-0.161754 0.5957,-0.42905 0.10406,-0.197886 0.15625,-0.400075 0.15625,-0.604854 0,-0.461941 -0.20678,-0.758935 -0.61914,-0.891549 -0.22738,-0.07433 -0.44018,-0.190954 -0.63673,-0.353191 -0.39309,-0.334 -0.83482,-0.765445 -1.32812,-1.29234 -0.42393,-0.460389 -0.8475,-0.919962 -1.26757,-1.380626 0.7515,-0.939188 1.46819,-1.888096 2.14648,-2.845893 0.91722,-1.303373 1.375,-2.103231 1.375,-2.398492 0,-0.27145 -0.0823,-0.497017 -0.24805,-0.675732 -0.16186,-0.178989 -0.35259,-0.2601 -0.57226,-0.24449 -0.23124,0.01643 -0.436,0.150291 -0.61328,0.401003 -1.7304,2.456485 -2.73023,3.850409 -3,4.18389 0.008,-0.310096 0.0318,-0.888951 0.0742,-1.739649 0.0347,-0.731094 0.0527,-1.311471 0.0527,-1.740076 0,-0.266688 -0.0763,-0.489632 -0.23047,-0.669169 -0.1503,-0.179811 -0.34299,-0.262735 -0.57422,-0.246304 z m 24.13086,-1.714792 c -0.23123,0.01643 -0.42397,0.126745 -0.57813,0.328192 -0.15415,0.201445 -0.23242,0.435375 -0.23242,0.702062 0,1.057228 -0.0261,2.646312 -0.0801,4.769363 -0.0539,2.123049 -0.082,3.714227 -0.082,4.771454 0,0.271451 0.0682,0.520709 0.20313,0.749238 0.17343,0.292462 0.41234,0.427729 0.71679,0.406093 0.25821,-0.01835 0.45496,-0.152734 0.58985,-0.405197 0.0964,-0.183051 0.14453,-0.380808 0.14453,-0.590348 l 0.006,-3.006276 c 0.97504,1.097471 1.5934,1.770472 1.85547,2.018537 0.87869,0.828106 1.59343,1.222705 2.14453,1.183542 0.25436,-0.01808 0.45311,-0.161754 0.59571,-0.42905 0.10405,-0.197886 0.15624,-0.400075 0.15624,-0.604854 0,-0.461941 -0.20677,-0.758935 -0.61913,-0.891549 -0.22738,-0.07433 -0.43823,-0.191092 -0.63477,-0.35333 -0.3931,-0.333999 -0.83678,-0.765306 -1.33008,-1.2922 -0.42393,-0.46039 -0.84555,-0.920102 -1.26563,-1.380765 0.75152,-0.939189 1.46625,-1.887958 2.14453,-2.845755 0.91723,-1.303373 1.37501,-2.10323 1.37501,-2.398492 0,-0.27145 -0.0823,-0.497017 -0.24805,-0.675732 -0.16187,-0.178989 -0.3526,-0.2601 -0.57226,-0.24449 -0.23124,0.01643 -0.43601,0.150291 -0.61329,0.401003 -1.73039,2.456485 -2.73023,3.850409 -3,4.18389 0.008,-0.310096 0.0318,-0.888951 0.0742,-1.739649 0.0347,-0.731094 0.0527,-1.311471 0.0527,-1.740076 0,-0.266688 -0.0763,-0.489632 -0.23046,-0.669169 -0.1503,-0.17981 -0.34103,-0.262875 -0.57227,-0.246442 z m -17.5918,1.365346 c -0.26206,-0.0052 -0.47485,0.114845 -0.63671,0.359699 -0.13875,0.205113 -0.20703,0.428085 -0.20703,0.670962 0,0.495277 0.21284,0.791841 0.64062,0.890023 0.50485,0.116518 1.18746,0.144132 2.04688,0.08306 l 0.30077,-0.02137 c 0.0154,0.475133 0.0696,1.336323 0.16212,2.58223 0.0809,1.084812 0.12109,1.946999 0.12109,2.585145 0,0.223827 0.012,0.556253 0.0352,0.997502 0.027,0.440975 0.041,0.770208 0.041,0.989273 0,0.07143 -0.01,0.17706 -0.0293,0.316535 -0.0193,0.134713 -0.0293,0.236191 -0.0293,0.302863 0,0.280975 0.0903,0.50707 0.27148,0.679926 0.16187,0.155177 0.34858,0.225229 0.56054,0.210167 0.2929,-0.02081 0.51973,-0.219066 0.67774,-0.59699 0.12333,-0.2945 0.1836,-0.620719 0.1836,-0.97789 0,-0.161918 -0.014,-0.402586 -0.041,-0.719742 -0.027,-0.317155 -0.0391,-0.55601 -0.0391,-0.717927 0,-0.714343 -0.0402,-1.68254 -0.1211,-2.905458 -0.0886,-1.384287 -0.14083,-2.347481 -0.15624,-2.889287 0.32372,-0.02777 0.79152,-0.03832 1.40429,-0.02948 0.63589,0.0072 1.10369,0.0016 1.4043,-0.01971 0.23123,-0.01643 0.42396,-0.123696 0.57812,-0.320379 0.15801,-0.20172 0.23633,-0.438704 0.23633,-0.710153 0,-0.271451 -0.0783,-0.494253 -0.23633,-0.668754 -0.15416,-0.174774 -0.34689,-0.252692 -0.57812,-0.236261 -0.2929,0.02081 -0.73257,0.02742 -1.31836,0.02142 -0.58579,-0.01076 -1.02351,-0.0054 -1.31641,0.01542 -0.23509,0.01671 -0.58842,0.04596 -1.05859,0.0889 -0.46632,0.04266 -0.81765,0.07178 -1.05273,0.08848 -0.23509,0.01671 -0.5423,0.0128 -0.92383,-0.01248 -0.47789,-0.03748 -0.78504,-0.05578 -0.91993,-0.05572 z m -20.08203,1.577465 c -0.84015,0.0597 -1.43038,0.120188 -1.76953,0.182387 -0.20811,0.0386 -0.3828,0.144581 -0.52539,0.316632 -0.15415,0.187159 -0.23242,0.421088 -0.23242,0.702064 0,0.276211 0.0783,0.502068 0.23242,0.676842 0.15801,0.174501 0.35275,0.252276 0.58398,0.235845 l 1.25391,-0.132074 c -0.0771,1.181761 -0.11523,2.419879 -0.11523,3.71522 0,1.590602 0.004,2.668233 0.0117,3.229636 -0.42778,0.101834 -0.77308,0.160406 -1.03515,0.17903 -0.23124,0.01643 -0.42397,0.126746 -0.57813,0.328192 -0.1503,0.201172 -0.22656,0.434958 -0.22656,0.701646 0,0.266688 0.0763,0.489637 0.22656,0.669447 0.15416,0.174775 0.34689,0.254646 0.57813,0.238214 0.25436,-0.01807 0.63582,-0.08837 1.14453,-0.210239 0.50872,-0.117109 0.89018,-0.184352 1.14453,-0.202427 0.21582,-0.01534 0.53907,-0.04441 0.9707,-0.0846 0.43164,-0.04496 0.75489,-0.07513 0.97071,-0.09046 0.23123,-0.01643 0.42196,-0.1216 0.57226,-0.318009 0.15416,-0.201448 0.23243,-0.435377 0.23243,-0.702064 0,-0.266688 -0.0783,-0.491447 -0.23243,-0.670983 -0.1503,-0.179812 -0.34103,-0.260923 -0.57226,-0.244491 -0.53184,0.03779 -1.05384,0.08209 -1.5664,0.132796 l 0.006,-3.207447 c 0,-1.452497 0.0281,-2.619875 0.082,-3.49997 0.89795,0.06953 1.44608,0.09841 1.64648,0.08417 0.2004,-0.01424 0.37909,-0.101964 0.5371,-0.260824 0.1927,-0.189899 0.28907,-0.436458 0.28907,-0.741244 0,-0.576237 -0.23691,-0.888535 -0.71093,-0.935808 -1.19086,-0.115391 -2.16262,-0.145148 -2.91798,-0.09147 z m 32.88672,-2.223723 c -0.22353,0.01588 -0.81777,0.960238 -1.78125,2.833611 -0.67057,1.304895 -1.27892,2.563893 -1.82617,3.774303 -0.35841,0.154051 -0.54513,0.345304 -0.56055,0.57499 -0.008,0.129129 0.0144,0.265408 0.0684,0.409204 -0.56266,1.444858 -0.84375,2.289739 -0.84375,2.532615 0,0.276213 0.0863,0.498449 0.25586,0.667366 0.16957,0.164154 0.3603,0.238068 0.57226,0.223005 0.30061,-0.02136 0.53552,-0.208842 0.70509,-0.563776 0.43934,-1.083686 0.74655,-1.894436 0.92382,-2.430883 0.32373,-0.09444 0.79148,-0.189407 1.40039,-0.285062 0.64746,-0.09839 1.11326,-0.182976 1.39844,-0.255627 0.14644,0.722985 0.32114,1.356637 0.52539,1.904071 0.30831,0.849588 0.61546,1.272055 0.91992,1.264707 0.21197,-0.0055 0.40069,-0.10837 0.56641,-0.305875 0.16957,-0.197779 0.2539,-0.433237 0.2539,-0.70945 0,-0.204778 -0.0702,-0.507327 -0.20898,-0.907024 -0.16957,-0.483228 -0.26599,-0.791114 -0.29297,-0.92254 -0.33914,-1.742708 -0.62623,-3.290992 -0.86132,-4.645825 -0.16572,-1.007351 -0.28817,-1.762926 -0.36524,-2.267013 -0.1426,-0.623251 -0.42568,-0.920922 -0.84961,-0.890797 z m -24.24414,1.800968 c -0.95191,0.06764 -1.82323,0.519326 -2.61328,1.351721 -0.79005,0.827632 -1.19157,1.704858 -1.20313,2.634325 -0.0116,0.738975 0.33977,1.281758 1.05273,1.626362 0.52799,0.25298 1.1243,0.3659 1.79102,0.33757 0.85942,-0.03726 1.43161,0.0023 1.7168,0.120189 0.40081,0.162009 0.60156,0.542751 0.60156,1.142798 0,0.438131 -0.32124,0.863163 -0.96484,1.275595 -0.62048,0.401264 -1.26291,0.624902 -1.92578,0.672007 -0.77463,0.05505 -1.27056,-0.200903 -1.49023,-0.771055 -0.16187,-0.426627 -0.41683,-0.628582 -0.76368,-0.603934 -0.25821,0.01835 -0.46097,0.133524 -0.60742,0.343946 -0.14645,0.20566 -0.21875,0.457708 -0.21875,0.757732 0,0.585761 0.23691,1.086291 0.71094,1.500261 0.56267,0.498153 1.33361,0.711871 2.31249,0.642309 1.10993,-0.07887 2.09572,-0.388639 2.95899,-0.930975 1.13305,-0.713901 1.69922,-1.685049 1.69922,-2.91372 0,-1.009603 -0.27306,-1.782168 -0.82032,-2.314752 -0.49714,-0.478999 -1.17373,-0.728212 -2.02929,-0.748373 -0.48944,0.0014 -0.98131,0.0035 -1.47461,0.0052 -0.28133,-0.02763 -0.49217,-0.09292 -0.63476,-0.19708 -0.13874,-0.109197 -0.20898,-0.255355 -0.20898,-0.436321 0,-0.347646 0.23088,-0.68599 0.69335,-1.014115 0.44705,-0.322268 0.92082,-0.50208 1.41797,-0.542171 0.18498,-0.01315 0.45604,0.01493 0.81445,0.0847 0.36227,0.0695 0.63333,0.09757 0.81446,0.0847 0.24279,-0.01725 0.44154,-0.139341 0.5957,-0.364599 0.13874,-0.20035 0.20898,-0.423461 0.20898,-0.6711 0,-0.347647 -0.34531,-0.630649 -1.03515,-0.848315 -0.55496,-0.174866 -1.02076,-0.249728 -1.39844,-0.222889 z m 23.8457,1.670705 c 0.16187,0.979053 0.28837,1.774474 0.38087,2.386997 -0.11177,0.02699 -0.38282,0.07395 -0.81446,0.137956 -0.36612,0.05459 -0.63712,0.110934 -0.81055,0.17088 0.52799,-1.137607 0.94354,-2.036325 1.24414,-2.695833 z" /></svg>
