<?xml version="1.0" encoding="UTF-8" standalone="no"?>
<svg
   xml:space="preserve"
   viewBox="0 0 297 110"
   version="1.1"
   id="svg1873"
   sodipodi:docname="neurodiversity-society.svg"
   inkscape:version="1.2.1 (9c6d41e4, 2022-07-14)"
   xmlns:inkscape="http://www.inkscape.org/namespaces/inkscape"
   xmlns:sodipodi="http://sodipodi.sourceforge.net/DTD/sodipodi-0.dtd"
   xmlns="http://www.w3.org/2000/svg"
   xmlns:svg="http://www.w3.org/2000/svg"><sodipodi:namedview
   id="namedview1875"
   pagecolor="#ffffff"
   bordercolor="#000000"
   borderopacity="0.25"
   inkscape:showpageshadow="2"
   inkscape:pageopacity="0.0"
   inkscape:pagecheckerboard="0"
   inkscape:deskcolor="#d1d1d1"
   showgrid="false"
   inkscape:zoom="2.1454545"
   inkscape:cx="162.66949"
   inkscape:cy="59.194915"
   inkscape:window-width="1626"
   inkscape:window-height="934"
   inkscape:window-x="0"
   inkscape:window-y="38"
   inkscape:window-maximized="0"
   inkscape:current-layer="svg1873" />
  <defs
   id="defs1819">
    <filter
   id="a"
   width="1.0611603"
   height="1.1322284"
   x="-0.030580139"
   y="-0.066114199"
   color-interpolation-filters="sRGB">
      <feGaussianBlur
   stdDeviation="3.025"
   id="feGaussianBlur1816" />
    </filter>
  
    
        
        
        
        
        
        
  </defs>
    <rect
   width="296.752"
   height="109.811"
   x=".319"
   y=".094"
   fill="#99f5fa"
   paint-order="stroke fill markers"
   rx="0"
   ry="0"
   id="rect1821" />
    
    
    
    
    
    
    
    
    
    
    
    
    
    
    
    
    
    
    
    
    
<g
   id="g7588"
   transform="translate(-37.330509,1.3983051)"><path
     d="m 269.5576,89.198046 a 7.1530302,7.1530302 0 0 1 -5.17729,-2.127161 6.9943945,6.9943945 0 0 1 -2.13437,-5.13403 7.210716,7.210716 0 0 1 2.09111,-5.177294 6.9943945,6.9943945 0 0 1 5.1196,-2.127161 6.8213373,6.8213373 0 0 1 5.07635,2.127161 c 1.39167,1.456564 2.09111,3.179926 2.09111,5.177294 a 6.9727623,6.9727623 0 0 1 -2.09111,5.13403 6.6050158,6.6050158 0 0 1 -4.9754,2.127161 z"
     style="line-height:1.03;-inkscape-font-specification:'Arial Black, ';stroke-width:7.21072"
     id="path4429" /><rect
     width="14.897339"
     height="43.841152"
     x="261.83493"
     y="23.450729"
     paint-order="stroke fill markers"
     rx="1.187"
     ry="1.018"
     id="rect4431"
     style="stroke-width:7.21072" /><g
     fill="#ffffff"
     stroke="#000000"
     stroke-linecap="round"
     stroke-linejoin="round"
     id="g4449"
     transform="matrix(7.210716,0,0,7.210716,208.37468,-11.009274)"
     style="fill:#e4e0de;fill-opacity:1">
    <path
   stroke-width="0.26"
   d="m 7.611,11.837 c 0.24,0.366 0.338,0.483 0.553,0.606 0.551,0.226 0.726,0.723 1.069,1.248 l 0.313,0.48 c 0.106,0.19 0.298,0.31 0.467,0.343 0.246,0.049 0.452,0.008 0.463,-0.158 -0.06,-0.177 -0.082,-0.34 -0.225,-0.49 A 3.422,3.422 0 0 1 9.836,13.317 4.035,4.035 0 0 0 9.45,12.786 C 9.062,12.346 8.898,12.019 8.655,11.375 l 0.363,0.882 0.644,0.768 0.53,0.777 0.565,0.345 1.333,0.008 1.28,-0.397 0.742,-0.768 0.495,-1.157 c -0.9,-0.578 -1.001,-0.359 -1.501,-0.538 L 9.777,11.109 8.655,11.375"
   id="path4435"
   style="fill:#e4e0de;fill-opacity:1" />
        <path
   stroke-width="0.26"
   d="M 4.03,10.578 C 3.422,10.756 3.005,10.552 2.551,10.108 2.155,10.09 1.79,10.014 1.662,9.497 1.372,9.223 1.229,8.935 1.327,8.622 1.063,8.282 1.123,7.942 1.283,7.602 1.207,6.997 1.354,6.595 1.706,6.378 1.791,5.911 2,5.54 2.507,5.227 2.965,4.656 3.396,4.492 3.892,4.498 4.248,4.128 4.663,3.936 5.174,4.032 5.954,3.354 6.586,3.494 7.214,3.652 7.898,3.26 8.226,3.38 8.57,3.478 9.18,3.316 9.467,3.508 9.692,3.769 10.307,3.51 10.62,3.704 10.931,3.9 c 0.542,-0.13 0.592,0.03 0.816,0.204 0.359,-0.08 0.498,0.191 0.67,0.409 0.578,-0.052 0.746,0.266 0.948,0.553 0.333,0.162 0.666,0.325 0.772,0.904 0.673,0.306 0.754,0.886 0.947,1.414 0.445,0.285 0.5,0.747 0.525,1.224 0.252,0.49 0.224,0.981 -0.029,1.472 -0.105,0.934 -0.39,1.679 -1,1.687 -1.153,-0.316 -2.425,-0.586 -3.635,-0.588 -0.901,0.007 -1.748,-0.034 -2.535,0.287 -0.183,0.076 -0.365,0.16 -0.543,0.244 -0.288,0.097 -0.513,0.308 -0.769,0.418 A 1.869,1.869 0 0 1 6.224,12.251 C 5.578,12.114 5.554,12.077 5.101,11.654 4.854,11.749 4.606,11.576 4.358,11.406 4.006,11.129 4.056,10.852 4.038,10.576"
   id="path4437"
   style="fill:#e4e0de;fill-opacity:1" />
        <path
   stroke-width="0.26"
   d="M 1.983,6.946 C 1.973,6.502 2.07,6.08 2.639,5.751 M 3.186,5.446 C 3.458,5.159 3.804,5.034 4.169,4.95 M 4.616,5.086 C 4.809,4.68 5.158,4.346 5.918,4.44 M 6.294,4.725 C 6.447,4.455 6.624,4.17 7.432,4.262 M 7.856,3.988 C 8.098,3.8 8.316,3.754 8.526,3.755 M 9.692,3.74 8.614,4.192 M 8.016,4.542 C 7.896,4.692 7.851,4.748 7.616,4.74 7.403,4.711 7.322,4.748 7.054,4.964 M 4.65,5.606 C 5.136,4.965 5.668,4.971 5.845,5.576 M 5.13,5.97 C 4.962,6.115 4.94,6.275 4.927,6.436 M 2.872,6.101 C 3.149,5.812 3.498,5.754 3.848,5.766 M 2.837,7.18 C 2.972,6.555 3.255,6.54 3.732,6.699 M 1.75,7.18 C 1.55,7.222 1.367,7.396 1.265,7.632 m 0.383,1.5 a 0.937,0.937 0 0 0 0.54,0.272 M 2.201,8.591 C 2.258,8.239 2.05,8.168 2.056,7.85 2.114,7.596 2.203,7.355 2.449,7.18 M 2.93,8.345 C 2.863,8.671 2.835,8.751 3.033,8.903 3.298,9.124 3.304,9.226 3.202,9.43 3.172,9.697 3.237,9.8 3.513,9.92 M 3.178,7.66 C 3.19,8.031 3.398,8.384 3.963,8.29 M 3.6,7.15 C 4.122,7.714 4.779,7.425 4.679,6.859 M 5.422,7.238 C 5.591,7.124 5.586,7.014 5.612,6.823 5.673,6.5 5.791,6.323 6.191,6.257 6.544,6.197 6.664,6.083 6.573,5.678 M 7.54,5.54 C 7.628,5.997 7.523,5.838 7.392,6.122 7.306,6.545 7.396,6.542 7.145,6.956 M 8.279,5.984 C 8.469,5.886 8.489,5.747 8.469,5.606 8.296,4.824 9.21,4.586 9.634,4.513 M 10.31,4.32 c 0.704,0.273 0.822,1 -0.035,0.921 C 9.961,5.196 9.691,5.149 9.386,5.431 m 1.507,-1.163 c 0.582,-0.02 0.613,0.163 0.965,0.439 0.184,0.142 0.36,0.132 0.623,0.125 0.28,0.036 0.519,0.153 0.677,0.425 m -3.51,0.64 C 9.5,6.042 9.438,6.155 9.416,6.305 9.546,7.019 9.308,7.031 8.686,7.369 m 2.77,-1.822 c 0.784,-0.31 1.068,0.268 0.842,0.599 -0.072,0.104 -0.202,0.167 -0.374,0.195 -0.51,0.06 -0.845,-0.055 -1.314,-0.24 m -0.35,0.496 c 0.004,0.305 0.203,0.474 0.157,0.72 0.027,0.279 -0.25,0.54 -0.641,0.732 -0.755,0.354 -1.22,0.363 -1.92,0.005 M 7.127,8.68 C 7.175,9.119 6.902,9.133 6.661,9.19 M 6.34,9.016 C 6.117,9.374 5.805,9.434 5.393,9.162 M 4.78,10.313 c 0.028,0.489 0.219,0.811 0.904,0.627 m 0.102,-0.817 c 0.59,0.671 1.342,0.378 1.487,-0.291 m -1.035,1.415 c 0.67,0.333 0.817,-0.031 1.095,-0.326 0.151,0.013 0.308,0.03 0.46,0.018 0.343,-0.071 0.38,-0.392 0.85,-0.335 M 7.856,9.628 c 0.168,0.279 0.496,0.371 0.809,0.25 0.376,-0.256 0.56,-0.46 0.881,-0.469 m 2.026,-2.506 c 0.026,0.901 -0.16,1.235 -0.874,1.748 m -0.496,0.627 c 0.6,0.594 1.191,0.112 1.093,-0.408 m 0.438,1.108 c -0.2,0.38 -0.298,0.559 -0.456,0.58 -0.575,0.033 -0.912,-0.422 -1.35,-0.348 -0.269,0.042 -0.399,0.642 -0.993,0.424 M 12.228,9.22 a 1.6,1.6 0 0 0 0.404,0.907 c 0.265,0.284 0.017,0.682 -0.55,0.74 M 11.864,8.17 c 0.338,0.112 0.904,0.053 0.787,-0.655 M 13.015,5.81 c 0.17,0.187 0.233,0.302 0.22,0.399 -0.2,0.305 -0.3,0.404 -0.247,0.524 0.653,0.286 0.723,0.621 0.158,1.175 m 0.539,-1.472 c 0.694,0.428 0.418,0.798 0.606,1.344 0.098,0.275 0.29,0.44 0.517,0.595 m -1.327,0.422 c 0.085,0.245 0.444,0.53 0.817,0.088 m 0.247,0.277 c 0.298,0.243 0.426,0.568 0.204,1.063 m 0.248,0.525 c -0.045,0.217 -0.157,0.38 -0.437,0.408 m -1.443,0.248 c 0.847,-0.152 1.09,-0.275 1.102,-0.868 M 14.035,9.715 c -0.01,0.33 -0.14,0.565 -0.48,0.627"
   id="path4439"
   style="fill:#e4e0de;fill-opacity:1" />
        <path
   stroke-width="0.26"
   d="M 8.916,6.403 C 8.564,6.791 8.332,6.845 7.938,6.921 A 1.757,1.757 0 0 0 7.171,7.21 C 6.813,7.631 6.308,7.623 5.852,7.772 5.542,7.875 5.27,8.033 5.016,8.326 4.414,8.588 4.327,8.886 4.169,9.447 4.125,9.633 4.055,9.799 4.072,10.033 l -0.03,0.592 m 5.999,2.966 c 0.169,0.24 0.492,0.47 0.805,0.606 0.776,0.291 1.983,-0.006 2.566,-0.376 0.676,-0.44 1.133,-1.145 1.173,-1.984"
   id="path4441"
   style="fill:#e4e0de;fill-opacity:1" />
        <path
   stroke-width="0.154"
   d="m 10.369,11.2 c 0.98,0.268 1.943,0.599 2.63,0.47 M 9.7,11.39 l 1.362,0.288 c 0.727,0.266 1.142,0.385 1.84,0.279 0.213,-0.033 0.426,-0.075 0.64,-0.112"
   id="path4443"
   style="fill:#e4e0de;fill-opacity:1" />
        <path
   stroke-width="0.154"
   d="m 9.19,11.423 c 0.29,0.067 0.64,0.29 1.062,0.375 0.704,0.14 1.393,0.436 1.887,0.605 0.709,-0.064 1.498,-0.19 2.096,-0.343 m -2.065,0.367 c 0.83,0.254 1.25,0.061 2.073,-0.112 m 0.047,0.287 c -0.256,-0.016 -0.49,0.035 -0.725,0.08"
   id="path4445"
   style="fill:#e4e0de;fill-opacity:1" />
        <path
   stroke-width="0.154"
   d="m 8.958,11.582 c 0.709,0.423 1.572,0.58 2.253,0.843 0.541,0.211 1.074,0.45 1.55,0.51 0.411,0.05 0.816,0.018 1.266,-0.022 m -4.871,-0.93 c 0.67,0.474 1.082,0.566 1.85,0.77 m 0.837,0.256 c 0.701,0.196 1.294,0.344 2.009,0.374 M 12.05,13.24 c 0.59,0.238 0.993,0.34 1.603,0.375 m -2.009,-0.367 c 0.49,0.291 1.112,0.442 1.746,0.582 m -2.248,-0.646 c 0.57,0.418 1.253,0.585 1.913,0.813 m -2.487,-0.948 c 0.687,0.628 1.236,0.78 2.088,1.1 M 11.03,13.67 c 0.454,0.245 0.962,0.516 1.069,0.598 m -1.961,-1.307 c 0.437,0.63 0.827,0.895 1.434,1.323 M 9.843,12.913 c 0.314,0.477 0.595,0.69 1.148,1.275"
   id="path4447"
   style="fill:#e4e0de;fill-opacity:1" />
  </g></g><g
   id="g7610"
   transform="matrix(-1,0,0,1,336.35593,1.3983051)"><path
     d="m 269.5576,89.198046 a 7.1530302,7.1530302 0 0 1 -5.17729,-2.127161 6.9943945,6.9943945 0 0 1 -2.13437,-5.13403 7.210716,7.210716 0 0 1 2.09111,-5.177294 6.9943945,6.9943945 0 0 1 5.1196,-2.127161 6.8213373,6.8213373 0 0 1 5.07635,2.127161 c 1.39167,1.456564 2.09111,3.179926 2.09111,5.177294 a 6.9727623,6.9727623 0 0 1 -2.09111,5.13403 6.6050158,6.6050158 0 0 1 -4.9754,2.127161 z"
     style="line-height:1.03;-inkscape-font-specification:'Arial Black, ';stroke-width:7.21072"
     id="path7590" /><rect
     width="14.897339"
     height="43.841152"
     x="261.83493"
     y="23.450729"
     paint-order="stroke fill markers"
     rx="1.187"
     ry="1.018"
     id="rect7592"
     style="stroke-width:7.21072" /><g
     fill="#ffffff"
     stroke="#000000"
     stroke-linecap="round"
     stroke-linejoin="round"
     id="g7608"
     transform="matrix(7.210716,0,0,7.210716,208.37468,-11.009274)"
     style="fill:#e4e0de;fill-opacity:1">
    <path
   stroke-width="0.26"
   d="m 7.611,11.837 c 0.24,0.366 0.338,0.483 0.553,0.606 0.551,0.226 0.726,0.723 1.069,1.248 l 0.313,0.48 c 0.106,0.19 0.298,0.31 0.467,0.343 0.246,0.049 0.452,0.008 0.463,-0.158 -0.06,-0.177 -0.082,-0.34 -0.225,-0.49 A 3.422,3.422 0 0 1 9.836,13.317 4.035,4.035 0 0 0 9.45,12.786 C 9.062,12.346 8.898,12.019 8.655,11.375 l 0.363,0.882 0.644,0.768 0.53,0.777 0.565,0.345 1.333,0.008 1.28,-0.397 0.742,-0.768 0.495,-1.157 c -0.9,-0.578 -1.001,-0.359 -1.501,-0.538 L 9.777,11.109 8.655,11.375"
   id="path7594"
   style="fill:#e4e0de;fill-opacity:1" />
        <path
   stroke-width="0.26"
   d="M 4.03,10.578 C 3.422,10.756 3.005,10.552 2.551,10.108 2.155,10.09 1.79,10.014 1.662,9.497 1.372,9.223 1.229,8.935 1.327,8.622 1.063,8.282 1.123,7.942 1.283,7.602 1.207,6.997 1.354,6.595 1.706,6.378 1.791,5.911 2,5.54 2.507,5.227 2.965,4.656 3.396,4.492 3.892,4.498 4.248,4.128 4.663,3.936 5.174,4.032 5.954,3.354 6.586,3.494 7.214,3.652 7.898,3.26 8.226,3.38 8.57,3.478 9.18,3.316 9.467,3.508 9.692,3.769 10.307,3.51 10.62,3.704 10.931,3.9 c 0.542,-0.13 0.592,0.03 0.816,0.204 0.359,-0.08 0.498,0.191 0.67,0.409 0.578,-0.052 0.746,0.266 0.948,0.553 0.333,0.162 0.666,0.325 0.772,0.904 0.673,0.306 0.754,0.886 0.947,1.414 0.445,0.285 0.5,0.747 0.525,1.224 0.252,0.49 0.224,0.981 -0.029,1.472 -0.105,0.934 -0.39,1.679 -1,1.687 -1.153,-0.316 -2.425,-0.586 -3.635,-0.588 -0.901,0.007 -1.748,-0.034 -2.535,0.287 -0.183,0.076 -0.365,0.16 -0.543,0.244 -0.288,0.097 -0.513,0.308 -0.769,0.418 A 1.869,1.869 0 0 1 6.224,12.251 C 5.578,12.114 5.554,12.077 5.101,11.654 4.854,11.749 4.606,11.576 4.358,11.406 4.006,11.129 4.056,10.852 4.038,10.576"
   id="path7596"
   style="fill:#e4e0de;fill-opacity:1" />
        <path
   stroke-width="0.26"
   d="M 1.983,6.946 C 1.973,6.502 2.07,6.08 2.639,5.751 M 3.186,5.446 C 3.458,5.159 3.804,5.034 4.169,4.95 M 4.616,5.086 C 4.809,4.68 5.158,4.346 5.918,4.44 M 6.294,4.725 C 6.447,4.455 6.624,4.17 7.432,4.262 M 7.856,3.988 C 8.098,3.8 8.316,3.754 8.526,3.755 M 9.692,3.74 8.614,4.192 M 8.016,4.542 C 7.896,4.692 7.851,4.748 7.616,4.74 7.403,4.711 7.322,4.748 7.054,4.964 M 4.65,5.606 C 5.136,4.965 5.668,4.971 5.845,5.576 M 5.13,5.97 C 4.962,6.115 4.94,6.275 4.927,6.436 M 2.872,6.101 C 3.149,5.812 3.498,5.754 3.848,5.766 M 2.837,7.18 C 2.972,6.555 3.255,6.54 3.732,6.699 M 1.75,7.18 C 1.55,7.222 1.367,7.396 1.265,7.632 m 0.383,1.5 a 0.937,0.937 0 0 0 0.54,0.272 M 2.201,8.591 C 2.258,8.239 2.05,8.168 2.056,7.85 2.114,7.596 2.203,7.355 2.449,7.18 M 2.93,8.345 C 2.863,8.671 2.835,8.751 3.033,8.903 3.298,9.124 3.304,9.226 3.202,9.43 3.172,9.697 3.237,9.8 3.513,9.92 M 3.178,7.66 C 3.19,8.031 3.398,8.384 3.963,8.29 M 3.6,7.15 C 4.122,7.714 4.779,7.425 4.679,6.859 M 5.422,7.238 C 5.591,7.124 5.586,7.014 5.612,6.823 5.673,6.5 5.791,6.323 6.191,6.257 6.544,6.197 6.664,6.083 6.573,5.678 M 7.54,5.54 C 7.628,5.997 7.523,5.838 7.392,6.122 7.306,6.545 7.396,6.542 7.145,6.956 M 8.279,5.984 C 8.469,5.886 8.489,5.747 8.469,5.606 8.296,4.824 9.21,4.586 9.634,4.513 M 10.31,4.32 c 0.704,0.273 0.822,1 -0.035,0.921 C 9.961,5.196 9.691,5.149 9.386,5.431 m 1.507,-1.163 c 0.582,-0.02 0.613,0.163 0.965,0.439 0.184,0.142 0.36,0.132 0.623,0.125 0.28,0.036 0.519,0.153 0.677,0.425 m -3.51,0.64 C 9.5,6.042 9.438,6.155 9.416,6.305 9.546,7.019 9.308,7.031 8.686,7.369 m 2.77,-1.822 c 0.784,-0.31 1.068,0.268 0.842,0.599 -0.072,0.104 -0.202,0.167 -0.374,0.195 -0.51,0.06 -0.845,-0.055 -1.314,-0.24 m -0.35,0.496 c 0.004,0.305 0.203,0.474 0.157,0.72 0.027,0.279 -0.25,0.54 -0.641,0.732 -0.755,0.354 -1.22,0.363 -1.92,0.005 M 7.127,8.68 C 7.175,9.119 6.902,9.133 6.661,9.19 M 6.34,9.016 C 6.117,9.374 5.805,9.434 5.393,9.162 M 4.78,10.313 c 0.028,0.489 0.219,0.811 0.904,0.627 m 0.102,-0.817 c 0.59,0.671 1.342,0.378 1.487,-0.291 m -1.035,1.415 c 0.67,0.333 0.817,-0.031 1.095,-0.326 0.151,0.013 0.308,0.03 0.46,0.018 0.343,-0.071 0.38,-0.392 0.85,-0.335 M 7.856,9.628 c 0.168,0.279 0.496,0.371 0.809,0.25 0.376,-0.256 0.56,-0.46 0.881,-0.469 m 2.026,-2.506 c 0.026,0.901 -0.16,1.235 -0.874,1.748 m -0.496,0.627 c 0.6,0.594 1.191,0.112 1.093,-0.408 m 0.438,1.108 c -0.2,0.38 -0.298,0.559 -0.456,0.58 -0.575,0.033 -0.912,-0.422 -1.35,-0.348 -0.269,0.042 -0.399,0.642 -0.993,0.424 M 12.228,9.22 a 1.6,1.6 0 0 0 0.404,0.907 c 0.265,0.284 0.017,0.682 -0.55,0.74 M 11.864,8.17 c 0.338,0.112 0.904,0.053 0.787,-0.655 M 13.015,5.81 c 0.17,0.187 0.233,0.302 0.22,0.399 -0.2,0.305 -0.3,0.404 -0.247,0.524 0.653,0.286 0.723,0.621 0.158,1.175 m 0.539,-1.472 c 0.694,0.428 0.418,0.798 0.606,1.344 0.098,0.275 0.29,0.44 0.517,0.595 m -1.327,0.422 c 0.085,0.245 0.444,0.53 0.817,0.088 m 0.247,0.277 c 0.298,0.243 0.426,0.568 0.204,1.063 m 0.248,0.525 c -0.045,0.217 -0.157,0.38 -0.437,0.408 m -1.443,0.248 c 0.847,-0.152 1.09,-0.275 1.102,-0.868 M 14.035,9.715 c -0.01,0.33 -0.14,0.565 -0.48,0.627"
   id="path7598"
   style="fill:#e4e0de;fill-opacity:1" />
        <path
   stroke-width="0.26"
   d="M 8.916,6.403 C 8.564,6.791 8.332,6.845 7.938,6.921 A 1.757,1.757 0 0 0 7.171,7.21 C 6.813,7.631 6.308,7.623 5.852,7.772 5.542,7.875 5.27,8.033 5.016,8.326 4.414,8.588 4.327,8.886 4.169,9.447 4.125,9.633 4.055,9.799 4.072,10.033 l -0.03,0.592 m 5.999,2.966 c 0.169,0.24 0.492,0.47 0.805,0.606 0.776,0.291 1.983,-0.006 2.566,-0.376 0.676,-0.44 1.133,-1.145 1.173,-1.984"
   id="path7600"
   style="fill:#e4e0de;fill-opacity:1" />
        <path
   stroke-width="0.154"
   d="m 10.369,11.2 c 0.98,0.268 1.943,0.599 2.63,0.47 M 9.7,11.39 l 1.362,0.288 c 0.727,0.266 1.142,0.385 1.84,0.279 0.213,-0.033 0.426,-0.075 0.64,-0.112"
   id="path7602"
   style="fill:#e4e0de;fill-opacity:1" />
        <path
   stroke-width="0.154"
   d="m 9.19,11.423 c 0.29,0.067 0.64,0.29 1.062,0.375 0.704,0.14 1.393,0.436 1.887,0.605 0.709,-0.064 1.498,-0.19 2.096,-0.343 m -2.065,0.367 c 0.83,0.254 1.25,0.061 2.073,-0.112 m 0.047,0.287 c -0.256,-0.016 -0.49,0.035 -0.725,0.08"
   id="path7604"
   style="fill:#e4e0de;fill-opacity:1" />
        <path
   stroke-width="0.154"
   d="m 8.958,11.582 c 0.709,0.423 1.572,0.58 2.253,0.843 0.541,0.211 1.074,0.45 1.55,0.51 0.411,0.05 0.816,0.018 1.266,-0.022 m -4.871,-0.93 c 0.67,0.474 1.082,0.566 1.85,0.77 m 0.837,0.256 c 0.701,0.196 1.294,0.344 2.009,0.374 M 12.05,13.24 c 0.59,0.238 0.993,0.34 1.603,0.375 m -2.009,-0.367 c 0.49,0.291 1.112,0.442 1.746,0.582 m -2.248,-0.646 c 0.57,0.418 1.253,0.585 1.913,0.813 m -2.487,-0.948 c 0.687,0.628 1.236,0.78 2.088,1.1 M 11.03,13.67 c 0.454,0.245 0.962,0.516 1.069,0.598 m -1.961,-1.307 c 0.437,0.63 0.827,0.895 1.434,1.323 M 9.843,12.913 c 0.314,0.477 0.595,0.69 1.148,1.275"
   id="path7606"
   style="fill:#e4e0de;fill-opacity:1" />
  </g></g><g
   aria-label="Disabled?"
   id="text7666"
   style="font-weight:bold;font-size:23px;line-height:1.03;font-family:'.Apple SD Gothic NeoI';-inkscape-font-specification:'.Apple SD Gothic NeoI Bold';text-align:center;text-anchor:middle;stroke-width:1.35827;stroke-linecap:square;stroke-linejoin:round;paint-order:stroke fill markers"><path
     d="m 98.703964,103.53823 q -0.662597,-0.0112 -1.111816,-0.44922 -0.449219,-0.44922 -0.449219,-1.07812 0,-1.12305 0.101074,-3.369143 0.112305,-2.246094 0.112305,-3.369141 0,-1.246582 -0.05615,-3.739746 -0.04492,-2.493164 -0.04492,-3.739746 0,-0.617676 0.595215,-1.224121 0.595214,-0.617676 1.269043,-0.617676 0.370605,0 1.864258,0.696289 1.74072,0.831055 2.06641,0.932129 3.29052,1.066894 5.61523,3.301758 2.77393,2.661621 2.77393,5.884765 0,1.942871 -0.95459,3.694822 -0.95459,1.78565 -2.6167,2.86377 -1.86426,1.21289 -5.24463,1.21289 -0.81983,0 -1.88672,-0.23584 -1.291505,-0.29199 -2.032716,-0.76367 z m 6.311526,-11.544921 q -1.08936,-0.685059 -4.67188,-2.15625 v 11.118161 q 0.43799,0.28076 0.99951,0.42676 0.57276,0.13477 1.26905,0.13477 2.42578,0 3.48144,-0.67383 0.99951,-0.64014 1.5835,-1.740724 0.59521,-1.100586 0.59521,-2.291016 0,-2.785156 -3.25683,-4.817871 z"
     style="font-family:'Comic Sans MS';-inkscape-font-specification:'Comic Sans MS Bold'"
     id="path10203" /><path
     d="m 115.84166,89.926903 q -0.71875,0 -1.24658,-0.48291 -0.52783,-0.482911 -0.52783,-1.1792 0,-0.696289 0.52783,-1.179199 0.52783,-0.48291 1.24658,-0.48291 0.71875,0 1.23535,0.48291 0.52783,0.48291 0.52783,1.179199 0,0.696289 -0.52783,1.1792 -0.5166,0.48291 -1.23535,0.48291 z m 0.95459,8.231933 q 0,0.640137 0.0337,2.055174 0.0449,1.41504 0.0449,2.05518 0,0.65137 -0.43799,1.07812 -0.43798,0.41553 -1.11181,0.41553 -0.67383,0 -1.11182,-0.41553 -0.43799,-0.42675 -0.43799,-1.07812 0,-0.64014 -0.0449,-2.05518 -0.0337,-1.415037 -0.0337,-2.055174 0,-0.999511 0.1123,-2.504394 0.11231,-1.504883 0.11231,-2.504395 0,-0.651367 0.43799,-1.066894 0.43799,-0.426758 1.11181,-0.426758 0.67383,0 1.11182,0.426758 0.43799,0.415527 0.43799,1.066894 0,0.999512 -0.11231,2.504395 -0.1123,1.504883 -0.1123,2.504394 z"
     style="font-family:'Comic Sans MS';-inkscape-font-specification:'Comic Sans MS Bold'"
     id="path10205" /><path
     d="m 127.63365,95.205223 q -1.11181,0 -1.33642,-0.932129 -0.44922,-0.07861 -0.9209,-0.07861 -2.70655,0 -2.70655,0.741211 0,0.437988 1.62842,1.179199 2.22364,1.021973 3.00977,1.594727 1.62842,1.179199 1.62842,2.661622 0,1.93164 -1.79688,2.93115 -1.44873,0.79736 -3.56006,0.79736 -1.49365,0 -2.729,-0.46044 -1.68457,-0.62891 -1.68457,-1.85303 0,-1.12305 1.33642,-1.12305 0.51661,0 1.49366,0.32568 0.97705,0.32569 1.50488,0.32569 2.27978,0 2.29101,-0.9209 0,-0.572754 -1.58349,-1.269043 -2.31348,-1.021973 -2.96484,-1.471192 -1.5835,-1.111816 -1.5835,-2.706543 0,-2.257324 2.39209,-3.043457 1.40381,-0.460449 4.26758,-0.460449 1.12304,0 1.66211,0.291992 0.74121,0.393067 0.74121,1.448731 0,2.021484 -1.08936,2.021484 z"
     style="font-family:'Comic Sans MS';-inkscape-font-specification:'Comic Sans MS Bold'"
     id="path10207" /><path
     d="m 140.61607,104.16714 q -0.5166,0 -1.63964,-1.12305 -1.03321,0.49414 -1.81934,0.74121 -0.78613,0.2583 -1.33643,0.2583 -2.70654,0 -4.06543,-1.44873 -1.34765,-1.44873 -1.34765,-4.334959 0,-2.706543 1.99902,-4.626954 1.99902,-1.93164 4.78418,-1.93164 1.0669,0 2.4707,0.606445 1.6958,0.729981 1.6958,1.695801 0,0.404297 -0.2583,0.707519 -0.1123,0.449219 -0.17968,1.134278 -0.0562,0.673828 -0.0562,1.583496 0,2.145019 0.30323,3.088374 0.0337,0.10108 0.5166,1.16797 0.43799,0.96582 0.43799,1.10059 0,0.59521 -0.46045,0.98828 -0.44922,0.39307 -1.04444,0.39307 z m -2.78515,-7.704104 q 0,-0.359375 0.0449,-0.819825 0.0562,-0.471679 0.15723,-1.044433 -0.22461,-0.112305 -0.4043,-0.157227 -0.16846,-0.05615 -0.29199,-0.05615 -1.52735,0 -2.67285,1.20166 -1.14551,1.19043 -1.14551,2.762695 0,1.504883 0.53906,2.268556 0.53906,0.75244 1.61719,0.75244 0.69629,0 1.31396,-0.22461 0.62891,-0.23584 1.1792,-0.68506 -0.33691,-2.672849 -0.33691,-3.998044 z"
     style="font-family:'Comic Sans MS';-inkscape-font-specification:'Comic Sans MS Bold'"
     id="path10209" /><path
     d="m 149.03893,103.89761 q -1.57227,0 -2.98731,-0.5503 -0.41553,0.41553 -1.01074,0.41553 -0.60645,0 -1.04444,-0.4043 -0.42675,-0.40429 -0.42675,-1.01074 0,-0.26953 0.0337,-0.81982 0.0337,-0.56153 0.0337,-0.83106 V 87.972801 q 0,-0.808594 0.35937,-1.4375 0.44922,-0.797363 1.28028,-0.797363 1.20166,0 1.20166,1.302734 0,0.145996 -0.0449,0.47168 -0.0337,0.314453 -0.0337,0.460449 v 4.30127 q 0.83105,-0.460449 1.59472,-0.685059 0.76367,-0.23584 1.47119,-0.23584 2.63916,0 4.26758,1.92041 1.51611,1.796875 1.51611,4.357422 0,2.605466 -1.76318,4.413576 -1.79687,1.85303 -4.44726,1.85303 z m 0.42675,-9.669438 q -0.58398,0 -1.34765,0.336914 -0.76368,0.336914 -1.71826,1.010743 -0.0112,1.066894 0,4.772951 1.53857,0.6626 2.63916,0.6626 1.42626,0 2.34716,-0.95459 0.9209,-0.965825 0.9209,-2.425786 0,-1.459961 -0.75244,-2.41455 -0.78613,-0.988282 -2.08887,-0.988282 z"
     style="font-family:'Comic Sans MS';-inkscape-font-specification:'Comic Sans MS Bold'"
     id="path10211" /><path
     d="m 160.80846,101.77505 q 0,2.13379 -1.54981,2.13379 -0.67383,0 -1.11181,-0.42676 -0.43799,-0.42676 -0.43799,-1.10059 V 86.849754 q 0,-0.651367 0.47168,-1.066894 0.44922,-0.381836 1.11181,-0.381836 0.6626,0 1.08936,0.404297 0.42676,0.393066 0.42676,1.044433 z"
     style="font-family:'Comic Sans MS';-inkscape-font-specification:'Comic Sans MS Bold'"
     id="path10213" /><path
     d="m 169.30992,103.94253 q -2.68408,0 -4.39111,-1.28028 -1.88672,-1.41503 -1.88672,-3.986812 0,-2.841309 1.49365,-4.806641 1.66211,-2.178711 4.48096,-2.178711 1.9541,0 3.2456,0.628907 1.6958,0.831054 1.6958,2.583007 0,1.235352 -1.38134,2.189942 -0.62891,0.437988 -2.52686,1.280273 l -3.78467,1.673345 q 0.53907,0.58398 1.30274,0.87597 0.76367,0.29199 1.75195,0.29199 1.50488,0 2.54932,-0.61767 0.93213,-0.55029 1.49365,-0.55029 1.16797,0 1.16797,1.13427 0,1.28028 -1.87549,2.08887 -1.57227,0.67383 -3.33545,0.67383 z m -0.30322,-9.53467 q -1.04443,0 -1.78565,0.696289 -0.74121,0.696289 -1.19043,2.088867 1.26905,-0.550293 2.52686,-1.089355 1.51611,-0.685059 2.41455,-1.269043 -0.75244,-0.426758 -1.96533,-0.426758 z"
     style="font-family:'Comic Sans MS';-inkscape-font-specification:'Comic Sans MS Bold'"
     id="path10215" /><path
     d="m 184.72935,92.139305 q 0.146,-3.82959 0.34815,-5.289551 0.19092,-1.325195 1.45996,-1.325195 0.6626,0 1.06689,0.426758 0.4043,0.426758 0.4043,1.044433 0,1.628418 -0.2583,4.851563 -0.24707,3.223144 -0.24707,4.851562 0,3.975585 0.2583,5.323245 0.0337,0.17969 0.0337,0.32568 0,0.61768 -0.44922,1.02197 -0.44921,0.39307 -1.04443,0.39307 -0.83105,0 -1.23535,-0.74121 -0.76367,0.46045 -1.5835,0.68506 -0.81982,0.23584 -1.6958,0.23584 -2.51562,0 -4.17773,-1.60596 -1.6958,-1.63965 -1.6958,-4.177734 0,-3.020996 1.70703,-4.874023 1.70703,-1.864258 4.45849,-1.864258 0.84229,0 1.50489,0.179688 0.66259,0.179687 1.1455,0.539062 z m -0.2246,3.537598 q -0.37061,-0.70752 -0.96582,-1.055664 -0.59522,-0.348145 -1.41504,-0.348145 -1.66211,0 -2.49317,0.96582 -0.83105,0.95459 -0.83105,2.875 0,1.212891 0.89843,2.077636 0.89844,0.86475 2.08887,0.86475 0.86475,0 1.31397,-0.20215 0.30322,-0.13477 1.0332,-0.71875 0.19092,-0.157228 0.37061,-0.348146 -0.0225,-0.539062 0,-4.110351 z"
     style="font-family:'Comic Sans MS';-inkscape-font-specification:'Comic Sans MS Bold'"
     id="path10217" /><path
     d="m 198.62144,96.159813 q -0.0786,0.05615 -1.85302,1.302734 -1.13428,0.786133 -1.72949,1.448731 -0.53907,0.595215 -1.19043,0.595215 -0.64014,0 -1.12305,-0.46045 -0.48291,-0.471679 -0.48291,-1.078125 0,-0.898437 1.44873,-2.010254 1.33642,-0.943359 2.67285,-1.897949 1.44873,-1.100586 1.44873,-1.987793 0,-1.044433 -1.06689,-1.954101 -1.05567,-0.920899 -2.20118,-0.920899 -0.60644,0 -1.6621,0.696289 -1.05567,0.685059 -1.49366,0.685059 -0.66259,0 -1.12304,-0.48291 -0.44922,-0.494141 -0.44922,-1.089356 0,-1.123047 1.96533,-2.055175 1.66211,-0.797364 2.76269,-0.797364 2.43702,0 4.40235,1.796875 1.97656,1.796875 1.97656,4.121582 0,2.302246 -2.30225,4.087891 z m -5.39062,8.074707 q -0.64014,0 -1.16797,-0.4043 -0.57275,-0.44922 -0.57275,-1.11181 0,-0.76368 0.44922,-1.41504 0.53906,-0.79737 1.44873,-0.79737 0.76367,0 1.19043,0.57276 0.33691,0.47168 0.33691,1.11181 0,0.68506 -0.37061,1.28028 -0.47168,0.76367 -1.31396,0.76367 z"
     style="font-family:'Comic Sans MS';-inkscape-font-specification:'Comic Sans MS Bold'"
     id="path10219" /></g><g
   id="g14734"
   transform="matrix(0.69505577,0,0,0.85655551,24.589945,14.990844)"><path
     style="fill:none;fill-opacity:1;stroke:#333333;stroke-width:2.13913;stroke-linecap:round;stroke-linejoin:round;stroke-dasharray:none;paint-order:stroke fill markers"
     d="m 130.10009,63.967703 -15.03493,5.539187 10.8146,10.550832"
     id="path10052" /><path
     style="fill:#000000;fill-opacity:1;stroke:#333333;stroke-width:2.13887;stroke-linecap:round;stroke-linejoin:round;paint-order:stroke fill markers"
     d="m 116.91155,69.770661 33.23512,8.968207"
     id="path10054" /></g><path
   id="path10070"
   style="fill:#000000;fill-opacity:1;stroke:#000000;stroke-linecap:round;stroke-linejoin:round;opacity:0.09333333"
   d="m 70.154297,14.769531 c -1.517854,-0.04867 -2.728508,0.345894 -3.96875,0.699219 -4.398533,-1.168135 -6.467434,0.215661 -8.089844,2.097656 -4.434586,-1.867574 -6.693016,-0.467986 -8.935547,0.945313 -3.908204,-0.937392 -4.267613,0.21604 -5.882812,1.470703 -2.588645,-0.576857 -3.591789,1.377284 -4.832032,2.949219 -4.167788,-0.374957 -5.379374,1.916855 -6.835937,3.986328 -2.401167,1.168135 -4.802071,2.34453 -5.566406,6.519531 -4.852807,2.206477 -5.436459,6.388058 -6.828125,10.195312 -3.208766,2.055052 -3.604889,5.386665 -3.785156,8.826172 -1.817099,3.533248 -1.615325,7.072824 0.208984,10.613282 0.03087,0.274614 0.07802,0.530967 0.113281,0.800781 l 13.613281,-3.025391 c 0,0 6.058167,-7.924523 8.388672,-8.390625 2.330507,-0.466101 12.585938,2.796875 12.585938,2.796875 l 9.320312,-20.507812 8.857422,1.398437 7.457031,5.591797 27.966801,-4.660156 13.51562,9.322266 1.72656,-0.101563 c -0.13418,-0.363879 -0.28188,-0.727918 -0.45312,-1.091797 0.54802,-4.362479 -0.51262,-7.261448 -3.05078,-8.826172 -0.61291,-3.367401 -2.11956,-6.041876 -5.77539,-8.298828 -3.3025,-4.117315 -6.40982,-5.301077 -9.986331,-5.257812 C 97.350956,20.154303 94.3585,18.770662 90.673828,19.462891 85.049476,14.57403 80.491215,15.583364 75.962891,16.722656 73.496828,15.309357 71.672151,14.818204 70.154297,14.769531 Z" /><path
   id="path10157"
   style="fill:#000000;fill-opacity:1;stroke:#000000;stroke-linecap:round;stroke-linejoin:round;opacity:0.09333333"
   d="m 227.74414,14.769531 c -1.51786,0.04867 -3.34253,0.539826 -5.80859,1.953125 -4.52832,-1.139292 -9.08659,-2.148626 -14.71094,2.740235 -3.68467,-0.692229 -6.67713,0.691412 -9.24414,3.359375 -3.57652,-0.04326 -6.68383,1.140497 -9.98633,5.257812 -3.48679,2.152592 -5.00784,4.692553 -5.67383,7.84375 l 5.32422,2.550781 21.90625,-1.865234 18.17774,7.923828 10.7207,-2.796875 12.58398,10.720703 16.78125,1.398438 14.54688,8.99414 c 1.71926,-3.466204 1.88641,-6.931476 0.10742,-10.390625 -0.18027,-3.439507 -0.57639,-6.77112 -3.78516,-8.826172 -1.39166,-3.807254 -1.97532,-7.988835 -6.82812,-10.195312 -0.76433,-4.175001 -3.16524,-5.351396 -5.56641,-6.519531 -1.45657,-2.069473 -2.66815,-4.361285 -6.83594,-3.986328 -1.24023,-1.571935 -2.24338,-3.526076 -4.83203,-2.949219 -1.61519,-1.254663 -1.9746,-2.408095 -5.88281,-1.470703 -2.24254,-1.413299 -4.50096,-2.812887 -8.93555,-0.945313 -1.6224,-1.881995 -3.69131,-3.265791 -8.08984,-2.097656 -1.24024,-0.353325 -2.45089,-0.747891 -3.96875,-0.699219 z" /><path
   id="text14677"
   style="font-style:normal;font-variant:normal;font-weight:bold;font-stretch:normal;font-size:19.7636px;line-height:1.03;font-family:'Comic Sans MS';-inkscape-font-specification:'Comic Sans MS Bold';text-align:center;text-anchor:middle;opacity:1;fill:#ff0000;fill-opacity:1;stroke:#ffffff;stroke-width:3;stroke-linecap:round;stroke-linejoin:round;stroke-dasharray:none;paint-order:stroke fill markers"
   d="m 84.86272,33.953688 c -0.38601,0.07088 -0.75082,0.315967 -1.0918,0.732422 -0.34097,0.410022 -0.51171,0.790691 -0.51171,1.144531 0,0.714113 0.0133,1.78353 0.0391,3.20703 0.0322,1.422321 0.0488,2.490964 0.0488,3.205078 0,0.643346 -0.0314,1.613604 -0.0957,2.912111 -0.0579,1.297324 -0.0879,2.268764 -0.0879,2.912109 0,0.360274 0.12938,0.645387 0.38672,0.855468 0.25734,0.203649 0.57551,0.274206 0.95508,0.210938 0.42461,0.192232 1.00625,0.302576 1.74609,0.333985 0.61118,0.02287 1.15146,-0.0075 1.6211,-0.09375 1.93647,-0.355604 3.43986,-0.980167 4.50781,-1.871093 0.95215,-0.792461 1.7012,-1.749708 2.24805,-2.873048 0.54684,-1.104039 0.82031,-2.213183 0.82031,-3.326171 0,-1.846402 -0.7957,-3.38622 -2.38477,-4.61914 -1.33172,-1.035707 -2.93921,-1.686147 -4.82421,-1.951174 -0.18658,-0.02364 -0.77821,-0.181651 -1.7754,-0.474607 -0.85565,-0.241747 -1.38925,-0.343675 -1.60156,-0.304688 z m -4.58398,1.013671 c -0.15119,-0.02853 -0.31194,-0.0274 -0.48242,0.0039 -0.45678,0.08388 -0.86629,0.554635 -1.22657,1.412111 -0.2895,0.696508 -0.44025,1.293275 -0.45312,1.791015 -0.0579,1.895635 -0.0993,3.06228 -0.125,3.498046 -1.04866,0.231172 -2.29661,0.607704 -3.74414,1.130859 l -3.70703,1.375 c -0.006,-0.223988 0.0102,-0.550724 0.0488,-0.98242 0.045,-0.465047 0.0684,-0.778617 0.0684,-0.939453 0,-0.488943 0.0147,-1.225193 0.0469,-2.208985 0.0386,-0.991408 0.0586,-1.73176 0.0586,-2.220703 0,-0.35384 -0.12605,-0.629728 -0.37695,-0.828126 -0.25091,-0.198395 -0.56241,-0.263834 -0.93555,-0.195312 -0.37314,0.06852 -0.68464,0.248516 -0.93554,0.539061 -0.25091,0.290548 -0.37696,0.612958 -0.37696,0.966798 0,0.823483 -0.02,2.069408 -0.0586,3.736328 -0.0386,1.660487 -0.0566,2.901127 -0.0566,3.72461 0,0.649779 -0.058,1.632876 -0.17383,2.947265 -0.10937,1.313209 -0.16406,2.29358 -0.16406,2.943359 0,0.35384 0.12605,0.631682 0.37695,0.830079 0.25091,0.198396 0.56241,0.26188 0.93555,0.193359 0.37314,-0.06852 0.68464,-0.246563 0.93554,-0.537108 0.25091,-0.290547 0.37696,-0.612959 0.37696,-0.966799 0,-0.572578 0.0314,-1.316017 0.0957,-2.228515 0.0772,-1.037096 0.1219,-1.775006 0.13477,-2.214844 1.23522,-0.458434 2.4718,-0.913232 3.70703,-1.365235 1.48613,-0.543111 2.73409,-0.931593 3.74414,-1.162108 -0.0129,0.285435 -0.0195,0.611808 -0.0195,0.978515 0,0.469642 0.018,1.17132 0.0566,2.103515 0.045,0.931016 0.0684,1.631921 0.0684,2.101563 0,0.347407 0.13937,0.613546 0.41601,0.800783 0.27664,0.19367 0.60285,0.255249 0.98242,0.185547 0.37314,-0.06852 0.6866,-0.246564 0.9375,-0.53711 0.25091,-0.290547 0.375,-0.612957 0.375,-0.966797 0,-0.469642 -0.0347,-1.164128 -0.10546,-2.083985 -0.0708,-0.919857 -0.10547,-1.616295 -0.10547,-2.085938 0,-0.611178 0.0314,-1.523411 0.0957,-2.73828 0.0643,-1.214871 0.0977,-2.127104 0.0977,-2.738282 0,-0.180137 0.0147,-0.460796 0.0469,-0.839843 0.0386,-0.386662 0.0586,-0.669472 0.0586,-0.849609 0,-0.347406 0.0647,-0.768451 0.19336,-1.261719 0.0257,-0.101229 0.0391,-0.200375 0.0391,-0.296877 0,-0.366707 -0.14271,-0.6454 -0.42578,-0.83789 -0.13189,-0.08836 -0.27265,-0.14725 -0.42383,-0.175781 z m 5.63476,2.132814 c 2.05228,0.465912 3.39158,0.83739 4.01563,1.115233 1.8657,0.821847 2.79687,2.031456 2.79687,3.626954 0,0.681946 -0.16879,1.369406 -0.50976,2.062499 -0.33454,0.691912 -0.78875,1.274241 -1.36133,1.746094 -0.60475,0.497061 -1.60256,0.871768 -2.99219,1.126953 -0.39887,0.07325 -0.76174,0.102888 -1.08984,0.08594 -0.32167,-0.02456 -0.60847,-0.09422 -0.85938,-0.208983 z m -30.49414,2.261718 c -0.386,0.07088 -0.74887,0.314014 -1.08984,0.730468 -0.34097,0.410021 -0.51172,0.792645 -0.51172,1.146485 0,0.714113 0.0133,1.781576 0.0391,3.205078 0.0322,1.422321 0.0469,2.490963 0.0469,3.205077 0,0.643346 -0.0314,1.613605 -0.0957,2.912111 -0.0579,1.297324 -0.0879,2.268764 -0.0879,2.91211 0,0.360273 0.12938,0.645386 0.38672,0.855468 0.25734,0.203648 0.57551,0.274206 0.95508,0.210937 0.42461,0.192232 1.00625,0.304529 1.74609,0.335938 0.61118,0.02287 1.15341,-0.0095 1.62305,-0.0957 1.93647,-0.355604 3.43791,-0.978215 4.50586,-1.869141 0.95215,-0.792461 1.7012,-1.75166 2.24805,-2.875001 0.54684,-1.104038 0.82031,-2.213183 0.82031,-3.326171 0,-1.846402 -0.79375,-3.384266 -2.38281,-4.617188 -1.33173,-1.035706 -2.94117,-1.686147 -4.82617,-1.951172 -0.18657,-0.02364 -0.77821,-0.183604 -1.7754,-0.476561 -0.85564,-0.241748 -1.38925,-0.341723 -1.60156,-0.302735 z m -7.91797,2.28711 c -0.14756,-0.02638 -0.31136,-0.02468 -0.48828,0.0078 -0.37314,0.06852 -1.36234,1.469493 -2.9707,4.203125 -1.11942,1.903998 -2.13723,3.732032 -3.05078,5.482422 -0.59831,0.283574 -0.90981,0.582952 -0.93555,0.896485 -0.0129,0.176066 0.0252,0.354211 0.11524,0.537109 -0.93929,2.070356 -1.40821,3.269551 -1.40821,3.597657 0,0.37314 0.14076,0.657119 0.42383,0.849609 0.28307,0.186056 0.60319,0.246618 0.95703,0.18164 0.50181,-0.09215 0.89271,-0.396918 1.17578,-0.912109 0.73342,-1.556475 1.24899,-2.714538 1.54493,-3.476563 0.54041,-0.195741 1.31945,-0.422257 2.33593,-0.679687 1.08082,-0.269244 1.85791,-0.484385 2.33399,-0.642579 0.24447,0.945859 0.53793,1.768312 0.8789,2.464845 0.51468,1.082809 1.02496,1.58575 1.53321,1.511718 0.35384,-0.05211 0.67062,-0.227591 0.94726,-0.529297 0.28307,-0.302885 0.42383,-0.640531 0.42383,-1.013672 0,-0.276638 -0.11605,-0.670894 -0.34766,-1.181639 C 50.68707,52.328767 50.52299,51.934137 50.47796,51.76227 49.91181,49.479422 49.4329,47.447337 49.04046,45.666566 48.76382,44.340607 48.5617,43.344992 48.43303,42.68024 48.25451,42.071285 47.9441,41.728127 47.50139,41.64899 Z m 8.97071,0.85742 c 2.05227,0.465913 3.38962,0.839345 4.01367,1.117188 1.8657,0.821848 2.79883,2.029502 2.79883,3.625 0,0.681946 -0.17075,1.369407 -0.51172,2.0625 -0.33454,0.691912 -0.78875,1.274241 -1.36133,1.746094 -0.60474,0.497059 -1.60061,0.873722 -2.99023,1.128905 -0.39888,0.07325 -0.76369,0.100935 -1.0918,0.08398 -0.32167,-0.02456 -0.60652,-0.09422 -0.85742,-0.208984 z m -10.12305,3.925782 c 0.27021,1.288539 0.48232,2.336535 0.63672,3.144531 -0.18657,0.05999 -0.64078,0.178117 -1.36133,0.355469 -0.61118,0.150836 -1.06206,0.284846 -1.35156,0.402343 0.88138,-1.647981 1.57436,-2.94811 2.07617,-3.902343 z" /></svg>
