<?xml version="1.0" encoding="UTF-8" standalone="no"?>
<svg
   xml:space="preserve"
   viewBox="0 0 297 110"
   version="1.1"
   id="svg2489"
   sodipodi:docname="rsd.svg"
   inkscape:version="1.2.1 (9c6d41e4, 2022-07-14)"
   xmlns:inkscape="http://www.inkscape.org/namespaces/inkscape"
   xmlns:sodipodi="http://sodipodi.sourceforge.net/DTD/sodipodi-0.dtd"
   xmlns="http://www.w3.org/2000/svg"
   xmlns:svg="http://www.w3.org/2000/svg"><sodipodi:namedview
   id="namedview2491"
   pagecolor="#ffffff"
   bordercolor="#000000"
   borderopacity="0.25"
   inkscape:showpageshadow="2"
   inkscape:pageopacity="0.0"
   inkscape:pagecheckerboard="0"
   inkscape:deskcolor="#d1d1d1"
   showgrid="false"
   inkscape:zoom="2.908462"
   inkscape:cx="156.95581"
   inkscape:cy="39.539798"
   inkscape:window-width="1455"
   inkscape:window-height="666"
   inkscape:window-x="79"
   inkscape:window-y="188"
   inkscape:window-maximized="0"
   inkscape:current-layer="svg2489"
   showguides="true" />
  <defs
   id="defs2435">
    <filter
   id="a"
   width="1.0611603"
   height="1.1322284"
   x="-0.030580139"
   y="-0.066114199"
   color-interpolation-filters="sRGB">
      <feGaussianBlur
   stdDeviation="3.025"
   id="feGaussianBlur2432" />
    </filter>
  </defs>
    <rect
   width="296.752"
   height="109.811"
   x=".319"
   y=".094"
   fill="#99f5fa"
   paint-order="stroke fill markers"
   rx="0"
   ry="0"
   id="rect2437"
   style="fill:#ff0000" />
    <path
   d="M92.027.094a118.704 117.378 0 0 0-62.85 103.357 118.704 117.378 0 0 0 .468 6.453h236.474a118.704 117.378 0 0 0 .467-6.453A118.704 117.378 0 0 0 203.734.094H92.027z"
   filter="url(#a)"
   opacity=".124"
   paint-order="stroke fill markers"
   id="path2439" />
    
    
    
    
    
    
    
    
    
    
    
    
    
    
    
    
    
    
    
    
<path
   style="fill:#ffffff;stroke:#000000;stroke-width:6;stroke-linecap:round;stroke-linejoin:round;stroke-dasharray:none;paint-order:stroke fill markers"
   d="m 139.45967,56.10039 -10.78822,22.451139 11.66293,-2.624158 -21.86798,25.950009 37.32137,-29.157315 -13.1208,-1.166293 17.49439,-17.785968 z"
   id="path5407" /><path
   id="path4606"
   style="fill:#ffffff;stroke:#000000;stroke-width:6;stroke-linecap:round;stroke-linejoin:round;stroke-dasharray:none;paint-order:stroke fill markers"
   d="m 155.41462,7.187547 a 12.658466,6.9300511 0 0 0 -12.56489,6.211414 17.261544,9.765072 0 0 0 -10.49271,4.481625 8.5485741,6.3000464 0 0 0 -2.09452,-0.193147 8.5485741,6.3000464 0 0 0 -8.54882,6.29979 8.5485741,6.3000464 0 0 0 0.0112,0.120451 14.960004,8.5050627 0 0 0 -2.47727,-0.120451 14.960004,8.5050627 0 0 0 -14.95962,8.504968 14.960004,8.5050627 0 0 0 1.18396,3.277829 20.220665,10.500076 0 0 0 -13.349365,9.847746 20.220665,10.500076 0 0 0 20.221015,10.49989 20.220665,10.500076 0 0 0 10.42129,-1.522384 20.549457,9.6600711 0 0 0 18.51146,5.51223 20.549457,9.6600711 0 0 0 17.41011,-4.557889 26.960887,10.080074 0 0 0 10.3733,0.778297 26.960887,10.080074 0 0 0 26.96098,-10.080093 26.960887,10.080074 0 0 0 -0.0127,-0.208117 18.083522,9.5550709 0 0 0 12.83497,-9.137156 18.083522,9.5550709 0 0 0 -14.50544,-9.364517 22.686601,13.5451 0 0 0 -22.64807,-12.790593 22.686601,13.5451 0 0 0 -3.72483,0.202414 12.658466,6.9300511 0 0 0 0.10824,-0.832465 12.658466,6.9300511 0 0 0 -12.65863,-6.929842 z" /><path
   id="text5472"
   style="font-weight:bold;font-size:41.0802px;line-height:1.03;font-family:Galvji;-inkscape-font-specification:'Galvji Bold';text-align:center;text-anchor:middle;fill:#ffffff;stroke:#000000;stroke-width:5.54514;stroke-linecap:round;stroke-linejoin:round;paint-order:stroke fill markers"
   d="M 82.232422 76.431777 C 80.880969 76.070721 79.397926 75.889664 77.783203 75.889664 L 66.388672 75.88957 L 66.388672 104.85441 L 77.783203 104.85451 C 79.94954 104.85451 81.873665 104.53418 83.558594 103.8923 C 85.243522 103.23705 86.66247 102.28632 87.8125 101.04269 C 88.975903 99.79905 89.857224 98.269228 90.458984 96.450575 C 91.060745 94.61855 91.361328 92.525775 91.361328 90.172225 C 91.361328 87.912281 91.054586 85.898441 90.439453 84.133278 C 89.837693 82.354742 88.954419 80.857818 87.791016 79.640926 C 86.640985 78.41066 85.223991 77.480851 83.539062 76.852346 C 83.11783 76.691877 82.682906 76.552129 82.232422 76.431777 z M 79.53125 81.414753 C 79.806221 81.49248 80.072659 81.58351 80.330078 81.687147 C 81.373129 82.08832 82.248292 82.682122 82.957031 83.471096 C 83.679143 84.260071 84.227134 85.230884 84.601562 86.380914 C 84.989363 87.517572 85.183594 88.814333 85.183594 90.27193 C 85.183594 93.347593 84.461802 95.687916 83.017578 97.29261 C 81.573354 98.883931 79.508174 99.678533 76.820312 99.678533 L 72.447266 99.678568 L 72.447266 81.065287 L 76.820312 81.065252 C 77.803187 81.065252 78.706337 81.181571 79.53125 81.414753 z M 52.445312 75.529013 C 51.39474 75.288309 50.271616 75.166749 49.078125 75.166749 C 47.406569 75.166749 45.88938 75.382228 44.525391 75.810146 C 43.161401 76.238065 41.997972 76.85164 41.035156 77.653986 C 40.07234 78.442961 39.32396 79.392739 38.789062 80.502652 C 38.267537 81.612566 38.005859 82.850576 38.005859 84.214565 C 38.005859 88.627473 40.627141 91.381572 45.869141 92.478112 L 49.640625 93.281483 C 50.523207 93.468697 51.277745 93.681285 51.90625 93.921989 C 52.548127 94.149321 53.06953 94.410521 53.470703 94.704715 C 53.871877 94.998909 54.166301 95.332295 54.353516 95.706723 C 54.54073 96.081152 54.634766 96.496927 54.634766 96.95159 C 54.634766 97.49986 54.501824 98.002091 54.234375 98.456755 C 53.966926 98.911418 53.590783 99.305086 53.109375 99.639397 C 52.641339 99.960336 52.081031 100.21441 51.425781 100.40162 C 50.770531 100.57547 50.04874 100.66254 49.259766 100.66254 C 48.403929 100.66254 47.620849 100.57611 46.912109 100.40227 C 46.20337 100.21506 45.581773 99.954194 45.046875 99.619883 C 44.52535 99.285572 44.104142 98.882983 43.783203 98.414947 C 43.462264 97.933539 43.268034 97.399428 43.201172 96.811041 L 37.34375 96.811692 C 37.39724 98.162309 37.705935 99.379279 38.267578 100.46245 C 38.842593 101.54562 39.629879 102.46675 40.632812 103.22898 C 41.635746 103.99121 42.840034 104.57426 44.244141 104.97544 C 45.648248 105.38998 47.212454 105.59705 48.9375 105.59705 C 50.756153 105.59705 52.387807 105.37539 53.832031 104.9341 C 55.276256 104.50618 56.507131 103.89124 57.523438 103.08889 C 58.539744 102.27317 59.314711 101.28463 59.849609 100.12122 C 60.39788 98.957819 60.671875 97.646032 60.671875 96.188436 C 60.671875 95.06515 60.512345 94.062371 60.191406 93.17979 C 59.870468 92.297208 59.367542 91.521485 58.685547 90.852863 C 58.016924 90.184241 57.156033 89.617336 56.099609 89.149301 C 55.056558 88.667893 53.805253 88.271575 52.347656 87.964009 L 48.857422 87.221911 C 47.159121 86.860855 45.936357 86.407774 45.1875 85.859504 C 44.452015 85.311234 44.083984 84.587909 44.083984 83.691955 C 44.083984 83.143685 44.204608 82.649736 44.445312 82.208445 C 44.686017 81.753782 45.025506 81.372395 45.466797 81.064829 C 45.908088 80.74389 46.437602 80.503535 47.052734 80.343066 C 47.667867 80.169224 48.356911 80.081121 49.119141 80.081121 C 49.854625 80.081121 50.529399 80.174622 51.144531 80.361836 C 51.773036 80.535678 52.314868 80.789967 52.769531 81.124278 C 53.237567 81.458589 53.617916 81.86073 53.912109 82.328766 C 54.206303 82.796802 54.386263 83.318285 54.453125 83.8933 L 60.150391 83.892371 C 60.110273 82.608616 59.80969 81.431924 59.248047 80.362128 C 58.686404 79.292332 57.917595 78.37612 56.941406 77.61389 C 55.965218 76.838288 54.807948 76.238102 53.470703 75.810184 C 53.136392 75.703204 52.795503 75.609247 52.445312 75.529013 z M 25.589844 76.270197 C 24.576881 76.029493 23.472788 75.910128 22.279297 75.910128 L 10.125 75.908953 L 10.125 104.85427 L 16.181641 104.85372 L 16.181641 94.363487 L 21.136719 94.363843 L 26.533203 104.85544 L 33.392578 104.85481 L 27.294922 93.42145 C 28.124014 93.087138 28.866234 92.645553 29.521484 92.097283 C 30.176734 91.549012 30.724725 90.920918 31.166016 90.212179 C 31.620679 89.490066 31.962122 88.706428 32.189453 87.863964 C 32.430157 87.008127 32.550781 86.119559 32.550781 85.19686 C 32.550781 83.752636 32.309533 82.462647 31.828125 81.325989 C 31.360089 80.175959 30.685316 79.199184 29.802734 78.396837 C 28.920153 77.59449 27.842648 76.978497 26.572266 76.550579 C 26.25467 76.443599 25.927498 76.350431 25.589844 76.270197 z M 22.505859 80.883749 C 22.843514 80.937239 23.162011 81.017711 23.462891 81.124691 C 24.078023 81.325277 24.593267 81.620287 25.007812 82.008088 C 25.435731 82.395889 25.762903 82.869405 25.990234 83.431048 C 26.217566 83.979318 26.332031 84.59473 26.332031 85.276724 C 26.332031 86.680832 25.910824 87.770796 25.068359 88.546398 C 24.225895 89.322 23.035878 89.710411 21.498047 89.710411 L 16.181641 89.709191 L 16.181641 80.802941 L 21.4375 80.804913 C 21.811929 80.804913 22.168205 80.830259 22.505859 80.883749 z "
   transform="skewY(-13.800746)" /><path
   id="text6308"
   style="font-weight:bold;font-size:41.0802px;line-height:1.03;font-family:Galvji;-inkscape-font-specification:'Galvji Bold';text-align:center;text-anchor:middle;fill:#ffffff;stroke:#000000;stroke-width:5.54514;stroke-linecap:round;stroke-linejoin:round;paint-order:stroke fill markers"
   d="M 180.95898 50.262208 L 170.91016 79.207474 L 176.98828 79.206841 L 179.21484 72.307616 L 189.38477 72.308038 L 191.57031 79.206916 L 198.12891 79.208087 L 188.08008 50.262728 L 180.95898 50.262208 z M 203.06445 50.243322 L 203.06445 79.208166 L 214.45703 79.207525 C 216.62337 79.207525 218.54945 78.885765 220.23438 78.243888 C 221.9193 77.588638 223.3363 76.640224 224.48633 75.396586 C 225.64973 74.152949 226.53301 72.621191 227.13477 70.802538 C 227.73653 68.970512 228.03711 66.879084 228.03711 64.525533 C 228.03711 62.265589 227.73037 60.252809 227.11523 58.487646 C 226.51347 56.70911 225.6302 55.210697 224.4668 53.993804 C 223.31677 52.763539 221.89977 51.834845 220.21484 51.20634 C 218.52992 50.564463 216.61 50.242681 214.45703 50.242681 L 203.06445 50.243322 z M 233.75391 50.261904 L 233.75391 79.207216 L 239.8125 79.208097 L 239.8125 67.112394 L 252.84961 67.111179 L 252.84961 79.206882 L 258.9082 79.207763 L 258.9082 50.262451 L 252.84961 50.263523 L 252.84961 61.937351 L 239.8125 61.936613 L 239.8125 50.262785 L 233.75391 50.261904 z M 184.14844 56.280503 L 184.50977 56.279827 L 188.09961 67.63426 L 180.51758 67.634328 L 184.14844 56.280503 z M 265.92773 50.243502 L 265.92773 79.208346 L 277.32227 79.207554 C 279.4886 79.207554 281.41273 78.885946 283.09766 78.244068 C 284.78258 77.588818 286.20153 76.640253 287.35156 75.396615 C 288.51497 74.152978 289.39629 72.621371 289.99805 70.802718 C 290.59981 68.970693 290.90039 66.877311 290.90039 64.52376 C 290.90039 62.263816 290.59365 60.252989 289.97852 58.487826 C 289.37676 56.709291 288.49348 55.210877 287.33008 53.993984 C 286.18005 52.763719 284.76305 51.835025 283.07812 51.20652 C 281.3932 50.564643 279.47523 50.24271 277.32227 50.24271 L 265.92773 50.243502 z M 209.12109 55.418183 L 213.49414 55.418912 C 214.80464 55.418912 215.97618 55.624624 217.00586 56.03917 C 218.04891 56.440343 218.92407 57.036719 219.63281 57.825693 C 220.35492 58.614668 220.90292 59.583291 221.27734 60.733322 C 221.66514 61.86998 221.85938 63.168091 221.85938 64.625688 C 221.85938 67.701351 221.13758 70.040523 219.69336 71.645217 C 218.24914 73.236538 216.182 74.032194 213.49414 74.032194 L 209.12109 74.033417 L 209.12109 55.418183 z M 271.98633 55.418212 L 276.35938 55.416988 C 277.66987 55.416988 278.83946 55.624804 279.86914 56.03935 C 280.91219 56.440523 281.78735 57.036899 282.49609 57.825874 C 283.21821 58.614848 283.7662 59.583472 284.14062 60.733502 C 284.52843 61.87016 284.72266 63.166318 284.72266 64.623915 C 284.72266 67.699578 284.00086 70.040703 282.55664 71.645397 C 281.11242 73.236718 279.04724 74.032223 276.35938 74.032223 L 271.98633 74.031493 L 271.98633 55.418212 z "
   transform="skewY(4.434206)" /></svg>
