<?xml version="1.0" encoding="UTF-8" standalone="no"?>
<svg
   xml:space="preserve"
   viewBox="0 0 297 110"
   version="1.1"
   id="svg743"
   sodipodi:docname="timed-assessements.svg"
   inkscape:version="1.2.1 (9c6d41e4, 2022-07-14)"
   xmlns:inkscape="http://www.inkscape.org/namespaces/inkscape"
   xmlns:sodipodi="http://sodipodi.sourceforge.net/DTD/sodipodi-0.dtd"
   xmlns="http://www.w3.org/2000/svg"
   xmlns:svg="http://www.w3.org/2000/svg"><sodipodi:namedview
   id="namedview745"
   pagecolor="#ffffff"
   bordercolor="#000000"
   borderopacity="0.25"
   inkscape:showpageshadow="2"
   inkscape:pageopacity="0.0"
   inkscape:pagecheckerboard="0"
   inkscape:deskcolor="#d1d1d1"
   showgrid="false"
   inkscape:zoom="7.4074807"
   inkscape:cx="211.8129"
   inkscape:cy="105.29896"
   inkscape:window-width="1482"
   inkscape:window-height="718"
   inkscape:window-x="0"
   inkscape:window-y="38"
   inkscape:window-maximized="0"
   inkscape:current-layer="svg743" />
  <defs
   id="defs689">
    <filter
   id="a"
   width="1.0611603"
   height="1.1322284"
   x="-0.030580139"
   y="-0.066114199"
   color-interpolation-filters="sRGB">
      <feGaussianBlur
   stdDeviation="3.025"
   id="feGaussianBlur686" />
    </filter>
  
    
        
  
    
        
  </defs>
    <rect
   width="296.752"
   height="109.811"
   x=".319"
   y=".094"
   fill="#99f5fa"
   paint-order="stroke fill markers"
   rx="0"
   ry="0"
   id="rect691"
   style="fill:#ff5555" />
    <path
   d="M92.027.094a118.704 117.378 0 0 0-62.85 103.357 118.704 117.378 0 0 0 .468 6.453h236.474a118.704 117.378 0 0 0 .467-6.453A118.704 117.378 0 0 0 203.734.094H92.027z"
   filter="url(#a)"
   opacity=".124"
   paint-order="stroke fill markers"
   id="path693" />
    <path
   fill="#e4e0de"
   stroke="#000000"
   stroke-linejoin="round"
   stroke-width="3.493"
   d="m 144.918,110.533 c 0.98,-5.163 -0.139,-10.407 -2.574,-17.842 l -5.615,-14.9 -4.536,-12.31 -8.853,-12.094 -41.031,-9.285 -29.153,7.127 -15.765,7.558 -10.797,28.72 -4.535,11.231 c -0.235,3.967 -0.24,7.83 0.068,11.63"
   paint-order="stroke fill markers"
   id="path695" />
    <path
   fill="#e4e0de"
   stroke="#000000"
   stroke-linecap="round"
   stroke-linejoin="round"
   stroke-width="3.493"
   d="m 82.56,19.705 c -13.356,0 -16.489,6.528 -16.489,19.328 0,12.799 3.133,27.022 16.489,27.022 13.356,0 19.786,-14.315 19.786,-27.114 0,-12.8 -6.43,-19.236 -19.786,-19.236 z"
   paint-order="stroke fill markers"
   id="path697" />
    <path
   fill="#e4e0de"
   stroke="#000000"
   stroke-linecap="round"
   stroke-linejoin="round"
   stroke-width="2.62"
   d="m 74.343,25.894 -5.954,-1.985 -5.66,5.22 -2.793,4.703 0.662,-7.276 -4.63,-2.353 6.394,-3.307 0.294,-7.791 3.234,2.205 6.321,-8.894 -0.44,3.16 11.098,-5.953 -1.543,3.822 9.849,-6.027 -1.103,6.321 4.999,-2.646 -0.588,4.042 4.19,1.765 8.231,-0.515 -5.365,3.16 3.307,2.794 5.954,3.601 -5.733,-0.367 3.307,4.263 2.573,1.985 -4.63,-0.074 2.572,3.014 -6.395,-1.03 -7.423,-1.616 c -7.206,4.569 -14.476,2.006 -20.728,-0.221 z"
   paint-order="stroke fill markers"
   id="path699" />
    <path
   fill="#e4e0de"
   stroke="#000000"
   stroke-linecap="round"
   stroke-linejoin="round"
   stroke-width="3.493"
   d="m 60.714,61.162 -7.343,-5.183 -6.91,-0.864 -3.023,7.343 9.933,3.887 4.32,-0.648 z"
   paint-order="stroke fill markers"
   id="path701" />
    
    <path
   fill="#e4e0de"
   stroke="#000000"
   stroke-linecap="round"
   stroke-linejoin="round"
   stroke-width="2.62"
   d="m 49.032,54.33 7.054,-13.649 1.74,-3.664 4.397,-7.145 4.816,-4.49 c 1.933,-1.888 1.845,-2.184 2.696,0.368 2.392,-0.714 1.94,0.109 2.015,2.29 l -0.641,2.748 c 0.542,0.707 2.131,0.716 1.374,2.29 l -4.763,6.779 -5.313,6.778 -2.657,7.054 -3.48,3.48 z"
   paint-order="stroke fill markers"
   id="path705" />
    <path
   fill="none"
   stroke="#000000"
   stroke-linecap="round"
   stroke-linejoin="round"
   stroke-width="0.873"
   d="m 69.918,24.742 -5.771,8.52 -6.504,7.419 m 14.107,-10.443 -4.122,4.214 -8.153,7.97"
   opacity="0.556"
   paint-order="stroke fill markers"
   id="path707" />
    
    
    
    <path
   d="m 75.876,37.862378 c -4.19705,0 -8.55607,3.320538 -8.55607,7.419614 0,4.096462 4.35902,7.419613 8.55607,7.418307 4.19574,0 7.95518,-4.758742 7.95518,-8.855204 0,-4.096463 -3.75944,-5.982717 -7.95518,-5.982717 z"
   id="path715"
   style="fill:none;stroke:#1a1a1a;stroke-width:0.9;stroke-dasharray:none;paint-order:stroke fill markers" />
    <path
   d="m 91.39652,38.554418 c -4.42471,0 -7.09158,3.802437 -7.09158,7.683734 0,3.879863 2.66687,6.370373 7.09158,6.370373 4.4247,0 8.01207,-3.147191 8.01064,-7.027053 0,-3.881297 -3.58594,-7.02562 -8.01064,-7.02562 z"
   id="path721"
   style="fill:none;stroke:#1a1a1a;stroke-width:0.9;stroke-dasharray:none;paint-order:stroke fill markers" />
    <path
   fill="none"
   stroke="#000000"
   stroke-linecap="round"
   stroke-linejoin="round"
   stroke-width="0.535"
   d="m 76.543,29.43 -0.442,2.018 c -1.877,4.515 2.782,6.399 1.347,-0.06 l -0.31,-2.033 c -0.211,-0.888 -0.386,-0.881 -0.595,0.076 z m 6.771,3.066 -0.688,1.586 c -1.706,5.585 3.39,7.405 1.077,0.329 l -0.21,-1.616 z m 6.539,-1.5 0.375,1.5 c 2.316,4.99 -2.717,6.492 -1.257,0.508 l 0.16,-1.854 c 0.083,-0.781 0.494,-1.063 0.722,-0.154 z m -14.826,24.27 c -1.594,3.871 2.4,5.81 0.918,0.267 -0.068,-0.496 -0.335,-1.337 -0.386,-1.465 -0.236,0.426 -0.363,0.757 -0.532,1.198 z m 12.683,0.877 c -0.395,3.1 2.302,4.079 1.738,0.003 -0.064,-0.984 -0.44,-1.99 -0.943,-2.525 -0.61,0.75 -0.6,1.58 -0.795,2.522 z"
   paint-order="stroke fill markers"
   id="path727" />
    <path
   id="path2667"
   style="fill:#e4e0de;fill-opacity:1;stroke:#1a1a1a;stroke-width:2.65837;stroke-linecap:butt;stroke-dasharray:none;paint-order:stroke fill markers"
   d="m 242.38454,145.77268 c 6.49287,-8.79687 10.01704,-19.38939 10.07276,-30.27551 2.8e-4,-24.731542 -17.68778,-46.019101 -42.24655,-50.843659 -3.37202,-0.662357 -6.80177,-0.995867 -10.23982,-0.995721 -28.98583,0.001 -52.48304,23.209482 -52.48336,51.83844 0.003,5.82904 1.00062,11.61589 2.95197,17.11708"
   transform="matrix(0.98992328,-0.14160473,0.14523424,0.9893973,0,0)"
   sodipodi:nodetypes="cccccc" /><path
   id="circle3182"
   style="fill:#e4e0de;fill-opacity:1;stroke:#1a1a1a;stroke-width:1.77225;stroke-linecap:butt;stroke-dasharray:none;paint-order:stroke fill markers"
   d="m 232.11561,144.30297 c 7.26239,-7.88147 11.29704,-18.14923 11.31917,-28.80609 -7e-5,-21.34803 -15.88269,-39.452209 -37.27677,-42.490807 -2.04894,-0.291082 -4.11631,-0.437217 -6.18633,-0.43729 -24.00395,-2.02e-4 -43.4632,19.219041 -43.46352,42.927457 0.002,6.44029 1.47135,12.79758 4.29886,18.60088"
   transform="matrix(0.98992328,-0.14160473,0.14523424,0.9893973,0,0)"
   sodipodi:nodetypes="cccccc" /><g
   id="g3580"
   transform="matrix(0.78281212,-0.42186288,0.42734866,0.77276333,47.485513,101.44533)"><path
     style="fill:#e4e0de;fill-opacity:1;stroke:#1a1a1a;stroke-width:2;stroke-linecap:square;stroke-dasharray:none;paint-order:stroke fill markers"
     d="m 173.10891,71.829792 c 16.15505,-8.660899 18.03414,-9.43145 19.62126,-23.646805 1.52018,-17.096788 4.81842,-5.595723 3.727,4.273156 -1.71828,15.212616 -3.97145,12.765999 -21.2769,23.894898 z"
     id="path3240"
     sodipodi:nodetypes="ccccc" /><path
     style="fill:#e4e0de;fill-opacity:1;stroke:#1a1a1a;stroke-width:2;stroke-linecap:square;stroke-dasharray:none;paint-order:stroke fill markers"
     d="m 173.9753,72.526903 c 14.74523,38.019857 14.22831,46.603297 -1.99776,6.385475 z"
     id="path3242"
     sodipodi:nodetypes="ccc" /><circle
     style="fill:#e4e0de;fill-opacity:1;stroke:#000000;stroke-width:2;stroke-linecap:square;stroke-dasharray:none;paint-order:stroke fill markers"
     id="circle3184"
     cx="188.10815"
     cy="9.4798861"
     r="6.0226669"
     transform="rotate(20.385647)" /></g><path
   id="path3460"
   style="fill:#e4e0de;fill-opacity:1;stroke:#1a1a1a;stroke-width:2.65836;stroke-linecap:square;stroke-dasharray:none;paint-order:stroke fill markers"
   d="M 179.63185,16.484064 A 20.861607,22.029474 67.917985 0 0 169.41902,43.964347 L 208.39786,23.747086 A 20.861607,22.029474 67.917985 0 0 179.63185,16.484064 Z" /><path
   id="path3517"
   style="fill:#e4e0de;fill-opacity:1;stroke:#1a1a1a;stroke-width:2.65836;stroke-linecap:square;stroke-dasharray:none;paint-order:stroke fill markers"
   d="M 254.49354,7.8939824 A 22.034291,20.857047 20.905841 0 1 265.39406,35.115609 L 225.91898,15.859469 A 22.034291,20.857047 20.905841 0 1 254.49354,7.8939824 Z" /><path
   fill="#ffffff"
   stroke="#000000"
   stroke-linecap="round"
   stroke-linejoin="round"
   stroke-width="1.746"
   d="M 143.64,95.93 130.682,81.461"
   paint-order="stroke fill markers"
   id="path703" /><path
   d="m 102.874,49.064 21.68,3.708 8.733,13.318 9.808,24.05 2.567,17.686 -0.57,3.709 h -16.83 l 4.564,-10.555 -3.423,-18.827 -3.709,-17.115 -6.56,-1.141 H 93.46 l 4.564,-5.135 2.852,-7.416 z"
   opacity="0.111"
   paint-order="stroke fill markers"
   id="path709" /><path
   fill="#e4e0de"
   stroke="#000000"
   stroke-linecap="round"
   stroke-linejoin="round"
   stroke-width="2.62"
   d="m 110.956,57.628 -3.023,-4.03 -3.664,-7.238 -1.374,-2.84 -7.42,-8.518 -0.55,-3.298 1.741,-0.367 -1.74,-5.038 0.824,-1.832 1.649,0.183 1.1,-0.458 0.64,-0.64 8.886,10.259 3.39,6.229 4.854,8.885 1.832,5.222 z"
   paint-order="stroke fill markers"
   id="path711" /><path
   fill="none"
   stroke="#000000"
   stroke-linecap="round"
   stroke-linejoin="round"
   stroke-width="0.873"
   d="m 95.475,30.971 11.726,11.084 m -9.894,-17.679 1.924,3.847 10.81,12.641"
   opacity="0.556"
   paint-order="stroke fill markers"
   id="path713" /><path
   fill="#e4e0de"
   stroke="#000000"
   stroke-linecap="round"
   stroke-linejoin="round"
   stroke-width="3.493"
   d="m 108.007,59.866 6.263,-4.103 7.558,-1.512 2.16,6.695 -4.751,4.319 -5.83,0.432 z"
   paint-order="stroke fill markers"
   id="path729" />
    <path
   fill="#e4e0de"
   stroke="#000000"
   stroke-width="2.62"
   d="M 125.78,110.533 V 71.527 a 7.127,7.127 0 0 0 -7.143,-7.142 H 47.06 a 7.127,7.127 0 0 0 -7.143,7.142 v 39.006"
   paint-order="stroke fill markers"
   id="path731" />
    <path
   d="M 101.733,63.897 H 48.676 l -5.99,1.426 -2.853,4.564 v 11.125 l -1.141,28.24"
   opacity="0.111"
   paint-order="stroke fill markers"
   id="path733" />
    <path
   d="m 48.676,52.487 -11.981,4.85 -15.404,40.22 v 13.978 c 12.34,-1.116 18.349,4.656 7.132,-6.561 l 1.711,-12.266 1.997,-16.545 7.702,-11.41 8.557,-5.99 z m 60.759,6.275 h 7.987 l 2.852,2.282 2.283,1.997 2.282,-1.711 -2.282,-8.273 -9.7,1.712 -4.563,3.993 m -45.356,-11.98 3.138,-0.285 2.567,10.84 4.564,6.845 -13.121,-1.14 1.14,-2.283 -4.849,-3.993 4.565,-2.568 z"
   opacity="0.111"
   paint-order="stroke fill markers"
   id="path735" />
    <path
   d="m 49.717,55.365 4.594,-6.662 2.527,-4.135 5.514,-2.412 7.581,-7.582 2.182,-3.675 0.115,-5.858 -1.952,-0.115 -1.494,-1.953 -7.006,5.743 -5.17,8.5 -8.155,17 z m 69.378,-1.378 -2.871,-6.662 -7.696,-14.703 -8.96,-9.764 -1.953,1.149 h -2.412 l -0.574,1.608 1.838,5.169 -1.723,0.919 0.804,2.527 8.04,6.432 1.953,2.872 3.676,2.068 1.034,3.216 0.689,3.446 0.69,3.79 3.56,-1.263 z"
   opacity="0.116"
   paint-order="stroke fill markers"
   id="path737" />
    <path
   d="m 55.805,23.892 8.385,-1.838 -0.575,-6.777 3.906,0.23 4.594,-6.662 10.913,-5.17 -0.804,3.217 9.533,-5.628 -1.033,6.432 4.939,-2.872 v 3.79 l -4.02,4.021 8.5,-0.804 -1.15,3.446 4.136,3.446 3.56,1.838 5.17,5.628 -4.25,-0.115 2.412,3.332 h -4.94 l -5.857,-7.007 -1.149,1.148 h -2.757 l -0.919,2.183 c -3.673,3.536 -17.863,-0.6 -23.203,-1.034 l -0.918,0.23 -1.379,-1.608 -7.236,7.121 -2.183,2.987 0.115,-6.548 z"
   opacity="0.116"
   paint-order="stroke fill markers"
   id="path739" />
    <path
   d="m 72.69,26.534 10.108,2.986 h 6.892 l 4.824,-2.067 1.149,3.675 -1.379,0.575 1.838,5.628 -2.412,-0.574 -6.892,-3.101 -5.858,-1.034 -5.628,0.344 -2.068,0.92 v -2.413 l -1.263,-0.919 z m -5.973,26.878 5.398,9.534 2.872,1.149 17.574,-0.345 3.676,-2.986 3.906,-5.054 1.148,-4.825 -7.007,6.433 -6.317,3.79 h -5.858 l -6.203,-0.574 -5.858,-5.054 -3.82,-6.928 z"
   opacity="0.116"
   paint-order="stroke fill markers"
   id="path741" />
<path
   style="fill:none;stroke:#1a1a1a;stroke-width:0.9;stroke-linecap:square;stroke-dasharray:none;paint-order:stroke fill markers"
   d="M 67.63844,46.027917 83.26131,45.257283"
   id="path2581" /><path
   style="fill:none;stroke:#1a1a1a;stroke-width:0.9;stroke-linecap:square;stroke-dasharray:none;paint-order:stroke fill markers"
   d="m 85.29299,42.525032 11.48946,8.126695"
   id="path2583" /></svg>
