<?xml version="1.0" encoding="UTF-8" standalone="no"?>
<svg
   fill="#fff"
   stroke="currentColor"
   stroke-linecap="round"
   stroke-linejoin="round"
   stroke-width="2"
   class="feather feather-sun"
   viewBox="0 0 24 24"
   version="1.1"
   id="svg10680"
   sodipodi:docname="email.svg"
   inkscape:version="1.2.1 (9c6d41e4, 2022-07-14)"
   xmlns:inkscape="http://www.inkscape.org/namespaces/inkscape"
   xmlns:sodipodi="http://sodipodi.sourceforge.net/DTD/sodipodi-0.dtd"
   xmlns="http://www.w3.org/2000/svg"
   xmlns:svg="http://www.w3.org/2000/svg">
  <defs
     id="defs10684" />
  <sodipodi:namedview
     id="namedview10682"
     pagecolor="#ffffff"
     bordercolor="#000000"
     borderopacity="0.25"
     inkscape:showpageshadow="2"
     inkscape:pageopacity="0.0"
     inkscape:pagecheckerboard="0"
     inkscape:deskcolor="#d1d1d1"
     showgrid="false"
     inkscape:zoom="3.4766083"
     inkscape:cx="12.224558"
     inkscape:cy="12.08074"
     inkscape:window-width="1309"
     inkscape:window-height="430"
     inkscape:window-x="0"
     inkscape:window-y="38"
     inkscape:window-maximized="0"
     inkscape:current-layer="svg10680" />
  <g
     aria-label="@"
     id="text12322"
     style="font-weight:bold;font-size:20px;line-height:1.03;font-family:'Comic Sans MS';-inkscape-font-specification:'Comic Sans MS Bold';text-align:center;text-anchor:middle;fill:#06787e;stroke:none;stroke-width:9.07087;paint-order:stroke fill markers"
     transform="matrix(1.1221524,0,0,1.1221524,-1.4695352,-1.484619)">
    <path
       d="m 19.369211,17.148945 h 2.080078 q -0.976562,1.982422 -2.998047,3.105469 -2.314453,1.289062 -5.644531,1.289062 -3.2226561,0 -5.5664061,-1.09375 -2.34375,-1.083984 -3.4863281,-3.203125 -1.1425781,-2.128906 -1.1425781,-4.628906 0,-2.7441408 1.2988281,-5.107422 1.2988281,-2.3730469 3.5546875,-3.5546875 2.2558594,-1.1914063 5.1562497,-1.1914063 2.460938,0 4.375,0.9570313 1.914063,0.9570312 2.919922,2.7246094 1.015625,1.7578125 1.015625,3.8476561 0,2.490234 -1.533203,4.501953 -1.923828,2.539063 -4.931641,2.539063 -0.810546,0 -1.220703,-0.283203 -0.410156,-0.283204 -0.546875,-0.830079 -1.152343,1.113282 -2.65625,1.113282 -1.6210934,0 -2.6953122,-1.113282 -1.0644531,-1.123046 -1.0644531,-2.978515 0,-2.294922 1.2890625,-4.1894533 1.5625,-2.3046875 4.0039058,-2.3046875 1.738282,0 2.56836,1.328125 l 0.24414,-1.0839843 h 2.578125 l -1.474609,7.0019531 q -0.136719,0.664062 -0.136719,0.859375 0,0.244141 0.107422,0.371094 0.117188,0.117187 0.273438,0.117187 0.46875,0 1.210937,-0.566406 0.996094,-0.742188 1.611328,-1.992188 0.615235,-1.25 0.615235,-2.58789 0,-2.4023439 -1.738282,-4.013672 -1.738281,-1.6210938 -4.853515,-1.6210938 -2.6464846,0 -4.4921877,1.0839844 -1.8359375,1.0742188 -2.7734375,3.0371094 -0.9277344,1.953125 -0.9277344,4.072266 0,2.060546 1.0351563,3.75 1.0449219,1.689453 2.9199219,2.460937 1.8847654,0.78125 4.3066404,0.78125 2.333985,0 4.013672,-0.654297 1.679688,-0.644531 2.705078,-1.943359 z M 8.8125706,13.135273 q 0,1.240234 0.4980468,1.826172 0.5078125,0.585937 1.2499996,0.585937 0.556641,0 1.044922,-0.273437 0.371094,-0.195313 0.732422,-0.615235 0.517578,-0.595703 0.888672,-1.738281 0.380859,-1.142578 0.380859,-2.128906 0,-1.1035156 -0.517578,-1.6894531 -0.507812,-0.5957032 -1.289062,-0.5957032 -0.839844,0 -1.552735,0.6542969 -0.7128902,0.6445313 -1.0742183,1.8457034 -0.3613281,1.201172 -0.3613281,2.128906 z"
       style="font-family:Arial;-inkscape-font-specification:'Arial Bold'"
       id="path12476" />
  </g>
</svg>
