<?xml version="1.0" encoding="UTF-8" standalone="no"?>
<svg
   xml:space="preserve"
   viewBox="0 0 7.8000002 8"
   version="1.1"
   id="svg692"
   sodipodi:docname="garimasystem.svg"
   inkscape:version="1.2.1 (9c6d41e4, 2022-07-14)"
   width="7.8000002"
   height="8"
   xmlns:inkscape="http://www.inkscape.org/namespaces/inkscape"
   xmlns:sodipodi="http://sodipodi.sourceforge.net/DTD/sodipodi-0.dtd"
   xmlns="http://www.w3.org/2000/svg"
   xmlns:svg="http://www.w3.org/2000/svg"><defs
   id="defs696" /><sodipodi:namedview
   id="namedview694"
   pagecolor="#ffffff"
   bordercolor="#000000"
   borderopacity="0.25"
   inkscape:showpageshadow="2"
   inkscape:pageopacity="0.0"
   inkscape:pagecheckerboard="0"
   inkscape:deskcolor="#d1d1d1"
   showgrid="false"
   inkscape:zoom="34.830968"
   inkscape:cx="3.8184411"
   inkscape:cy="8.1536638"
   inkscape:window-width="1728"
   inkscape:window-height="1016"
   inkscape:window-x="0"
   inkscape:window-y="38"
   inkscape:window-maximized="1"
   inkscape:current-layer="svg692" />
  
    
    
<g
   id="g10247"><circle
     style="fill:#ebedec;fill-opacity:1;stroke:#e6e5e5;stroke-width:0.188976;stroke-dasharray:none;stroke-opacity:1;paint-order:stroke fill markers"
     id="circle6959"
     cx="3.8890877"
     cy="3.9885244"
     r="3.7454565" /><circle
     style="fill:#2e3c7a;fill-opacity:1;stroke:none;stroke-width:0.0346629;stroke-dasharray:none;paint-order:stroke fill markers"
     id="path6957"
     cx="3.8890877"
     cy="3.9885244"
     r="3.2151263" /><path
     id="path5570"
     style="fill:#aed7f4;fill-opacity:1;stroke:none;stroke-width:0.0340157;stroke-dasharray:none;paint-order:stroke fill markers"
     d="M 4.671875,1.3378906 C 4.422595,1.3384261 4.131195,1.4665245 3.884766,1.7460938 3.372566,2.3908755 3.159812,3.1242347 3.398437,3.7539062 L 2.761719,4.0644531 3.433594,3.8261719 C 3.881601,4.1643123 4.101096,3.9823605 4.525391,3.7128906 L 4.466797,3.90625 C 3.798997,4.1911743 3.226201,4.5877817 2.859375,5.0820312 2.475987,5.5121018 2.344827,6.205298 2.59375,6.4804688 2.791514,6.7228367 3.175225,6.6741441 3.511719,6.3554688 4.137291,5.7557804 4.321798,4.9572608 4.535156,4.1210938 L 4.585936,3.9414062 5.292968,3.6230469 C 5.060028,3.6851249 4.83377,3.7596293 4.615233,3.8457031 L 4.648437,3.7285156 4.820312,3.2617188 4.625,3.4375 C 4.128854,3.831781 3.707331,3.9551031 3.521484,3.7773438 3.85862,3.649997 4.154751,3.4642478 4.423828,3.25 5.066314,2.8520764 5.359856,2.0303878 5.175781,1.6210938 5.079409,1.4363528 4.891828,1.3374181 4.671875,1.3378906 Z m 0.01953,0.074219 c 0.217744,-0.0087 0.50608,0.1258935 0.332031,0.6191406 C 4.885843,2.5793392 4.381549,3.2851719 3.507811,3.7226564 3.449381,3.5432724 3.473761,3.3649311 3.505811,3.1855471 3.606047,2.7273689 3.817585,2.3253159 4.054639,1.9355471 4.201812,1.747998 4.349088,1.5548976 4.51753,1.4609377 4.55473,1.4342927 4.618777,1.4150087 4.691358,1.4121097 Z M 4.423828,4.0410156 C 4.144981,4.9638177 3.631911,6.4892215 2.896484,6.5703125 2.441696,6.4651415 3.138897,5.1139904 3.792969,4.515625 3.984455,4.3335637 4.196333,4.1700458 4.423828,4.0410156 Z" /><g
     id="g9805"
     transform="translate(0,0.06597856)"><circle
       style="opacity:1;fill:#822d22;fill-opacity:1;stroke:#e6e5e5;stroke-width:0;stroke-dasharray:none;stroke-opacity:1;paint-order:stroke fill markers"
       id="path7931"
       cx="3.1796875"
       cy="7.3476562"
       r="0.085937351" /><circle
       style="opacity:1;fill:#822d22;fill-opacity:1;stroke:#e6e5e5;stroke-width:0;stroke-dasharray:none;stroke-opacity:1;paint-order:stroke fill markers"
       id="circle9779"
       cx="4.609375"
       cy="7.3476562"
       r="0.085937351" /><circle
       style="opacity:1;fill:#822d22;fill-opacity:1;stroke:#e6e5e5;stroke-width:0;stroke-dasharray:none;stroke-opacity:1;paint-order:stroke fill markers"
       id="circle9781"
       cx="3.53125"
       cy="7.4023438"
       r="0.085937351" /><circle
       style="opacity:1;fill:#822d22;fill-opacity:1;stroke:#e6e5e5;stroke-width:0;stroke-dasharray:none;stroke-opacity:1;paint-order:stroke fill markers"
       id="circle9783"
       cx="4.25"
       cy="7.40625"
       r="0.085937351" /><circle
       style="opacity:1;fill:#822d22;fill-opacity:1;stroke:#e6e5e5;stroke-width:0;stroke-dasharray:none;stroke-opacity:1;paint-order:stroke fill markers"
       id="circle9785"
       cx="3.8984375"
       cy="7.421875"
       r="0.085937351" /></g></g></svg>
