<?xml version="1.0" encoding="UTF-8" standalone="no"?>
<!-- Created with Inkscape (http://www.inkscape.org/) -->

<svg
   width="356mm"
   height="202mm"
   viewBox="0 0 356 202"
   version="1.1"
   id="svg5"
   xml:space="preserve"
   inkscape:version="1.2.1 (9c6d41e4, 2022-07-14)"
   sodipodi:docname="auig_slide_bg.svg"
   xmlns:inkscape="http://www.inkscape.org/namespaces/inkscape"
   xmlns:sodipodi="http://sodipodi.sourceforge.net/DTD/sodipodi-0.dtd"
   xmlns="http://www.w3.org/2000/svg"
   xmlns:svg="http://www.w3.org/2000/svg"><sodipodi:namedview
     id="namedview7"
     pagecolor="#ffffff"
     bordercolor="#000000"
     borderopacity="0.25"
     inkscape:showpageshadow="2"
     inkscape:pageopacity="0.0"
     inkscape:pagecheckerboard="0"
     inkscape:deskcolor="#d1d1d1"
     inkscape:document-units="mm"
     showgrid="false"
     inkscape:zoom="0.47536613"
     inkscape:cx="729.96366"
     inkscape:cy="322.909"
     inkscape:window-width="1484"
     inkscape:window-height="755"
     inkscape:window-x="113"
     inkscape:window-y="99"
     inkscape:window-maximized="0"
     inkscape:current-layer="layer1" /><defs
     id="defs2" /><g
     inkscape:label="Layer 1"
     inkscape:groupmode="layer"
     id="layer1"><g
       id="g14004"><rect
         style="fill:#f0f9f8;fill-opacity:1;stroke-width:0.147201;stroke-linecap:round;stroke-linejoin:round;paint-order:stroke fill markers"
         id="rect12425"
         width="355.66608"
         height="203.23775"
         x="8.8788546e-08"
         y="0" /><path
         fill="#ffffff"
         d="m 116.54953,30.233654 v 32.055182 h 20.44998 V 30.233654 Z m 101.00808,0 v 32.055182 h 20.57646 V 30.233654 Z M 116.54953,96.144708 V 113.9591 c 0,23.69396 5.06658,40.24105 15.2043,49.59176 10.18675,9.37637 25.46785,14.01299 45.86717,14.01299 14.44392,0 26.35357,-2.58607 35.7301,-7.80576 9.37653,-5.1911 15.86335,-12.26509 19.38597,-21.20954 3.60121,-9.05084 5.40174,-20.57744 5.40174,-34.59043 V 96.143728 h -20.57646 v 17.738732 c 0,18.29598 -3.29465,30.5859 -9.88312,36.92059 -6.51265,6.33076 -17.07967,9.48177 -31.62524,9.48177 -8.66762,0 -16.0405,-1.49363 -22.12222,-4.51096 a 27.697378,27.697378 0 0 1 -12.94898,-13.43074 c -2.66255,-5.88055 -3.97462,-15.3816 -3.97462,-28.48272 V 96.14765 Z"
         font-family="'Arial Narrow'"
         font-size="15.533px"
         font-stretch="condensed"
         style="line-height:1.03;-inkscape-font-specification:'Arial Narrow Condensed';stroke-width:25.3407;opacity:0.73809524"
         id="path12479" /></g></g></svg>
