<svg xmlns="http://www.w3.org/2000/svg" xml:space="preserve" viewBox="0 0 33 17">
  <rect width="32.7" height="16.417" x=".177" y=".133" fill="#006980" rx="1.718" ry="1.718"/>
    <path fill="#fff" d="M5.736 2.18c-.894 0-1.62.167-2.18.502-.559.334-.932.721-1.12 1.16-.183.434-.275 1.053-.275 1.858v.698l.004 3.193L5.13 7.766l.002-1.368v-1.09c0-.58.026-.938.079-1.074.052-.141.185-.212.4-.212a.41.41 0 0 1 .4.251c.083.162.125.515.125 1.059 0 .077-.002.148-.004.216h.002v2.278l.002-.001v2.14c0 .073 0 .14-.002.205v.005c-.008.4-.039.655-.092.762-.058.12-.186.18-.384.18-.21 0-.35-.078-.424-.235-.052-.12-.084-.357-.096-.707h-.005V6.698c-.22.096-.476.202-.777.32-.972.376-1.58.705-1.826.987-.246.282-.369.813-.369 1.592v.854c0 1.05.23 1.733.69 2.046a2.71 2.71 0 0 0 1.529.463c.423 0 .786-.092 1.09-.275.308-.188.558-.467.752-.838v1.105h3.08V7.55c0-1.72-.054-2.853-.164-3.402-.11-.554-.436-1.019-.98-1.395-.543-.382-1.35-.573-2.422-.573Zm4.874.04.021 7.165a6.579 6.579 0 0 0-.003.212v.854c0 1.05.23 1.733.69 2.046a2.71 2.71 0 0 0 1.529.463c.423 0 .786-.092 1.09-.275.308-.188.558-.467.752-.838v1.105h3.08V7.55c0-.208.028-5.14.026-5.33H14.63l-.028 5.606.002-.001v2.14c0 .073 0 .14-.002.205v.005c-.008.4-.039.655-.093.762-.057.12-.185.18-.384.18-.209 0-.35-.078-.423-.235-.052-.12-.084-.358-.096-.707H13.6V9.84l.029-7.62z" font-family="Bungee Inline" font-size="16.056" font-weight="700" style="line-height:1.03;-inkscape-font-specification:'Bungee Inline Bold';text-align:center" text-anchor="middle"/>
    <path fill="#fff" d="M19.1 2.198v2.257h3.169V2.198zm0 3.215v7.553h3.169V5.413Zm8.04-3.237c-.894 0-1.62.168-2.18.502-.559.335-.932.722-1.12 1.16-.183.435-.275 1.054-.275 1.859v.622h-.003l.01 3.111a6.766 6.766 0 0 0-.004.22v.854c0 1.05.23 1.733.69 2.046a2.71 2.71 0 0 0 1.528.463c.424 0 .787-.092 1.09-.274a2.07 2.07 0 0 0 .753-.84l.022 1.164c.014.516.015.527-.453.547l-3.66.006.001 1.463h-.003v1.485l4.848.003c1.863-.016 2.285-1.046 2.317-2.28-.002-.296-.003-.741-.003-1.23a5.29 5.29 0 0 0 .011-.232c-.004-.888-.002-2.706 0-4.627a42.515 42.515 0 0 0-.044-2.804c-.027-.56-.068-.978-.122-1.25-.11-.554-.436-1.019-.98-1.395-.543-.382-1.35-.573-2.422-.573zm-.125 1.843a.41.41 0 0 1 .4.25c.083.163.125.516.125 1.06 0 .076-.001.147-.003.215h.002c-.007 1.489.003 2.98.004 4.474l-.002.205v.006c-.008.4-.039.654-.093.761-.057.12-.185.18-.384.18-.209 0-.35-.078-.423-.234-.053-.122-.085-.358-.097-.707h-.005v-.336c-.008-1.46-.002-2.896-.002-4.349v-.24c0-.58.025-.938.078-1.073.052-.142.185-.212.4-.212z"/>
</svg>