<?xml version="1.0" encoding="UTF-8" standalone="no"?>
<!-- Created with Inkscape (http://www.inkscape.org/) -->

<svg
   width="356mm"
   height="202mm"
   viewBox="0 0 356 202"
   version="1.1"
   id="svg5"
   xml:space="preserve"
   inkscape:version="1.2.1 (9c6d41e4, 2022-07-14)"
   sodipodi:docname="auig_slide.svg"
   xmlns:inkscape="http://www.inkscape.org/namespaces/inkscape"
   xmlns:sodipodi="http://sodipodi.sourceforge.net/DTD/sodipodi-0.dtd"
   xmlns="http://www.w3.org/2000/svg"
   xmlns:svg="http://www.w3.org/2000/svg"><sodipodi:namedview
     id="namedview7"
     pagecolor="#ffffff"
     bordercolor="#000000"
     borderopacity="0.25"
     inkscape:showpageshadow="2"
     inkscape:pageopacity="0.0"
     inkscape:pagecheckerboard="0"
     inkscape:deskcolor="#d1d1d1"
     inkscape:document-units="mm"
     showgrid="false"
     inkscape:zoom="0.47536613"
     inkscape:cx="729.96366"
     inkscape:cy="322.909"
     inkscape:window-width="1484"
     inkscape:window-height="755"
     inkscape:window-x="113"
     inkscape:window-y="99"
     inkscape:window-maximized="0"
     inkscape:current-layer="layer1" /><defs
     id="defs2" /><g
     inkscape:label="Layer 1"
     inkscape:groupmode="layer"
     id="layer1"><g
       id="g20071"><g
         id="g14004"><rect
           style="fill:#f0f9f8;fill-opacity:1;stroke-width:0.147201;stroke-linecap:round;stroke-linejoin:round;paint-order:stroke fill markers"
           id="rect12425"
           width="355.66608"
           height="203.23775"
           x="8.8788546e-08"
           y="0" /><path
           fill="#ffffff"
           d="m 116.54953,30.233654 v 32.055182 h 20.44998 V 30.233654 Z m 101.00808,0 v 32.055182 h 20.57646 V 30.233654 Z M 116.54953,96.144708 V 113.9591 c 0,23.69396 5.06658,40.24105 15.2043,49.59176 10.18675,9.37637 25.46785,14.01299 45.86717,14.01299 14.44392,0 26.35357,-2.58607 35.7301,-7.80576 9.37653,-5.1911 15.86335,-12.26509 19.38597,-21.20954 3.60121,-9.05084 5.40174,-20.57744 5.40174,-34.59043 V 96.143728 h -20.57646 v 17.738732 c 0,18.29598 -3.29465,30.5859 -9.88312,36.92059 -6.51265,6.33076 -17.07967,9.48177 -31.62524,9.48177 -8.66762,0 -16.0405,-1.49363 -22.12222,-4.51096 a 27.697378,27.697378 0 0 1 -12.94898,-13.43074 c -2.66255,-5.88055 -3.97462,-15.3816 -3.97462,-28.48272 V 96.14765 Z"
           font-family="'Arial Narrow'"
           font-size="15.533px"
           font-stretch="condensed"
           style="line-height:1.03;-inkscape-font-specification:'Arial Narrow Condensed';stroke-width:25.3407;opacity:0.73809524"
           id="path12479" /></g><g
         id="g13964"
         transform="matrix(0.65191855,0,0,0.65191855,124.06313,68.478006)"><path
           fill="#268ca6"
           d="m 336.00101,184.90015 h 1.21999 v 6.45471 q 0,1.62398 -0.32059,2.66809 -0.31121,1.03608 -1.15066,1.63804 -0.83106,0.60296 -2.11839,0.60296 -1.81493,0 -2.72136,-1.08232 -0.89941,-1.08232 -0.89941,-3.82677 v -6.45471 h 1.21196 v 6.44768 q 0,1.51743 0.2362,2.19476 0.23619,0.67834 0.76976,1.03708 0.54095,0.35048 1.31148,0.35048 1.29536,0 1.87417,-0.73255 0.58691,-0.73161 0.58691,-2.85001 z m 3.1434,11.17286 v -11.17286 h 1.21096 v 11.17286 z m -14.6539,-11.17386 c -1.20997,0 -2.1184,0.36103 -2.72336,1.08232 -0.59897,0.72153 -0.89846,1.99779 -0.89846,3.82678 v 6.4557 h 1.21296 v -4.83372 h 4.77745 v 4.83372 h 1.22205 v -6.4557 c 0,-1.08232 -0.10667,-1.97065 -0.31942,-2.66709 a 3.0348974,3.0348974 0 0 0 -1.15265,-1.63904 c -0.55385,-0.40206 -1.2592,-0.60297 -2.1174,-0.60297 z m -0.0926,1.33557 c 0.86423,0 1.4873,0.24088 1.87423,0.72956 0.39209,0.48762 0.58685,1.43907 0.58685,2.852 v 0.40205 h -4.77746 v -0.40205 c 0,-1.01094 0.0785,-1.74454 0.23619,-2.19676 0.15648,-0.45246 0.41319,-0.7969 0.76877,-1.03508 0.36161,-0.23444 0.79789,-0.3499 1.31142,-0.3499 z m 21.5538,-1.33557 c -1.20892,0 -2.1174,0.36103 -2.72236,1.08232 -0.53451,0.64317 -0.83007,1.73153 -0.88733,3.25798 -0.0234,0.70447 -0.0293,1.40994 -0.0352,2.11541 -0.005,0.45011 0.006,0.83107 0.0234,1.16373 v 0.0967 h 0.004 c 0.0873,1.66817 0.37685,1.97264 0.87227,2.56758 0.60396,0.72152 1.5104,1.08132 2.72036,1.08132 0.85821,0 1.56567,-0.20103 2.1194,-0.60296 0.55854,-0.40206 0.9416,-0.94764 1.15066,-1.63805 0.43604,-1.20592 0.36747,-2.36965 0.34872,-3.73335 h -1.24813 v 0.002 h -2.66105 v 1.23201 h 2.65707 c -0.0176,1.31347 -0.20923,2.20889 -0.58257,2.67518 -0.38564,0.4882 -1.01099,0.73055 -1.87424,0.73055 -0.51223,0 -0.95062,-0.11546 -1.31142,-0.34989 -0.35575,-0.23795 -0.61298,-0.58374 -0.77175,-1.03608 -0.10667,-0.3077 -0.17465,-0.74866 -0.20923,-1.31547 v -2.41185 c 0,-1.01093 0.0774,-1.74453 0.23502,-2.19675 0.15765,-0.45246 0.41436,-0.7969 0.76982,-1.03508 0.36044,-0.23444 0.79789,-0.3499 1.31042,-0.3499 0.86424,0 1.4883,0.24088 1.87418,0.72956 0.19692,0.24498 0.34344,0.608 0.44191,1.08736 h 1.24812 a 6.4144864,6.4144864 0 0 0 -0.2022,-0.91048 3.0348974,3.0348974 0 0 0 -1.15265,-1.63904 c -0.55268,-0.40205 -1.2592,-0.60296 -2.1174,-0.60296 z"
           font-family="'Arial Narrow'"
           font-size="15.533px"
           font-stretch="condensed"
           style="line-height:1.03;-inkscape-font-specification:'Arial Narrow Condensed';stroke-width:1.00493"
           id="path13958" /><path
           fill="#268ca6"
           d="m 305.31615,184.72034 h 11.63006 v 11.63012 h -11.63006 z"
           id="path13960"
           style="stroke-width:1.55068" /><path
           fill="#ffffff"
           d="m 307.35062,186.19041 v 1.96156 h 1.2514 v -1.96156 z m 6.18101,0 v 1.96156 h 1.25914 v -1.96156 z m -6.18101,4.03331 v 1.09012 c 0,1.44991 0.31004,2.46248 0.9304,3.03468 0.62336,0.57377 1.55846,0.8575 2.80676,0.8575 0.88387,0 1.61266,-0.15825 2.18644,-0.47766 0.57378,-0.31766 0.97073,-0.75054 1.18629,-1.29788 0.22037,-0.55385 0.33055,-1.2592 0.33055,-2.1167 v -1.09012 h -1.25914 v 1.08549 c 0,1.11959 -0.20161,1.87165 -0.60478,2.25929 -0.39853,0.3874 -1.04516,0.58022 -1.93525,0.58022 -0.5304,0 -0.98157,-0.0914 -1.35373,-0.27604 a 1.6948919,1.6948919 0 0 1 -0.79239,-0.82187 c -0.16293,-0.35985 -0.24322,-0.94125 -0.24322,-1.74295 v -1.0839 z"
           font-family="'Arial Narrow'"
           font-size="15.533px"
           font-stretch="condensed"
           style="line-height:1.03;-inkscape-font-specification:'Arial Narrow Condensed';stroke-width:1.55068"
           id="path13962" /></g></g></g></svg>
