<svg xmlns="http://www.w3.org/2000/svg" xml:space="preserve" viewBox="0 0 29 8">
  <path fill="#fff" d="M14.761-14.474h1.214v6.423q0 1.616-.319 2.655-.31 1.031-1.145 1.63-.827.6-2.108.6-1.806 0-2.708-1.077Q8.8-5.32 8.8-8.051v-6.423h1.206v6.416q0 1.51.235 2.184.235.675.766 1.032.538.349 1.305.349 1.289 0 1.865-.729.584-.728.584-2.836zm3.128 11.118v-11.118h1.205v11.118zM3.307-14.475c-1.204 0-2.108.359-2.71 1.077-.596.718-.894 1.988-.894 3.808v6.424H.91v-4.81h4.754v4.81H6.88V-9.59c0-1.077-.106-1.961-.318-2.654a3.02 3.02 0 0 0-1.147-1.631c-.551-.4-1.253-.6-2.107-.6Zm-.092 1.329c.86 0 1.48.24 1.865.726.39.485.584 1.432.584 2.838v.4H.91v-.4c0-1.006.078-1.736.235-2.186.156-.45.411-.793.765-1.03.36-.233.794-.348 1.305-.348zm21.448-1.329c-1.203 0-2.107.359-2.709 1.077-.532.64-.826 1.723-.883 3.242-.026.701-.027 1.403-.035 2.105-.005.448.008.827.023 1.158v.096h.004c.087 1.66.375 1.963.868 2.555.601.718 1.503 1.076 2.707 1.076.854 0 1.558-.2 2.109-.6.556-.4.937-.943 1.145-1.63.434-1.2.366-2.358.347-3.715h-1.242v.002h-2.648v1.226h2.644c-.016 1.307-.208 2.198-.58 2.662-.384.486-1.006.727-1.865.727-.51 0-.946-.115-1.305-.348-.354-.237-.61-.581-.768-1.031-.106-.306-.174-.745-.208-1.309v-2.4c0-1.006.077-1.736.234-2.186.157-.45.412-.793.766-1.03.359-.233.794-.348 1.304-.348.86 0 1.481.24 1.865.726.196.244.342.605.44 1.082h1.242a6.383 6.383 0 0 0-.201-.906 3.02 3.02 0 0 0-1.147-1.631c-.55-.4-1.253-.6-2.107-.6z" font-family="Arial Narrow" font-size="15.533" font-stretch="condensed" style="line-height:1.03;-inkscape-font-specification:'Arial Narrow Condensed'" transform="translate(10.44 9.78) scale(.64806)"/>
  <path fill="#fff" d="M.219.283v7.5h7.5v-7.5h-7.5zm1.31.95h.809v1.263h-.809V1.232zm3.987 0h.812v1.263h-.812V1.232zM1.529 3.831h.809v.7c0 .516.051.892.156 1.124a1.093 1.093 0 0 0 .512.53c.24.119.53.177.873.177.574 0 .991-.123 1.248-.373.26-.25.389-.735.389-1.457v-.701h.812v.703c0 .553-.07 1.008-.213 1.365-.139.353-.395.633-.765.838-.37.206-.84.309-1.41.309-.806 0-1.407-.185-1.81-.555-.4-.369-.6-1.022-.6-1.957v-.703z"/>
</svg>