<?xml version="1.0" encoding="UTF-8" standalone="no"?>
<svg
   xml:space="preserve"
   viewBox="0 0 29 8"
   version="1.1"
   id="svg690"
   sodipodi:docname="auig_dark.svg"
   inkscape:version="1.2.1 (9c6d41e4, 2022-07-14)"
   xmlns:inkscape="http://www.inkscape.org/namespaces/inkscape"
   xmlns:sodipodi="http://sodipodi.sourceforge.net/DTD/sodipodi-0.dtd"
   xmlns="http://www.w3.org/2000/svg"
   xmlns:svg="http://www.w3.org/2000/svg"><defs
   id="defs694" /><sodipodi:namedview
   id="namedview692"
   pagecolor="#ffffff"
   bordercolor="#000000"
   borderopacity="0.25"
   inkscape:showpageshadow="2"
   inkscape:pageopacity="0.0"
   inkscape:pagecheckerboard="0"
   inkscape:deskcolor="#d1d1d1"
   showgrid="false"
   inkscape:zoom="29.5"
   inkscape:cx="14.559322"
   inkscape:cy="4.0508475"
   inkscape:window-width="1405"
   inkscape:window-height="719"
   inkscape:window-x="191"
   inkscape:window-y="175"
   inkscape:window-maximized="0"
   inkscape:current-layer="svg690" />
  <path
   fill="#268ca6"
   d="M14.761-14.474h1.214v6.423q0 1.616-.319 2.655-.31 1.031-1.145 1.63-.827.6-2.108.6-1.806 0-2.708-1.077Q8.8-5.32 8.8-8.051v-6.423h1.206v6.416q0 1.51.235 2.184.235.675.766 1.032.538.349 1.305.349 1.289 0 1.865-.729.584-.728.584-2.836zm3.128 11.118v-11.118h1.205v11.118zM3.307-14.475c-1.204 0-2.108.359-2.71 1.077-.596.718-.894 1.988-.894 3.808v6.424H.91v-4.81h4.754v4.81H6.88V-9.59c0-1.077-.106-1.961-.318-2.654a3.02 3.02 0 0 0-1.147-1.631c-.551-.4-1.253-.6-2.107-.6Zm-.092 1.329c.86 0 1.48.24 1.865.726.39.485.584 1.432.584 2.838v.4H.91v-.4c0-1.006.078-1.736.235-2.186.156-.45.411-.793.765-1.03.36-.233.794-.348 1.305-.348zm21.448-1.329c-1.203 0-2.107.359-2.709 1.077-.532.64-.826 1.723-.883 3.242-.026.701-.027 1.403-.035 2.105-.005.448.008.827.023 1.158v.096h.004c.087 1.66.375 1.963.868 2.555.601.718 1.503 1.076 2.707 1.076.854 0 1.558-.2 2.109-.6.556-.4.937-.943 1.145-1.63.434-1.2.366-2.358.347-3.715h-1.242v.002h-2.648v1.226h2.644c-.016 1.307-.208 2.198-.58 2.662-.384.486-1.006.727-1.865.727-.51 0-.946-.115-1.305-.348-.354-.237-.61-.581-.768-1.031-.106-.306-.174-.745-.208-1.309v-2.4c0-1.006.077-1.736.234-2.186.157-.45.412-.793.766-1.03.359-.233.794-.348 1.304-.348.86 0 1.481.24 1.865.726.196.244.342.605.44 1.082h1.242a6.383 6.383 0 0 0-.201-.906 3.02 3.02 0 0 0-1.147-1.631c-.55-.4-1.253-.6-2.107-.6z"
   font-family="Arial Narrow"
   font-size="15.533"
   font-stretch="condensed"
   style="line-height:1.03;-inkscape-font-specification:'Arial Narrow Condensed';fill:#9dd9e9;fill-opacity:1"
   transform="translate(10.44 9.78) scale(.64806)"
   id="path686" />
    <path
   fill="#268ca6"
   d="M.217.285v7.5h7.5v-7.5h-7.5zm1.314.947h.807v1.266H1.53V1.232zm3.985 0h.812v1.266h-.812V1.232zM1.53 3.834h.807v.697c0 .518.051.892.156 1.123.105.232.275.41.512.532.24.12.53.177.871.177.575 0 .991-.123 1.248-.373.26-.25.39-.736.39-1.459v-.697h.813v.701c0 .554-.07 1.01-.213 1.365-.138.354-.394.633-.765.838-.369.206-.84.307-1.41.307-.805 0-1.409-.184-1.811-.553-.399-.369-.598-1.021-.598-1.957v-.701z"
   id="path688"
   style="fill:#9dd9e9;fill-opacity:1" />
</svg>
