<?xml version="1.0" encoding="UTF-8" standalone="no"?>
<svg
   xml:space="preserve"
   viewBox="0 0 17 17"
   version="1.1"
   id="svg694"
   sodipodi:docname="ca11y.svg"
   inkscape:version="1.2.1 (9c6d41e4, 2022-07-14)"
   xmlns:inkscape="http://www.inkscape.org/namespaces/inkscape"
   xmlns:sodipodi="http://sodipodi.sourceforge.net/DTD/sodipodi-0.dtd"
   xmlns="http://www.w3.org/2000/svg"
   xmlns:svg="http://www.w3.org/2000/svg"><defs
   id="defs698" /><sodipodi:namedview
   id="namedview696"
   pagecolor="#000"
   bordercolor="#000000"
   borderopacity="0.25"
   inkscape:showpageshadow="2"
   inkscape:pageopacity="0.0"
   inkscape:pagecheckerboard="0"
   inkscape:deskcolor="#d1d1d1"
   showgrid="false"
   inkscape:zoom="7.5361607"
   inkscape:cx="36.557076"
   inkscape:cy="22.889639"
   inkscape:window-width="1377"
   inkscape:window-height="681"
   inkscape:window-x="104"
   inkscape:window-y="100"
   inkscape:window-maximized="0"
   inkscape:current-layer="svg694"
   showguides="true"><sodipodi:guide
     position="-12.000888,18.338561"
     orientation="1,0"
     id="guide9546"
     inkscape:locked="false" /></sodipodi:namedview>
  
<path
   style="line-height:1.03;-inkscape-font-specification:'Arial Black, ';fill:#000000"
   d="m 8.4854831,13.897013 a 0.992,0.992 0 0 1 -0.7180001,-0.295 0.97,0.97 0 0 1 -0.296,-0.712 c 0,-0.277 0.096,-0.516 0.289,-0.718 a 0.97,0.97 0 0 1 0.7110001,-0.295 0.946,0.946 0 0 1 0.704,0.295 c 0.193,0.202 0.289,0.441 0.289,0.718 a 0.967,0.967 0 0 1 -0.289,0.712 0.916,0.916 0 0 1 -0.69,0.295 z"
   id="path3007" /><rect
   style="fill:#000000;stroke:none;stroke-width:0.485455;stroke-linecap:round;stroke-linejoin:round;stroke-dasharray:none;stroke-opacity:1;paint-order:stroke fill markers"
   id="rect9434"
   width="2.0660448"
   height="6.0800753"
   x="7.4144387"
   y="4.7793436"
   ry="1.0177664"
   rx="1.1873941" /><rect
   style="fill:#75140c;fill-opacity:1;stroke-width:7.55906;stroke-linecap:round;stroke-linejoin:round;paint-order:stroke fill markers"
   id="rect704"
   width="17.03203"
   height="17.078188"
   x="-0.046157263"
   y="0" /><path
   d="M 12.645493,6.9634426 H 8.9269673 V 5.4701773 q 0,-0.7807929 -0.1268789,-1.0540703 -0.1268789,-0.2830377 -0.468476,-0.2830377 -0.3415963,0 -0.4587159,0.2439976 Q 7.755773,4.6210652 7.755773,5.4701766 v 6.1097024 q 0,0.692952 0.1756789,1.04431 0.1756776,0.341596 0.5172752,0.341596 0.4001555,0 0.5367946,-0.361117 0.1463978,-0.361117 0.1463978,-1.366386 V 9.6962157 h 3.5135675 q -0.0097,1.5518253 -0.117124,2.3326183 -0.0976,0.771032 -0.653914,1.590865 -0.546555,0.810073 -1.434707,1.229749 -0.888151,0.409916 -2.1959797,0.409916 -1.6689438,0 -2.644935,-0.566075 -0.97598,-0.575835 -1.3858959,-1.600625 -0.4001566,-1.03455 -0.4001566,-2.927971 V 6.4852076 q 0,-1.6494247 0.3318372,-2.4887766 0.3318361,-0.8393519 1.4151866,-1.493266 1.0833493,-0.6636735 2.6351748,-0.6636735 1.5420668,0 2.6351756,0.6539133 1.09311,0.6539141 1.454227,1.6494255 0.361117,0.9955099 0.361117,2.8206123 z"
   id="path2261"
   style="font-weight:bold;font-size:16.0557px;line-height:1.03;font-family:'Bungee Inline';-inkscape-font-specification:'Bungee Inline Bold';text-align:center;text-anchor:middle;fill:#ffffff;fill-opacity:1;stroke:none;stroke-width:0.75318;stroke-linecap:round;stroke-linejoin:round;stroke-dasharray:none;stroke-opacity:1" /></svg>
