<?xml version="1.0" encoding="UTF-8" standalone="no"?>
<svg
   xml:space="preserve"
   viewBox="0 0 17 17"
   version="1.1"
   id="svg694"
   sodipodi:docname="caution.svg"
   inkscape:version="1.2.1 (9c6d41e4, 2022-07-14)"
   xmlns:inkscape="http://www.inkscape.org/namespaces/inkscape"
   xmlns:sodipodi="http://sodipodi.sourceforge.net/DTD/sodipodi-0.dtd"
   xmlns="http://www.w3.org/2000/svg"
   xmlns:svg="http://www.w3.org/2000/svg"><defs
   id="defs698" /><sodipodi:namedview
   id="namedview696"
   pagecolor="#000"
   bordercolor="#000000"
   borderopacity="0.25"
   inkscape:showpageshadow="2"
   inkscape:pageopacity="0.0"
   inkscape:pagecheckerboard="0"
   inkscape:deskcolor="#d1d1d1"
   showgrid="false"
   inkscape:zoom="12.955744"
   inkscape:cx="9.300894"
   inkscape:cy="6.9081329"
   inkscape:window-width="1377"
   inkscape:window-height="681"
   inkscape:window-x="0"
   inkscape:window-y="38"
   inkscape:window-maximized="0"
   inkscape:current-layer="svg694"
   showguides="true"><sodipodi:guide
     position="7.4484338,3.2995129"
     orientation="1,0"
     id="guide9544"
     inkscape:locked="false" /><sodipodi:guide
     position="9.4552657,3.5310705"
     orientation="1,0"
     id="guide9546"
     inkscape:locked="false" /></sodipodi:namedview>
  
<path
   style="line-height:1.03;-inkscape-font-specification:'Arial Black, ';fill:#000000"
   d="m 8.4854831,13.897013 a 0.992,0.992 0 0 1 -0.7180001,-0.295 0.97,0.97 0 0 1 -0.296,-0.712 c 0,-0.277 0.096,-0.516 0.289,-0.718 a 0.97,0.97 0 0 1 0.7110001,-0.295 0.946,0.946 0 0 1 0.704,0.295 c 0.193,0.202 0.289,0.441 0.289,0.718 a 0.967,0.967 0 0 1 -0.289,0.712 0.916,0.916 0 0 1 -0.69,0.295 z"
   id="path3007" /><path
   style="fill:none;stroke:#000000;stroke-width:0.616617;stroke-linecap:round;stroke-linejoin:round;stroke-dasharray:none;stroke-opacity:1;paint-order:stroke fill markers"
   d="M 6.6004139,2.0688787 1.0883764,12.429021 c -0.75596056,1.56037 -0.42952852,3.162772 1.1665909,3.432993 l 11.7029777,0.01155 c 0.804392,0.15731 1.282836,-0.163296 1.851258,-0.575056 0.594416,-0.643272 0.751785,-1.565005 0.421121,-2.352006 L 10.208589,1.9134754 C 9.1123535,0.18213533 7.7266141,0.44210389 6.6004139,2.0688787 Z"
   id="path9280"
   sodipodi:nodetypes="cccccccc" /><rect
   style="fill:#000000;stroke:none;stroke-width:0.485455;stroke-linecap:round;stroke-linejoin:round;stroke-dasharray:none;stroke-opacity:1;paint-order:stroke fill markers"
   id="rect9434"
   width="2.0660448"
   height="6.0800753"
   x="7.4144387"
   y="4.7793436"
   ry="1.0177664"
   rx="1.1873941" /></svg>
