<?xml version="1.0" encoding="UTF-8" standalone="no"?>
<svg
   xml:space="preserve"
   viewBox="0 0 30 8"
   version="1.1"
   id="svg5116"
   sodipodi:docname="cert.svg"
   inkscape:version="1.2.1 (9c6d41e4, 2022-07-14)"
   width="30"
   height="8"
   xmlns:inkscape="http://www.inkscape.org/namespaces/inkscape"
   xmlns:sodipodi="http://sodipodi.sourceforge.net/DTD/sodipodi-0.dtd"
   xmlns="http://www.w3.org/2000/svg"
   xmlns:svg="http://www.w3.org/2000/svg"><defs
   id="defs5120" /><sodipodi:namedview
   id="namedview5118"
   pagecolor="#ffffff"
   bordercolor="#000000"
   borderopacity="0.25"
   inkscape:showpageshadow="2"
   inkscape:pageopacity="0.0"
   inkscape:pagecheckerboard="0"
   inkscape:deskcolor="#d1d1d1"
   showgrid="false"
   inkscape:zoom="16.791466"
   inkscape:cx="22.451881"
   inkscape:cy="2.2630543"
   inkscape:window-width="1728"
   inkscape:window-height="1080"
   inkscape:window-x="0"
   inkscape:window-y="37"
   inkscape:window-maximized="0"
   inkscape:current-layer="svg5116"
   showguides="true"><sodipodi:guide
     position="23.365404,14.095323"
     orientation="0,-1"
     id="guide5486"
     inkscape:locked="false" /><sodipodi:guide
     position="24.127319,11.301633"
     orientation="0,-1"
     id="guide5488"
     inkscape:locked="false" /><sodipodi:guide
     position="21.110597,15.635473"
     orientation="0,-1"
     id="guide5508"
     inkscape:locked="false" /><sodipodi:guide
     position="18.417216,12.04774"
     orientation="0,-1"
     id="guide5993"
     inkscape:locked="false" /><sodipodi:guide
     position="9.6189904,6.5348558"
     orientation="0,-1"
     id="guide7973"
     inkscape:locked="false" /><sodipodi:guide
     position="5.1652618,0.75102457"
     orientation="0,-1"
     id="guide7975"
     inkscape:locked="false" /><sodipodi:guide
     position="1.4651442,8.6051683"
     orientation="1,0"
     id="guide8763"
     inkscape:locked="false" /><sodipodi:guide
     position="4.9050481,6.6941106"
     orientation="1,0"
     id="guide8765"
     inkscape:locked="false" /><sodipodi:guide
     position="5.5467869,3.7151805"
     orientation="1,0"
     id="guide10667"
     inkscape:locked="false" /><sodipodi:guide
     position="28.585029,0.54558802"
     orientation="1,0"
     id="guide10834"
     inkscape:locked="false" /></sodipodi:namedview>
  
    <path
   fill="#268ca6"
   d="M 0.04061735,0.012814 H 29.974622 V 8.021288 H 0.04061735 Z"
   id="path5469"
   style="fill:#ff8c00;stroke-width:2.06441;fill-opacity:1" />
    <path
   fill="#268ca6"
   d="M 0.04061735,0.012814 H 4.9113628 V 8.021288 H 0.04061735 Z"
   id="path9565"
   style="fill:#000000;stroke-width:0.832746" /><path
   fill="#ffffff"
   d="M 1.2782066,1.5306913 V 2.1412836 H 1.6677303 V 1.5306913 Z m 1.9239693,0 V 2.1412836 H 3.5941134 V 1.5306913 Z M 1.2782066,2.7861465 v 0.3393253 c 0,0.4513074 0.096536,0.7664986 0.2896091,0.9446082 0.1940377,0.1785923 0.4850951,0.266923 0.8736541,0.266923 0.2751286,0 0.501989,-0.049233 0.6805807,-0.148666 C 3.3006428,4.089387 3.4242095,3.954719 3.491302,3.7843324 3.5598429,3.612015 3.5941134,3.3923948 3.5941134,3.1254718 V 2.7861465 H 3.2021759 v 0.3378772 c 0,0.3484963 -0.062749,0.5825969 -0.1882461,0.7032674 -0.124049,0.1206703 -0.3253274,0.180523 -0.6023865,0.180523 -0.1650771,0 -0.3055374,-0.028478 -0.4213811,-0.085917 A 0.52757115,0.52757115 0 0 1 1.7435119,3.6660754 C 1.69283,3.5540931 1.6677303,3.3730875 1.6677303,3.1235411 V 2.7861465 Z"
   font-family="'Arial Narrow'"
   font-size="15.533px"
   font-stretch="condensed"
   style="line-height:1.03;-inkscape-font-specification:'Arial Narrow Condensed';fill:#cccccc;fill-opacity:1;stroke-width:0.482682"
   id="path5114" />
<path
   fill="#268ca6"
   d="m 2.518195,5.3972068 h 0.150641 v 0.7970078 q 0,0.2005239 -0.039583,0.3294498 -0.03847,0.1279333 -0.1420799,0.202261 -0.1026195,0.074452 -0.2615737,0.074452 -0.2241011,0 -0.3360269,-0.1336412 Q 1.7785111,6.5330945 1.7785111,6.1942143 V 5.3972068 h 0.1496477 v 0.7961393 q 0,0.1873706 0.029163,0.2710049 0.029163,0.083758 0.09505,0.1280573 0.066755,0.043306 0.1619342,0.043306 0.1599467,0 0.2314201,-0.090459 0.07247,-0.090335 0.07247,-0.3519091 z M 2.9063376,6.7768009 V 5.3972068 H 3.0558618 V 6.7768009 Z M 1.0969077,5.3970826 c -0.14939995,0 -0.26157435,0.044547 -0.33627475,0.1336414 -0.073957,0.089094 -0.1109333,0.2466839 -0.1109333,0.4725215 v 0.7971319 h 0.1497721 V 6.203521 H 1.3893798 V 6.8003774 H 1.5402686 V 6.0032455 c 0,-0.1336412 -0.013151,-0.2433337 -0.039462,-0.3293258 A 0.37474137,0.37474137 0 0 0 1.3584821,5.4715346 c -0.068373,-0.049634 -0.1554805,-0.074452 -0.26145,-0.074452 z m -0.01142,0.164911 c 0.106715,0 0.183648,0.029781 0.231422,0.090087 0.048394,0.060182 0.072469,0.1776918 0.072469,0.3521576 v 0.049634 H 0.79947075 v -0.049634 c 0,-0.1248311 0.00968,-0.2154143 0.029163,-0.2712533 0.019361,-0.05584 0.051004,-0.098401 0.094927,-0.1278091 0.044671,-0.028912 0.098524,-0.043181 0.16193245,-0.043181 z m 2.6614088,-0.164911 c -0.1492763,0 -0.2614499,0.044547 -0.3361503,0.1336414 -0.066016,0.079415 -0.1024946,0.213801 -0.1095686,0.4022884 -0.00318,0.086985 -0.00337,0.1740935 -0.00431,0.2612022 -6.244e-4,0.055592 9.368e-4,0.1026197 0.0028,0.1436922 v 0.011912 h 4.882e-4 c 0.010794,0.2059836 0.046533,0.2435819 0.1077075,0.3170411 0.074574,0.089094 0.1865016,0.1335172 0.3359024,0.1335172 0.1059694,0 0.1933267,-0.024818 0.2616977,-0.074452 0.068993,-0.049634 0.1162727,-0.1170135 0.1420822,-0.2022609 0.053856,-0.1489039 0.04541,-0.2925962 0.043063,-0.4609815 H 4.0365023 v 2.481e-4 H 3.707932 V 6.2150609 H 4.036016 C 4.034056,6.377242 4.01021,6.4878032 3.964051,6.5453793 c -0.047646,0.060307 -0.1248315,0.090211 -0.231422,0.090211 -0.063285,0 -0.1173852,-0.014269 -0.1619323,-0.043181 C 3.5267739,6.5630006 3.49501,6.5203149 3.4754027,6.4644759 3.4622425,6.4265051 3.4538151,6.3720314 3.4495968,6.3020466 V 6.0042381 c 0,-0.124831 0.00956,-0.2154142 0.029033,-0.2712532 0.019482,-0.05584 0.051125,-0.098401 0.09505,-0.1278091 0.04455,-0.028912 0.098525,-0.043181 0.1618088,-0.043181 0.106714,0 0.1837715,0.029781 0.2314211,0.090086 0.024318,0.030277 0.042436,0.075073 0.054604,0.1342618 H 4.1756304 A 0.79204442,0.79204442 0 0 0 4.1506776,5.6739197 0.37474137,0.37474137 0 0 0 4.0083509,5.4715346 C 3.9400996,5.4219003 3.8528694,5.397083 3.7468999,5.397083 Z"
   font-family="'Arial Narrow'"
   font-size="15.533px"
   font-stretch="condensed"
   style="line-height:1.03;-inkscape-font-specification:'Arial Narrow Condensed';fill:#cccccc;fill-opacity:1;stroke-width:0.124087"
   id="path5110" /><path
   fill="#268ca6"
   d="M 0.04061735,10.012814 H 29.974622 v 8.008474 H 0.04061735 Z"
   id="path10725"
   style="fill:#ff2500;stroke-width:2.06441;fill-opacity:1" /><path
   fill="#268ca6"
   d="M 0.04061735,10.012814 H 4.9113628 v 8.008474 H 0.04061735 Z"
   id="path10727"
   style="fill:#000000;stroke-width:0.832746" /><path
   fill="#ffffff"
   d="m 1.2782066,11.530691 v 0.610593 h 0.3895237 v -0.610593 z m 1.9239693,0 v 0.610593 h 0.3919375 v -0.610593 z m -1.9239693,1.255455 v 0.339326 c 0,0.451307 0.096536,0.766498 0.2896091,0.944608 0.1940377,0.178592 0.4850951,0.266923 0.8736541,0.266923 0.2751286,0 0.501989,-0.04923 0.6805807,-0.148666 0.1785923,-0.09895 0.302159,-0.233618 0.3692515,-0.404005 0.068541,-0.172317 0.1028114,-0.391937 0.1028114,-0.65886 V 12.786146 H 3.2021759 v 0.337878 c 0,0.348496 -0.062749,0.582597 -0.1882461,0.703267 -0.124049,0.12067 -0.3253274,0.180523 -0.6023865,0.180523 -0.1650771,0 -0.3055374,-0.02848 -0.4213811,-0.08592 A 0.52757115,0.52757115 0 0 1 1.7435119,13.666075 C 1.69283,13.554093 1.6677303,13.373087 1.6677303,13.123541 v -0.337395 z"
   font-family="'Arial Narrow'"
   font-size="15.533px"
   font-stretch="condensed"
   style="line-height:1.03;-inkscape-font-specification:'Arial Narrow Condensed';fill:#cccccc;fill-opacity:1;stroke-width:0.482682"
   id="path10729" /><path
   fill="#268ca6"
   d="m 2.518195,15.397207 h 0.150641 v 0.797008 q 0,0.200524 -0.039583,0.329449 -0.03847,0.127934 -0.1420799,0.202261 -0.1026195,0.07445 -0.2615737,0.07445 -0.2241011,0 -0.3360269,-0.133641 -0.1110614,-0.133642 -0.1110614,-0.472522 v -0.797007 h 0.1496477 v 0.796139 q 0,0.187371 0.029163,0.271005 0.029163,0.08376 0.09505,0.128057 0.066755,0.04331 0.1619342,0.04331 0.1599467,0 0.2314201,-0.09046 0.07247,-0.09033 0.07247,-0.351909 z m 0.3881426,1.379594 v -1.379594 h 0.1495242 v 1.379594 z M 1.0969077,15.397083 c -0.14939995,0 -0.26157435,0.04455 -0.33627475,0.133641 -0.073957,0.08909 -0.1109333,0.246684 -0.1109333,0.472521 v 0.797132 h 0.1497721 V 16.203521 H 1.3893798 v 0.596856 h 0.1508888 v -0.797132 c 0,-0.133641 -0.013151,-0.243333 -0.039462,-0.329325 A 0.37474137,0.37474137 0 0 0 1.3584821,15.471535 c -0.068373,-0.04963 -0.1554805,-0.07445 -0.26145,-0.07445 z m -0.01142,0.164911 c 0.106715,0 0.183648,0.02978 0.231422,0.09009 0.048394,0.06018 0.072469,0.177691 0.072469,0.352157 v 0.04963 H 0.79947075 v -0.04963 c 0,-0.124831 0.00968,-0.215414 0.029163,-0.271253 0.019361,-0.05584 0.051004,-0.0984 0.094927,-0.127809 0.044671,-0.02891 0.098524,-0.04318 0.16193245,-0.04318 z m 2.6614088,-0.164911 c -0.1492763,0 -0.2614499,0.04455 -0.3361503,0.133641 -0.066016,0.07942 -0.1024946,0.213801 -0.1095686,0.402288 -0.00318,0.08698 -0.00337,0.174094 -0.00431,0.261203 -6.244e-4,0.05559 9.368e-4,0.102619 0.0028,0.143692 v 0.01191 h 4.882e-4 c 0.010794,0.205983 0.046533,0.243582 0.1077075,0.317041 0.074574,0.08909 0.1865016,0.133517 0.3359024,0.133517 0.1059694,0 0.1933267,-0.02482 0.2616977,-0.07445 0.068993,-0.04963 0.1162727,-0.117013 0.1420822,-0.202261 0.053856,-0.148904 0.04541,-0.292596 0.043063,-0.460981 H 4.0365023 v 2.48e-4 H 3.707932 v 0.15213 h 0.328084 c -0.00196,0.162181 -0.025806,0.272742 -0.071965,0.330318 -0.047646,0.06031 -0.1248315,0.09021 -0.231422,0.09021 -0.063285,0 -0.1173852,-0.01427 -0.1619323,-0.04318 -0.043923,-0.02941 -0.075687,-0.07209 -0.095294,-0.127933 -0.01316,-0.03797 -0.021588,-0.09245 -0.025806,-0.162429 v -0.297809 c 0,-0.124831 0.00956,-0.215414 0.029033,-0.271253 0.019482,-0.05584 0.051125,-0.0984 0.09505,-0.127809 0.04455,-0.02891 0.098525,-0.04318 0.1618088,-0.04318 0.106714,0 0.1837715,0.02978 0.2314211,0.09009 0.024318,0.03028 0.042436,0.07507 0.054604,0.134262 H 4.1756304 A 0.79204442,0.79204442 0 0 0 4.1506776,15.67392 0.37474137,0.37474137 0 0 0 4.0083509,15.471535 c -0.068251,-0.04963 -0.1554815,-0.07445 -0.261451,-0.07445 z"
   font-family="'Arial Narrow'"
   font-size="15.533px"
   font-stretch="condensed"
   style="line-height:1.03;-inkscape-font-specification:'Arial Narrow Condensed';fill:#cccccc;fill-opacity:1;stroke-width:0.124087"
   id="path10731" /><text
   xml:space="preserve"
   style="font-style:normal;font-variant:normal;font-weight:normal;font-stretch:normal;font-size:3.96316px;line-height:1.03;font-family:'Arial Narrow';-inkscape-font-specification:'Arial Narrow';text-align:start;text-anchor:start;opacity:1;fill:#000000;fill-opacity:1;stroke-width:2.13983;stroke-linecap:round;stroke-linejoin:round;paint-order:stroke fill markers"
   x="6.5093374"
   y="14.952839"
   id="text10739"
   transform="scale(0.86578977,1.1550148)"><tspan
     sodipodi:role="line"
     id="tspan10737"
     x="6.5093374"
     y="14.952839"
     style="font-style:normal;font-variant:normal;font-weight:normal;font-stretch:normal;font-family:'Arial Black';-inkscape-font-specification:'Arial Black, ';text-align:start;text-anchor:start;stroke-width:2.13983">DEVELOPER</tspan></text><text
   xml:space="preserve"
   style="font-style:normal;font-variant:normal;font-weight:normal;font-stretch:normal;font-size:3.96316px;line-height:1.03;font-family:'Arial Narrow';-inkscape-font-specification:'Arial Narrow';text-align:start;text-anchor:start;opacity:1;fill:#000000;fill-opacity:1;stroke-width:2.13983;stroke-linecap:round;stroke-linejoin:round;paint-order:stroke fill markers"
   x="6.5093374"
   y="6.2949405"
   id="text10747"
   transform="scale(0.86578977,1.1550148)"><tspan
     sodipodi:role="line"
     id="tspan10745"
     x="6.5093374"
     y="6.2949405"
     style="font-style:normal;font-variant:normal;font-weight:normal;font-stretch:normal;font-family:'Arial Black';-inkscape-font-specification:'Arial Black, ';text-align:start;text-anchor:start;stroke-width:2.13983">UX PRO</tspan></text><path
   fill="#268ca6"
   d="M 0.04061735,20.012814 H 29.974622 v 8.008474 H 0.04061735 Z"
   id="path10871"
   style="fill:#00b1ff;stroke-width:2.06441;fill-opacity:1" /><path
   fill="#268ca6"
   d="M 0.04061735,20.012814 H 4.9113628 v 8.008474 H 0.04061735 Z"
   id="path10873"
   style="fill:#000000;stroke-width:0.832746" /><path
   fill="#ffffff"
   d="m 1.2782066,21.530691 v 0.610593 h 0.3895237 v -0.610593 z m 1.9239693,0 v 0.610593 h 0.3919375 v -0.610593 z m -1.9239693,1.255455 v 0.339326 c 0,0.451307 0.096536,0.766498 0.2896091,0.944608 0.1940377,0.178592 0.4850951,0.266923 0.8736541,0.266923 0.2751286,0 0.501989,-0.04923 0.6805807,-0.148666 0.1785923,-0.09895 0.302159,-0.233618 0.3692515,-0.404005 0.068541,-0.172317 0.1028114,-0.391937 0.1028114,-0.65886 V 22.786146 H 3.2021759 v 0.337878 c 0,0.348496 -0.062749,0.582597 -0.1882461,0.703267 -0.124049,0.12067 -0.3253274,0.180523 -0.6023865,0.180523 -0.1650771,0 -0.3055374,-0.02848 -0.4213811,-0.08592 A 0.52757115,0.52757115 0 0 1 1.7435119,23.666075 C 1.69283,23.554093 1.6677303,23.373087 1.6677303,23.123541 v -0.337395 z"
   font-family="'Arial Narrow'"
   font-size="15.533px"
   font-stretch="condensed"
   style="line-height:1.03;-inkscape-font-specification:'Arial Narrow Condensed';fill:#cccccc;fill-opacity:1;stroke-width:0.482682"
   id="path10875" /><path
   fill="#268ca6"
   d="m 2.518195,25.397207 h 0.150641 v 0.797008 q 0,0.200524 -0.039583,0.329449 -0.03847,0.127934 -0.1420799,0.202261 -0.1026195,0.07445 -0.2615737,0.07445 -0.2241011,0 -0.3360269,-0.133641 -0.1110614,-0.133642 -0.1110614,-0.472522 v -0.797007 h 0.1496477 v 0.796139 q 0,0.187371 0.029163,0.271005 0.029163,0.08376 0.09505,0.128057 0.066755,0.04331 0.1619342,0.04331 0.1599467,0 0.2314201,-0.09046 0.07247,-0.09033 0.07247,-0.351909 z m 0.3881426,1.379594 v -1.379594 h 0.1495242 v 1.379594 z M 1.0969077,25.397083 c -0.14939995,0 -0.26157435,0.04455 -0.33627475,0.133641 -0.073957,0.08909 -0.1109333,0.246684 -0.1109333,0.472521 v 0.797132 h 0.1497721 V 26.203521 H 1.3893798 v 0.596856 h 0.1508888 v -0.797132 c 0,-0.133641 -0.013151,-0.243333 -0.039462,-0.329325 A 0.37474137,0.37474137 0 0 0 1.3584821,25.471535 c -0.068373,-0.04963 -0.1554805,-0.07445 -0.26145,-0.07445 z m -0.01142,0.164911 c 0.106715,0 0.183648,0.02978 0.231422,0.09009 0.048394,0.06018 0.072469,0.177691 0.072469,0.352157 v 0.04963 H 0.79947075 v -0.04963 c 0,-0.124831 0.00968,-0.215414 0.029163,-0.271253 0.019361,-0.05584 0.051004,-0.0984 0.094927,-0.127809 0.044671,-0.02891 0.098524,-0.04318 0.16193245,-0.04318 z m 2.6614088,-0.164911 c -0.1492763,0 -0.2614499,0.04455 -0.3361503,0.133641 -0.066016,0.07942 -0.1024946,0.213801 -0.1095686,0.402288 -0.00318,0.08698 -0.00337,0.174094 -0.00431,0.261203 -6.244e-4,0.05559 9.368e-4,0.102619 0.0028,0.143692 v 0.01191 h 4.882e-4 c 0.010794,0.205983 0.046533,0.243582 0.1077075,0.317041 0.074574,0.08909 0.1865016,0.133517 0.3359024,0.133517 0.1059694,0 0.1933267,-0.02482 0.2616977,-0.07445 0.068993,-0.04963 0.1162727,-0.117013 0.1420822,-0.202261 0.053856,-0.148904 0.04541,-0.292596 0.043063,-0.460981 H 4.0365023 v 2.48e-4 H 3.707932 v 0.15213 h 0.328084 c -0.00196,0.162181 -0.025806,0.272742 -0.071965,0.330318 -0.047646,0.06031 -0.1248315,0.09021 -0.231422,0.09021 -0.063285,0 -0.1173852,-0.01427 -0.1619323,-0.04318 -0.043923,-0.02941 -0.075687,-0.07209 -0.095294,-0.127933 -0.01316,-0.03797 -0.021588,-0.09245 -0.025806,-0.162429 v -0.297809 c 0,-0.124831 0.00956,-0.215414 0.029033,-0.271253 0.019482,-0.05584 0.051125,-0.0984 0.09505,-0.127809 0.04455,-0.02891 0.098525,-0.04318 0.1618088,-0.04318 0.106714,0 0.1837715,0.02978 0.2314211,0.09009 0.024318,0.03028 0.042436,0.07507 0.054604,0.134262 H 4.1756304 A 0.79204442,0.79204442 0 0 0 4.1506776,25.67392 0.37474137,0.37474137 0 0 0 4.0083509,25.471535 c -0.068251,-0.04963 -0.1554815,-0.07445 -0.261451,-0.07445 z"
   font-family="'Arial Narrow'"
   font-size="15.533px"
   font-stretch="condensed"
   style="line-height:1.03;-inkscape-font-specification:'Arial Narrow Condensed';fill:#cccccc;fill-opacity:1;stroke-width:0.124087"
   id="path10877" /><text
   xml:space="preserve"
   style="font-style:normal;font-variant:normal;font-weight:normal;font-stretch:normal;font-size:3.96316px;line-height:1.03;font-family:'Arial Narrow';-inkscape-font-specification:'Arial Narrow';text-align:start;text-anchor:start;opacity:1;fill:#000000;fill-opacity:1;stroke-width:2.13983;stroke-linecap:round;stroke-linejoin:round;paint-order:stroke fill markers"
   x="6.5093374"
   y="23.610733"
   id="text10885"
   transform="scale(0.86578977,1.1550148)"><tspan
     sodipodi:role="line"
     id="tspan10883"
     x="6.5093374"
     y="23.610733"
     style="font-style:normal;font-variant:normal;font-weight:normal;font-stretch:normal;font-family:'Arial Black';-inkscape-font-specification:'Arial Black, ';text-align:start;text-anchor:start;stroke-width:2.13983">DESIGNER</tspan></text><path
   fill="#268ca6"
   d="M 0.04061735,-9.987186 H 29.974622 v 8.008474 H 0.04061735 Z"
   id="path10887"
   style="fill:#ffcc00;stroke-width:2.06441" /><path
   fill="#268ca6"
   d="M 0.04061735,-9.987186 H 4.9113628 v 8.008474 H 0.04061735 Z"
   id="path10889"
   style="fill:#000000;stroke-width:0.832746" /><path
   fill="#ffffff"
   d="m 1.2782066,-8.469309 v 0.610593 h 0.3895237 v -0.610593 z m 1.9239693,0 v 0.610593 h 0.3919375 v -0.610593 z m -1.9239693,1.255455 v 0.339326 c 0,0.451307 0.096536,0.766498 0.2896091,0.944608 0.1940377,0.178592 0.4850951,0.266923 0.8736541,0.266923 0.2751286,0 0.501989,-0.04923 0.6805807,-0.148666 0.1785923,-0.09895 0.302159,-0.233618 0.3692515,-0.404005 0.068541,-0.172317 0.1028114,-0.391937 0.1028114,-0.65886 V -7.213854 H 3.2021759 v 0.337878 c 0,0.348496 -0.062749,0.582597 -0.1882461,0.703267 -0.124049,0.12067 -0.3253274,0.180523 -0.6023865,0.180523 -0.1650771,0 -0.3055374,-0.02848 -0.4213811,-0.08592 A 0.52757115,0.52757115 0 0 1 1.7435119,-6.333925 c -0.050682,-0.111982 -0.075782,-0.292988 -0.075782,-0.542534 v -0.337395 z"
   font-family="'Arial Narrow'"
   font-size="15.533px"
   font-stretch="condensed"
   style="line-height:1.03;-inkscape-font-specification:'Arial Narrow Condensed';fill:#cccccc;fill-opacity:1;stroke-width:0.482682"
   id="path10891" /><path
   fill="#268ca6"
   d="m 2.518195,-4.602793 h 0.150641 v 0.797008 q 0,0.200524 -0.039583,0.329449 -0.03847,0.127934 -0.1420799,0.202261 -0.1026195,0.07445 -0.2615737,0.07445 -0.2241011,0 -0.3360269,-0.133641 -0.1110614,-0.133642 -0.1110614,-0.472522 v -0.797007 h 0.1496477 v 0.796139 q 0,0.187371 0.029163,0.271005 0.029163,0.08376 0.09505,0.128057 0.066755,0.04331 0.1619342,0.04331 0.1599467,0 0.2314201,-0.09046 0.07247,-0.09033 0.07247,-0.351909 z m 0.3881426,1.379594 v -1.379594 h 0.1495242 v 1.379594 z M 1.0969077,-4.602917 c -0.14939995,0 -0.26157435,0.04455 -0.33627475,0.133641 -0.073957,0.08909 -0.1109333,0.246684 -0.1109333,0.472521 v 0.797132 h 0.1497721 V -3.796479 H 1.3893798 v 0.596856 h 0.1508888 v -0.797132 c 0,-0.133641 -0.013151,-0.243333 -0.039462,-0.329325 A 0.37474137,0.37474137 0 0 0 1.3584821,-4.528465 c -0.068373,-0.04963 -0.1554805,-0.07445 -0.26145,-0.07445 z m -0.01142,0.164911 c 0.106715,0 0.183648,0.02978 0.231422,0.09009 0.048394,0.06018 0.072469,0.177691 0.072469,0.352157 v 0.04963 H 0.79947075 v -0.04963 c 0,-0.124831 0.00968,-0.215414 0.029163,-0.271253 0.019361,-0.05584 0.051004,-0.0984 0.094927,-0.127809 0.044671,-0.02891 0.098524,-0.04318 0.16193245,-0.04318 z m 2.6614088,-0.164911 c -0.1492763,0 -0.2614499,0.04455 -0.3361503,0.133641 -0.066016,0.07942 -0.1024946,0.213801 -0.1095686,0.402288 -0.00318,0.08698 -0.00337,0.174094 -0.00431,0.261203 -6.244e-4,0.05559 9.368e-4,0.102619 0.0028,0.143692 v 0.01191 h 4.882e-4 c 0.010794,0.205983 0.046533,0.243582 0.1077075,0.317041 0.074574,0.08909 0.1865016,0.133517 0.3359024,0.133517 0.1059694,0 0.1933267,-0.02482 0.2616977,-0.07445 0.068993,-0.04963 0.1162727,-0.117013 0.1420822,-0.202261 0.053856,-0.148904 0.04541,-0.292596 0.043063,-0.460981 H 4.0365023 v 2.48e-4 H 3.707932 v 0.15213 h 0.328084 c -0.00196,0.162181 -0.025806,0.272742 -0.071965,0.330318 -0.047646,0.06031 -0.1248315,0.09021 -0.231422,0.09021 -0.063285,0 -0.1173852,-0.01427 -0.1619323,-0.04318 -0.043923,-0.02941 -0.075687,-0.07209 -0.095294,-0.127933 -0.01316,-0.03797 -0.021588,-0.09245 -0.025806,-0.162429 v -0.297809 c 0,-0.124831 0.00956,-0.215414 0.029033,-0.271253 0.019482,-0.05584 0.051125,-0.0984 0.09505,-0.127809 0.04455,-0.02891 0.098525,-0.04318 0.1618088,-0.04318 0.106714,0 0.1837715,0.02978 0.2314211,0.09009 0.024318,0.03028 0.042436,0.07507 0.054604,0.134262 H 4.1756304 A 0.79204442,0.79204442 0 0 0 4.1506774,-4.32608 0.37474137,0.37474137 0 0 0 4.0083507,-4.528465 c -0.068251,-0.04963 -0.1554815,-0.07445 -0.261451,-0.07445 z"
   font-family="'Arial Narrow'"
   font-size="15.533px"
   font-stretch="condensed"
   style="line-height:1.03;-inkscape-font-specification:'Arial Narrow Condensed';fill:#cccccc;fill-opacity:1;stroke-width:0.124087"
   id="path10893" /><text
   xml:space="preserve"
   style="font-style:normal;font-variant:normal;font-weight:normal;font-stretch:normal;font-size:3.96316px;line-height:1.03;font-family:'Arial Narrow';-inkscape-font-specification:'Arial Narrow';text-align:start;text-anchor:start;opacity:1;fill:#000000;fill-opacity:1;stroke-width:2.13983;stroke-linecap:round;stroke-linejoin:round;paint-order:stroke fill markers"
   x="6.5093374"
   y="-2.3629556"
   id="text10901"
   transform="scale(0.86578977,1.1550148)"><tspan
     sodipodi:role="line"
     id="tspan10899"
     x="6.5093374"
     y="-2.3629556"
     style="font-style:normal;font-variant:normal;font-weight:normal;font-stretch:normal;font-family:'Arial Black';-inkscape-font-specification:'Arial Black, ';text-align:start;text-anchor:start;stroke-width:2.13983">ASSOCIATE</tspan></text><path
   fill="#268ca6"
   d="M 0.04061735,-19.987186 H 29.974622 v 8.008474 H 0.04061735 Z"
   id="path11869"
   style="fill:#b3b3b3;stroke-width:2.06441;fill-opacity:1" /><path
   fill="#268ca6"
   d="M 0.04061735,-19.987186 H 4.9113628 v 8.008474 H 0.04061735 Z"
   id="path11871"
   style="fill:#000000;stroke-width:0.832746" /><path
   fill="#ffffff"
   d="m 1.2782066,-18.469309 v 0.610593 h 0.3895237 v -0.610593 z m 1.9239693,0 v 0.610593 h 0.3919375 v -0.610593 z m -1.9239693,1.255455 v 0.339326 c 0,0.451307 0.096536,0.766498 0.2896091,0.944608 0.1940377,0.178592 0.4850951,0.266923 0.8736541,0.266923 0.2751286,0 0.501989,-0.04923 0.6805807,-0.148666 0.1785923,-0.09895 0.302159,-0.233618 0.3692515,-0.404005 0.068541,-0.172317 0.1028114,-0.391937 0.1028114,-0.65886 v -0.339326 H 3.2021759 v 0.337878 c 0,0.348496 -0.062749,0.582597 -0.1882461,0.703267 -0.124049,0.12067 -0.3253274,0.180523 -0.6023865,0.180523 -0.1650771,0 -0.3055374,-0.02848 -0.4213811,-0.08592 a 0.52757115,0.52757115 0 0 1 -0.2466503,-0.255819 c -0.050682,-0.111982 -0.075782,-0.292988 -0.075782,-0.542534 v -0.337395 z"
   font-family="'Arial Narrow'"
   font-size="15.533px"
   font-stretch="condensed"
   style="line-height:1.03;-inkscape-font-specification:'Arial Narrow Condensed';fill:#cccccc;fill-opacity:1;stroke-width:0.482682"
   id="path11873" /><path
   fill="#268ca6"
   d="m 2.518195,-14.602793 h 0.150641 v 0.797008 q 0,0.200524 -0.039583,0.329449 -0.03847,0.127934 -0.1420799,0.202261 -0.1026195,0.07445 -0.2615737,0.07445 -0.2241011,0 -0.3360269,-0.133641 -0.1110614,-0.133642 -0.1110614,-0.472522 v -0.797007 h 0.1496477 v 0.796139 q 0,0.187371 0.029163,0.271005 0.029163,0.08376 0.09505,0.128057 0.066755,0.04331 0.1619342,0.04331 0.1599467,0 0.2314201,-0.09046 0.07247,-0.09033 0.07247,-0.351909 z m 0.3881426,1.379594 v -1.379594 h 0.1495242 v 1.379594 z m -1.8094299,-1.379718 c -0.14939995,0 -0.26157435,0.04455 -0.33627475,0.133641 -0.073957,0.08909 -0.1109333,0.246684 -0.1109333,0.472521 v 0.797132 h 0.1497721 v -0.596856 H 1.3893798 v 0.596856 h 0.1508888 v -0.797132 c 0,-0.133641 -0.013151,-0.243333 -0.039462,-0.329325 a 0.37474137,0.37474137 0 0 0 -0.1423245,-0.202385 c -0.068373,-0.04963 -0.1554805,-0.07445 -0.26145,-0.07445 z m -0.01142,0.164911 c 0.106715,0 0.183648,0.02978 0.231422,0.09009 0.048394,0.06018 0.072469,0.177691 0.072469,0.352157 v 0.04963 H 0.79947075 v -0.04963 c 0,-0.124831 0.00968,-0.215414 0.029163,-0.271253 0.019361,-0.05584 0.051004,-0.0984 0.094927,-0.127809 0.044671,-0.02891 0.098524,-0.04318 0.16193245,-0.04318 z m 2.6614088,-0.164911 c -0.1492763,0 -0.2614499,0.04455 -0.3361503,0.133641 -0.066016,0.07942 -0.1024946,0.213801 -0.1095686,0.402288 -0.00318,0.08698 -0.00337,0.174094 -0.00431,0.261203 -6.244e-4,0.05559 9.368e-4,0.102619 0.0028,0.143692 v 0.01191 h 4.882e-4 c 0.010794,0.205983 0.046533,0.243582 0.1077075,0.317041 0.074574,0.08909 0.1865016,0.133517 0.3359024,0.133517 0.1059694,0 0.1933267,-0.02482 0.2616977,-0.07445 0.068993,-0.04963 0.1162727,-0.117013 0.1420822,-0.202261 0.053856,-0.148904 0.04541,-0.292596 0.043063,-0.460981 H 4.0365023 v 2.48e-4 H 3.707932 v 0.15213 h 0.328084 c -0.00196,0.162181 -0.025806,0.272742 -0.071965,0.330318 -0.047646,0.06031 -0.1248315,0.09021 -0.231422,0.09021 -0.063285,0 -0.1173852,-0.01427 -0.1619323,-0.04318 -0.043923,-0.02941 -0.075687,-0.07209 -0.095294,-0.127933 -0.01316,-0.03797 -0.021588,-0.09245 -0.025806,-0.162429 v -0.297809 c 0,-0.124831 0.00956,-0.215414 0.029033,-0.271253 0.019482,-0.05584 0.051125,-0.0984 0.09505,-0.127809 0.04455,-0.02891 0.098525,-0.04318 0.1618088,-0.04318 0.106714,0 0.1837715,0.02978 0.2314211,0.09009 0.024318,0.03028 0.042436,0.07507 0.054604,0.134262 h 0.1541168 a 0.79204442,0.79204442 0 0 0 -0.024953,-0.112428 0.37474137,0.37474137 0 0 0 -0.1423267,-0.202385 c -0.068251,-0.04963 -0.1554815,-0.07445 -0.261451,-0.07445 z"
   font-family="'Arial Narrow'"
   font-size="15.533px"
   font-stretch="condensed"
   style="line-height:1.03;-inkscape-font-specification:'Arial Narrow Condensed';fill:#cccccc;fill-opacity:1;stroke-width:0.124087"
   id="path11875" /><text
   xml:space="preserve"
   style="font-style:normal;font-variant:normal;font-weight:normal;font-stretch:normal;font-size:3.96316px;line-height:1.03;font-family:'Arial Narrow';-inkscape-font-specification:'Arial Narrow';text-align:start;text-anchor:start;opacity:1;fill:#000000;fill-opacity:1;stroke-width:2.13983;stroke-linecap:round;stroke-linejoin:round;paint-order:stroke fill markers"
   x="6.5093374"
   y="-11.020853"
   id="text11883"
   transform="scale(0.86578977,1.1550148)"><tspan
     sodipodi:role="line"
     id="tspan11881"
     x="6.5093374"
     y="-11.020853"
     style="font-style:normal;font-variant:normal;font-weight:normal;font-stretch:normal;font-family:'Arial Black';-inkscape-font-specification:'Arial Black, ';text-align:start;text-anchor:start;stroke-width:2.13983">NOVICE</tspan></text><text
   xml:space="preserve"
   style="font-style:normal;font-variant:normal;font-weight:normal;font-stretch:normal;font-size:3.14738px;line-height:1.03;font-family:'Arial Narrow';-inkscape-font-specification:'Arial Narrow';text-align:start;text-anchor:start;opacity:1;fill:#000000;fill-opacity:1;stroke-width:1.69937;stroke-linecap:round;stroke-linejoin:round;paint-order:stroke fill markers"
   x="6.58777"
   y="-14.473656"
   id="text22505"
   transform="scale(0.86578977,1.1550148)"><tspan
     sodipodi:role="line"
     id="tspan22503"
     x="6.58777"
     y="-14.473656"
     style="font-style:normal;font-variant:normal;font-weight:normal;font-stretch:normal;font-family:'Arial Black';-inkscape-font-specification:'Arial Black, ';text-align:start;text-anchor:start;stroke-width:1.69937">CERTIFIED</tspan></text><text
   xml:space="preserve"
   style="font-style:normal;font-variant:normal;font-weight:normal;font-stretch:normal;font-size:3.14738px;line-height:1.03;font-family:'Arial Narrow';-inkscape-font-specification:'Arial Narrow';text-align:start;text-anchor:start;opacity:1;fill:#000000;fill-opacity:1;stroke-width:1.69937;stroke-linecap:round;stroke-linejoin:round;paint-order:stroke fill markers"
   x="6.58777"
   y="-5.8157578"
   id="text22509"
   transform="scale(0.86578977,1.1550148)"><tspan
     sodipodi:role="line"
     id="tspan22507"
     x="6.58777"
     y="-5.8157578"
     style="font-style:normal;font-variant:normal;font-weight:normal;font-stretch:normal;font-family:'Arial Black';-inkscape-font-specification:'Arial Black, ';text-align:start;text-anchor:start;stroke-width:1.69937">CERTIFIED</tspan></text><text
   xml:space="preserve"
   style="font-style:normal;font-variant:normal;font-weight:normal;font-stretch:normal;font-size:3.14738px;line-height:1.03;font-family:'Arial Narrow';-inkscape-font-specification:'Arial Narrow';text-align:start;text-anchor:start;opacity:1;fill:#000000;fill-opacity:1;stroke-width:1.69937;stroke-linecap:round;stroke-linejoin:round;paint-order:stroke fill markers"
   x="6.58777"
   y="2.8421402"
   id="text22513"
   transform="scale(0.86578977,1.1550148)"><tspan
     sodipodi:role="line"
     id="tspan22511"
     x="6.58777"
     y="2.8421402"
     style="font-style:normal;font-variant:normal;font-weight:normal;font-stretch:normal;font-family:'Arial Black';-inkscape-font-specification:'Arial Black, ';text-align:start;text-anchor:start;stroke-width:1.69937">CERTIFIED</tspan></text><text
   xml:space="preserve"
   style="font-style:normal;font-variant:normal;font-weight:normal;font-stretch:normal;font-size:3.14738px;line-height:1.03;font-family:'Arial Narrow';-inkscape-font-specification:'Arial Narrow';text-align:start;text-anchor:start;opacity:1;fill:#000000;fill-opacity:1;stroke-width:1.69937;stroke-linecap:round;stroke-linejoin:round;paint-order:stroke fill markers"
   x="6.58777"
   y="11.500038"
   id="text22517"
   transform="scale(0.86578977,1.1550148)"><tspan
     sodipodi:role="line"
     id="tspan22515"
     x="6.58777"
     y="11.500038"
     style="font-style:normal;font-variant:normal;font-weight:normal;font-stretch:normal;font-family:'Arial Black';-inkscape-font-specification:'Arial Black, ';text-align:start;text-anchor:start;stroke-width:1.69937">CERTIFIED</tspan></text><text
   xml:space="preserve"
   style="font-style:normal;font-variant:normal;font-weight:normal;font-stretch:normal;font-size:3.14738px;line-height:1.03;font-family:'Arial Narrow';-inkscape-font-specification:'Arial Narrow';text-align:start;text-anchor:start;opacity:1;fill:#000000;fill-opacity:1;stroke-width:1.69937;stroke-linecap:round;stroke-linejoin:round;paint-order:stroke fill markers"
   x="6.58777"
   y="20.157934"
   id="text22521"
   transform="scale(0.86578977,1.1550148)"><tspan
     sodipodi:role="line"
     id="tspan22519"
     x="6.58777"
     y="20.157934"
     style="font-style:normal;font-variant:normal;font-weight:normal;font-stretch:normal;font-family:'Arial Black';-inkscape-font-specification:'Arial Black, ';text-align:start;text-anchor:start;stroke-width:1.69937">CERTIFIED</tspan></text></svg>
