<svg xmlns="http://www.w3.org/2000/svg" xml:space="preserve" viewBox="0 0 100 100">
  <path fill="#0064ae" d="M-.184-.281h100.799v100.928H-.184z"/>
    <path fill="#fff" d="M8.096 8.096v1.043h-.01v84.41h.01v.012h84.41v-.012h.092V28.258h-.092v-.18h-12.76l.016-.049H69.25l-8.746 28.8-8.744-28.8H41.248l.016.05h-12.91v.179h-.147v46.125h10.512V40.588h.006a1.16 1.16 0 0 1-.004-.037c0-1.212 1.419-2.194 3.17-2.194 1.75 0 2.808.962 3.168 2.194 3.61 11.76 7.22 23.74 10.115 33.832h10.662l-.074-.248c3.445-11.35 6.894-22.7 10.34-34.051.01-.04.023-.08.037-.12.015-.051.03-.103.047-.155v-.002c.02-.034.047-.057.068-.088.465-.823 1.57-1.361 2.797-1.362 1.586 0 2.903.89 3.015 2.038.01.24.013.459.02.689v39.594c-.267 1.531-1.217 2.159-2.322 2.37H20.967c-1.185-.226-2.19-.93-2.37-2.712V21.379c.2-1.983 1.423-2.632 2.778-2.774h71.13V8.095H8.096z"/>
</svg>