<svg xmlns="http://www.w3.org/2000/svg" xml:space="preserve" viewBox="0 0 50 50">
  <path fill="#006980" d="M31.224-.163v50.357H49.95V-.163h-4.33V4.22h-6.545V-.163zm7.85 9.633h6.545v5.929h-6.544zm0 11.18h6.545v5.928h-6.544zm0 11.178h6.545v5.93h-6.544zm0 11.18h6.545v5.929h-6.544zM3.713 24.437l-3.684.041.05 18.92c-.023 1.337.374 2.448 1.134 3.521a5.95 5.95 0 0 0 4.829 2.49c3.293 0 5.963-2.691 5.963-6.01 0-3.32-2.67-6.01-5.963-6.01-.835.001-1.66.18-2.423.522a210.37 210.37 0 0 1 .007-5.565h14.146c0 3.706-.091 7.487-.116 11.052-.023 1.337.374 2.448 1.134 3.521a5.95 5.95 0 0 0 4.829 2.49c3.293 0 5.963-2.691 5.963-6.01 0-3.32-2.67-6.01-5.963-6.01-.835.001-1.66.18-2.423.522-.066-4.601.094-8.941.094-13.474h-8.293v.004H3.713ZM.04.103V11.35l8.322-5.29 7.602 9.554 5.856-5.342 6.266 7.91-28.045-.297v5.229h29.586V.103Z"/>
</svg>