<svg xmlns="http://www.w3.org/2000/svg" xml:space="preserve" viewBox="0 0 17 17">
  <path fill="none" stroke="#fff" stroke-linecap="square" stroke-width=".558" d="M2.132.464c-.904 0-1.631.728-1.631 1.632v10.122c0 .904.727 1.632 1.631 1.632h4.019l2.4 2.765 2.354-2.765h4.016c.904 0 1.631-.728 1.631-1.632V2.096c0-.904-.727-1.632-1.631-1.632z"/>
    <path fill="#fff" d="M8.548 2.644a.992.992 0 0 0-.718.295.97.97 0 0 0-.296.712c0 .277.096.516.289.718a.97.97 0 0 0 .711.295.946.946 0 0 0 .704-.295c.193-.202.289-.441.289-.718a.967.967 0 0 0-.289-.712.916.916 0 0 0-.69-.295Zm1.02 3.274a43.425 43.425 0 0 1-2.922.169l-.006.437h.936v4.76h-.845v.43h3.733v-.43h-.895Z" font-family="Arial Black" font-size="10.227" font-weight="400" paint-order="stroke fill markers" style="line-height:1.03;-inkscape-font-specification:'Arial Black, '"/>
</svg>