<svg xmlns="http://www.w3.org/2000/svg" xml:space="preserve" viewBox="0 0 17 17">
  <path d="M8.485 13.897a.992.992 0 0 1-.718-.295.97.97 0 0 1-.296-.712 1 1 0 0 1 .29-.718.97.97 0 0 1 .71-.295.946.946 0 0 1 .704.295c.193.202.29.441.29.718a.967.967 0 0 1-.29.712.916.916 0 0 1-.69.295z" style="line-height:1.03;-inkscape-font-specification:'Arial Black, '"/>
    <rect width="2.066" height="6.08" x="7.414" y="4.779" paint-order="stroke fill markers" rx="1.187" ry="1.018"/>
    <path d="M-.046 0h17.032v17.078H-.046z" paint-order="stroke fill markers"/>
    <g fill="#fff" stroke="#000" stroke-linecap="round" stroke-linejoin="round">
    <path stroke-width=".26" d="M7.611 11.837c.24.366.338.483.553.606.551.226.726.723 1.069 1.248l.313.48c.106.19.298.31.467.343.246.049.452.008.463-.158-.06-.177-.082-.34-.225-.49a3.422 3.422 0 0 1-.415-.549 4.035 4.035 0 0 0-.386-.531c-.388-.44-.552-.767-.795-1.411l.363.882.644.768.53.777.565.345 1.333.008 1.28-.397.742-.768.495-1.157c-.9-.578-1.001-.359-1.501-.538l-3.329-.186-1.122.266"/>
        <path stroke-width=".26" d="M4.03 10.578c-.608.178-1.025-.026-1.479-.47-.396-.018-.761-.094-.889-.611-.29-.274-.433-.562-.335-.875-.264-.34-.204-.68-.044-1.02-.076-.605.071-1.007.423-1.224.085-.467.294-.838.801-1.151.458-.571.889-.735 1.385-.729.356-.37.771-.562 1.282-.466.78-.678 1.412-.538 2.04-.38.684-.392 1.012-.272 1.356-.174.61-.162.897.03 1.122.291.615-.259.928-.065 1.239.131.542-.13.592.03.816.204.359-.08.498.191.67.409.578-.052.746.266.948.553.333.162.666.325.772.904.673.306.754.886.947 1.414.445.285.5.747.525 1.224.252.49.224.981-.029 1.472-.105.934-.39 1.679-1 1.687-1.153-.316-2.425-.586-3.635-.588-.901.007-1.748-.034-2.535.287-.183.076-.365.16-.543.244-.288.097-.513.308-.769.418a1.869 1.869 0 0 1-.874.123c-.646-.137-.67-.174-1.123-.597-.247.095-.495-.078-.743-.248-.352-.277-.302-.554-.32-.83"/>
        <path stroke-width=".26" d="M1.983 6.946c-.01-.444.087-.866.656-1.195m.547-.305c.272-.287.618-.412.983-.496m.447.136c.193-.406.542-.74 1.302-.646m.376.285c.153-.27.33-.555 1.138-.463m.424-.274c.242-.188.46-.234.67-.233m1.166-.015-1.078.452m-.598.35c-.12.15-.165.206-.4.198-.213-.029-.294.008-.562.224m-2.404.642c.486-.641 1.018-.635 1.195-.03m-.715.394c-.168.145-.19.305-.203.466m-2.055-.335c.277-.289.626-.347.976-.335M2.837 7.18c.135-.625.418-.64.895-.481M1.75 7.18c-.2.042-.383.216-.485.452m.383 1.5a.937.937 0 0 0 .54.272m.013-.813c.057-.352-.151-.423-.145-.741.058-.254.147-.495.393-.67m.481 1.165c-.067.326-.095.406.103.558.265.221.271.323.169.527-.03.267.035.37.311.49m-.335-2.26c.012.371.22.724.785.63M3.6 7.15c.522.564 1.179.275 1.079-.291m.743.379c.169-.114.164-.224.19-.415.061-.323.179-.5.579-.566.353-.06.473-.174.382-.579m.967-.138c.088.457-.017.298-.148.582-.086.423.004.42-.247.834m1.134-.972c.19-.098.21-.237.19-.378-.173-.782.741-1.02 1.165-1.093m.676-.193c.704.273.822 1-.035.921-.314-.045-.584-.092-.889.19m1.507-1.163c.582-.02.613.163.965.439.184.142.36.132.623.125.28.036.519.153.677.425m-3.51.64c-.148.145-.21.258-.232.408.13.714-.108.726-.73 1.064m2.77-1.822c.784-.31 1.068.268.842.599-.072.104-.202.167-.374.195-.51.06-.845-.055-1.314-.24m-.35.496c.004.305.203.474.157.72.027.279-.25.54-.641.732-.755.354-1.22.363-1.92.005m-.729.626c.048.439-.225.453-.466.51m-.321-.174c-.223.358-.535.418-.947.146m-.613 1.151c.028.489.219.811.904.627m.102-.817c.59.671 1.342.378 1.487-.291m-1.035 1.415c.67.333.817-.031 1.095-.326.151.013.308.03.46.018.343-.071.38-.392.85-.335m-.787-.976c.168.279.496.371.809.25.376-.256.56-.46.881-.469m2.026-2.506c.026.901-.16 1.235-.874 1.748m-.496.627c.6.594 1.191.112 1.093-.408m.438 1.108c-.2.38-.298.559-.456.58-.575.033-.912-.422-1.35-.348-.269.042-.399.642-.993.424m3.294-1.414a1.6 1.6 0 0 0 .404.907c.265.284.017.682-.55.74m-.218-2.697c.338.112.904.053.787-.655m.364-1.705c.17.187.233.302.22.399-.2.305-.3.404-.247.524.653.286.723.621.158 1.175m.539-1.472c.694.428.418.798.606 1.344.098.275.29.44.517.595m-1.327.422c.085.245.444.53.817.088m.247.277c.298.243.426.568.204 1.063m.248.525c-.045.217-.157.38-.437.408m-1.443.248c.847-.152 1.09-.275 1.102-.868m-.184-.823c-.01.33-.14.565-.48.627"/>
        <path stroke-width=".26" d="M8.916 6.403c-.352.388-.584.442-.978.518a1.757 1.757 0 0 0-.767.289c-.358.421-.863.413-1.319.562-.31.103-.582.261-.836.554-.602.262-.689.56-.847 1.121-.044.186-.114.352-.097.586l-.03.592m5.999 2.966c.169.24.492.47.805.606.776.291 1.983-.006 2.566-.376.676-.44 1.133-1.145 1.173-1.984"/>
        <path stroke-width=".154" d="M10.369 11.2c.98.268 1.943.599 2.63.47M9.7 11.39l1.362.288c.727.266 1.142.385 1.84.279.213-.033.426-.075.64-.112"/>
        <path stroke-width=".154" d="M9.19 11.423c.29.067.64.29 1.062.375.704.14 1.393.436 1.887.605.709-.064 1.498-.19 2.096-.343m-2.065.367c.83.254 1.25.061 2.073-.112m.047.287c-.256-.016-.49.035-.725.08"/>
        <path stroke-width=".154" d="M8.958 11.582c.709.423 1.572.58 2.253.843.541.211 1.074.45 1.55.51.411.05.816.018 1.266-.022m-4.871-.93c.67.474 1.082.566 1.85.77m.837.256c.701.196 1.294.344 2.009.374m-1.802-.143c.59.238.993.34 1.603.375m-2.009-.367c.49.291 1.112.442 1.746.582m-2.248-.646c.57.418 1.253.585 1.913.813m-2.487-.948c.687.628 1.236.78 2.088 1.1m-1.626-.479c.454.245.962.516 1.069.598m-1.961-1.307c.437.63.827.895 1.434 1.323m-1.729-1.371c.314.477.595.69 1.148 1.275"/>
  </g>
</svg>