<svg xmlns="http://www.w3.org/2000/svg" xml:space="preserve" viewBox="0 0 17 17">
  <path fill="#fff" d="M.015-.001v16.983h17.023V0H.015zm4.267 2.09c1.03 0 1.864.862 1.863 1.924.143.958-.803 4.766-.84 5.63l-1.844.002c-.04-.845-.88-3.789-1.042-5.632 0-1.062.834-1.924 1.863-1.924zm4.234 0c1.029 0 1.863.862 1.863 1.924.142.958-.804 4.766-.842 5.63l-1.843.002c-.04-.845-.88-3.789-1.041-5.632 0-1.062.834-1.924 1.863-1.924zm4.233 0c1.03 0 1.863.862 1.863 1.924.143.958-.803 4.766-.841 5.63l-1.844.002c-.04-.845-.88-3.789-1.04-5.632-.001-1.062.833-1.924 1.862-1.924zm-8.38 9.485a1.563 1.563 0 0 1 1.562 1.563A1.563 1.563 0 0 1 4.368 14.7a1.563 1.563 0 0 1-1.562-1.563 1.563 1.563 0 0 1 1.562-1.563zm4.233 0a1.563 1.563 0 0 1 1.562 1.563A1.563 1.563 0 0 1 8.602 14.7a1.563 1.563 0 0 1-1.563-1.563 1.563 1.563 0 0 1 1.563-1.563zm4.233 0a1.563 1.563 0 0 1 1.563 1.563 1.563 1.563 0 0 1-1.563 1.563 1.563 1.563 0 0 1-1.563-1.563 1.563 1.563 0 0 1 1.563-1.563z"/>
</svg>