<?xml version="1.0" encoding="UTF-8" standalone="no"?>
<svg
   xml:space="preserve"
   viewBox="0 0 17 17"
   version="1.1"
   id="svg694"
   sodipodi:docname="video.svg"
   inkscape:version="1.2.1 (9c6d41e4, 2022-07-14)"
   xmlns:inkscape="http://www.inkscape.org/namespaces/inkscape"
   xmlns:sodipodi="http://sodipodi.sourceforge.net/DTD/sodipodi-0.dtd"
   xmlns="http://www.w3.org/2000/svg"
   xmlns:svg="http://www.w3.org/2000/svg"><defs
   id="defs698" /><sodipodi:namedview
   id="namedview696"
   pagecolor="#000"
   bordercolor="#000000"
   borderopacity="0.25"
   inkscape:showpageshadow="2"
   inkscape:pageopacity="0.0"
   inkscape:pagecheckerboard="0"
   inkscape:deskcolor="#d1d1d1"
   showgrid="false"
   inkscape:zoom="21.665063"
   inkscape:cx="6.2543091"
   inkscape:cy="8.2852286"
   inkscape:window-width="1377"
   inkscape:window-height="681"
   inkscape:window-x="0"
   inkscape:window-y="38"
   inkscape:window-maximized="0"
   inkscape:current-layer="svg694"
   showguides="true"><sodipodi:guide
     position="-12.000888,18.338561"
     orientation="1,0"
     id="guide9546"
     inkscape:locked="false" /></sodipodi:namedview>
  
<path
   style="line-height:1.03;-inkscape-font-specification:'Arial Black, ';fill:#000000"
   d="m 8.4854831,13.897013 a 0.992,0.992 0 0 1 -0.7180001,-0.295 0.97,0.97 0 0 1 -0.296,-0.712 c 0,-0.277 0.096,-0.516 0.289,-0.718 a 0.97,0.97 0 0 1 0.7110001,-0.295 0.946,0.946 0 0 1 0.704,0.295 c 0.193,0.202 0.289,0.441 0.289,0.718 a 0.967,0.967 0 0 1 -0.289,0.712 0.916,0.916 0 0 1 -0.69,0.295 z"
   id="path3007" /><rect
   style="fill:#000000;stroke:none;stroke-width:0.485455;stroke-linecap:round;stroke-linejoin:round;stroke-dasharray:none;stroke-opacity:1;paint-order:stroke fill markers"
   id="rect9434"
   width="2.0660448"
   height="6.0800753"
   x="7.4144387"
   y="4.7793436"
   ry="1.0177664"
   rx="1.1873941" /><rect
   style="fill:#e33122;fill-opacity:1;stroke-width:7.55906;stroke-linecap:round;stroke-linejoin:round;paint-order:stroke fill markers"
   id="rect704"
   width="17.03203"
   height="17.078188"
   x="-0.046157263"
   y="0" /><path
   id="rect1034"
   style="fill:#ffffff;fill-opacity:1;stroke-width:6.62248;stroke-linecap:round;stroke-linejoin:round;paint-order:stroke fill markers"
   d="M 5.303887,13.244177 11.757566,8.5726352 5.303887,3.9010983 Z"
   sodipodi:nodetypes="cccc" /></svg>
